<?xml version="1.0" standalone="no"?>
<!DOCTYPE svg PUBLIC "-//W3C//DTD SVG 1.1//EN" "http://www.w3.org/Graphics/SVG/1.1/DTD/svg11.dtd" >
<svg xmlns="http://www.w3.org/2000/svg" xmlns:xlink="http://www.w3.org/1999/xlink" version="1.1">
<metadata>
Created by FontForge 20170731 at Thu Apr 21 17:41:57 2022
 By Aleksey,,,
Copyright (c) 2019 by Mathieu Desjardins. All rights reserved.
</metadata>
<defs>
<font id="NeueMachina-Bold" horiz-adv-x="2179" >
  <font-face 
    font-family="Neue Machina"
    font-weight="700"
    font-stretch="normal"
    units-per-em="2048"
    panose-1="0 0 8 0 0 0 0 0 0 0"
    ascent="1638"
    descent="-410"
    x-height="1028"
    cap-height="1444"
    bbox="-1102 -653 3357 2036"
    underline-thickness="102"
    underline-position="-255"
    unicode-range="U+0020-277E"
  />
<missing-glyph horiz-adv-x="989" 
d="M811 1505v-1976h-627v1976h627zM657 1372h-325v-63h129v-74h-131v-66h327v66h-129v74h129v63zM528 1118h-198v-205h327v66h-129v139zM461 1051v-72h-66v72h66zM657 858h-327v-63h131v-74h-131v-66h198v140h129v63zM657 741h-63v-131h-264v-67h327v198zM657 500h-196v-111
h67v45h66v-92h-199v158h-65v-224h327v224zM657 158h-327v-224h327v224zM594 92v-92h-199v92h199zM657 -111h-327v-65h139l-139 -94v-64h327v64h-200l137 94h63v65z" />
    <glyph glyph-name="f_f" unicode="ff" horiz-adv-x="1634" 
d="M1399 1276q-82 0 -117 -40t-35 -132v-76h299v-229h-299v-570h299v-229h-1474v229h243v570h-243v229h243q6 197 120.5 299.5t320.5 102.5h370q110 75 301 75h177v-229h-205zM985 1028v84q0 44 6 88h-235q-93 0 -132 -40.5t-44 -131.5h405zM985 229v570h-405v-570h405z" />
    <glyph glyph-name="f_f_i" unicode="ffi" horiz-adv-x="2359" 
d="M2023 229h285v-229h-2236v229h241l2 570h-243v229h243q6 197 120.5 299.5t320.5 102.5h374q114 108 324 96l375 -21v-229l-402 20q-80 3 -115.5 -46t-35.5 -146v-68l586 13q161 3 161 -160v-660zM756 1200q-93 0 -132 -40.5t-44 -131.5h225l207 4v80q0 44 6 88h-262z
M1759 229v584l-483 -8v-576h483zM1012 229v574l-166 -4h-266v-570h432z" />
    <glyph glyph-name="f_i" unicode="fi" horiz-adv-x="1628" 
d="M1290 229h285v-229h-1503v229h209v574l-209 -4v229l209 4v80q0 96 26.5 173.5t79.5 134t138.5 84.5t197.5 22l375 -21v-229l-404 20q-79 3 -115 -46.5t-36 -145.5v-68l587 13q160 3 160 -160v-660zM1028 229v584l-485 -8v-576h485z" />
    <glyph glyph-name=".notdef" horiz-adv-x="989" 
d="M811 1505v-1976h-627v1976h627zM657 1372h-325v-63h129v-74h-131v-66h327v66h-129v74h129v63zM528 1118h-198v-205h327v66h-129v139zM461 1051v-72h-66v72h66zM657 858h-327v-63h131v-74h-131v-66h198v140h129v63zM657 741h-63v-131h-264v-67h327v198zM657 500h-196v-111
h67v45h66v-92h-199v158h-65v-224h327v224zM657 158h-327v-224h327v224zM594 92v-92h-199v92h199zM657 -111h-327v-65h139l-139 -94v-64h327v64h-200l137 94h63v65z" />
    <glyph glyph-name=".null" horiz-adv-x="0" 
 />
    <glyph glyph-name="nonmarkingreturn" horiz-adv-x="682" 
 />
    <glyph glyph-name="space" unicode=" " horiz-adv-x="616" 
 />
    <glyph glyph-name="exclam" unicode="!" horiz-adv-x="714" 
d="M225 1444h264l-45 -928h-174zM356 -20q-91 0 -146.5 57.5t-55.5 146.5q0 86 55.5 143.5t146.5 57.5q89 0 147 -58t58 -143q0 -88 -58 -146t-147 -58z" />
    <glyph glyph-name="quotedbl" unicode="&#x22;" horiz-adv-x="862" 
d="M154 1561h208v-603h-208v603zM500 1561h209v-603h-209v603z" />
    <glyph glyph-name="numbersign" unicode="#" horiz-adv-x="2256" 
d="M2101 852h-446l-160 -438h395v-176h-458l-199 -543l-191 72l172 471h-458l-199 -543l-190 72l172 471h-385v176h448l160 438h-397v176h462l203 557l191 -72l-177 -485h459l203 557l190 -72l-176 -485h381v-176zM1278 414l160 438h-459l-160 -438h459z" />
    <glyph glyph-name="dollar" unicode="$" horiz-adv-x="1591" 
d="M1438 385q0 -391 -555 -405v-283h-174v289q-151 13 -259 57t-172.5 118.5t-94 170t-29.5 219.5h264q0 -163 69.5 -239.5t221.5 -94.5v440q-69 23 -115.5 40t-103 41.5t-92.5 47.5t-73 55.5t-58 68.5t-34.5 82.5t-13.5 101.5q0 169 123.5 264t366.5 104v285h174v-289
q127 -15 224 -61t155 -114.5t87 -150t29 -174.5h-264q0 221 -231 267v-381q68 -22 113 -38t108.5 -42.5t106 -51t89.5 -60.5t74.5 -74t45.5 -87.5t18 -105.5zM483 1087q0 -65 47.5 -103t178.5 -83v332q-226 -13 -226 -146zM883 209q152 4 221.5 45t69.5 125q0 35 -15.5 64.5
t-39.5 50.5t-64.5 41.5t-78.5 35t-93 31.5v-393z" />
    <glyph glyph-name="percent" unicode="%" horiz-adv-x="2480" 
d="M1477 1653l190 -72l-663 -1819l-191 74zM608 616q-200 0 -327 131.5t-127 323.5t127 323.5t327 131.5t327.5 -132t127.5 -323t-127.5 -323t-327.5 -132zM608 819q110 0 182 73.5t72 178.5t-72 178.5t-182 73.5q-109 0 -180.5 -73.5t-71.5 -178.5t71.5 -178.5t180.5 -73.5
zM1872 -102q-200 0 -327.5 131.5t-127.5 322.5t127.5 323t327.5 132t327.5 -132t127.5 -323t-127.5 -322.5t-327.5 -131.5zM1872 100q110 0 181 73.5t71 178.5t-71 178.5t-181 73.5t-181 -73.5t-71 -178.5t71 -178.5t181 -73.5z" />
    <glyph glyph-name="ampersand" unicode="&#x26;" horiz-adv-x="2023" 
d="M1870 -31l-209 -141l-236 303q-232 -164 -559 -164q-213 0 -372.5 63t-249.5 188t-90 298q0 104 35 187t93.5 134t130.5 78t150 27q159 0 264 -117v68l-333 426l-2 125h1101v-230h-739l582 -712q112 195 112 485h262q0 -417 -208 -688zM866 197q248 0 410 122l-186 240
q-91 117 -177.5 166t-201.5 49q-130 0 -211.5 -70t-81.5 -196q0 -152 116.5 -231.5t331.5 -79.5z" />
    <glyph glyph-name="quotesingle" unicode="'" horiz-adv-x="518" 
d="M154 1561h208v-603h-208v603z" />
    <glyph glyph-name="parenleft" unicode="(" horiz-adv-x="907" 
d="M752 -127v-180q-155 30 -271 107.5t-187 193t-105.5 259t-34.5 316.5t34.5 316.5t105.5 259t187 192.5t271 107v-180q-90 -26 -158 -72.5t-112 -107.5t-71 -143t-38 -171.5t-11 -200.5t11 -200.5t38 -171.5t71 -143.5t112 -108t158 -72.5z" />
    <glyph glyph-name="parenright" unicode=")" horiz-adv-x="907" 
d="M154 -127q112 32 189.5 94.5t120.5 155t61 199.5t18 247t-18 247t-61 199t-120.5 154.5t-189.5 94.5v180q155 -30 271 -107t187 -192.5t105.5 -259t34.5 -316.5t-34.5 -316.5t-105.5 -259t-187 -193t-271 -107.5v180z" />
    <glyph glyph-name="asterisk" unicode="*" horiz-adv-x="1052" 
d="M113 1143l55 168l213 -70l92 -70l-33 109v225h174v-225l-34 -111l90 68l215 68l53 -166l-213 -70l-115 -2l90 -63l131 -183l-141 -102l-131 180l-37 109l-35 -105l-133 -182l-141 102l133 183l92 65l-110 4z" />
    <glyph glyph-name="plus" unicode="+" horiz-adv-x="1361" 
d="M1208 639v-203h-426v-426h-202v426h-426v203h426v426h202v-426h426z" />
    <glyph glyph-name="comma" unicode="," horiz-adv-x="612" 
d="M256 356l203 -53l-185 -672l-202 54z" />
    <glyph glyph-name="hyphen" unicode="-" horiz-adv-x="1361" 
d="M154 639h1054v-203h-1054v203z" />
    <glyph glyph-name="period" unicode="." horiz-adv-x="714" 
d="M356 -20q-91 0 -146.5 57.5t-55.5 146.5q0 86 55.5 143.5t146.5 57.5q89 0 147 -58t58 -143q0 -88 -58 -146t-147 -58z" />
    <glyph glyph-name="slash" unicode="/" horiz-adv-x="1081" 
d="M778 1667l191 -72l-666 -1818l-190 71z" />
    <glyph glyph-name="zero" unicode="0" horiz-adv-x="1525" 
d="M764 1464q207 0 357.5 -95t227 -261.5t76.5 -384.5q0 -219 -76.5 -386t-227 -262t-357.5 -95q-156 0 -282 55t-209.5 153t-128 234.5t-44.5 300.5q0 218 76.5 384.5t228 261.5t359.5 95zM764 1235q-192 0 -297 -136t-105 -376q0 -150 39 -254l607 686q-99 80 -244 80z
M764 209q192 0 295.5 136t103.5 378q0 145 -37 252l-608 -684q97 -82 246 -82z" />
    <glyph glyph-name="one" unicode="1" horiz-adv-x="1107" 
d="M80 844q198 78 282.5 220t86.5 380h518v-1444h-265v1219l50 157h-70q-6 -96 -17.5 -171t-34 -155t-59.5 -142.5t-90.5 -120.5t-132 -102.5t-178.5 -76.5z" />
    <glyph glyph-name="two" unicode="2" horiz-adv-x="1402" 
d="M92 768q0 182 51 319t142 217.5t207.5 120t257.5 39.5q252 0 403.5 -127t151.5 -358q0 -101 -29.5 -185.5t-79.5 -148.5t-132 -118.5t-169 -93t-210.5 -73.5t-237 -59t-265.5 -51v-68l170 47h953v-229h-1192v461q41 6 71.5 10.5t104 18t131 28t139.5 39.5t144 52.5
t128.5 68t109.5 85t71 103t28 123.5q0 113 -70.5 179.5t-215.5 66.5q-197 0 -297.5 -110.5t-100.5 -356.5h-264z" />
    <glyph glyph-name="three" unicode="3" horiz-adv-x="1429" 
d="M86 551h264q0 -193 86 -267.5t291 -74.5q171 0 248.5 53.5t77.5 165.5q0 207 -232 207h-200v229h200q211 0 211 178q0 96 -69.5 144.5t-235.5 48.5q-198 0 -277 -62.5t-79 -211.5h-265q0 129 44.5 226.5t127.5 157.5t195 89.5t254 29.5q262 0 415.5 -102t153.5 -285
q0 -73 -22.5 -125.5t-68 -85t-98.5 -51t-128 -31.5v-67q63 -11 106.5 -22.5t91 -35t75.5 -56t46.5 -85.5t18.5 -123q0 -134 -76 -228.5t-207.5 -140.5t-306.5 -46q-114 0 -209.5 19t-176.5 61.5t-136.5 108t-87 162.5t-31.5 220z" />
    <glyph glyph-name="four" unicode="4" horiz-adv-x="1396" 
d="M1305 504v-230h-170v-274h-263v274h-759v478q260 68 421 246t185 446h262q-27 -341 -227 -575t-572 -345v-69l170 49h520v401h263v-401h170z" />
    <glyph glyph-name="five" unicode="5" horiz-adv-x="1476" 
d="M100 524h262q0 -157 94 -236t292 -79q182 0 267 82t85 246q0 137 -67 209.5t-202 72.5q-197 0 -325 -170l-307 172v623h1054v-230h-790v-264l-49 -157l57 -33q59 140 170 214.5t264 74.5q204 0 331.5 -136t127.5 -374q0 -185 -77.5 -312t-214 -187t-324.5 -60
q-144 0 -261 33t-204 98.5t-135 170.5t-48 242z" />
    <glyph glyph-name="six" unicode="6" horiz-adv-x="1452" 
d="M113 696q0 141 23 260.5t75 220.5t130.5 168.5t194.5 99.5t261 19l456 -41v-229l-456 41q-215 20 -333 -83t-159 -318l-67 -158h67q16 112 87.5 197.5t181.5 130.5t243 45q256 0 402.5 -143t146.5 -384t-168.5 -391.5t-456.5 -150.5q-292 0 -460 181t-168 535zM377 502
q0 -56 23 -108t67 -93.5t115 -66.5t159 -25q180 0 270.5 76.5t90.5 236.5q0 146 -85.5 221.5t-254.5 75.5q-185 0 -285 -83t-100 -234z" />
    <glyph glyph-name="seven" unicode="7" horiz-adv-x="1228" 
d="M268 0q0 456 211 749t615 445v68l-156 -48h-872v230h1097v-397q-219 -98 -353.5 -235.5t-199.5 -336t-65 -475.5h-277z" />
    <glyph glyph-name="eight" unicode="8" horiz-adv-x="1396" 
d="M66 401q0 86 29.5 150t85 105t122 65t154.5 39v69q-66 11 -117.5 30t-97.5 52.5t-70.5 88t-24.5 126.5q0 91 45 158.5t124.5 105.5t174.5 56t207 18q111 0 206 -18t174.5 -56t125 -105.5t45.5 -158.5q0 -72 -25 -126.5t-71 -88t-97.5 -52.5t-117.5 -30v-69
q86 -15 154.5 -41.5t123.5 -68.5t85 -105.5t30 -143.5q0 -206 -168.5 -313.5t-464.5 -107.5q-297 0 -464.5 107t-167.5 314zM412 1071q0 -89 70 -126.5t216 -37.5t216.5 37.5t70.5 126.5q0 88 -70.5 126t-216.5 38t-216 -38t-70 -126zM330 442q0 -233 368 -233
q369 0 369 233q0 113 -91 174.5t-278 61.5q-368 0 -368 -236z" />
    <glyph glyph-name="nine" unicode="9" horiz-adv-x="1452" 
d="M1339 748q0 -141 -23 -260.5t-75 -220.5t-130.5 -168.5t-194.5 -99.5t-261 -19l-456 40v230l456 -41q215 -20 333 83t159 318l67 158h-67q-16 -112 -87.5 -197.5t-181.5 -130.5t-243 -45q-256 0 -402.5 143t-146.5 384t168.5 391.5t456.5 150.5q292 0 460 -181t168 -535z
M1075 942q0 56 -23 108t-67 93.5t-115 66.5t-159 25q-180 0 -270.5 -76.5t-90.5 -236.5q0 -146 85.5 -221.5t254.5 -75.5q185 0 285 83t100 234z" />
    <glyph glyph-name="colon" unicode=":" horiz-adv-x="714" 
d="M356 641q-91 0 -146.5 58.5t-55.5 146.5q0 87 56 145t146 58q88 0 146.5 -58.5t58.5 -144.5q0 -87 -58 -146t-147 -59zM356 -20q-91 0 -146.5 57.5t-55.5 146.5q0 86 55.5 143.5t146.5 57.5q89 0 147 -58t58 -143q0 -88 -58 -146t-147 -58z" />
    <glyph glyph-name="semicolon" unicode=";" horiz-adv-x="755" 
d="M397 641q-91 0 -146.5 58.5t-55.5 146.5q0 87 56 145t146 58q88 0 146.5 -58.5t58.5 -144.5q0 -87 -58 -146t-147 -59zM256 356l203 -53l-185 -672l-202 54z" />
    <glyph glyph-name="less" unicode="&#x3c;" horiz-adv-x="1372" 
d="M154 399v213l995 373l70 -192l-824 -287l824 -270l-70 -193z" />
    <glyph glyph-name="equal" unicode="=" horiz-adv-x="1361" 
d="M154 858h1054v-203h-1054v203zM154 420h1054v-201h-1054v201z" />
    <glyph glyph-name="greater" unicode="&#x3e;" horiz-adv-x="1372" 
d="M1219 399l-996 -356l-69 193l823 270l-823 287l69 192l996 -373v-213z" />
    <glyph glyph-name="question" unicode="?" horiz-adv-x="1093" 
d="M113 1079q0 191 116.5 308.5t345.5 117.5q105 0 185.5 -27.5t127.5 -75.5t70 -106.5t23 -126.5q0 -376 -686 -462v-58l127 43h455v-176h-652v348q75 3 145 13t145.5 32.5t130.5 55t90.5 85.5t35.5 119q0 79 -52 120.5t-147 41.5q-131 0 -191 -63t-60 -189h-209zM547 -20
q-91 0 -146 57.5t-55 146.5q0 87 55 144t146 57q89 0 147 -58t58 -143q0 -88 -58 -146t-147 -58z" />
    <glyph glyph-name="at" unicode="@" horiz-adv-x="2226" 
d="M1413 182v37l47 143h-67q-32 -137 -137 -220t-261 -83q-212 0 -339.5 144.5t-127.5 384.5q0 238 127.5 382t339.5 144q156 0 261 -83t137 -220h67l-47 158v104h209v-844h47q215 0 215 422q0 325 -197.5 512t-549.5 187q-173 0 -322 -59.5t-252.5 -162t-162 -244.5
t-58.5 -302q0 -168 58 -313t161.5 -246.5t256.5 -152t333 -34.5l750 68v-174l-750 -70q-209 -18 -393.5 42.5t-317 182t-209.5 302.5t-77 395q0 215 77 394t210 298t312.5 184.5t383.5 65.5q272 0 484.5 -106.5t332 -305.5t119.5 -461q0 -120 -26.5 -225t-79.5 -189
t-141.5 -133t-203.5 -49h-96q-113 0 -113 127zM1034 233q145 0 225 90.5t80 264.5q0 172 -80 262t-225 90q-143 0 -220 -89.5t-77 -262.5q0 -175 77 -265t220 -90z" />
    <glyph glyph-name="A" unicode="A" horiz-adv-x="1519" 
d="M1202 0l-149 504h-586l-150 -504h-266l436 1444h543l438 -1444h-266zM535 733h448l-190 643h-68z" />
    <glyph glyph-name="B" unicode="B" horiz-adv-x="1390" 
d="M133 0v1444h459q120 0 207.5 -9.5t160.5 -33t117.5 -63.5t69 -101.5t24.5 -146.5q0 -71 -20 -124t-49.5 -83.5t-75 -50t-85.5 -27t-93 -10.5v-70q73 -2 129.5 -10t115.5 -30.5t97.5 -58.5t63 -98t24.5 -145q0 -92 -31.5 -160t-85.5 -110t-137 -68t-173.5 -35.5
t-207.5 -9.5h-510zM397 866h221q60 0 98 2.5t78 12.5t62 28.5t36.5 51t14.5 79.5q0 41 -8.5 71t-28.5 49t-41 30t-59.5 16t-69 6.5t-82.5 1.5h-221v-348zM397 229h273q73 0 119.5 3t93.5 14.5t73 33.5t42 59.5t16 92.5q0 54 -16 91.5t-42.5 59.5t-72.5 34t-94 16t-119 4
h-273v-408z" />
    <glyph glyph-name="C" unicode="C" horiz-adv-x="1630" 
d="M113 723q0 157 49.5 293t140 235t226 156t298.5 57q292 0 475.5 -154.5t215.5 -422.5h-265q-24 167 -136 257.5t-286 90.5q-214 0 -334 -136.5t-120 -375.5q0 -240 120 -377t334 -137q173 0 285 91.5t137 258.5h265q-32 -270 -215.5 -424.5t-475.5 -154.5q-163 0 -298 57
t-226 156.5t-140.5 235.5t-49.5 294z" />
    <glyph glyph-name="D" unicode="D" horiz-adv-x="1511" 
d="M637 1444q86 0 159.5 -7t153 -27.5t143 -53.5t122 -88.5t97.5 -129.5t62 -179.5t23 -235.5t-23 -236t-62 -180t-97.5 -130t-122 -89t-143 -53.5t-153 -27.5t-159.5 -7h-504v1444h504zM637 229q64 0 109 3t101 14t94.5 31.5t77.5 57t62.5 88t38.5 127.5t15 173
q0 75 -9 138t-24 110t-39.5 84t-50.5 62.5t-62.5 43.5t-69.5 28t-77.5 16t-80.5 7.5t-85 1.5h-240v-985h240z" />
    <glyph glyph-name="E" unicode="E" horiz-adv-x="1202" 
d="M133 0v1444h977v-230h-713v-376h611v-230h-611v-379h713v-229h-977z" />
    <glyph glyph-name="F" unicode="F" horiz-adv-x="1222" 
d="M133 0v1444h997v-230h-733v-479l666 41v-233l-666 -41v-502h-264z" />
    <glyph glyph-name="G" unicode="G" horiz-adv-x="1759" 
d="M113 723q0 215 89 383.5t251 263t368 94.5q268 0 445.5 -148.5t210.5 -387.5h-265q-26 153 -119 230t-272 77q-214 0 -329 -132t-115 -380q0 -255 96.5 -384.5t302.5 -129.5q176 0 268 95.5t89 285.5h-398v201h738q153 0 153 -150v-641h-264v514l49 209h-70
q-2 -361 -144.5 -552t-428.5 -191q-209 0 -358.5 95.5t-223 261.5t-73.5 386z" />
    <glyph glyph-name="H" unicode="H" horiz-adv-x="1570" 
d="M1174 1444h262v-1444h-262v592h-777v-592h-264v1444h264v-623h777v623z" />
    <glyph glyph-name="I" unicode="I" horiz-adv-x="1140" 
d="M1028 1214h-326v-985h326v-229h-915v229h325v985h-325v230h915v-230z" />
    <glyph glyph-name="J" unicode="J" horiz-adv-x="1044" 
d="M406 -20l-355 20v229l355 -20q51 -3 90 5t67 24t47 47t30.5 64.5t17.5 86.5t8 103.5t2 124.5v571l-412 -21v230l522 20q73 3 113.5 -38t40.5 -115v-721q0 -130 -13 -224t-47.5 -174.5t-93 -127.5t-151.5 -69.5t-221 -14.5z" />
    <glyph glyph-name="K" unicode="K" horiz-adv-x="1495" 
d="M1442 1444l-873 -723l873 -721h-383l-662 551v-551h-264v1444h264v-553l662 553h383z" />
    <glyph glyph-name="L" unicode="L" horiz-adv-x="1161" 
d="M289 -20q-74 -2 -115 38t-41 113v1313h264v-1235l713 20v-229z" />
    <glyph glyph-name="M" unicode="M" horiz-adv-x="1959" 
d="M133 0v1444h522l291 -1376h68l291 1376h522v-1444h-264v1204l49 172h-70l-303 -1376h-516l-305 1376h-68l47 -172v-1204h-264z" />
    <glyph glyph-name="N" unicode="N" horiz-adv-x="1624" 
d="M133 0v1444h522l551 -1376h68l-47 172v1204h262v-1444h-522l-549 1376h-68l47 -172v-1204h-264z" />
    <glyph glyph-name="O" unicode="O" horiz-adv-x="1648" 
d="M113 723q0 157 49.5 293t139.5 235t225 156t298 57q216 0 379 -98t247.5 -265t84.5 -378q0 -212 -84.5 -379.5t-247.5 -265.5t-379 -98q-163 0 -298 57t-225 156.5t-139.5 235.5t-49.5 294zM377 723q0 -236 115 -375t333 -139t332.5 139t114.5 375q0 235 -114.5 373.5
t-332.5 138.5t-333 -138.5t-115 -373.5z" />
    <glyph glyph-name="P" unicode="P" horiz-adv-x="1323" 
d="M606 1444q118 0 206.5 -11.5t170.5 -43.5t134 -85.5t83 -142t31 -209.5q0 -122 -31 -211t-83 -143t-134.5 -86t-170.5 -43.5t-206 -11.5h-209v-457h-264v1444h473zM621 686q90 0 146.5 8.5t105.5 35.5t71.5 81.5t22.5 140.5q0 68 -16 116t-43 76t-73 44t-94.5 21
t-119.5 5h-224v-528h224z" />
    <glyph glyph-name="Q" unicode="Q" horiz-adv-x="1658" 
d="M1059 -80q161 10 333.5 -2.5t419.5 -50.5v-229q-385 60 -696 62.5t-686 -50.5l-24 215q16 2 91 10.5t106 13t100.5 14.5t111.5 20.5t99.5 26t104.5 35.5t89 44l-35 57q-107 -86 -328 -86q-128 0 -243.5 53t-201.5 146.5t-136.5 230.5t-50.5 297q0 157 51.5 292.5
t144.5 234t230 154.5t301 56q217 0 382 -94.5t253 -262.5t88 -384q0 -127 -29 -240t-76 -197.5t-114 -156.5t-136.5 -121.5t-148.5 -87.5zM840 215q217 0 337.5 138t120.5 370t-121 372t-337 140q-217 0 -340 -138.5t-123 -369.5q0 -233 123 -372.5t340 -139.5z" />
    <glyph glyph-name="R" unicode="R" horiz-adv-x="1423" 
d="M133 0v1444h529q109 0 196 -10.5t166.5 -38.5t132.5 -72.5t84 -116t31 -166.5q0 -284 -328 -329v-70h197q149 0 149 -147v-494h-264v537h-629v-537h-264zM397 766h265q54 0 87.5 1t74.5 6t65 14t49.5 25t39 39.5t22 58t8.5 79.5q0 46 -8.5 81t-21.5 58.5t-39 40t-50 25.5
t-65.5 13.5t-74 5.5t-87.5 1h-265v-448z" />
    <glyph glyph-name="S" unicode="S" horiz-adv-x="1427" 
d="M1356 385q0 -92 -32 -163.5t-100 -127t-185 -85t-277 -29.5q-189 0 -324 38.5t-214.5 114.5t-115.5 178.5t-36 239.5h264q0 -101 25.5 -167.5t81.5 -105t133 -54t192 -15.5q168 0 246 41t78 129q0 22 -6.5 42t-16 36.5t-28.5 32t-35.5 27.5t-45 25t-49.5 22t-57 21
t-59 19.5t-64.5 20.5t-64.5 20q-61 20 -97 32t-88.5 31.5t-84 35t-72.5 38.5t-65 44.5t-50 51t-40 61.5t-23 71t-9 84q0 179 137 274.5t408 95.5q127 0 231 -27t174 -74t118 -112t69.5 -138t21.5 -155h-264q0 145 -95 211t-255 66q-281 0 -281 -148q0 -72 61.5 -112.5
t244.5 -100.5q219 -72 263 -90q251 -97 336 -227q50 -77 50 -172z" />
    <glyph glyph-name="T" unicode="T" horiz-adv-x="1376" 
d="M1303 1444v-230h-482v-1214h-264v1214h-485v230h1231z" />
    <glyph glyph-name="U" unicode="U" horiz-adv-x="1425" 
d="M92 537v907h264v-809q0 -87 8 -149.5t31 -117.5t62.5 -88t103 -52t152.5 -19t152.5 19t103 52t62 88.5t30.5 117t8 149.5v809h264v-907q0 -272 -156 -414.5t-464 -142.5q-309 0 -465 142.5t-156 414.5z" />
    <glyph glyph-name="V" unicode="V" horiz-adv-x="1519" 
d="M51 1444h266l408 -1376h68l409 1376h266l-438 -1444h-543z" />
    <glyph glyph-name="W" unicode="W" horiz-adv-x="2265" 
d="M51 1444h254l256 -1376h70l223 1376h557l223 -1376h70l256 1376h254l-272 -1444h-545l-230 1376h-69l-230 -1376h-544z" />
    <glyph glyph-name="X" unicode="X" horiz-adv-x="1531" 
d="M51 0l494 686v74l-494 684h303l412 -580l412 580h303l-496 -684v-74l496 -686h-303l-412 582l-412 -582h-303z" />
    <glyph glyph-name="Y" unicode="Y" horiz-adv-x="1427" 
d="M1094 1444h282l-530 -950v-494h-264v494l-531 950h283l346 -643v-158h68v158z" />
    <glyph glyph-name="Z" unicode="Z" horiz-adv-x="1353" 
d="M92 0v492l1100 702v68l-156 -48h-944v230h1170v-492l-1100 -702v-68l155 47h945v-229h-1170z" />
    <glyph glyph-name="bracketleft" unicode="[" horiz-adv-x="919" 
d="M154 1444h612v-174h-401v-1403h401v-174h-612v1751z" />
    <glyph glyph-name="backslash" unicode="\" horiz-adv-x="1081" 
d="M303 1667l666 -1819l-191 -71l-665 1818z" />
    <glyph glyph-name="bracketright" unicode="]" horiz-adv-x="919" 
d="M766 1444v-1751h-612v174h401v1403h-401v174h612z" />
    <glyph glyph-name="asciicircum" unicode="^" horiz-adv-x="1146" 
d="M774 764l-166 612h-67l-166 -612h-221l211 680h419l209 -680h-219z" />
    <glyph glyph-name="underscore" unicode="_" horiz-adv-x="1280" 
d="M113 -61h1054v-203h-1054v203z" />
    <glyph glyph-name="grave" unicode="`" horiz-adv-x="1085" 
d="M932 1348l-47 -193l-731 170l47 193z" />
    <glyph glyph-name="a" unicode="a" horiz-adv-x="1275" 
d="M92 283q0 133 89 210.5t294 102.5l356 43q-6 192 -237 192q-109 0 -173.5 -48t-64.5 -144h-250q0 182 135.5 296t352.5 114q108 0 199 -30t159 -87.5t106 -148t38 -205.5v-349h149v-229h-209q-67 0 -103 36.5t-36 102.5v35l41 117h-70q-73 -311 -413 -311q-89 0 -157 22
t-106 54t-61.5 75t-31 79t-7.5 73zM356 328q0 -59 40.5 -89t105.5 -30q150 0 239.5 74t89.5 196l-309 -39q-88 -10 -127 -33.5t-39 -78.5z" />
    <glyph glyph-name="b" unicode="b" horiz-adv-x="1382" 
d="M133 0v1505h264v-575l-47 -158h68q92 277 409 277q144 0 250.5 -72.5t159.5 -192.5t53 -270t-53 -270t-159.5 -192t-250.5 -72q-316 0 -409 274h-68l47 -156v-98h-264zM397 514q0 -154 85 -229.5t233 -75.5t229.5 75t81.5 230t-81.5 230t-229.5 75t-233 -75.5t-85 -229.5
z" />
    <glyph glyph-name="c" unicode="c" horiz-adv-x="1255" 
d="M92 514q0 243 149.5 389t397.5 146q96 0 185 -27t163 -78.5t121.5 -136t54.5 -191.5h-264q-15 98 -84.5 150.5t-175.5 52.5q-137 0 -210 -83.5t-73 -221.5q0 -139 73 -222t210 -83q106 0 175.5 52.5t84.5 150.5h264q-6 -86 -38.5 -158t-83 -122t-116 -84.5t-138 -51
t-148.5 -16.5q-248 0 -397.5 145t-149.5 389z" />
    <glyph glyph-name="d" unicode="d" horiz-adv-x="1384" 
d="M1249 0h-264v98l49 156h-69q-93 -274 -410 -274q-144 0 -250.5 72t-159.5 192t-53 270t53 270t159.5 192.5t250.5 72.5q318 0 410 -277h69l-49 158v575h264v-1505zM985 514q0 154 -84 229.5t-233 75.5q-148 0 -230 -75t-82 -230t82 -230t230 -75q149 0 233 75.5t84 229.5
z" />
    <glyph glyph-name="e" unicode="e" horiz-adv-x="1263" 
d="M92 526q0 242 145 382.5t379 140.5q233 0 376 -135t143 -367v-86h-793q3 -120 78 -193t227 -73q104 0 172 42t88 123h264q-9 -49 -32 -98.5t-66.5 -101t-100.5 -91t-141.5 -64.5t-183.5 -25q-112 0 -204.5 28.5t-156.5 79t-108.5 120t-65 149.5t-20.5 169zM342 621h543
q0 92 -67 151t-202 59q-134 0 -204 -59.5t-70 -150.5z" />
    <glyph glyph-name="f" unicode="f" horiz-adv-x="929" 
d="M694 1276q-82 0 -116.5 -40t-34.5 -132v-76h299v-229h-299v-570h299v-229h-770v229h209v570h-209v229h209v84q0 190 109 291.5t333 101.5h176v-229h-205z" />
    <glyph glyph-name="g" unicode="g" horiz-adv-x="1409" 
d="M1286 1028h90v-229h-76q-68 0 -110 -29q45 -56 45 -156q0 -147 -119.5 -250t-351.5 -184q72 4 138.5 2.5t125 -18.5t102 -45t68.5 -76.5t25 -112.5q0 -55 -14.5 -97.5t-48.5 -76t-78 -57.5t-114.5 -40.5t-146 -27t-184.5 -16.5t-217.5 -8t-257.5 -2v229q131 0 218 0.5
t174.5 3t140.5 7t103.5 12t76.5 17.5t47 25.5t28.5 34t7.5 43.5q0 43 -28.5 69.5t-89.5 32.5t-117.5 6t-152 -15.5t-151.5 -26t-155 -31.5l-35 158q379 60 576 113v67q-136 -44 -263 -49t-227.5 27t-161.5 112.5t-61 200.5q0 101 43.5 180t120 128t177 74.5t218.5 25.5
q239 0 385 -107q55 52 112.5 69t137.5 17zM666 436q153 0 229 46.5t76 144.5q0 192 -305 192q-310 0 -310 -192q0 -191 310 -191z" />
    <glyph glyph-name="h" unicode="h" horiz-adv-x="1329" 
d="M809 1049q190 0 297.5 -119.5t107.5 -345.5v-584h-262v545q0 148 -53.5 211t-177.5 63q-151 0 -237.5 -101.5t-86.5 -307.5v-410h-264v1505h264v-622l-47 -158h68q32 146 132 235t259 89z" />
    <glyph glyph-name="i" unicode="i" horiz-adv-x="976" 
d="M483 1153q-80 0 -127 42t-47 114q0 71 47.5 113t126.5 42q78 0 127 -42.5t49 -112.5q0 -71 -48.5 -113.5t-127.5 -42.5zM92 0v229h291v584l-236 -14v229l328 21q78 4 119 -36.5t41 -117.5v-666h291v-229h-834z" />
    <glyph glyph-name="j" unicode="j" horiz-adv-x="659" 
d="M381 1153q-79 0 -126.5 42t-47.5 114q0 70 48 112.5t126 42.5q80 0 129 -42.5t49 -112.5q0 -71 -49 -113.5t-129 -42.5zM31 -395l205 342q34 57 34 139v727l-239 -14v229l348 16q79 3 120.5 -37t41.5 -114v-832q0 -75 -35 -139l-180 -317h-295z" />
    <glyph glyph-name="k" unicode="k" horiz-adv-x="1282" 
d="M909 0l-291 428l-221 -111v-317h-264v1505h264v-915l492 246l-10 192h262l8 -211q3 -125 -111 -180l-196 -98l368 -539h-301z" />
    <glyph glyph-name="l" unicode="l" horiz-adv-x="960" 
d="M72 0v229h286v1061l-231 -14v229l332 17q79 4 121.5 -37t42.5 -123v-1133h284v-229h-835z" />
    <glyph glyph-name="m" unicode="m" horiz-adv-x="1910" 
d="M1466 1049q89 0 154.5 -36.5t103.5 -102t56 -147.5t18 -183v-580h-264v551q0 151 -37 209.5t-139 58.5q-260 0 -260 -422v-397h-264v551q0 151 -37.5 209.5t-139.5 58.5q-260 0 -260 -422v-397h-264v1028h264v-133l-47 -156h68q69 310 348 310q255 0 305 -310h49
q33 148 115 229t231 81z" />
    <glyph glyph-name="n" unicode="n" horiz-adv-x="1329" 
d="M721 819q-151 0 -237.5 -101.5t-86.5 -307.5v-410h-264v1028h264v-145l-47 -158h68q32 146 132 235t259 89q190 0 297.5 -119.5t107.5 -345.5v-584h-262v545q0 148 -53.5 211t-177.5 63z" />
    <glyph glyph-name="o" unicode="o" horiz-adv-x="1314" 
d="M92 514q0 247 157.5 391t407.5 144q163 0 290 -63t200.5 -185.5t73.5 -286.5t-73.5 -286.5t-200.5 -185t-290 -62.5q-250 0 -407.5 143.5t-157.5 390.5zM356 514q0 -141 80 -223t221 -82t221 82t80 223t-80 223t-221 82t-221 -82t-80 -223z" />
    <glyph glyph-name="p" unicode="p" horiz-adv-x="1382" 
d="M133 1028h264v-98l-47 -158h68q92 277 409 277q144 0 250.5 -73t159.5 -193.5t53 -270.5q0 -149 -53 -268.5t-159.5 -191.5t-250.5 -72q-316 0 -409 274h-68l47 -156v-481h-264v1411zM397 512q0 -154 85 -228.5t233 -74.5t229.5 74.5t81.5 228.5q0 155 -82 231t-229 76
q-148 0 -233 -76t-85 -231z" />
    <glyph glyph-name="q" unicode="q" horiz-adv-x="1384" 
d="M1249 1028v-1411h-264v481l49 156h-69q-93 -274 -408 -274q-145 0 -252 72t-160 191.5t-53 268.5q0 151 53 271t160 193t252 73q316 0 408 -277h69l-49 158v98h264zM985 512q0 156 -84 231.5t-233 75.5q-148 0 -230 -76t-82 -231q0 -153 82 -228t230 -75q149 0 233 74.5
t84 228.5z" />
    <glyph glyph-name="r" unicode="r" horiz-adv-x="960" 
d="M133 0v887q0 78 42 119t120 38l633 -16v-229l-531 14v-813h-264z" />
    <glyph glyph-name="s" unicode="s" horiz-adv-x="1085" 
d="M1034 276q0 -136 -105.5 -216t-342.5 -80q-262 0 -388 103.5t-126 291.5h264q0 -193 256 -193q90 0 134 23t44 76q0 22 -9.5 39.5t-23.5 30t-43 25t-56 21.5t-74 24q-10 3 -16 5t-15 4.5t-17 5.5q-163 53 -216 78q-141 68 -172 178q-9 35 -9 74q0 132 111.5 207.5
t308.5 75.5q121 0 212.5 -30t144 -81.5t78 -114.5t25.5 -137h-264q0 76 -50 118t-148 42q-154 0 -154 -86q0 -17 6.5 -31t23.5 -27t34.5 -23t51.5 -23.5t61 -22.5t77 -25q13 -4 37 -12l63 -21t58 -20.5t56.5 -23.5t49 -26.5t45.5 -31.5t35.5 -37t29 -45t16.5 -52.5t7 -62.5z
" />
    <glyph glyph-name="t" unicode="t" horiz-adv-x="976" 
d="M532 209l371 20v-229l-475 -20q-77 -3 -118.5 38.5t-41.5 120.5v660h-237v229h237v221l264 82v-303h330v-229h-330v-590z" />
    <glyph glyph-name="u" unicode="u" horiz-adv-x="1308" 
d="M608 209q151 0 237.5 101t86.5 306v412h262v-1028h-262v145l47 158h-68q-32 -146 -132 -234.5t-259 -88.5q-192 0 -299.5 119t-107.5 343v586h264v-545q0 -149 53 -211.5t178 -62.5z" />
    <glyph glyph-name="v" unicode="v" horiz-adv-x="1187" 
d="M897 1028h258l-289 -1028h-542l-293 1028h260l270 -960h68z" />
    <glyph glyph-name="w" unicode="w" horiz-adv-x="1869" 
d="M31 1028h252l178 -960h69l129 960h549l131 -960h68l180 960h250l-190 -1028h-547l-131 958h-68l-131 -958h-549z" />
    <glyph glyph-name="x" unicode="x" horiz-adv-x="1304" 
d="M72 0l389 481v68l-389 479h313l268 -362l267 362h313l-389 -479v-68l389 -481h-313l-267 365l-268 -365h-313z" />
    <glyph glyph-name="y" unicode="y" horiz-adv-x="1310" 
d="M963 1028h294l-460 -987v-305q0 -76 -41.5 -115.5t-120.5 -36.5l-461 17v229l361 -12v223l-463 987h295l264 -659v-129h69v129z" />
    <glyph glyph-name="z" unicode="z" horiz-adv-x="1169" 
d="M92 0v455l916 323v68l-156 -47h-760v229h985v-455l-915 -323v-68l155 47h760v-229h-985z" />
    <glyph glyph-name="braceleft" unicode="{" horiz-adv-x="1302" 
d="M680 1270l-158 47v-68q239 -65 342 -164t103 -270q0 -108 -72 -242q72 -134 72 -241q0 -171 -103 -270t-342 -164v-68l158 47h455v-174h-680v299q174 63 251.5 148.5t77.5 226.5q0 25 -2 37q-143 -150 -293 -150q-141 0 -231 82.5t-90 226.5q0 147 86 228.5t235 81.5
q150 0 293 -150q2 12 2 37q0 141 -77.5 226.5t-251.5 148.5v299h680v-174h-455zM518 424q53 0 108.5 41.5t96.5 107.5q-41 66 -96.5 108t-108.5 42q-60 0 -100.5 -40.5t-40.5 -109.5t40.5 -109t100.5 -40z" />
    <glyph glyph-name="bar" unicode="|" horiz-adv-x="509" 
d="M154 1747h202v-2050h-202v2050z" />
    <glyph glyph-name="braceright" unicode="}" horiz-adv-x="1273" 
d="M799 264q-150 0 -293 150q-2 -12 -2 -37q0 -141 78 -226.5t252 -148.5v-299h-680v174h454l158 -47v68q-239 65 -341.5 164t-102.5 270q0 108 71 241q-71 133 -71 242q0 171 102.5 270t341.5 164v68l-158 -47h-454v174h680v-299q-174 -63 -252 -148.5t-78 -226.5
q0 -25 2 -37q143 150 293 150q149 0 235 -81.5t86 -228.5q0 -144 -90 -226.5t-231 -82.5zM770 723q-53 0 -108.5 -42t-96.5 -108q41 -66 96.5 -107.5t108.5 -41.5q60 0 100.5 40t40.5 109t-40.5 109.5t-100.5 40.5z" />
    <glyph glyph-name="asciitilde" unicode="~" horiz-adv-x="1345" 
d="M154 362q0 172 76 265.5t196 93.5q66 0 137 -25.5t120.5 -56.5t106 -56.5t97.5 -25.5q50 0 76 35.5t26 122.5h203q0 -172 -75.5 -266.5t-194.5 -94.5q-67 0 -138 25.5t-120.5 56.5t-106 56.5t-98.5 25.5q-50 0 -76.5 -34.5t-26.5 -121.5h-202z" />
    <glyph glyph-name="exclamdown" unicode="&#xa1;" horiz-adv-x="716" 
d="M356 1049q89 0 147 -59t58 -146q0 -86 -58.5 -144.5t-146.5 -58.5q-89 0 -144.5 58t-55.5 145q0 88 55.5 146.5t144.5 58.5zM227 -416l45 926h174l46 -926h-265z" />
    <glyph glyph-name="cent" unicode="&#xa2;" horiz-adv-x="1378" 
d="M776 432q75 15 124 65t61 130h264q-7 -96 -46 -175t-102 -130t-139 -82t-162 -41v-502l-172 2v502q-208 28 -329 168.5t-121 359.5q0 217 120.5 358t325.5 170v490l174 -2v-485q86 -10 162.5 -41t139.5 -82.5t102.5 -130.5t46.5 -175h-264q-12 80 -61 130t-126 65z
M418 729q0 -111 47 -188.5t137 -104.5v584q-90 -27 -137 -104t-47 -187z" />
    <glyph glyph-name="sterling" unicode="&#xa3;" horiz-adv-x="1341" 
d="M772 1214q-136 8 -202 -19.5t-66 -113.5q0 -34 13 -70.5t25 -57t43.5 -65.5t41.5 -61h479v-174h-408q7 -35 7 -65q0 -53 -16 -96t-50 -75.5t-73.5 -57t-99.5 -45t-113 -34.5t-130 -30v-68l156 47h809v-229h-1034v365q160 44 224 98t64 166q0 16 -2 24h-286v174h206
q-3 4 -16.5 23.5t-17.5 25.5t-16 24.5t-16.5 27.5t-14 27t-13.5 30.5t-10.5 31t-9 35t-4.5 36.5t-2 40q0 77 33 136t86.5 94t126.5 56t146 27.5t152 2.5l404 -21v-229z" />
    <glyph glyph-name="currency" unicode="&#xa4;" horiz-adv-x="1591" 
d="M1253 709q0 -147 -75 -260l258 -259l-123 -122l-260 260q-110 -74 -254 -74t-260 76l-263 -262l-122 122l264 265q-74 113 -74 254t74 254l-264 264l122 123l263 -263q116 76 260 76q142 0 256 -71l258 258l123 -123l-258 -258q75 -113 75 -260zM799 457q110 0 182 73.5
t72 178.5t-72 179.5t-182 74.5q-108 0 -180 -74.5t-72 -179.5t71.5 -178.5t180.5 -73.5z" />
    <glyph glyph-name="yen" unicode="&#xa5;" horiz-adv-x="1632" 
d="M1479 1444l-447 -801h289v-174h-373v-88h373v-176h-373v-205h-264v205h-373v176h373v88h-373v174h289l-446 801h282l346 -643v-158h68v158l346 643h283z" />
    <glyph glyph-name="brokenbar" unicode="&#xa6;" horiz-adv-x="509" 
d="M154 989v758h202v-758h-202zM356 455v-758h-202v758h202z" />
    <glyph glyph-name="section" unicode="&#xa7;" horiz-adv-x="1241" 
d="M154 733q0 76 46.5 136t151.5 87q-101 44 -140.5 97t-39.5 131q0 131 110.5 205.5t307.5 74.5q122 0 214 -29.5t145 -81t78.5 -114t25.5 -135.5h-265q0 75 -50.5 116.5t-147.5 41.5q-71 0 -112.5 -21t-41.5 -63q0 -34 29.5 -59.5t66 -39.5t125.5 -43q20 -7 31 -10
q167 -55 214 -76q137 -62 171 -159q14 -38 14 -84q0 -76 -46.5 -136.5t-151.5 -87.5q101 -44 140.5 -96.5t39.5 -130.5q0 -131 -110.5 -206t-307.5 -75q-122 0 -214 29.5t-145 81.5t-78.5 114.5t-25.5 135.5h265q0 -75 51 -117.5t147 -42.5q71 0 112.5 22t41.5 64
q0 47 -47.5 73.5t-172.5 66.5q-21 6 -32 10q-167 55 -219 79q-136 64 -168 164q-12 36 -12 78zM403 766q0 -27 12 -50t29.5 -39.5t49 -32.5t58.5 -26t69 -24q98 -33 157.5 -11.5t59.5 89.5q0 27 -12.5 50t-29.5 39t-50 32.5t-58 26t-70 24.5q-97 34 -156 12.5t-59 -90.5z
" />
    <glyph glyph-name="dieresis" unicode="&#xa8;" horiz-adv-x="1161" 
d="M336 1153q-85 0 -133.5 42t-48.5 114q0 71 49 113t133 42t134 -42t50 -113q0 -72 -49.5 -114t-134.5 -42zM823 1153q-84 0 -132 42t-48 114q0 71 48 113t132 42q85 0 135 -42t50 -113q0 -72 -50 -114t-135 -42z" />
    <glyph glyph-name="copyright" unicode="&#xa9;" horiz-adv-x="2260" 
d="M1130 -401q-219 0 -404 77t-309 209t-193.5 310t-69.5 380t69.5 380t193.5 310.5t309 209.5t404 77t404 -77t309.5 -209.5t194 -310.5t69.5 -380q0 -201 -69.5 -379.5t-194 -310.5t-309.5 -209t-404 -77zM1130 -225q179 0 331 64.5t254 173.5t159 254.5t57 307.5
t-57 307.5t-159 255t-254 174t-331 64.5t-330.5 -64.5t-253.5 -174t-159 -255t-57 -307.5t57 -307.5t159 -254.5t253.5 -173.5t330.5 -64.5zM592 578q0 242 149.5 387t397.5 145q96 0 185 -26.5t163 -77.5t121.5 -135t54.5 -191h-264q-15 98 -84 149.5t-176 51.5
q-137 0 -210 -82.5t-73 -220.5q0 -139 73 -222.5t210 -83.5q107 0 176 51.5t84 149.5h264q-7 -107 -54.5 -191t-121.5 -135t-163 -77.5t-185 -26.5q-248 0 -397.5 145.5t-149.5 389.5z" />
    <glyph glyph-name="guillemotleft" unicode="&#xab;" horiz-adv-x="1615" 
d="M926 27l-152 -136l-620 617l620 614l152 -135l-482 -479zM1462 27l-151 -136l-621 617l621 614l151 -135l-481 -479z" />
    <glyph glyph-name="logicalnot" unicode="&#xac;" horiz-adv-x="1361" 
d="M1208 807v-526h-202v323h-852v203h1054z" />
    <glyph glyph-name="registered" unicode="&#xae;" horiz-adv-x="1433" 
d="M717 487q-128 0 -235 44.5t-178 121.5t-110.5 179.5t-39.5 218.5t39.5 218.5t110.5 179t178 121t235 44.5t235 -44.5t178 -121t110.5 -179t39.5 -218.5t-39.5 -218.5t-110.5 -179.5t-178 -121.5t-235 -44.5zM717 629q128 0 225.5 58.5t147 153.5t49.5 210t-49.5 210
t-147 153.5t-225.5 58.5t-225.5 -58.5t-147 -153.5t-49.5 -210t49.5 -210t147 -153.5t225.5 -58.5zM473 784v541h234q50 0 93.5 -6.5t86.5 -23t68.5 -49t25.5 -79.5q0 -66 -42 -92t-118 -33v-41h109q51 0 51 -51v-166h-135v160h-238v-160h-135zM608 1079h99q40 0 59.5 1
t41 6.5t30 17.5t8.5 33q0 13 -3.5 22.5t-14 15t-19.5 9t-28.5 4.5t-32.5 1.5t-41 0.5h-99v-111z" />
    <glyph glyph-name="macron" unicode="&#xaf;" horiz-adv-x="1101" 
d="M154 1444h792v-199l-792 -2v201z" />
    <glyph glyph-name="degree" unicode="&#xb0;" horiz-adv-x="1218" 
d="M608 616q-200 0 -327 131.5t-127 323.5t127 323.5t327 131.5t327.5 -132t127.5 -323t-127.5 -323t-327.5 -132zM608 819q110 0 182 73.5t72 178.5t-72 178.5t-182 73.5q-109 0 -180.5 -73.5t-71.5 -178.5t71.5 -178.5t180.5 -73.5z" />
    <glyph glyph-name="plusminus" unicode="&#xb1;" horiz-adv-x="1361" 
d="M782 840h426v-201h-426v-289h-202v289h-426v201h426v288h202v-288zM154 20v203h1054v-203h-1054z" />
    <glyph glyph-name="acute" unicode="&#xb4;" horiz-adv-x="1085" 
d="M154 1348l731 170l47 -193l-731 -170z" />
    <glyph glyph-name="paragraph" unicode="&#xb6;" horiz-adv-x="1452" 
d="M768 1747h203v-2050h-203v1057q-143 0 -251.5 26t-176.5 69.5t-110.5 108.5t-59 135.5t-16.5 157.5t16.5 157.5t59 135t110.5 108t176.5 69.5t251.5 26zM1096 1747h200v-2050h-200v2050z" />
    <glyph glyph-name="periodcentered" unicode="&#xb7;" horiz-adv-x="714" 
d="M356 311q-91 0 -146.5 58t-55.5 147q0 86 55.5 143.5t146.5 57.5q89 0 147 -58t58 -143q0 -88 -58 -146.5t-147 -58.5z" />
    <glyph glyph-name="cedilla" unicode="&#xb8;" horiz-adv-x="823" 
d="M510 -84q68 0 113 -28t45 -93q0 -45 -18 -79t-54 -56t-79.5 -36.5t-106 -21.5t-120.5 -9.5t-136 -2.5v162h52q152 0 206.5 8t54.5 45q0 17 -12.5 27t-34.5 10q-58 0 -154 -43l-92 86l70 115h209l-111 -119q84 35 168 35z" />
    <glyph glyph-name="guillemotright" unicode="&#xbb;" horiz-adv-x="1615" 
d="M154 27l481 481l-481 479l151 135l621 -614l-621 -617zM690 27l481 481l-481 479l152 135l620 -614l-620 -617z" />
    <glyph glyph-name="onequarter" unicode="&#xbc;" horiz-adv-x="2275" 
d="M1321 1667l190 -72l-665 -1818l-191 71zM72 1184q67 51 98 89.5t48 95.5t24 157h399v-932h-209v747l31 117h-49q-5 -76 -18 -138.5t-40.5 -126.5t-77.5 -114.5t-120 -81.5zM1421 139v416q315 89 365 377h209q-11 -93 -45.5 -177.5t-96.5 -163t-162 -139.5t-229 -94v-49
l117 33h291v211h209v-211h125v-203h-125v-139h-209v139h-449z" />
    <glyph glyph-name="onehalf" unicode="&#xbd;" horiz-adv-x="2283" 
d="M1321 1667l190 -72l-665 -1818l-191 71zM72 1184q67 51 98 89.5t48 95.5t24 157h399v-932h-209v747l31 117h-49q-5 -76 -18 -138.5t-40.5 -126.5t-77.5 -114.5t-120 -81.5zM1427 520q0 195 112.5 313.5t309.5 118.5q179 0 270 -90t91 -229q0 -84 -34.5 -150.5t-92 -112
t-145.5 -80t-181 -55t-213 -36.5v-49l117 24h541v-174h-725v328q31 4 42 5.5t58.5 10t75.5 15.5t78 22t81.5 30t71 38.5t62.5 49.5t39 60.5t16 73.5q0 66 -38.5 105.5t-123.5 39.5q-108 0 -155.5 -62t-47.5 -196h-209z" />
    <glyph glyph-name="threequarters" unicode="&#xbe;" horiz-adv-x="2445" 
d="M1477 1667l190 -72l-666 -1818l-190 71zM72 954h209q0 -115 53.5 -156.5t161.5 -41.5q92 0 136 29t44 100q0 37 -12.5 61t-36.5 35.5t-48 15.5t-57 4h-98v175h98q67 0 104.5 20.5t37.5 79.5q0 55 -40 79.5t-128 24.5q-103 0 -153 -33.5t-50 -113.5h-209q0 152 109 236.5
t303 84.5q183 0 279.5 -70.5t96.5 -178.5q0 -47 -17 -82.5t-49 -57t-69 -34.5t-86 -21v-49q42 -8 71.5 -16t62.5 -23.5t53 -36t33.5 -53.5t13.5 -76q0 -127 -100.5 -200.5t-288.5 -73.5q-200 0 -312 92.5t-112 279.5zM1591 139v416q315 89 365 377h209q-11 -93 -45.5 -177.5
t-96.5 -163t-162 -139.5t-229 -94v-49l117 33h291v211h209v-211h125v-203h-125v-139h-209v139h-449z" />
    <glyph glyph-name="questiondown" unicode="&#xbf;" horiz-adv-x="1114" 
d="M567 1049q91 0 147 -58.5t56 -146.5q0 -87 -56 -145t-147 -58q-88 0 -146.5 58.5t-58.5 144.5q0 87 58 146t147 59zM1001 -51q0 -192 -116 -309t-344 -117q-106 0 -186.5 27.5t-128 75.5t-70.5 106.5t-23 126.5q0 376 688 463v55l-129 -41h-452v174h649v-346
q-62 -3 -120.5 -10.5t-122.5 -22t-117 -38.5t-96 -56t-67 -78t-24 -102q0 -77 52.5 -118.5t148.5 -41.5q130 0 190 63t60 189h208z" />
    <glyph glyph-name="Agrave" unicode="&#xc0;" horiz-adv-x="1519" 
d="M1163 1763l-47 -192l-731 170l47 192zM1202 0l-149 504h-586l-150 -504h-266l436 1444h543l438 -1444h-266zM535 733h448l-190 643h-68z" />
    <glyph glyph-name="Aacute" unicode="&#xc1;" horiz-adv-x="1519" 
d="M1135 1741l-732 -170l-47 192l731 170zM1202 0l-149 504h-586l-150 -504h-266l436 1444h543l438 -1444h-266zM535 733h448l-190 643h-68z" />
    <glyph glyph-name="Acircumflex" unicode="&#xc2;" horiz-adv-x="1519" 
d="M762 1733l-256 -189l-144 135l400 293l397 -293l-143 -135zM1202 0l-149 504h-586l-150 -504h-266l436 1444h543l438 -1444h-266zM535 733h448l-190 643h-68z" />
    <glyph glyph-name="Atilde" unicode="&#xc3;" horiz-adv-x="1519" 
d="M606 1782q-39 0 -59.5 -29.5t-20.5 -114.5h-202q0 165 71 256t193 91q51 0 94.5 -17t73.5 -41t55.5 -48t51.5 -41t50 -17q39 0 59.5 29t20.5 114h203q0 -166 -71 -256t-193 -90q-51 0 -94.5 17t-73.5 41t-56 48t-52 41t-50 17zM1202 0l-149 504h-586l-150 -504h-266
l436 1444h543l438 -1444h-266zM535 733h448l-190 643h-68z" />
    <glyph glyph-name="Adieresis" unicode="&#xc4;" horiz-adv-x="1519" 
d="M516 1569q-85 0 -133.5 41.5t-48.5 113.5q0 71 49 113.5t133 42.5t134 -42.5t50 -113.5q0 -72 -49.5 -113.5t-134.5 -41.5zM1004 1569q-85 0 -133 41.5t-48 113.5q0 71 48.5 113.5t132.5 42.5t134 -42.5t50 -113.5q0 -72 -49.5 -113.5t-134.5 -41.5zM1202 0l-149 504
h-586l-150 -504h-266l436 1444h543l438 -1444h-266zM535 733h448l-190 643h-68z" />
    <glyph glyph-name="Aring" unicode="&#xc5;" horiz-adv-x="1519" 
d="M760 1556q-136 0 -213.5 63.5t-77.5 176.5q0 111 77.5 175.5t213.5 64.5q135 0 213 -64.5t78 -175.5t-78 -175.5t-213 -64.5zM760 1874q-41 0 -64.5 -19.5t-23.5 -58.5q0 -80 88 -80t88 80q0 39 -23.5 58.5t-64.5 19.5zM1202 0l-149 504h-586l-150 -504h-266l436 1444
h543l438 -1444h-266zM535 733h448l-190 643h-68z" />
    <glyph glyph-name="AE" unicode="&#xc6;" horiz-adv-x="2177" 
d="M2085 1214h-713v-376h610v-230h-610v-379h713v-229h-977v514h-506l-272 -514h-279l768 1444h1266v-230zM725 743h383v633h-47z" />
    <glyph glyph-name="Ccedilla" unicode="&#xc7;" horiz-adv-x="1630" 
d="M831 209q173 0 285 91.5t137 258.5h265q-31 -253 -193 -405t-424 -172l-94 -101q84 35 168 35q68 0 113 -28t45 -93q0 -45 -18 -79t-54.5 -56t-79.5 -36.5t-106 -21.5t-121 -9.5t-136 -2.5v162h52q152 0 207 8t55 45q0 17 -12.5 27t-34.5 10q-58 0 -154 -43l-92 86
l63 103q-274 41 -431.5 242.5t-157.5 492.5q0 157 49.5 293t140 235t226 156t298.5 57q292 0 475.5 -154.5t215.5 -422.5h-265q-24 167 -136 257.5t-286 90.5q-214 0 -334 -136.5t-120 -375.5q0 -240 120 -377t334 -137z" />
    <glyph glyph-name="Egrave" unicode="&#xc8;" horiz-adv-x="1202" 
d="M1024 1763l-47 -192l-731 170l47 192zM133 0v1444h977v-230h-713v-376h611v-230h-611v-379h713v-229h-977z" />
    <glyph glyph-name="Eacute" unicode="&#xc9;" horiz-adv-x="1202" 
d="M219 1763l731 170l47 -192l-731 -170zM133 0v1444h977v-230h-713v-376h611v-230h-611v-379h713v-229h-977z" />
    <glyph glyph-name="Ecircumflex" unicode="&#xca;" horiz-adv-x="1202" 
d="M1020 1679l-143 -135l-254 189l-256 -189l-144 135l400 293zM133 0v1444h977v-230h-713v-376h611v-230h-611v-379h713v-229h-977z" />
    <glyph glyph-name="Edieresis" unicode="&#xcb;" horiz-adv-x="1202" 
d="M377 1569q-85 0 -133.5 41.5t-48.5 113.5q0 71 49 113.5t133 42.5t134 -42.5t50 -113.5q0 -72 -49.5 -113.5t-134.5 -41.5zM864 1569q-84 0 -132 41.5t-48 113.5q0 71 48 113.5t132 42.5t134.5 -42.5t50.5 -113.5q0 -72 -50 -113.5t-135 -41.5zM133 0v1444h977v-230h-713
v-376h611v-230h-611v-379h713v-229h-977z" />
    <glyph glyph-name="Igrave" unicode="&#xcc;" horiz-adv-x="1140" 
d="M973 1763l-47 -192l-731 170l47 192zM1028 1214h-326v-985h326v-229h-915v229h325v985h-325v230h915v-230z" />
    <glyph glyph-name="Iacute" unicode="&#xcd;" horiz-adv-x="1140" 
d="M946 1741l-731 -170l-47 192l731 170zM1028 1214h-326v-985h326v-229h-915v229h325v985h-325v230h915v-230z" />
    <glyph glyph-name="Icircumflex" unicode="&#xce;" horiz-adv-x="1140" 
d="M571 1733l-256 -189l-143 135l399 293l398 -293l-144 -135zM1028 1214h-326v-985h326v-229h-915v229h325v985h-325v230h915v-230z" />
    <glyph glyph-name="Idieresis" unicode="&#xcf;" horiz-adv-x="1140" 
d="M326 1569q-85 0 -134 41.5t-49 113.5q0 71 49.5 113.5t133.5 42.5t134 -42.5t50 -113.5q0 -72 -49.5 -113.5t-134.5 -41.5zM813 1569q-84 0 -132 41.5t-48 113.5q0 71 48 113.5t132 42.5t134 -42.5t50 -113.5q0 -72 -49.5 -113.5t-134.5 -41.5zM1028 1214h-326v-985h326
v-229h-915v229h325v985h-325v230h915v-230z" />
    <glyph glyph-name="Eth" unicode="&#xd0;" horiz-adv-x="1660" 
d="M786 1444q86 0 159.5 -7t153.5 -27.5t143.5 -53.5t122 -88.5t98 -129.5t62.5 -179.5t23 -235.5t-23 -236t-62.5 -180t-98 -130t-122 -89t-143.5 -53.5t-153.5 -27.5t-159.5 -7h-501v647h-172v201h172v596h501zM786 229q64 0 109 3t101 14t94.5 31.5t77.5 57t62.5 88
t38.5 127.5t15 173q0 75 -9 138t-24 110t-39.5 84t-50.5 62.5t-62.5 43.5t-69.5 28t-77.5 16t-80.5 7.5t-85 1.5h-239v-366h340v-201h-340v-418h239z" />
    <glyph glyph-name="Ntilde" unicode="&#xd1;" horiz-adv-x="1624" 
d="M416 1638q0 165 71 256t193 91q51 0 94.5 -17t73.5 -41t56 -48t52 -41t50 -17q39 0 59 29t20 114h203q0 -166 -71 -256t-193 -90q-51 0 -94.5 17t-73.5 41t-56 48t-52 41t-50 17q-39 0 -59.5 -29.5t-20.5 -114.5h-202zM133 0v1444h522l551 -1376h68l-47 172v1204h262
v-1444h-522l-549 1376h-68l47 -172v-1204h-264z" />
    <glyph glyph-name="Ograve" unicode="&#xd2;" horiz-adv-x="1648" 
d="M1227 1763l-47 -192l-731 170l47 192zM113 723q0 157 49.5 293t139.5 235t225 156t298 57q216 0 379 -98t247.5 -265t84.5 -378q0 -212 -84.5 -379.5t-247.5 -265.5t-379 -98q-163 0 -298 57t-225 156.5t-139.5 235.5t-49.5 294zM377 723q0 -236 115 -375t333 -139
t332.5 139t114.5 375q0 235 -114.5 373.5t-332.5 138.5t-333 -138.5t-115 -373.5z" />
    <glyph glyph-name="Oacute" unicode="&#xd3;" horiz-adv-x="1648" 
d="M422 1763l731 170l47 -192l-731 -170zM113 723q0 157 49.5 293t139.5 235t225 156t298 57q216 0 379 -98t247.5 -265t84.5 -378q0 -212 -84.5 -379.5t-247.5 -265.5t-379 -98q-163 0 -298 57t-225 156.5t-139.5 235.5t-49.5 294zM377 723q0 -236 115 -375t333 -139
t332.5 139t114.5 375q0 235 -114.5 373.5t-332.5 138.5t-333 -138.5t-115 -373.5z" />
    <glyph glyph-name="Ocircumflex" unicode="&#xd4;" horiz-adv-x="1648" 
d="M1223 1679l-144 -135l-254 189l-256 -189l-143 135l399 293zM113 723q0 157 49.5 293t139.5 235t225 156t298 57q216 0 379 -98t247.5 -265t84.5 -378q0 -212 -84.5 -379.5t-247.5 -265.5t-379 -98q-163 0 -298 57t-225 156.5t-139.5 235.5t-49.5 294zM377 723
q0 -236 115 -375t333 -139t332.5 139t114.5 375q0 235 -114.5 373.5t-332.5 138.5t-333 -138.5t-115 -373.5z" />
    <glyph glyph-name="Otilde" unicode="&#xd5;" horiz-adv-x="1648" 
d="M389 1638q0 165 71 256t193 91q51 0 94.5 -17t73.5 -41t56 -48t52 -41t50 -17q39 0 59.5 29t20.5 114h203q0 -166 -71.5 -256t-193.5 -90q-51 0 -94.5 17t-73.5 41t-55.5 48t-51.5 41t-50 17q-39 0 -59.5 -29.5t-20.5 -114.5h-203zM113 723q0 157 49.5 293t139.5 235
t225 156t298 57q216 0 379 -98t247.5 -265t84.5 -378q0 -212 -84.5 -379.5t-247.5 -265.5t-379 -98q-163 0 -298 57t-225 156.5t-139.5 235.5t-49.5 294zM377 723q0 -236 115 -375t333 -139t332.5 139t114.5 375q0 235 -114.5 373.5t-332.5 138.5t-333 -138.5t-115 -373.5z
" />
    <glyph glyph-name="Odieresis" unicode="&#xd6;" horiz-adv-x="1648" 
d="M580 1569q-85 0 -134 41.5t-49 113.5q0 71 49.5 113.5t133.5 42.5t134 -42.5t50 -113.5q0 -72 -49.5 -113.5t-134.5 -41.5zM1067 1569q-84 0 -132 41.5t-48 113.5q0 71 48 113.5t132 42.5t134 -42.5t50 -113.5q0 -72 -49.5 -113.5t-134.5 -41.5zM113 723q0 157 49.5 293
t139.5 235t225 156t298 57q216 0 379 -98t247.5 -265t84.5 -378q0 -212 -84.5 -379.5t-247.5 -265.5t-379 -98q-163 0 -298 57t-225 156.5t-139.5 235.5t-49.5 294zM377 723q0 -236 115 -375t333 -139t332.5 139t114.5 375q0 235 -114.5 373.5t-332.5 138.5t-333 -138.5
t-115 -373.5z" />
    <glyph glyph-name="multiply" unicode="&#xd7;" horiz-adv-x="1198" 
d="M1042 825l-301 -301l301 -301l-143 -143l-301 301l-301 -301l-143 143l301 301l-301 301l143 144l301 -301l301 301z" />
    <glyph glyph-name="Oslash" unicode="&#xd8;" horiz-adv-x="1648" 
d="M1272 1321q127 -100 195.5 -255t68.5 -343q0 -212 -84.5 -379.5t-247.5 -265.5t-379 -98q-163 0 -299 57l-100 -172l-147 86l100 172q-129 99 -197.5 254.5t-68.5 345.5q0 157 49.5 293t139.5 235t225 156t298 57q160 0 295 -55l99 168l151 -86zM377 723q0 -253 125 -387
l502 868q-79 31 -179 31q-218 0 -333 -138.5t-115 -373.5zM825 209q219 0 333 138.5t114 375.5q0 251 -125 385l-504 -868q82 -31 182 -31z" />
    <glyph glyph-name="Ugrave" unicode="&#xd9;" horiz-adv-x="1425" 
d="M1114 1763l-47 -192l-731 170l47 192zM92 537v907h264v-809q0 -87 8 -149.5t31 -117.5t62.5 -88t103 -52t152.5 -19t152.5 19t103 52t62 88.5t30.5 117t8 149.5v809h264v-907q0 -272 -156 -414.5t-464 -142.5q-309 0 -465 142.5t-156 414.5z" />
    <glyph glyph-name="Uacute" unicode="&#xda;" horiz-adv-x="1425" 
d="M309 1763l731 170l47 -192l-731 -170zM92 537v907h264v-809q0 -87 8 -149.5t31 -117.5t62.5 -88t103 -52t152.5 -19t152.5 19t103 52t62 88.5t30.5 117t8 149.5v809h264v-907q0 -272 -156 -414.5t-464 -142.5q-309 0 -465 142.5t-156 414.5z" />
    <glyph glyph-name="Ucircumflex" unicode="&#xdb;" horiz-adv-x="1425" 
d="M1110 1679l-143 -135l-254 189l-256 -189l-144 135l400 293zM92 537v907h264v-809q0 -87 8 -149.5t31 -117.5t62.5 -88t103 -52t152.5 -19t152.5 19t103 52t62 88.5t30.5 117t8 149.5v809h264v-907q0 -272 -156 -414.5t-464 -142.5q-309 0 -465 142.5t-156 414.5z" />
    <glyph glyph-name="Udieresis" unicode="&#xdc;" horiz-adv-x="1425" 
d="M467 1569q-85 0 -133.5 41.5t-48.5 113.5q0 71 49 113.5t133 42.5t134 -42.5t50 -113.5q0 -72 -49.5 -113.5t-134.5 -41.5zM954 1569q-84 0 -132 41.5t-48 113.5q0 71 48 113.5t132 42.5t134.5 -42.5t50.5 -113.5q0 -72 -50 -113.5t-135 -41.5zM92 537v907h264v-809
q0 -87 8 -149.5t31 -117.5t62.5 -88t103 -52t152.5 -19t152.5 19t103 52t62 88.5t30.5 117t8 149.5v809h264v-907q0 -272 -156 -414.5t-464 -142.5q-309 0 -465 142.5t-156 414.5z" />
    <glyph glyph-name="Yacute" unicode="&#xdd;" horiz-adv-x="1427" 
d="M309 1763l731 170l47 -192l-731 -170zM1094 1444h282l-530 -950v-494h-264v494l-531 950h283l346 -643v-158h68v158z" />
    <glyph glyph-name="Thorn" unicode="&#xde;" horiz-adv-x="1323" 
d="M606 1214q118 0 206 -11.5t170.5 -43t134.5 -85.5t83 -142t31 -209t-31 -210t-83 -143t-134.5 -86t-170.5 -43.5t-206 -11.5h-209v-229h-264v1444h264v-230h209zM621 459q53 0 87.5 1.5t74.5 7.5t65 17t50 30t38.5 47t22 68.5t8.5 92.5t-8.5 92t-22 67.5t-38.5 46.5
t-50 30t-65 17t-74.5 7.5t-87.5 1.5h-224v-526h224z" />
    <glyph glyph-name="germandbls" unicode="&#xdf;" horiz-adv-x="1277" 
d="M512 0v229l240 -18q110 -9 160.5 31t50.5 133q0 49 -21 85t-55 57t-74.5 38t-81.5 34.5t-75 40t-55 62t-21 92.5q0 57 22 101.5t54 72.5t63.5 52t53.5 53t22 63q0 54 -38 81.5t-124 27.5q-55 0 -94.5 -11.5t-73.5 -40t-51 -83.5t-17 -135v-965h-264v999q0 103 26.5 183.5
t72 132.5t110 86t136 48.5t155.5 14.5q107 0 190.5 -25t133.5 -67t76 -93t26 -108q0 -56 -22.5 -100.5t-54.5 -74t-63.5 -57t-54 -61t-22.5 -73.5q0 -36 21 -61.5t55 -42t75 -33t82.5 -41t75.5 -57.5t55 -90.5t21 -133.5q0 -97 -35 -171.5t-96 -118.5t-141.5 -63.5
t-174.5 -12.5z" />
    <glyph glyph-name="agrave" unicode="&#xe0;" horiz-adv-x="1275" 
d="M1016 1348l-47 -193l-731 170l47 193zM92 283q0 133 89 210.5t294 102.5l356 43q-6 192 -237 192q-109 0 -173.5 -48t-64.5 -144h-250q0 182 135.5 296t352.5 114q108 0 199 -30t159 -87.5t106 -148t38 -205.5v-349h149v-229h-209q-67 0 -103 36.5t-36 102.5v35l41 117
h-70q-73 -311 -413 -311q-89 0 -157 22t-106 54t-61.5 75t-31 79t-7.5 73zM356 328q0 -59 40.5 -89t105.5 -30q150 0 239.5 74t89.5 196l-309 -39q-88 -10 -127 -33.5t-39 -78.5z" />
    <glyph glyph-name="aacute" unicode="&#xe1;" horiz-adv-x="1275" 
d="M211 1348l731 170l47 -193l-731 -170zM92 283q0 133 89 210.5t294 102.5l356 43q-6 192 -237 192q-109 0 -173.5 -48t-64.5 -144h-250q0 182 135.5 296t352.5 114q108 0 199 -30t159 -87.5t106 -148t38 -205.5v-349h149v-229h-209q-67 0 -103 36.5t-36 102.5v35l41 117
h-70q-73 -311 -413 -311q-89 0 -157 22t-106 54t-61.5 75t-31 79t-7.5 73zM356 328q0 -59 40.5 -89t105.5 -30q150 0 239.5 74t89.5 196l-309 -39q-88 -10 -127 -33.5t-39 -78.5z" />
    <glyph glyph-name="acircumflex" unicode="&#xe2;" horiz-adv-x="1275" 
d="M1012 1264l-144 -136l-254 189l-256 -189l-143 136l399 292zM92 283q0 133 89 210.5t294 102.5l356 43q-6 192 -237 192q-109 0 -173.5 -48t-64.5 -144h-250q0 182 135.5 296t352.5 114q108 0 199 -30t159 -87.5t106 -148t38 -205.5v-349h149v-229h-209q-67 0 -103 36.5
t-36 102.5v35l41 117h-70q-73 -311 -413 -311q-89 0 -157 22t-106 54t-61.5 75t-31 79t-7.5 73zM356 328q0 -59 40.5 -89t105.5 -30q150 0 239.5 74t89.5 196l-309 -39q-88 -10 -127 -33.5t-39 -78.5z" />
    <glyph glyph-name="atilde" unicode="&#xe3;" horiz-adv-x="1275" 
d="M178 1223q0 165 71 255.5t193 90.5q51 0 94.5 -17t73.5 -41t56 -48t52 -41t50 -17q39 0 59.5 29t20.5 114h203q0 -166 -71.5 -256t-193.5 -90q-51 0 -94.5 17t-73.5 41t-55.5 48t-51.5 41t-50 17q-39 0 -59.5 -29t-20.5 -114h-203zM92 283q0 133 89 210.5t294 102.5
l356 43q-6 192 -237 192q-109 0 -173.5 -48t-64.5 -144h-250q0 182 135.5 296t352.5 114q108 0 199 -30t159 -87.5t106 -148t38 -205.5v-349h149v-229h-209q-67 0 -103 36.5t-36 102.5v35l41 117h-70q-73 -311 -413 -311q-89 0 -157 22t-106 54t-61.5 75t-31 79t-7.5 73z
M356 328q0 -59 40.5 -89t105.5 -30q150 0 239.5 74t89.5 196l-309 -39q-88 -10 -127 -33.5t-39 -78.5z" />
    <glyph glyph-name="adieresis" unicode="&#xe4;" horiz-adv-x="1275" 
d="M369 1153q-85 0 -134 42t-49 114q0 71 49.5 113t133.5 42t134 -42t50 -113q0 -72 -49.5 -114t-134.5 -42zM856 1153q-84 0 -132 42t-48 114q0 71 48 113t132 42t134 -42t50 -113q0 -72 -49.5 -114t-134.5 -42zM92 283q0 133 89 210.5t294 102.5l356 43q-6 192 -237 192
q-109 0 -173.5 -48t-64.5 -144h-250q0 182 135.5 296t352.5 114q108 0 199 -30t159 -87.5t106 -148t38 -205.5v-349h149v-229h-209q-67 0 -103 36.5t-36 102.5v35l41 117h-70q-73 -311 -413 -311q-89 0 -157 22t-106 54t-61.5 75t-31 79t-7.5 73zM356 328q0 -59 40.5 -89
t105.5 -30q150 0 239.5 74t89.5 196l-309 -39q-88 -10 -127 -33.5t-39 -78.5z" />
    <glyph glyph-name="aring" unicode="&#xe5;" horiz-adv-x="1275" 
d="M612 1141q-137 0 -213.5 63.5t-76.5 175.5q0 111 77 175.5t213 64.5q135 0 213 -64.5t78 -175.5q0 -110 -78 -174.5t-213 -64.5zM612 1300q88 0 88 80q0 39 -23.5 58.5t-64.5 19.5t-64.5 -19.5t-23.5 -58.5q0 -80 88 -80zM92 283q0 133 89 210.5t294 102.5l356 43
q-6 192 -237 192q-109 0 -173.5 -48t-64.5 -144h-250q0 182 135.5 296t352.5 114q108 0 199 -30t159 -87.5t106 -148t38 -205.5v-349h149v-229h-209q-67 0 -103 36.5t-36 102.5v35l41 117h-70q-73 -311 -413 -311q-89 0 -157 22t-106 54t-61.5 75t-31 79t-7.5 73zM356 328
q0 -59 40.5 -89t105.5 -30q150 0 239.5 74t89.5 196l-309 -39q-88 -10 -127 -33.5t-39 -78.5z" />
    <glyph glyph-name="ae" unicode="&#xe6;" horiz-adv-x="2076" 
d="M1720 360h265q-9 -49 -32 -98.5t-66.5 -101t-101 -91t-142 -64.5t-183.5 -25q-197 0 -326 83.5t-186 227.5h-59q-37 -137 -145 -224t-289 -87q-89 0 -157 22t-106 54t-61.5 75t-31 79t-7.5 73q0 133 89 210.5t294 102.5l356 43q-6 192 -237 192q-109 0 -173.5 -48
t-64.5 -144h-250q0 182 135.5 296t352.5 114q135 0 239 -53t160 -154q69 100 182.5 153.5t254.5 53.5q233 0 375.5 -135t142.5 -367v-86h-793q3 -120 78 -193t227 -73q104 0 172 42t88 123zM1430 831q-134 0 -204.5 -59.5t-70.5 -150.5h543q0 92 -66.5 151t-201.5 59z
M502 209q150 0 239.5 74t89.5 196l-309 -39q-88 -10 -127 -34.5t-39 -81.5q0 -60 40 -87.5t106 -27.5z" />
    <glyph glyph-name="ccedilla" unicode="&#xe7;" horiz-adv-x="1255" 
d="M639 209q106 0 175.5 52.5t84.5 150.5h264q-7 -96 -46 -174t-101.5 -129.5t-138 -83t-160.5 -41.5l-96 -103q84 35 167 35q68 0 113 -28t45 -93q0 -45 -18 -79t-54 -56t-79.5 -36.5t-106 -21.5t-120.5 -9.5t-136 -2.5v162h52q152 0 206.5 8t54.5 45q0 17 -12.5 27
t-34.5 10q-57 0 -153 -43l-92 86l63 105q-197 36 -310.5 174.5t-113.5 349.5q0 243 149.5 389t397.5 146q96 0 185 -27t163 -78.5t121.5 -136t54.5 -191.5h-264q-15 98 -84.5 150.5t-175.5 52.5q-137 0 -210 -83.5t-73 -221.5q0 -139 73 -222t210 -83z" />
    <glyph glyph-name="egrave" unicode="&#xe8;" horiz-adv-x="1263" 
d="M1034 1348l-47 -193l-731 170l47 193zM92 526q0 242 145 382.5t379 140.5q233 0 376 -135t143 -367v-86h-793q3 -120 78 -193t227 -73q104 0 172 42t88 123h264q-9 -49 -32 -98.5t-66.5 -101t-100.5 -91t-141.5 -64.5t-183.5 -25q-112 0 -204.5 28.5t-156.5 79
t-108.5 120t-65 149.5t-20.5 169zM342 621h543q0 92 -67 151t-202 59q-134 0 -204 -59.5t-70 -150.5z" />
    <glyph glyph-name="eacute" unicode="&#xe9;" horiz-adv-x="1263" 
d="M229 1348l732 170l47 -193l-732 -170zM92 526q0 242 145 382.5t379 140.5q233 0 376 -135t143 -367v-86h-793q3 -120 78 -193t227 -73q104 0 172 42t88 123h264q-9 -49 -32 -98.5t-66.5 -101t-100.5 -91t-141.5 -64.5t-183.5 -25q-112 0 -204.5 28.5t-156.5 79
t-108.5 120t-65 149.5t-20.5 169zM342 621h543q0 92 -67 151t-202 59q-134 0 -204 -59.5t-70 -150.5z" />
    <glyph glyph-name="ecircumflex" unicode="&#xea;" horiz-adv-x="1263" 
d="M1030 1264l-143 -136l-254 189l-256 -189l-144 136l400 292zM92 526q0 242 145 382.5t379 140.5q233 0 376 -135t143 -367v-86h-793q3 -120 78 -193t227 -73q104 0 172 42t88 123h264q-9 -49 -32 -98.5t-66.5 -101t-100.5 -91t-141.5 -64.5t-183.5 -25
q-112 0 -204.5 28.5t-156.5 79t-108.5 120t-65 149.5t-20.5 169zM342 621h543q0 92 -67 151t-202 59q-134 0 -204 -59.5t-70 -150.5z" />
    <glyph glyph-name="edieresis" unicode="&#xeb;" horiz-adv-x="1263" 
d="M387 1153q-85 0 -133.5 42t-48.5 114q0 71 49 113t133 42t134 -42t50 -113q0 -72 -49.5 -114t-134.5 -42zM874 1153q-84 0 -132 42t-48 114q0 71 48 113t132 42q85 0 135 -42t50 -113q0 -72 -50 -114t-135 -42zM92 526q0 242 145 382.5t379 140.5q233 0 376 -135
t143 -367v-86h-793q3 -120 78 -193t227 -73q104 0 172 42t88 123h264q-9 -49 -32 -98.5t-66.5 -101t-100.5 -91t-141.5 -64.5t-183.5 -25q-112 0 -204.5 28.5t-156.5 79t-108.5 120t-65 149.5t-20.5 169zM342 621h543q0 92 -67 151t-202 59q-134 0 -204 -59.5t-70 -150.5z
" />
    <glyph glyph-name="igrave" unicode="&#xec;" horiz-adv-x="976" 
d="M846 1348l-47 -193l-731 170l47 193zM92 0v229h293v584l-238 -14v229l326 21q80 4 121 -37.5t41 -122.5v-660h291v-229h-834z" />
    <glyph glyph-name="iacute" unicode="&#xed;" horiz-adv-x="1003" 
d="M80 1348l731 170l47 -193l-731 -170zM119 0v229h291v584l-236 -14v229l326 21q78 4 118.5 -37.5t40.5 -122.5v-660h293v-229h-833z" />
    <glyph glyph-name="icircumflex" unicode="&#xee;" horiz-adv-x="999" 
d="M864 1264l-143 -136l-256 189l-254 -189l-143 136l397 292zM115 0v229h291v584l-236 -14v229l326 21q78 4 118.5 -37.5t40.5 -122.5v-660h293v-229h-833z" />
    <glyph glyph-name="idieresis" unicode="&#xef;" horiz-adv-x="1003" 
d="M238 1153q-84 0 -132.5 42t-48.5 114q0 71 48.5 113t132.5 42t134 -42t50 -113q0 -72 -49.5 -114t-134.5 -42zM725 1153q-84 0 -132 42t-48 114q0 71 48 113t132 42t134 -42t50 -113q0 -72 -49.5 -114t-134.5 -42zM119 0v229h291v584l-236 -14v229l326 21
q78 4 118.5 -37.5t40.5 -122.5v-660h293v-229h-833z" />
    <glyph glyph-name="eth" unicode="&#xf0;" horiz-adv-x="1396" 
d="M977 1339q328 -240 328 -686q0 -315 -164.5 -494t-448.5 -179q-278 0 -439 149t-161 387q0 150 65.5 270.5t192.5 191.5t295 71q208 0 331.5 -122.5t149.5 -330.5h68l-47 158q-38 314 -371 465l-205 -123l-168 98l160 96q-117 29 -233 43v230q264 -27 481 -125l176 104
l170 -96zM696 209q166 0 255 85t89 222q0 150 -90 226.5t-260 76.5q-164 0 -249 -76.5t-85 -226.5q0 -147 86.5 -227t253.5 -80z" />
    <glyph glyph-name="ntilde" unicode="&#xf1;" horiz-adv-x="1329" 
d="M272 1223q0 165 71.5 255.5t193.5 90.5q51 0 94.5 -17t73.5 -41t55.5 -48t51.5 -41t50 -17q39 0 59.5 29t20.5 114h203q0 -166 -71 -256t-193 -90q-51 0 -94.5 17t-73.5 41t-56 48t-52 41t-50 17q-39 0 -59.5 -29t-20.5 -114h-203zM721 819q-151 0 -237.5 -101.5
t-86.5 -307.5v-410h-264v1028h264v-145l-47 -158h68q32 146 132 235t259 89q190 0 297.5 -119.5t107.5 -345.5v-584h-262v545q0 148 -53.5 211t-177.5 63z" />
    <glyph glyph-name="ograve" unicode="&#xf2;" horiz-adv-x="1314" 
d="M1061 1348l-47 -193l-731 170l47 193zM92 514q0 247 157.5 391t407.5 144q163 0 290 -63t200.5 -185.5t73.5 -286.5t-73.5 -286.5t-200.5 -185t-290 -62.5q-250 0 -407.5 143.5t-157.5 390.5zM356 514q0 -141 80 -223t221 -82t221 82t80 223t-80 223t-221 82t-221 -82
t-80 -223z" />
    <glyph glyph-name="oacute" unicode="&#xf3;" horiz-adv-x="1314" 
d="M254 1348l731 170l47 -193l-731 -170zM92 514q0 247 157.5 391t407.5 144q163 0 290 -63t200.5 -185.5t73.5 -286.5t-73.5 -286.5t-200.5 -185t-290 -62.5q-250 0 -407.5 143.5t-157.5 390.5zM356 514q0 -141 80 -223t221 -82t221 82t80 223t-80 223t-221 82t-221 -82
t-80 -223z" />
    <glyph glyph-name="ocircumflex" unicode="&#xf4;" horiz-adv-x="1314" 
d="M1057 1264l-144 -136l-254 189l-256 -189l-143 136l399 292zM92 514q0 247 157.5 391t407.5 144q163 0 290 -63t200.5 -185.5t73.5 -286.5t-73.5 -286.5t-200.5 -185t-290 -62.5q-250 0 -407.5 143.5t-157.5 390.5zM356 514q0 -141 80 -223t221 -82t221 82t80 223
t-80 223t-221 82t-221 -82t-80 -223z" />
    <glyph glyph-name="otilde" unicode="&#xf5;" horiz-adv-x="1314" 
d="M221 1223q0 165 71 255.5t193 90.5q51 0 94.5 -17t73.5 -41t56 -48t52 -41t50 -17q39 0 59.5 29t20.5 114h203q0 -166 -71.5 -256t-193.5 -90q-51 0 -94.5 17t-73.5 41t-55.5 48t-51.5 41t-50 17q-39 0 -59.5 -29t-20.5 -114h-203zM92 514q0 247 157.5 391t407.5 144
q163 0 290 -63t200.5 -185.5t73.5 -286.5t-73.5 -286.5t-200.5 -185t-290 -62.5q-250 0 -407.5 143.5t-157.5 390.5zM356 514q0 -141 80 -223t221 -82t221 82t80 223t-80 223t-221 82t-221 -82t-80 -223z" />
    <glyph glyph-name="odieresis" unicode="&#xf6;" horiz-adv-x="1314" 
d="M414 1153q-85 0 -134 42t-49 114q0 71 49.5 113t133.5 42t134 -42t50 -113q0 -72 -49.5 -114t-134.5 -42zM901 1153q-84 0 -132 42t-48 114q0 71 48 113t132 42t134 -42t50 -113q0 -72 -49.5 -114t-134.5 -42zM92 514q0 247 157.5 391t407.5 144q163 0 290 -63
t200.5 -185.5t73.5 -286.5t-73.5 -286.5t-200.5 -185t-290 -62.5q-250 0 -407.5 143.5t-157.5 390.5zM356 514q0 -141 80 -223t221 -82t221 82t80 223t-80 223t-221 82t-221 -82t-80 -223z" />
    <glyph glyph-name="divide" unicode="&#xf7;" horiz-adv-x="1361" 
d="M680 745q-91 0 -146 58t-55 147q0 87 55 144t146 57q89 0 147 -58t58 -143q0 -88 -58 -146.5t-147 -58.5zM154 637h1054v-201h-1054v201zM680 -76q-90 0 -145.5 58.5t-55.5 146.5q0 87 55.5 145t145.5 58q88 0 146.5 -58.5t58.5 -144.5q0 -87 -58 -146t-147 -59z" />
    <glyph glyph-name="oslash" unicode="&#xf8;" horiz-adv-x="1314" 
d="M1008 948q101 -69 157 -179t56 -253q0 -164 -73.5 -286.5t-200.5 -185t-290 -62.5q-109 0 -194 26l-70 -119l-147 84l61 107q-102 69 -158.5 180t-56.5 256q0 164 73.5 285.5t201 184.5t290.5 63q107 0 195 -27l68 117l149 -84zM356 516q0 -140 76 -219l299 516
q-34 6 -74 6q-141 0 -221 -81t-80 -222zM657 211q141 0 221 81t80 224q0 139 -75 217l-299 -516q35 -6 73 -6z" />
    <glyph glyph-name="ugrave" unicode="&#xf9;" horiz-adv-x="1308" 
d="M1063 1348l-47 -193l-731 170l47 193zM608 209q151 0 237.5 101t86.5 306v412h262v-1028h-262v145l47 158h-68q-32 -146 -132 -234.5t-259 -88.5q-192 0 -299.5 119t-107.5 343v586h264v-545q0 -149 53 -211.5t178 -62.5z" />
    <glyph glyph-name="uacute" unicode="&#xfa;" horiz-adv-x="1308" 
d="M258 1348l731 170l47 -193l-731 -170zM608 209q151 0 237.5 101t86.5 306v412h262v-1028h-262v145l47 158h-68q-32 -146 -132 -234.5t-259 -88.5q-192 0 -299.5 119t-107.5 343v586h264v-545q0 -149 53 -211.5t178 -62.5z" />
    <glyph glyph-name="ucircumflex" unicode="&#xfb;" horiz-adv-x="1308" 
d="M1059 1264l-144 -136l-253 189l-256 -189l-144 136l400 292zM608 209q151 0 237.5 101t86.5 306v412h262v-1028h-262v145l47 158h-68q-32 -146 -132 -234.5t-259 -88.5q-192 0 -299.5 119t-107.5 343v586h264v-545q0 -149 53 -211.5t178 -62.5z" />
    <glyph glyph-name="udieresis" unicode="&#xfc;" horiz-adv-x="1308" 
d="M416 1153q-85 0 -134 42t-49 114q0 71 49.5 113t133.5 42t134 -42t50 -113q0 -72 -49.5 -114t-134.5 -42zM903 1153q-84 0 -132 42t-48 114q0 71 48 113t132 42t134 -42t50 -113q0 -72 -49.5 -114t-134.5 -42zM608 209q151 0 237.5 101t86.5 306v412h262v-1028h-262v145
l47 158h-68q-32 -146 -132 -234.5t-259 -88.5q-192 0 -299.5 119t-107.5 343v586h264v-545q0 -149 53 -211.5t178 -62.5z" />
    <glyph glyph-name="yacute" unicode="&#xfd;" horiz-adv-x="1310" 
d="M1040 1325l-731 -170l-47 193l731 170zM963 1028h294l-460 -987v-305q0 -76 -41.5 -115.5t-120.5 -36.5l-461 17v229l361 -12v223l-463 987h295l264 -659v-129h69v129z" />
    <glyph glyph-name="thorn" unicode="&#xfe;" horiz-adv-x="1382" 
d="M827 1049q144 0 250.5 -73t159.5 -193.5t53 -270.5q0 -149 -53 -268.5t-159.5 -191.5t-250.5 -72q-316 0 -409 274h-68l47 -156v-481h-264v1888h264v-575l-47 -158h68q92 277 409 277zM715 209q148 0 229.5 74.5t81.5 228.5q0 155 -82 231t-229 76q-148 0 -233 -76
t-85 -231q0 -154 85 -228.5t233 -74.5z" />
    <glyph glyph-name="ydieresis" unicode="&#xff;" horiz-adv-x="1310" 
d="M420 1153q-85 0 -133.5 42t-48.5 114q0 71 49 113t133 42t134 -42t50 -113q0 -72 -49.5 -114t-134.5 -42zM907 1153q-84 0 -132 42t-48 114q0 71 48 113t132 42q85 0 135 -42t50 -113q0 -72 -50 -114t-135 -42zM963 1028h294l-460 -987v-305q0 -76 -41.5 -115.5
t-120.5 -36.5l-461 17v229l361 -12v223l-463 987h295l264 -659v-129h69v129z" />
    <glyph glyph-name="Amacron" unicode="&#x100;" horiz-adv-x="1519" 
d="M1157 1860v-199l-792 -2v201h792zM1202 0l-149 504h-586l-150 -504h-266l436 1444h543l438 -1444h-266zM535 733h448l-190 643h-68z" />
    <glyph glyph-name="amacron" unicode="&#x101;" horiz-adv-x="1275" 
d="M217 1444h793v-199l-793 -2v201zM92 283q0 133 89 210.5t294 102.5l356 43q-6 192 -237 192q-109 0 -173.5 -48t-64.5 -144h-250q0 182 135.5 296t352.5 114q108 0 199 -30t159 -87.5t106 -148t38 -205.5v-349h149v-229h-209q-67 0 -103 36.5t-36 102.5v35l41 117h-70
q-73 -311 -413 -311q-89 0 -157 22t-106 54t-61.5 75t-31 79t-7.5 73zM356 328q0 -59 40.5 -89t105.5 -30q150 0 239.5 74t89.5 196l-309 -39q-88 -10 -127 -33.5t-39 -78.5z" />
    <glyph glyph-name="Abreve" unicode="&#x102;" horiz-adv-x="1519" 
d="M762 1559q-118 0 -200 53.5t-118 138.5t-36 193h202q0 -106 37.5 -151.5t114.5 -45.5t113 45.5t36 151.5h203q0 -80 -21 -148.5t-62.5 -122t-110.5 -84t-158 -30.5zM1202 0l-149 504h-586l-150 -504h-266l436 1444h543l438 -1444h-266zM535 733h448l-190 643h-68z" />
    <glyph glyph-name="abreve" unicode="&#x103;" horiz-adv-x="1275" 
d="M967 1528q0 -80 -21 -148.5t-63 -122t-111 -84t-158 -30.5q-118 0 -200 53.5t-118 138.5t-36 193h203q0 -106 37 -151.5t114 -45.5t113.5 45.5t36.5 151.5h203zM92 283q0 133 89 210.5t294 102.5l356 43q-6 192 -237 192q-109 0 -173.5 -48t-64.5 -144h-250
q0 182 135.5 296t352.5 114q108 0 199 -30t159 -87.5t106 -148t38 -205.5v-349h149v-229h-209q-67 0 -103 36.5t-36 102.5v35l41 117h-70q-73 -311 -413 -311q-89 0 -157 22t-106 54t-61.5 75t-31 79t-7.5 73zM356 328q0 -59 40.5 -89t105.5 -30q150 0 239.5 74t89.5 196
l-309 -39q-88 -10 -127 -33.5t-39 -78.5z" />
    <glyph glyph-name="Aogonek" unicode="&#x104;" horiz-adv-x="1519" 
d="M1366 -199l320 33v-203l-390 -32q-62 -6 -108.5 23.5t-56 75t15.5 95.5l125 207h-70l-149 504h-586l-150 -504h-266l436 1444h543l438 -1444h-2zM535 733h448l-190 643h-68z" />
    <glyph glyph-name="aogonek" unicode="&#x105;" horiz-adv-x="1275" 
d="M1145 -199l319 33v-203l-389 -32q-62 -6 -108.5 23.5t-56 75t15.5 95.5l125 207h-15q-67 0 -103 36.5t-36 102.5v35l41 117h-70q-73 -311 -413 -311q-89 0 -157 22t-106 54t-61.5 75t-31 79t-7.5 73q0 133 89 210.5t294 102.5l356 43q-6 192 -237 192q-109 0 -173.5 -48
t-64.5 -144h-250q0 182 135.5 296t352.5 114q108 0 199 -30t159 -87.5t106 -148t38 -205.5v-349h149v-229zM502 209q150 0 239.5 74t89.5 196l-309 -39q-88 -10 -127 -33.5t-39 -78.5q0 -59 40.5 -89t105.5 -30z" />
    <glyph glyph-name="Cacute" unicode="&#x106;" horiz-adv-x="1630" 
d="M422 1763l731 170l47 -192l-731 -170zM113 723q0 157 49.5 293t140 235t226 156t298.5 57q292 0 475.5 -154.5t215.5 -422.5h-265q-24 167 -136 257.5t-286 90.5q-214 0 -334 -136.5t-120 -375.5q0 -240 120 -377t334 -137q173 0 285 91.5t137 258.5h265
q-32 -270 -215.5 -424.5t-475.5 -154.5q-163 0 -298 57t-226 156.5t-140.5 235.5t-49.5 294z" />
    <glyph glyph-name="cacute" unicode="&#x107;" horiz-adv-x="1255" 
d="M236 1348l731 170l47 -193l-731 -170zM92 514q0 243 149.5 389t397.5 146q96 0 185 -27t163 -78.5t121.5 -136t54.5 -191.5h-264q-15 98 -84.5 150.5t-175.5 52.5q-137 0 -210 -83.5t-73 -221.5q0 -139 73 -222t210 -83q106 0 175.5 52.5t84.5 150.5h264
q-6 -86 -38.5 -158t-83 -122t-116 -84.5t-138 -51t-148.5 -16.5q-248 0 -397.5 145t-149.5 389z" />
    <glyph glyph-name="Cdotaccent" unicode="&#x10a;" horiz-adv-x="1630" 
d="M823 1569q-85 0 -133.5 41.5t-48.5 113.5q0 71 49 113.5t133 42.5t134.5 -42.5t50.5 -113.5q0 -72 -50 -113.5t-135 -41.5zM113 723q0 157 49.5 293t140 235t226 156t298.5 57q292 0 475.5 -154.5t215.5 -422.5h-265q-24 167 -136 257.5t-286 90.5q-214 0 -334 -136.5
t-120 -375.5q0 -240 120 -377t334 -137q173 0 285 91.5t137 258.5h265q-32 -270 -215.5 -424.5t-475.5 -154.5q-163 0 -298 57t-226 156.5t-140.5 235.5t-49.5 294z" />
    <glyph glyph-name="cdotaccent" unicode="&#x10b;" horiz-adv-x="1255" 
d="M639 1153q-85 0 -133.5 42t-48.5 114q0 71 49 113t133 42t134 -42t50 -113q0 -72 -49.5 -114t-134.5 -42zM92 514q0 243 149.5 389t397.5 146q96 0 185 -27t163 -78.5t121.5 -136t54.5 -191.5h-264q-15 98 -84.5 150.5t-175.5 52.5q-137 0 -210 -83.5t-73 -221.5
q0 -139 73 -222t210 -83q106 0 175.5 52.5t84.5 150.5h264q-6 -86 -38.5 -158t-83 -122t-116 -84.5t-138 -51t-148.5 -16.5q-248 0 -397.5 145t-149.5 389z" />
    <glyph glyph-name="Ccaron" unicode="&#x10c;" horiz-adv-x="1630" 
d="M1223 1845l-398 -293l-399 293l143 135l256 -188l254 188zM113 723q0 157 49.5 293t140 235t226 156t298.5 57q292 0 475.5 -154.5t215.5 -422.5h-265q-24 167 -136 257.5t-286 90.5q-214 0 -334 -136.5t-120 -375.5q0 -240 120 -377t334 -137q173 0 285 91.5t137 258.5
h265q-32 -270 -215.5 -424.5t-475.5 -154.5q-163 0 -298 57t-226 156.5t-140.5 235.5t-49.5 294z" />
    <glyph glyph-name="ccaron" unicode="&#x10d;" horiz-adv-x="1255" 
d="M1038 1430l-397 -293l-399 293l143 135l256 -189l254 189zM92 514q0 243 149.5 389t397.5 146q96 0 185 -27t163 -78.5t121.5 -136t54.5 -191.5h-264q-15 98 -84.5 150.5t-175.5 52.5q-137 0 -210 -83.5t-73 -221.5q0 -139 73 -222t210 -83q106 0 175.5 52.5t84.5 150.5
h264q-6 -86 -38.5 -158t-83 -122t-116 -84.5t-138 -51t-148.5 -16.5q-248 0 -397.5 145t-149.5 389z" />
    <glyph glyph-name="Dcaron" unicode="&#x10e;" horiz-adv-x="1511" 
d="M1026 1845l-397 -293l-400 293l144 135l256 -188l254 188zM637 1444q86 0 159.5 -7t153 -27.5t143 -53.5t122 -88.5t97.5 -129.5t62 -179.5t23 -235.5t-23 -236t-62 -180t-97.5 -130t-122 -89t-143 -53.5t-153 -27.5t-159.5 -7h-504v1444h504zM637 229q64 0 109 3t101 14
t94.5 31.5t77.5 57t62.5 88t38.5 127.5t15 173q0 75 -9 138t-24 110t-39.5 84t-50.5 62.5t-62.5 43.5t-69.5 28t-77.5 16t-80.5 7.5t-85 1.5h-240v-985h240z" />
    <glyph glyph-name="dcaron" unicode="&#x10f;" horiz-adv-x="1693" 
d="M1413 1561h209v-603h-209v603zM1249 0h-264v98l49 156h-69q-93 -274 -410 -274q-144 0 -250.5 72t-159.5 192t-53 270t53 270t159.5 192.5t250.5 72.5q318 0 410 -277h69l-49 158v575h264v-1505zM985 514q0 154 -84 229.5t-233 75.5q-148 0 -230 -75t-82 -230t82 -230
t230 -75q149 0 233 75.5t84 229.5z" />
    <glyph glyph-name="Dcroat" unicode="&#x110;" horiz-adv-x="1660" 
d="M786 1444q86 0 159.5 -7t153.5 -27.5t143.5 -53.5t122 -88.5t98 -129.5t62.5 -179.5t23 -235.5t-23 -236t-62.5 -180t-98 -130t-122 -89t-143.5 -53.5t-153.5 -27.5t-159.5 -7h-501v647h-172v201h172v596h501zM786 229q64 0 109 3t101 14t94.5 31.5t77.5 57t62.5 88
t38.5 127.5t15 173q0 75 -9 138t-24 110t-39.5 84t-50.5 62.5t-62.5 43.5t-69.5 28t-77.5 16t-80.5 7.5t-85 1.5h-239v-366h340v-201h-340v-418h239z" />
    <glyph glyph-name="dcroat" unicode="&#x111;" horiz-adv-x="1443" 
d="M1372 1399v-203h-123v-1196h-264v98l49 156h-69q-93 -274 -410 -274q-144 0 -250.5 72t-159.5 192t-53 270t53 270t159.5 192.5t250.5 72.5q318 0 410 -277h69l-49 158v266h-285v203h285v106h264v-106h123zM668 209q149 0 233 75.5t84 229.5t-84 229.5t-233 75.5
q-148 0 -230 -75t-82 -230t82 -230t230 -75z" />
    <glyph glyph-name="Emacron" unicode="&#x112;" horiz-adv-x="1202" 
d="M225 1860h793v-199l-793 -2v201zM133 0v1444h977v-230h-713v-376h611v-230h-611v-379h713v-229h-977z" />
    <glyph glyph-name="emacron" unicode="&#x113;" horiz-adv-x="1263" 
d="M236 1444h792v-199l-792 -2v201zM92 526q0 242 145 382.5t379 140.5q233 0 376 -135t143 -367v-86h-793q3 -120 78 -193t227 -73q104 0 172 42t88 123h264q-9 -49 -32 -98.5t-66.5 -101t-100.5 -91t-141.5 -64.5t-183.5 -25q-112 0 -204.5 28.5t-156.5 79t-108.5 120
t-65 149.5t-20.5 169zM342 621h543q0 92 -67 151t-202 59q-134 0 -204 -59.5t-70 -150.5z" />
    <glyph glyph-name="Edotaccent" unicode="&#x116;" horiz-adv-x="1202" 
d="M621 1569q-85 0 -134 41.5t-49 113.5q0 71 49.5 113.5t133.5 42.5t134 -42.5t50 -113.5q0 -72 -49.5 -113.5t-134.5 -41.5zM133 0v1444h977v-230h-713v-376h611v-230h-611v-379h713v-229h-977z" />
    <glyph glyph-name="edotaccent" unicode="&#x117;" horiz-adv-x="1263" 
d="M631 1153q-85 0 -133.5 42t-48.5 114q0 71 49 113t133 42t134 -42t50 -113q0 -72 -49.5 -114t-134.5 -42zM92 526q0 242 145 382.5t379 140.5q233 0 376 -135t143 -367v-86h-793q3 -120 78 -193t227 -73q104 0 172 42t88 123h264q-9 -49 -32 -98.5t-66.5 -101t-100.5 -91
t-141.5 -64.5t-183.5 -25q-112 0 -204.5 28.5t-156.5 79t-108.5 120t-65 149.5t-20.5 169zM342 621h543q0 92 -67 151t-202 59q-134 0 -204 -59.5t-70 -150.5z" />
    <glyph glyph-name="Eogonek" unicode="&#x118;" horiz-adv-x="1202" 
d="M1110 1214h-713v-376h611v-230h-611v-379h713v-229h-240l-100 -199l320 33v-203l-390 -32q-62 -6 -108.5 23.5t-56 75t15.5 95.5l125 207h-543v1444h977v-230z" />
    <glyph glyph-name="eogonek" unicode="&#x119;" horiz-adv-x="1263" 
d="M1171 360q-10 -51 -36 -103t-68.5 -103.5t-110.5 -93.5t-151 -62l-98 -197l319 33v-203l-389 -32q-47 -4 -86 12t-59 44.5t-24 65t19 72.5l115 189q-128 7 -227.5 53t-160 121t-91.5 168.5t-31 201.5q0 242 145 382.5t379 140.5q233 0 376 -135t143 -367v-86h-793
q3 -120 78 -193t227 -73q104 0 172 42t88 123h264zM616 831q-134 0 -204 -59.5t-70 -150.5h543q0 92 -67 151t-202 59z" />
    <glyph glyph-name="Ecaron" unicode="&#x11a;" horiz-adv-x="1202" 
d="M1020 1845l-397 -293l-400 293l144 135l256 -188l254 188zM133 0v1444h977v-230h-713v-376h611v-230h-611v-379h713v-229h-977z" />
    <glyph glyph-name="ecaron" unicode="&#x11b;" horiz-adv-x="1263" 
d="M1030 1430l-397 -293l-400 293l144 135l256 -189l254 189zM92 526q0 242 145 382.5t379 140.5q233 0 376 -135t143 -367v-86h-793q3 -120 78 -193t227 -73q104 0 172 42t88 123h264q-9 -49 -32 -98.5t-66.5 -101t-100.5 -91t-141.5 -64.5t-183.5 -25q-112 0 -204.5 28.5
t-156.5 79t-108.5 120t-65 149.5t-20.5 169zM342 621h543q0 92 -67 151t-202 59q-134 0 -204 -59.5t-70 -150.5z" />
    <glyph glyph-name="Gbreve" unicode="&#x11e;" horiz-adv-x="1759" 
d="M1171 1944q0 -80 -21 -148.5t-62.5 -122t-110.5 -84t-158 -30.5q-118 0 -200 53.5t-118 138.5t-36 193h203q0 -106 37 -151.5t114 -45.5t113.5 45.5t36.5 151.5h202zM113 723q0 215 89 383.5t251 263t368 94.5q268 0 445.5 -148.5t210.5 -387.5h-265q-26 153 -119 230
t-272 77q-214 0 -329 -132t-115 -380q0 -255 96.5 -384.5t302.5 -129.5q176 0 268 95.5t89 285.5h-398v201h738q153 0 153 -150v-641h-264v514l49 209h-70q-2 -361 -144.5 -552t-428.5 -191q-209 0 -358.5 95.5t-223 261.5t-73.5 386z" />
    <glyph glyph-name="gbreve" unicode="&#x11f;" horiz-adv-x="1409" 
d="M666 1143q-89 0 -158.5 30.5t-111.5 84t-63.5 122t-21.5 148.5h203q0 -106 37.5 -151.5t114.5 -45.5t113 45.5t36 151.5h203q0 -80 -21 -148.5t-62.5 -122t-110.5 -84t-158 -30.5zM1286 1028h90v-229h-76q-68 0 -110 -29q45 -56 45 -156q0 -147 -119.5 -250t-351.5 -184
q72 4 138.5 2.5t125 -18.5t102 -45t68.5 -76.5t25 -112.5q0 -55 -14.5 -97.5t-48.5 -76t-78 -57.5t-114.5 -40.5t-146 -27t-184.5 -16.5t-217.5 -8t-257.5 -2v229q131 0 218 0.5t174.5 3t140.5 7t103.5 12t76.5 17.5t47 25.5t28.5 34t7.5 43.5q0 43 -28.5 69.5t-89.5 32.5
t-117.5 6t-152 -15.5t-151.5 -26t-155 -31.5l-35 158q379 60 576 113v67q-136 -44 -263 -49t-227.5 27t-161.5 112.5t-61 200.5q0 101 43.5 180t120 128t177 74.5t218.5 25.5q239 0 385 -107q55 52 112.5 69t137.5 17zM666 436q153 0 229 46.5t76 144.5q0 192 -305 192
q-310 0 -310 -192q0 -191 310 -191z" />
    <glyph glyph-name="Gdotaccent" unicode="&#x120;" horiz-adv-x="1759" 
d="M817 1569q-85 0 -133.5 41.5t-48.5 113.5q0 71 49 113.5t133 42.5t134 -42.5t50 -113.5q0 -72 -49.5 -113.5t-134.5 -41.5zM113 723q0 215 89 383.5t251 263t368 94.5q268 0 445.5 -148.5t210.5 -387.5h-265q-26 153 -119 230t-272 77q-214 0 -329 -132t-115 -380
q0 -255 96.5 -384.5t302.5 -129.5q176 0 268 95.5t89 285.5h-398v201h738q153 0 153 -150v-641h-264v514l49 209h-70q-2 -361 -144.5 -552t-428.5 -191q-209 0 -358.5 95.5t-223 261.5t-73.5 386z" />
    <glyph glyph-name="gdotaccent" unicode="&#x121;" horiz-adv-x="1409" 
d="M664 1153q-85 0 -134 42t-49 114q0 71 49.5 113t133.5 42t134 -42t50 -113q0 -72 -49.5 -114t-134.5 -42zM1286 1028h90v-229h-76q-68 0 -110 -29q45 -56 45 -156q0 -147 -119.5 -250t-351.5 -184q72 4 138.5 2.5t125 -18.5t102 -45t68.5 -76.5t25 -112.5
q0 -55 -14.5 -97.5t-48.5 -76t-78 -57.5t-114.5 -40.5t-146 -27t-184.5 -16.5t-217.5 -8t-257.5 -2v229q131 0 218 0.5t174.5 3t140.5 7t103.5 12t76.5 17.5t47 25.5t28.5 34t7.5 43.5q0 43 -28.5 69.5t-89.5 32.5t-117.5 6t-152 -15.5t-151.5 -26t-155 -31.5l-35 158
q379 60 576 113v67q-136 -44 -263 -49t-227.5 27t-161.5 112.5t-61 200.5q0 101 43.5 180t120 128t177 74.5t218.5 25.5q239 0 385 -107q55 52 112.5 69t137.5 17zM666 436q153 0 229 46.5t76 144.5q0 192 -305 192q-310 0 -310 -192q0 -191 310 -191z" />
    <glyph glyph-name="uni0122" unicode="&#x122;" horiz-adv-x="1759" 
d="M113 723q0 215 89 383.5t251 263t368 94.5q268 0 445.5 -148.5t210.5 -387.5h-265q-26 153 -119 230t-272 77q-214 0 -329 -132t-115 -380q0 -255 96.5 -384.5t302.5 -129.5q176 0 268 95.5t89 285.5h-398v201h738q153 0 153 -150v-641h-264v514l49 209h-70
q-2 -361 -144.5 -552t-428.5 -191q-209 0 -358.5 95.5t-223 261.5t-73.5 386zM659 -100l199 -62l-119 -346l-200 62z" />
    <glyph glyph-name="uni0123" unicode="&#x123;" horiz-adv-x="1409" 
d="M887 1569l-131 -416l-203 55l133 414zM1286 1028h90v-229h-76q-68 0 -110 -29q45 -56 45 -156q0 -147 -119.5 -250t-351.5 -184q72 4 138.5 2.5t125 -18.5t102 -45t68.5 -76.5t25 -112.5q0 -55 -14.5 -97.5t-48.5 -76t-78 -57.5t-114.5 -40.5t-146 -27t-184.5 -16.5
t-217.5 -8t-257.5 -2v229q131 0 218 0.5t174.5 3t140.5 7t103.5 12t76.5 17.5t47 25.5t28.5 34t7.5 43.5q0 43 -28.5 69.5t-89.5 32.5t-117.5 6t-152 -15.5t-151.5 -26t-155 -31.5l-35 158q379 60 576 113v67q-136 -44 -263 -49t-227.5 27t-161.5 112.5t-61 200.5
q0 101 43.5 180t120 128t177 74.5t218.5 25.5q239 0 385 -107q55 52 112.5 69t137.5 17zM666 436q153 0 229 46.5t76 144.5q0 192 -305 192q-310 0 -310 -192q0 -191 310 -191z" />
    <glyph glyph-name="Hbar" unicode="&#x126;" horiz-adv-x="1693" 
d="M1620 1264v-201h-123v-1063h-262v592h-776v-592h-264v1063h-123v201h123v180h264v-180h776v180h262v-180h123zM1235 821v242h-776v-242h776z" />
    <glyph glyph-name="hbar" unicode="&#x127;" horiz-adv-x="1402" 
d="M885 1049q190 0 297.5 -119.5t107.5 -345.5v-584h-264v545q0 149 -53 211.5t-176 62.5q-152 0 -238 -101t-86 -308v-410h-264v1196h-117v203h117v106h264v-106h293v-203h-293v-313l-49 -158h70q32 146 132 235t259 89z" />
    <glyph glyph-name="Imacron" unicode="&#x12a;" horiz-adv-x="1140" 
d="M967 1860v-199l-793 -2v201h793zM1028 1214h-326v-985h326v-229h-915v229h325v985h-325v230h915v-230z" />
    <glyph glyph-name="imacron" unicode="&#x12b;" horiz-adv-x="997" 
d="M82 1444h792v-199l-792 -2v201zM113 0v229h293v584l-238 -14v229l326 21q80 4 120.5 -37.5t40.5 -122.5v-660h291v-229h-833z" />
    <glyph glyph-name="Iogonek" unicode="&#x12e;" horiz-adv-x="1140" 
d="M719 -199l319 33v-203l-389 -32q-62 -6 -108.5 23.5t-56 75t15.5 95.5l125 207h-512v229h325v985h-325v230h915v-230h-326v-985h326v-229h-209z" />
    <glyph glyph-name="iogonek" unicode="&#x12f;" horiz-adv-x="976" 
d="M442 1153q-85 0 -133.5 42t-48.5 114q0 71 49 113t133 42q85 0 135 -42t50 -113q0 -72 -50 -114t-135 -42zM926 0h-240l-100 -199l319 33v-203l-389 -32q-62 -6 -108.5 23.5t-56 75t15.5 95.5l125 207h-400v229h293v584l-238 -14v229l326 21q80 4 121 -37.5t41 -122.5
v-660h291v-229z" />
    <glyph glyph-name="Idotaccent" unicode="&#x130;" horiz-adv-x="1140" 
d="M569 1569q-85 0 -133.5 41.5t-48.5 113.5q0 71 49 113.5t133 42.5t134.5 -42.5t50.5 -113.5q0 -72 -50 -113.5t-135 -41.5zM1028 1214h-326v-985h326v-229h-915v229h325v985h-325v230h915v-230z" />
    <glyph glyph-name="dotlessi" unicode="&#x131;" horiz-adv-x="976" 
d="M92 0v229h293v584l-238 -14v229l326 21q80 4 121 -37.5t41 -122.5v-660h291v-229h-834z" />
    <glyph glyph-name="uni0136" unicode="&#x136;" horiz-adv-x="1495" 
d="M1442 1444l-873 -723l873 -721h-383l-662 551v-551h-264v1444h264v-553l662 553h383zM489 -446l121 346l199 -62l-119 -346z" />
    <glyph glyph-name="uni0137" unicode="&#x137;" horiz-adv-x="1282" 
d="M842 539l368 -539h-301l-291 428l-221 -111v-317h-264v1505h264v-915l492 246l-10 192h262l8 -211q3 -125 -111 -180zM418 -446l121 346l198 -62l-119 -346z" />
    <glyph glyph-name="Lacute" unicode="&#x139;" horiz-adv-x="1171" 
d="M135 1763l729 172l47 -192l-731 -172zM299 -20q-75 -1 -115.5 38t-40.5 113v1313h265v-1235l710 20v-229z" />
    <glyph glyph-name="lacute" unicode="&#x13a;" horiz-adv-x="989" 
d="M68 1825l731 172l47 -193l-731 -172zM102 0v229h287v1061l-231 -14v229l331 17q79 4 120.5 -37t41.5 -123v-1133h287v-229h-836z" />
    <glyph glyph-name="uni013B" unicode="&#x13b;" horiz-adv-x="1161" 
d="M289 -20q-74 -2 -115 38t-41 113v1313h264v-1235l713 20v-229zM555 -100l199 -62l-119 -346l-201 62z" />
    <glyph glyph-name="uni013C" unicode="&#x13c;" horiz-adv-x="960" 
d="M72 0v229h286v1061l-231 -14v229l332 17q79 4 121.5 -37t42.5 -123v-1133h284v-229h-835zM373 -100l198 -62l-118 -346l-201 62z" />
    <glyph glyph-name="Lcaron" unicode="&#x13d;" horiz-adv-x="1181" 
d="M629 1561h209v-603h-209v603zM289 -20q-74 -2 -115 38t-41 113v1313h264v-1235l713 20v-229z" />
    <glyph glyph-name="lcaron" unicode="&#x13e;" horiz-adv-x="1032" 
d="M772 1561h209v-603h-209v603zM72 0v229h286v1061l-231 -14v229l332 17q79 4 121.5 -37t42.5 -123v-1133h284v-229h-835z" />
    <glyph glyph-name="Lslash" unicode="&#x141;" horiz-adv-x="1329" 
d="M545 209l712 20v-229l-821 -20q-74 -2 -114.5 38t-40.5 113v487l-138 -36l-51 192l189 51v619h264v-547l364 98l52 -192l-416 -113v-481z" />
    <glyph glyph-name="lslash" unicode="&#x142;" horiz-adv-x="960" 
d="M623 229h284v-229h-835v229h286v379l-217 -59l-51 194l268 72v475l-231 -14v229l332 17q79 4 121.5 -37t42.5 -123v-475l217 59l51 -194l-268 -72v-451z" />
    <glyph glyph-name="Nacute" unicode="&#x143;" horiz-adv-x="1624" 
d="M449 1763l731 170l47 -192l-731 -170zM133 0v1444h522l551 -1376h68l-47 172v1204h262v-1444h-522l-549 1376h-68l47 -172v-1204h-264z" />
    <glyph glyph-name="nacute" unicode="&#x144;" horiz-adv-x="1329" 
d="M305 1348l731 170l47 -193l-731 -170zM721 819q-151 0 -237.5 -101.5t-86.5 -307.5v-410h-264v1028h264v-145l-47 -158h68q32 146 132 235t259 89q190 0 297.5 -119.5t107.5 -345.5v-584h-262v545q0 148 -53.5 211t-177.5 63z" />
    <glyph glyph-name="uni0145" unicode="&#x145;" horiz-adv-x="1624" 
d="M133 0v1444h522l551 -1376h68l-47 172v1204h262v-1444h-522l-549 1376h-68l47 -172v-1204h-264zM700 -100l199 -62l-119 -346l-200 62z" />
    <glyph glyph-name="uni0146" unicode="&#x146;" horiz-adv-x="1329" 
d="M721 819q-151 0 -237.5 -101.5t-86.5 -307.5v-410h-264v1028h264v-145l-47 -158h68q32 146 132 235t259 89q190 0 297.5 -119.5t107.5 -345.5v-584h-262v545q0 148 -53.5 211t-177.5 63zM569 -100l199 -62l-119 -346l-200 62z" />
    <glyph glyph-name="Ncaron" unicode="&#x147;" horiz-adv-x="1624" 
d="M1251 1845l-397 -293l-399 293l143 135l256 -188l254 188zM133 0v1444h522l551 -1376h68l-47 172v1204h262v-1444h-522l-549 1376h-68l47 -172v-1204h-264z" />
    <glyph glyph-name="ncaron" unicode="&#x148;" horiz-adv-x="1329" 
d="M1106 1430l-397 -293l-400 293l144 135l256 -189l254 189zM721 819q-151 0 -237.5 -101.5t-86.5 -307.5v-410h-264v1028h264v-145l-47 -158h68q32 146 132 235t259 89q190 0 297.5 -119.5t107.5 -345.5v-584h-262v545q0 148 -53.5 211t-177.5 63z" />
    <glyph glyph-name="Eng" unicode="&#x14a;" horiz-adv-x="1624" 
d="M1227 1444h262v-1694q0 -76 -41.5 -116t-120.5 -37l-461 16v229l361 -14v172h-260l-549 1376h-68l47 -172v-1204h-264v1444h522l551 -1376h68l-47 172v1204z" />
    <glyph glyph-name="eng" unicode="&#x14b;" horiz-adv-x="1329" 
d="M809 1049q190 0 297.5 -119.5t107.5 -345.5v-834q0 -76 -41 -116t-120 -37l-461 16v229l360 -14v717q0 148 -53.5 211t-177.5 63q-151 0 -237.5 -101.5t-86.5 -307.5v-410h-264v1028h264v-145l-47 -158h68q32 146 132 235t259 89z" />
    <glyph glyph-name="Omacron" unicode="&#x14c;" horiz-adv-x="1648" 
d="M428 1860h793v-199l-793 -2v201zM113 723q0 157 49.5 293t139.5 235t225 156t298 57q216 0 379 -98t247.5 -265t84.5 -378q0 -212 -84.5 -379.5t-247.5 -265.5t-379 -98q-163 0 -298 57t-225 156.5t-139.5 235.5t-49.5 294zM377 723q0 -236 115 -375t333 -139t332.5 139
t114.5 375q0 235 -114.5 373.5t-332.5 138.5t-333 -138.5t-115 -373.5z" />
    <glyph glyph-name="omacron" unicode="&#x14d;" horiz-adv-x="1314" 
d="M262 1444h793v-199l-793 -2v201zM92 514q0 247 157.5 391t407.5 144q163 0 290 -63t200.5 -185.5t73.5 -286.5t-73.5 -286.5t-200.5 -185t-290 -62.5q-250 0 -407.5 143.5t-157.5 390.5zM356 514q0 -141 80 -223t221 -82t221 82t80 223t-80 223t-221 82t-221 -82
t-80 -223z" />
    <glyph glyph-name="Ohungarumlaut" unicode="&#x150;" horiz-adv-x="1648" 
d="M426 1692l362 321l142 -135l-363 -319zM868 1692l363 321l141 -135l-362 -319zM113 723q0 157 49.5 293t139.5 235t225 156t298 57q216 0 379 -98t247.5 -265t84.5 -378q0 -212 -84.5 -379.5t-247.5 -265.5t-379 -98q-163 0 -298 57t-225 156.5t-139.5 235.5t-49.5 294z
M377 723q0 -236 115 -375t333 -139t332.5 139t114.5 375q0 235 -114.5 373.5t-332.5 138.5t-333 -138.5t-115 -373.5z" />
    <glyph glyph-name="ohungarumlaut" unicode="&#x151;" horiz-adv-x="1314" 
d="M260 1276l363 321l141 -135l-363 -319zM702 1276l363 321l141 -135l-362 -319zM92 514q0 247 157.5 391t407.5 144q163 0 290 -63t200.5 -185.5t73.5 -286.5t-73.5 -286.5t-200.5 -185t-290 -62.5q-250 0 -407.5 143.5t-157.5 390.5zM356 514q0 -141 80 -223t221 -82
t221 82t80 223t-80 223t-221 82t-221 -82t-80 -223z" />
    <glyph glyph-name="OE" unicode="&#x152;" horiz-adv-x="2361" 
d="M2267 1214h-711v-376h609v-230h-609v-379h711v-229h-975v141q-188 -161 -467 -161q-163 0 -298 57t-225 156.5t-139.5 235.5t-49.5 294q0 157 49.5 293t139.5 235t225 156t298 57q279 0 467 -161v141h975v-230zM825 209q218 0 332.5 139t114.5 375q0 235 -114.5 373.5
t-332.5 138.5t-333 -138.5t-115 -373.5q0 -236 115 -375t333 -139z" />
    <glyph glyph-name="oe" unicode="&#x153;" horiz-adv-x="2189" 
d="M1833 360h264q-9 -49 -31.5 -98.5t-65.5 -101t-100.5 -91t-142.5 -64.5t-184 -25q-309 0 -455 204q-73 -98 -193 -151t-268 -53q-250 0 -407.5 143.5t-157.5 390.5t157.5 391t407.5 144q145 0 263.5 -52t193.5 -147q68 95 179 147t249 52q234 0 376 -135t142 -367v-86
h-790q3 -120 77.5 -193t225.5 -73q104 0 172 42t88 123zM1542 831q-134 0 -203 -59.5t-69 -150.5h540q0 92 -66 151t-202 59zM657 209q141 0 221 82t80 223t-80 223t-221 82t-221 -82t-80 -223t80 -223t221 -82z" />
    <glyph glyph-name="Racute" unicode="&#x154;" horiz-adv-x="1423" 
d="M279 1763l731 170l47 -192l-731 -170zM133 0v1444h529q109 0 196 -10.5t166.5 -38.5t132.5 -72.5t84 -116t31 -166.5q0 -284 -328 -329v-70h197q149 0 149 -147v-494h-264v537h-629v-537h-264zM397 766h265q54 0 87.5 1t74.5 6t65 14t49.5 25t39 39.5t22 58t8.5 79.5
q0 46 -8.5 81t-21.5 58.5t-39 40t-50 25.5t-65.5 13.5t-74 5.5t-87.5 1h-265v-448z" />
    <glyph glyph-name="racute" unicode="&#x155;" horiz-adv-x="976" 
d="M150 1348l731 170l45 -193l-729 -170zM150 0v887q0 78 41.5 119t119.5 38l633 -16v-229l-530 14v-813h-264z" />
    <glyph glyph-name="uni0156" unicode="&#x156;" horiz-adv-x="1423" 
d="M133 0v1444h529q109 0 196 -10.5t166.5 -38.5t132.5 -72.5t84 -116t31 -166.5q0 -284 -328 -329v-70h197q149 0 149 -147v-494h-264v537h-629v-537h-264zM397 766h265q54 0 87.5 1t74.5 6t65 14t49.5 25t39 39.5t22 58t8.5 79.5q0 46 -8.5 81t-21.5 58.5t-39 40t-50 25.5
t-65.5 13.5t-74 5.5t-87.5 1h-265v-448zM631 -100l198 -62l-118 -346l-201 62z" />
    <glyph glyph-name="uni0157" unicode="&#x157;" horiz-adv-x="944" 
d="M119 0v887q0 79 41.5 119.5t120.5 37.5l632 -16v-229l-530 14v-813h-264zM141 -100l199 -62l-119 -346l-201 62z" />
    <glyph glyph-name="Rcaron" unicode="&#x158;" horiz-adv-x="1423" 
d="M1079 1845l-397 -293l-399 293l143 135l256 -188l254 188zM133 0v1444h529q109 0 196 -10.5t166.5 -38.5t132.5 -72.5t84 -116t31 -166.5q0 -284 -328 -329v-70h197q149 0 149 -147v-494h-264v537h-629v-537h-264zM397 766h265q54 0 87.5 1t74.5 6t65 14t49.5 25t39 39.5
t22 58t8.5 79.5q0 46 -8.5 81t-21.5 58.5t-39 40t-50 25.5t-65.5 13.5t-74 5.5t-87.5 1h-265v-448z" />
    <glyph glyph-name="rcaron" unicode="&#x159;" horiz-adv-x="980" 
d="M946 1430l-397 -293l-399 293l143 135l256 -189l254 189zM145 0v887q0 78 42 119t120 38l633 -16v-229l-530 14v-813h-265z" />
    <glyph glyph-name="Sacute" unicode="&#x15a;" horiz-adv-x="1427" 
d="M311 1763l731 170l48 -192l-732 -170zM1356 385q0 -92 -32 -163.5t-100 -127t-185 -85t-277 -29.5q-189 0 -324 38.5t-214.5 114.5t-115.5 178.5t-36 239.5h264q0 -101 25.5 -167.5t81.5 -105t133 -54t192 -15.5q168 0 246 41t78 129q0 22 -6.5 42t-16 36.5t-28.5 32
t-35.5 27.5t-45 25t-49.5 22t-57 21t-59 19.5t-64.5 20.5t-64.5 20q-61 20 -97 32t-88.5 31.5t-84 35t-72.5 38.5t-65 44.5t-50 51t-40 61.5t-23 71t-9 84q0 179 137 274.5t408 95.5q127 0 231 -27t174 -74t118 -112t69.5 -138t21.5 -155h-264q0 145 -95 211t-255 66
q-281 0 -281 -148q0 -72 61.5 -112.5t244.5 -100.5q219 -72 263 -90q251 -97 336 -227q50 -77 50 -172z" />
    <glyph glyph-name="sacute" unicode="&#x15b;" horiz-adv-x="1085" 
d="M152 1348l731 170l47 -193l-731 -170zM1034 276q0 -136 -105.5 -216t-342.5 -80q-262 0 -388 103.5t-126 291.5h264q0 -193 256 -193q90 0 134 23t44 76q0 22 -9.5 39.5t-23.5 30t-43 25t-56 21.5t-74 24q-10 3 -16 5t-15 4.5t-17 5.5q-163 53 -216 78q-141 68 -172 178
q-9 35 -9 74q0 132 111.5 207.5t308.5 75.5q121 0 212.5 -30t144 -81.5t78 -114.5t25.5 -137h-264q0 76 -50 118t-148 42q-154 0 -154 -86q0 -17 6.5 -31t23.5 -27t34.5 -23t51.5 -23.5t61 -22.5t77 -25q13 -4 37 -12l63 -21t58 -20.5t56.5 -23.5t49 -26.5t45.5 -31.5
t35.5 -37t29 -45t16.5 -52.5t7 -62.5z" />
    <glyph glyph-name="Scedilla" unicode="&#x15e;" horiz-adv-x="1427" 
d="M1356 385q0 -391 -557 -405l-92 -99q84 35 167 35q68 0 113 -28t45 -93q0 -45 -18 -79t-54 -56t-79.5 -36.5t-106 -21.5t-120.5 -9.5t-136 -2.5v162h52q152 0 206.5 8t54.5 45q0 17 -12.5 27t-34.5 10q-57 0 -153 -43l-92 86l61 103q-144 16 -246.5 61.5t-164 119
t-89.5 167.5t-28 215h264q0 -101 25.5 -167.5t81.5 -105t133 -54t192 -15.5q168 0 246 41t78 129q0 22 -6.5 42t-16 36.5t-28.5 32t-35.5 27.5t-45 25t-49.5 22t-57 21t-59 19.5t-64.5 20.5t-64.5 20q-61 20 -97 32t-88.5 31.5t-84 35t-72.5 38.5t-65 44.5t-50 51t-40 61.5
t-23 71t-9 84q0 179 137 274.5t408 95.5q127 0 231 -27t174 -74t118 -112t69.5 -138t21.5 -155h-264q0 145 -95 211t-255 66q-281 0 -281 -148q0 -72 61.5 -112.5t244.5 -100.5q219 -72 263 -90q251 -97 336 -227q50 -77 50 -172z" />
    <glyph glyph-name="scedilla" unicode="&#x15f;" horiz-adv-x="1085" 
d="M1034 276q0 -278 -397 -294l-92 -101q84 35 168 35q67 0 112 -28t45 -93q0 -45 -18 -79t-54 -56t-79.5 -36.5t-106 -21.5t-120.5 -9.5t-136 -2.5v162h52q152 0 207 8t55 45q0 17 -12.5 27t-34.5 10q-58 0 -154 -43l-92 86l63 105q-187 27 -277.5 126t-90.5 259h264
q0 -193 256 -193q90 0 134 23t44 76q0 22 -9.5 39.5t-23.5 30t-43 25t-56 21.5t-74 24q-10 3 -16 5t-15 4.5t-17 5.5q-163 53 -216 78q-141 68 -172 178q-9 35 -9 74q0 132 111.5 207.5t308.5 75.5q121 0 212.5 -30t144 -81.5t78 -114.5t25.5 -137h-264q0 76 -50 118
t-148 42q-154 0 -154 -86q0 -17 6.5 -31t23.5 -27t34.5 -23t51.5 -23.5t61 -22.5t77 -25q13 -4 37 -12l63 -21t58 -20.5t56.5 -23.5t49 -26.5t45.5 -31.5t35.5 -37t29 -45t16.5 -52.5t7 -62.5z" />
    <glyph glyph-name="Scaron" unicode="&#x160;" horiz-adv-x="1427" 
d="M1112 1845l-397 -293l-400 293l144 135l256 -188l254 188zM1356 385q0 -92 -32 -163.5t-100 -127t-185 -85t-277 -29.5q-189 0 -324 38.5t-214.5 114.5t-115.5 178.5t-36 239.5h264q0 -101 25.5 -167.5t81.5 -105t133 -54t192 -15.5q168 0 246 41t78 129q0 22 -6.5 42
t-16 36.5t-28.5 32t-35.5 27.5t-45 25t-49.5 22t-57 21t-59 19.5t-64.5 20.5t-64.5 20q-61 20 -97 32t-88.5 31.5t-84 35t-72.5 38.5t-65 44.5t-50 51t-40 61.5t-23 71t-9 84q0 179 137 274.5t408 95.5q127 0 231 -27t174 -74t118 -112t69.5 -138t21.5 -155h-264
q0 145 -95 211t-255 66q-281 0 -281 -148q0 -72 61.5 -112.5t244.5 -100.5q219 -72 263 -90q251 -97 336 -227q50 -77 50 -172z" />
    <glyph glyph-name="scaron" unicode="&#x161;" horiz-adv-x="1085" 
d="M952 1430l-397 -293l-399 293l143 135l256 -189l254 189zM1034 276q0 -136 -105.5 -216t-342.5 -80q-262 0 -388 103.5t-126 291.5h264q0 -193 256 -193q90 0 134 23t44 76q0 22 -9.5 39.5t-23.5 30t-43 25t-56 21.5t-74 24q-10 3 -16 5t-15 4.5t-17 5.5q-163 53 -216 78
q-141 68 -172 178q-9 35 -9 74q0 132 111.5 207.5t308.5 75.5q121 0 212.5 -30t144 -81.5t78 -114.5t25.5 -137h-264q0 76 -50 118t-148 42q-154 0 -154 -86q0 -17 6.5 -31t23.5 -27t34.5 -23t51.5 -23.5t61 -22.5t77 -25q13 -4 37 -12l63 -21t58 -20.5t56.5 -23.5t49 -26.5
t45.5 -31.5t35.5 -37t29 -45t16.5 -52.5t7 -62.5z" />
    <glyph glyph-name="uni0162" unicode="&#x162;" horiz-adv-x="1376" 
d="M821 0h-30l-111 -119q84 35 168 35q68 0 113 -28t45 -93q0 -45 -18 -79t-54 -56t-79.5 -36.5t-106 -21.5t-120.5 -9.5t-136 -2.5v162h52q152 0 206.5 8t54.5 45q0 17 -12.5 27t-34.5 10q-58 0 -154 -43l-92 86l70 115h-25v1214h-485v230h1231v-230h-482v-1214z" />
    <glyph glyph-name="uni0163" unicode="&#x163;" horiz-adv-x="976" 
d="M750 -84q67 0 112 -28t45 -93q0 -45 -18 -79t-54 -56t-79.5 -36.5t-106 -21.5t-120.5 -9.5t-136 -2.5v162h52q152 0 207 8t55 45q0 17 -13 27t-35 10q-57 0 -153 -43l-92 86l57 97l-43 -2q-77 -3 -118.5 38.5t-41.5 120.5v660h-237v229h237v221l264 82v-303h330v-229
h-330v-590l371 20v-229l-219 -10l-102 -109q84 35 168 35z" />
    <glyph glyph-name="Tcaron" unicode="&#x164;" horiz-adv-x="1376" 
d="M1087 1845l-397 -293l-399 293l143 135l256 -188l254 188zM1303 1444v-230h-482v-1214h-264v1214h-485v230h1231z" />
    <glyph glyph-name="tcaron" unicode="&#x165;" horiz-adv-x="976" 
d="M872 1505v-368h-208v368h208zM532 209l371 20v-229l-475 -20q-77 -3 -118.5 38.5t-41.5 120.5v660h-237v229h237v221l264 82v-303h330v-229h-330v-590z" />
    <glyph glyph-name="Tbar" unicode="&#x166;" horiz-adv-x="1376" 
d="M1303 1214h-482v-407h309v-201h-309v-606h-264v606h-313v201h313v407h-485v230h1231v-230z" />
    <glyph glyph-name="tbar" unicode="&#x167;" horiz-adv-x="976" 
d="M532 209l371 20v-229l-475 -20q-77 -3 -118.5 38.5t-41.5 120.5v318h-196v202h196v140h-237v229h237v221l264 82v-303h330v-229h-330v-140h283v-202h-283v-248z" />
    <glyph glyph-name="Umacron" unicode="&#x16a;" horiz-adv-x="1425" 
d="M315 1860h793v-199l-793 -2v201zM92 537v907h264v-809q0 -87 8 -149.5t31 -117.5t62.5 -88t103 -52t152.5 -19t152.5 19t103 52t62 88.5t30.5 117t8 149.5v809h264v-907q0 -272 -156 -414.5t-464 -142.5q-309 0 -465 142.5t-156 414.5z" />
    <glyph glyph-name="umacron" unicode="&#x16b;" horiz-adv-x="1308" 
d="M264 1444h793v-199l-793 -2v201zM608 209q151 0 237.5 101t86.5 306v412h262v-1028h-262v145l47 158h-68q-32 -146 -132 -234.5t-259 -88.5q-192 0 -299.5 119t-107.5 343v586h264v-545q0 -149 53 -211.5t178 -62.5z" />
    <glyph glyph-name="Uring" unicode="&#x16e;" horiz-adv-x="1425" 
d="M711 1556q-136 0 -213.5 63.5t-77.5 176.5q0 111 77.5 175.5t213.5 64.5q135 0 212.5 -64.5t77.5 -175.5t-77.5 -175.5t-212.5 -64.5zM711 1716q88 0 88 80q0 39 -23.5 58.5t-64.5 19.5t-64.5 -19.5t-23.5 -58.5q0 -80 88 -80zM92 537v907h264v-809q0 -87 8 -149.5
t31 -117.5t62.5 -88t103 -52t152.5 -19t152.5 19t103 52t62 88.5t30.5 117t8 149.5v809h264v-907q0 -272 -156 -414.5t-464 -142.5q-309 0 -465 142.5t-156 414.5z" />
    <glyph glyph-name="uring" unicode="&#x16f;" horiz-adv-x="1308" 
d="M659 1141q-137 0 -213.5 63.5t-76.5 175.5q0 111 77 175.5t213 64.5q135 0 213 -64.5t78 -175.5q0 -110 -78 -174.5t-213 -64.5zM659 1300q89 0 89 80q0 39 -24 58.5t-65 19.5t-64.5 -19.5t-23.5 -58.5q0 -80 88 -80zM608 209q151 0 237.5 101t86.5 306v412h262v-1028
h-262v145l47 158h-68q-32 -146 -132 -234.5t-259 -88.5q-192 0 -299.5 119t-107.5 343v586h264v-545q0 -149 53 -211.5t178 -62.5z" />
    <glyph glyph-name="Uhungarumlaut" unicode="&#x170;" horiz-adv-x="1425" 
d="M313 1692l363 321l141 -135l-362 -319zM756 1692l362 321l142 -135l-363 -319zM92 537v907h264v-809q0 -87 8 -149.5t31 -117.5t62.5 -88t103 -52t152.5 -19t152.5 19t103 52t62 88.5t30.5 117t8 149.5v809h264v-907q0 -272 -156 -414.5t-464 -142.5q-309 0 -465 142.5
t-156 414.5z" />
    <glyph glyph-name="uhungarumlaut" unicode="&#x171;" horiz-adv-x="1308" 
d="M262 1276l363 321l141 -135l-363 -319zM705 1276l362 321l141 -135l-362 -319zM608 209q151 0 237.5 101t86.5 306v412h262v-1028h-262v145l47 158h-68q-32 -146 -132 -234.5t-259 -88.5q-192 0 -299.5 119t-107.5 343v586h264v-545q0 -149 53 -211.5t178 -62.5z" />
    <glyph glyph-name="Uogonek" unicode="&#x172;" horiz-adv-x="1425" 
d="M1069 1444h264v-907q0 -222 -104.5 -358.5t-310.5 -180.5l-99 -197l320 33v-203l-389 -32q-47 -4 -86 12t-59 44.5t-24 65t19 72.5l113 187q-309 0 -465 142.5t-156 414.5v907h264v-809q0 -87 8 -149.5t31 -117.5t62.5 -88t103 -52t152.5 -19t152.5 19t103 52t62 88.5
t30.5 117t8 149.5v809z" />
    <glyph glyph-name="uogonek" unicode="&#x173;" horiz-adv-x="1308" 
d="M1094 -199l319 33v-203l-389 -32q-47 -4 -86 12t-59 44.5t-24 65t19 72.5l125 207h-67v145l47 158h-68q-32 -146 -132 -234.5t-259 -88.5q-192 0 -299.5 119t-107.5 343v586h264v-545q0 -149 53 -211.5t178 -62.5q151 0 237.5 101t86.5 306v412h262v-1028z" />
    <glyph glyph-name="Wcircumflex" unicode="&#x174;" horiz-adv-x="2265" 
d="M1530 1679l-144 -135l-253 189l-256 -189l-144 135l400 293zM51 1444h254l256 -1376h70l223 1376h557l223 -1376h70l256 1376h254l-272 -1444h-545l-230 1376h-69l-230 -1376h-544z" />
    <glyph glyph-name="wcircumflex" unicode="&#x175;" horiz-adv-x="1869" 
d="M1333 1264l-143 -136l-254 189l-256 -189l-143 136l399 292zM31 1028h252l178 -960h69l129 960h549l131 -960h68l180 960h250l-190 -1028h-547l-131 958h-68l-131 -958h-549z" />
    <glyph glyph-name="Ycircumflex" unicode="&#x176;" horiz-adv-x="1427" 
d="M1112 1679l-143 -135l-254 189l-256 -189l-144 135l400 293zM1094 1444h282l-530 -950v-494h-264v494l-531 950h283l346 -643v-158h68v158z" />
    <glyph glyph-name="ycircumflex" unicode="&#x177;" horiz-adv-x="1310" 
d="M666 1317l-256 -189l-144 136l400 292l397 -292l-143 -136zM963 1028h294l-460 -987v-305q0 -76 -41.5 -115.5t-120.5 -36.5l-461 17v229l361 -12v223l-463 987h295l264 -659v-129h69v129z" />
    <glyph glyph-name="Ydieresis" unicode="&#x178;" horiz-adv-x="1427" 
d="M469 1569q-85 0 -133.5 41.5t-48.5 113.5q0 71 49 113.5t133 42.5t134 -42.5t50 -113.5q0 -72 -49.5 -113.5t-134.5 -41.5zM956 1569q-84 0 -132 41.5t-48 113.5q0 71 48 113.5t132 42.5t134.5 -42.5t50.5 -113.5q0 -72 -50 -113.5t-135 -41.5zM1094 1444h282l-530 -950
v-494h-264v494l-531 950h283l346 -643v-158h68v158z" />
    <glyph glyph-name="Zacute" unicode="&#x179;" horiz-adv-x="1353" 
d="M274 1763l732 170l47 -192l-731 -170zM92 0v492l1100 702v68l-156 -48h-944v230h1170v-492l-1100 -702v-68l155 47h945v-229h-1170z" />
    <glyph glyph-name="zacute" unicode="&#x17a;" horiz-adv-x="1169" 
d="M182 1348l731 170l48 -193l-732 -170zM92 0v455l916 323v68l-156 -47h-760v229h985v-455l-915 -323v-68l155 47h760v-229h-985z" />
    <glyph glyph-name="Zdotaccent" unicode="&#x17b;" horiz-adv-x="1353" 
d="M676 1569q-85 0 -133.5 41.5t-48.5 113.5q0 71 49 113.5t133 42.5t134 -42.5t50 -113.5q0 -72 -49.5 -113.5t-134.5 -41.5zM92 0v492l1100 702v68l-156 -48h-944v230h1170v-492l-1100 -702v-68l155 47h945v-229h-1170z" />
    <glyph glyph-name="zdotaccent" unicode="&#x17c;" horiz-adv-x="1169" 
d="M584 1153q-85 0 -134 42t-49 114q0 71 49.5 113t133.5 42t134 -42t50 -113q0 -72 -49.5 -114t-134.5 -42zM92 0v455l916 323v68l-156 -47h-760v229h985v-455l-915 -323v-68l155 47h760v-229h-985z" />
    <glyph glyph-name="Zcaron" unicode="&#x17d;" horiz-adv-x="1353" 
d="M1075 1845l-397 -293l-399 293l143 135l256 -188l254 188zM92 0v492l1100 702v68l-156 -48h-944v230h1170v-492l-1100 -702v-68l155 47h945v-229h-1170z" />
    <glyph glyph-name="zcaron" unicode="&#x17e;" horiz-adv-x="1169" 
d="M983 1430l-397 -293l-400 293l144 135l256 -189l254 189zM92 0v455l916 323v68l-156 -47h-760v229h985v-455l-915 -323v-68l155 47h760v-229h-985z" />
    <glyph glyph-name="uni0218" unicode="&#x218;" horiz-adv-x="1427" 
d="M1356 385q0 -92 -32 -163.5t-100 -127t-185 -85t-277 -29.5q-189 0 -324 38.5t-214.5 114.5t-115.5 178.5t-36 239.5h264q0 -101 25.5 -167.5t81.5 -105t133 -54t192 -15.5q168 0 246 41t78 129q0 22 -6.5 42t-16 36.5t-28.5 32t-35.5 27.5t-45 25t-49.5 22t-57 21
t-59 19.5t-64.5 20.5t-64.5 20q-61 20 -97 32t-88.5 31.5t-84 35t-72.5 38.5t-65 44.5t-50 51t-40 61.5t-23 71t-9 84q0 179 137 274.5t408 95.5q127 0 231 -27t174 -74t118 -112t69.5 -138t21.5 -155h-264q0 145 -95 211t-255 66q-281 0 -281 -148q0 -72 61.5 -112.5
t244.5 -100.5q219 -72 263 -90q251 -97 336 -227q50 -77 50 -172zM604 -100l199 -62l-119 -346l-201 62z" />
    <glyph glyph-name="uni0219" unicode="&#x219;" horiz-adv-x="1085" 
d="M1034 276q0 -136 -105.5 -216t-342.5 -80q-262 0 -388 103.5t-126 291.5h264q0 -193 256 -193q90 0 134 23t44 76q0 22 -9.5 39.5t-23.5 30t-43 25t-56 21.5t-74 24q-10 3 -16 5t-15 4.5t-17 5.5q-163 53 -216 78q-141 68 -172 178q-9 35 -9 74q0 132 111.5 207.5
t308.5 75.5q121 0 212.5 -30t144 -81.5t78 -114.5t25.5 -137h-264q0 76 -50 118t-148 42q-154 0 -154 -86q0 -17 6.5 -31t23.5 -27t34.5 -23t51.5 -23.5t61 -22.5t77 -25q13 -4 37 -12l63 -21t58 -20.5t56.5 -23.5t49 -26.5t45.5 -31.5t35.5 -37t29 -45t16.5 -52.5t7 -62.5z
M442 -100l199 -62l-119 -346l-200 62z" />
    <glyph glyph-name="uni021A" unicode="&#x21a;" horiz-adv-x="1376" 
d="M1303 1444v-230h-482v-1214h-264v1214h-485v230h1231zM457 -446l121 346l198 -62l-119 -346z" />
    <glyph glyph-name="uni021B" unicode="&#x21b;" horiz-adv-x="976" 
d="M532 209l371 20v-229l-475 -20q-77 -3 -118.5 38.5t-41.5 120.5v660h-237v229h237v221l264 82v-303h330v-229h-330v-590zM358 -446l121 346l199 -62l-119 -346z" />
    <glyph glyph-name="circumflex" unicode="&#x2c6;" horiz-adv-x="1103" 
d="M950 1264l-143 -136l-254 189l-256 -189l-143 136l399 292z" />
    <glyph glyph-name="caron" unicode="&#x2c7;" horiz-adv-x="1103" 
d="M950 1430l-397 -293l-399 293l143 135l256 -189l254 189z" />
    <glyph glyph-name="breve" unicode="&#x2d8;" horiz-adv-x="1013" 
d="M860 1528q0 -80 -21 -148.5t-62.5 -122t-110.5 -84t-158 -30.5q-118 0 -200 53.5t-118 138.5t-36 193h202q0 -106 37.5 -151.5t114.5 -45.5t113 45.5t36 151.5h203z" />
    <glyph glyph-name="dotaccent" unicode="&#x2d9;" horiz-adv-x="673" 
d="M336 1153q-85 0 -133.5 42t-48.5 114q0 71 49 113t133 42t134 -42t50 -113q0 -72 -49.5 -114t-134.5 -42z" />
    <glyph glyph-name="ring" unicode="&#x2da;" horiz-adv-x="841" 
d="M444 1141q-137 0 -213.5 63.5t-76.5 175.5q0 111 77 175.5t213 64.5q135 0 213 -64.5t78 -175.5q0 -110 -78 -174.5t-213 -64.5zM444 1300q88 0 88 80q0 39 -23.5 58.5t-64.5 19.5t-64.5 -19.5t-23.5 -58.5q0 -80 88 -80z" />
    <glyph glyph-name="ogonek" unicode="&#x2db;" horiz-adv-x="868" 
d="M713 -166v-203l-389 -32q-47 -4 -86 12t-59 44.5t-24 65t19 72.5l127 209h193l-101 -201z" />
    <glyph glyph-name="tilde" unicode="&#x2dc;" horiz-adv-x="1179" 
d="M154 1208q0 165 71 255.5t193 90.5q51 0 94.5 -17t73.5 -41t55.5 -47.5t51.5 -40.5t50 -17q39 0 59.5 29t20.5 114h203q0 -166 -71 -256t-193 -90q-51 0 -94.5 17t-73.5 41t-56 48t-52 41t-50 17q-39 0 -59.5 -29.5t-20.5 -114.5h-202z" />
    <glyph glyph-name="hungarumlaut" unicode="&#x2dd;" horiz-adv-x="1255" 
d="M154 1276l362 321l141 -135l-362 -319zM596 1276l362 321l142 -135l-363 -319z" />
    <glyph glyph-name="gravecomb" unicode="&#x300;" horiz-adv-x="0" 
d="M-154 1348l-47 -193l-731 170l47 193z" />
    <glyph glyph-name="acutecomb" unicode="&#x301;" horiz-adv-x="0" 
d="M-932 1348l731 170l47 -193l-731 -170z" />
    <glyph glyph-name="uni0302" unicode="&#x302;" horiz-adv-x="0" 
d="M-154 1264l-143 -136l-254 189l-256 -189l-143 136l399 292z" />
    <glyph glyph-name="tildecomb" unicode="&#x303;" horiz-adv-x="0" 
d="M-1026 1208q0 165 71 255.5t193 90.5q51 0 94.5 -17t73.5 -41t56 -47.5t52 -40.5t50 -17q39 0 59.5 29t20.5 114h202q0 -166 -71 -256t-193 -90q-51 0 -94.5 17t-73.5 41t-55.5 48t-51.5 41t-50 17q-39 0 -59.5 -29.5t-20.5 -114.5h-203z" />
    <glyph glyph-name="uni0304" unicode="&#x304;" horiz-adv-x="0" 
d="M-948 1444h792v-199l-792 -2v201z" />
    <glyph glyph-name="uni0306" unicode="&#x306;" horiz-adv-x="0" 
d="M-154 1528q0 -80 -21 -148.5t-62.5 -122t-110.5 -84t-158 -30.5q-118 0 -200 53.5t-118 138.5t-36 193h203q0 -106 37 -151.5t114 -45.5t113.5 45.5t36.5 151.5h202z" />
    <glyph glyph-name="uni0307" unicode="&#x307;" horiz-adv-x="0" 
d="M-338 1153q-85 0 -133.5 42t-48.5 114q0 71 49 113t133 42t134 -42t50 -113q0 -72 -49.5 -114t-134.5 -42z" />
    <glyph glyph-name="uni0308" unicode="&#x308;" horiz-adv-x="0" 
d="M-825 1153q-85 0 -134 42t-49 114q0 71 49.5 113t133.5 42t134 -42t50 -113q0 -72 -49.5 -114t-134.5 -42zM-338 1153q-84 0 -132 42t-48 114q0 71 48 113t132 42t134 -42t50 -113q0 -72 -49.5 -114t-134.5 -42z" />
    <glyph glyph-name="uni030A" unicode="&#x30a;" horiz-adv-x="0" 
d="M-444 1141q-137 0 -214 63.5t-77 175.5q0 111 77.5 175.5t213.5 64.5q135 0 212.5 -64.5t77.5 -175.5q0 -110 -77.5 -174.5t-212.5 -64.5zM-444 1300q88 0 88 80q0 39 -23.5 58.5t-64.5 19.5t-64.5 -19.5t-23.5 -58.5q0 -80 88 -80z" />
    <glyph glyph-name="uni030B" unicode="&#x30b;" horiz-adv-x="0" 
d="M-1102 1276l363 321l141 -135l-363 -319zM-659 1276l362 321l141 -135l-362 -319z" />
    <glyph glyph-name="uni030C" unicode="&#x30c;" horiz-adv-x="0" 
d="M-154 1430l-397 -293l-399 293l143 135l256 -189l254 189z" />
    <glyph glyph-name="uni0312" unicode="&#x312;" horiz-adv-x="0" 
d="M-356 1622l200 -53l-131 -416l-202 55z" />
    <glyph glyph-name="uni0326" unicode="&#x326;" horiz-adv-x="0" 
d="M-362 -100l198 -62l-119 -346l-200 62z" />
    <glyph glyph-name="uni0327" unicode="&#x327;" horiz-adv-x="0" 
d="M-313 -84q67 0 112 -28t45 -93q0 -45 -18 -79t-54 -56t-79.5 -36.5t-106 -21.5t-120.5 -9.5t-136 -2.5v162h52q152 0 207 8t55 45q0 17 -12.5 27t-34.5 10q-58 0 -154 -43l-92 86l69 115h209l-110 -119q84 35 168 35z" />
    <glyph glyph-name="uni0328" unicode="&#x328;" horiz-adv-x="0" 
d="M-156 -166v-203l-389 -32q-62 -6 -108.5 23.5t-56 75t15.5 95.5l127 209h192l-100 -201z" />
    <glyph glyph-name="uni0400" unicode="&#x400;" horiz-adv-x="1202" 
d="M1024 1763l-47 -192l-731 170l47 192zM133 0v1444h977v-230h-713v-376h611v-230h-611v-379h713v-229h-977z" />
    <glyph glyph-name="uni0401" unicode="&#x401;" horiz-adv-x="1202" 
d="M377 1569q-85 0 -133.5 41.5t-48.5 113.5q0 71 49 113.5t133 42.5t134 -42.5t50 -113.5q0 -72 -49.5 -113.5t-134.5 -41.5zM864 1569q-84 0 -132 41.5t-48 113.5q0 71 48 113.5t132 42.5t134.5 -42.5t50.5 -113.5q0 -72 -50 -113.5t-135 -41.5zM133 0v1444h977v-230h-713
v-376h611v-230h-611v-379h713v-229h-977z" />
    <glyph glyph-name="uni0402" unicode="&#x402;" horiz-adv-x="1726" 
d="M1057 901q577 76 577 -409q0 -115 -35 -203t-91.5 -142t-137.5 -88t-163.5 -46.5t-178.5 -12.5v229q342 0 342 250q0 130 -80.5 173.5t-238.5 19.5l-267 -37v-635h-264v1214h-469v230h1202v-230h-469v-350z" />
    <glyph glyph-name="uni0403" unicode="&#x403;" horiz-adv-x="1165" 
d="M236 1763l731 170l47 -192l-731 -170zM133 0v1444h959v-230h-695v-1214h-264z" />
    <glyph glyph-name="uni0404" unicode="&#x404;" horiz-adv-x="1630" 
d="M831 209q173 0 285 91.5t137 258.5h265q-32 -270 -215.5 -424.5t-475.5 -154.5q-163 0 -298 57t-226 156.5t-140.5 235.5t-49.5 294q0 157 49.5 293t140 235t226 156t298.5 57q292 0 475.5 -154.5t215.5 -422.5h-265q-24 167 -136 257.5t-286 90.5q-186 0 -302 -104
t-144 -293h559v-230h-559q28 -189 144 -294t302 -105z" />
    <glyph glyph-name="uni0405" unicode="&#x405;" horiz-adv-x="1427" 
d="M1356 385q0 -92 -32 -163.5t-100 -127t-185 -85t-277 -29.5q-189 0 -324 38.5t-214.5 114.5t-115.5 178.5t-36 239.5h264q0 -101 25.5 -167.5t81.5 -105t133 -54t192 -15.5q168 0 246 41t78 129q0 22 -6.5 42t-16 36.5t-28.5 32t-35.5 27.5t-45 25t-49.5 22t-57 21
t-59 19.5t-64.5 20.5t-64.5 20q-61 20 -97 32t-88.5 31.5t-84 35t-72.5 38.5t-65 44.5t-50 51t-40 61.5t-23 71t-9 84q0 179 137 274.5t408 95.5q127 0 231 -27t174 -74t118 -112t69.5 -138t21.5 -155h-264q0 145 -95 211t-255 66q-281 0 -281 -148q0 -72 61.5 -112.5
t244.5 -100.5q219 -72 263 -90q251 -97 336 -227q50 -77 50 -172z" />
    <glyph glyph-name="uni0406" unicode="&#x406;" horiz-adv-x="1140" 
d="M1028 1214h-326v-985h326v-229h-915v229h325v985h-325v230h915v-230z" />
    <glyph glyph-name="uni0407" unicode="&#x407;" horiz-adv-x="1140" 
d="M326 1569q-85 0 -134 41.5t-49 113.5q0 71 49.5 113.5t133.5 42.5t134 -42.5t50 -113.5q0 -72 -49.5 -113.5t-134.5 -41.5zM813 1569q-84 0 -132 41.5t-48 113.5q0 71 48 113.5t132 42.5t134 -42.5t50 -113.5q0 -72 -49.5 -113.5t-134.5 -41.5zM1028 1214h-326v-985h326
v-229h-915v229h325v985h-325v230h915v-230z" />
    <glyph glyph-name="uni0408" unicode="&#x408;" horiz-adv-x="1044" 
d="M406 -20l-355 20v229l355 -20q51 -3 90 5t67 24t47 47t30.5 64.5t17.5 86.5t8 103.5t2 124.5v571l-412 -21v230l522 20q73 3 113.5 -38t40.5 -115v-721q0 -130 -13 -224t-47.5 -174.5t-93 -127.5t-151.5 -69.5t-221 -14.5z" />
    <glyph glyph-name="uni0409" unicode="&#x409;" horiz-adv-x="2263" 
d="M1559 946q111 0 196.5 -11t166 -41.5t132.5 -82.5t83.5 -137.5t31.5 -202.5q0 -116 -31.5 -201t-83.5 -136.5t-133 -82t-165.5 -41t-196.5 -10.5h-486v1214h-450q-1 -162 -6.5 -280.5t-20 -253.5t-39 -228.5t-67.5 -184.5t-102 -145.5t-144 -88t-193 -33.5v229
q166 0 237 213q61 184 70 617q2 117 2 385h975v-498h224zM1559 229q79 0 130 5t96 19.5t70 41.5t38.5 70t13.5 106q0 64 -13.5 107.5t-38.5 71t-70 42.5t-96.5 20t-129.5 5h-224v-488h224z" />
    <glyph glyph-name="uni040A" unicode="&#x40a;" horiz-adv-x="2363" 
d="M1659 946q111 0 196.5 -11t166 -41.5t132.5 -82.5t83.5 -137.5t31.5 -202.5q0 -116 -31.5 -201t-83.5 -136.5t-133 -82t-165.5 -41t-196.5 -10.5h-485v592h-777v-592h-264v1444h264v-623h777v623h262v-498h223zM1659 229q79 0 130 5t96 19.5t70 41.5t38.5 70t13.5 106
q0 64 -13.5 107.5t-38.5 71t-70 42.5t-96.5 20t-129.5 5h-223v-488h223z" />
    <glyph glyph-name="uni040B" unicode="&#x40b;" horiz-adv-x="1734" 
d="M1438 989q79 4 121.5 -35.5t42.5 -119.5v-834h-265v754l-698 -35v-719h-264v1214h-324v230h1147v-230h-559v-266z" />
    <glyph glyph-name="uni040C" unicode="&#x40c;" horiz-adv-x="1368" 
d="M1044 1741l-731 -170l-47 192l731 170zM1001 0l-493 594q-44 -31 -111 -37v-557h-264v1444h264v-615l437 525q75 90 186 90h268v-230h-248l-364 -434l639 -780h-314z" />
    <glyph glyph-name="uni040D" unicode="&#x40d;" horiz-adv-x="1624" 
d="M1225 1763l-47 -192l-732 170l48 192zM1491 0h-264v1204l47 172h-68l-549 -1376h-522v1444h262v-1204l-47 -172h68l551 1376h522v-1444z" />
    <glyph glyph-name="uni040F" unicode="&#x40f;" horiz-adv-x="1488" 
d="M1092 1444h262v-1444h-477v-281h-265v281h-479v1444h264v-1215h695v1215z" />
    <glyph glyph-name="uni0410" unicode="&#x410;" horiz-adv-x="1519" 
d="M1202 0l-149 504h-586l-150 -504h-266l436 1444h543l438 -1444h-266zM535 733h448l-190 643h-68z" />
    <glyph glyph-name="uni0411" unicode="&#x411;" horiz-adv-x="1343" 
d="M621 946q111 0 196.5 -11t166 -41.5t132.5 -82.5t83.5 -137.5t31.5 -202.5q0 -116 -31.5 -201t-83.5 -136.5t-133 -82t-165.5 -41t-196.5 -10.5h-488v1444h936v-230h-672v-268h224zM621 229q79 0 130 5t95.5 19.5t69 41.5t38 70t13.5 106q0 79 -19 128t-64.5 75
t-105 34.5t-157.5 8.5h-224v-488h224z" />
    <glyph glyph-name="uni0412" unicode="&#x412;" horiz-adv-x="1390" 
d="M133 0v1444h459q120 0 207.5 -9.5t160.5 -33t117.5 -63.5t69 -101.5t24.5 -146.5q0 -71 -20 -124t-49.5 -83.5t-75 -50t-85.5 -27t-93 -10.5v-70q73 -2 129.5 -10t115.5 -30.5t97.5 -58.5t63 -98t24.5 -145q0 -92 -31.5 -160t-85.5 -110t-137 -68t-173.5 -35.5
t-207.5 -9.5h-510zM397 866h221q60 0 98 2.5t78 12.5t62 28.5t36.5 51t14.5 79.5q0 41 -8.5 71t-28.5 49t-41 30t-59.5 16t-69 6.5t-82.5 1.5h-221v-348zM397 229h273q73 0 119.5 3t93.5 14.5t73 33.5t42 59.5t16 92.5q0 54 -16 91.5t-42.5 59.5t-72.5 34t-94 16t-119 4
h-273v-408z" />
    <glyph glyph-name="uni0413" unicode="&#x413;" horiz-adv-x="1165" 
d="M133 0v1444h959v-230h-695v-1214h-264z" />
    <glyph glyph-name="uni0414" unicode="&#x414;" horiz-adv-x="1542" 
d="M1356 229h135v-510h-264v281h-912v-281h-264v510h135q201 354 201 1215h969v-1215zM451 229h641v985h-447q-20 -681 -194 -985z" />
    <glyph glyph-name="uni0415" unicode="&#x415;" horiz-adv-x="1202" 
d="M133 0v1444h977v-230h-713v-376h611v-230h-611v-379h713v-229h-977z" />
    <glyph glyph-name="uni0416" unicode="&#x416;" horiz-adv-x="2148" 
d="M2097 1214h-248l-387 -462l635 -752h-325l-484 578q-38 -18 -82 -21v-557h-264v557q-44 3 -82 21l-483 -578h-326l635 752l-387 462h-248v230h268q112 0 187 -90l436 -520v610h264v-615l436 525q75 90 187 90h268v-230z" />
    <glyph glyph-name="uni0417" unicode="&#x417;" horiz-adv-x="1456" 
d="M113 551h264q0 -193 86 -267.5t293 -74.5q171 0 247 53.5t76 165.5q0 207 -229 207h-201v229h201q107 0 158 44t51 134q0 96 -68.5 144.5t-234.5 48.5q-200 0 -279.5 -63t-79.5 -211h-264q0 129 44.5 226.5t128 157.5t196 89.5t254.5 29.5q262 0 414.5 -102t152.5 -285
q0 -73 -22.5 -125.5t-68 -85t-98.5 -51t-128 -31.5v-67q63 -11 106.5 -22.5t90.5 -34.5t75 -56t46.5 -86t18.5 -123q0 -200 -160 -307.5t-427 -107.5q-144 0 -258 31t-202 96.5t-135.5 178t-47.5 265.5z" />
    <glyph glyph-name="uni0418" unicode="&#x418;" horiz-adv-x="1624" 
d="M1491 0h-264v1204l47 172h-68l-549 -1376h-522v1444h262v-1204l-47 -172h68l551 1376h522v-1444z" />
    <glyph glyph-name="uni0419" unicode="&#x419;" horiz-adv-x="1624" 
d="M1176 1944q0 -80 -21 -148.5t-63 -122t-111 -84t-158 -30.5q-118 0 -200 53.5t-118 138.5t-36 193h203q0 -106 37 -151.5t114 -45.5t113.5 45.5t36.5 151.5h203zM1491 0h-264v1204l47 172h-68l-549 -1376h-522v1444h262v-1204l-47 -172h68l551 1376h522v-1444z" />
    <glyph glyph-name="uni041A" unicode="&#x41a;" horiz-adv-x="1368" 
d="M1001 0l-493 594q-44 -31 -111 -37v-557h-264v1444h264v-615l437 525q75 90 186 90h268v-230h-248l-364 -434l639 -780h-314z" />
    <glyph glyph-name="uni041B" unicode="&#x41b;" horiz-adv-x="1470" 
d="M1335 1444v-1444h-262v1214h-450q-1 -162 -6.5 -280.5t-20 -253.5t-39 -228.5t-67.5 -184.5t-102 -145.5t-144 -88t-193 -33.5v229q166 0 237 213q61 184 70 617q2 117 2 385h975z" />
    <glyph glyph-name="uni041C" unicode="&#x41c;" horiz-adv-x="1959" 
d="M133 0v1444h522l291 -1376h68l291 1376h522v-1444h-264v1204l49 172h-70l-303 -1376h-516l-305 1376h-68l47 -172v-1204h-264z" />
    <glyph glyph-name="uni041D" unicode="&#x41d;" horiz-adv-x="1570" 
d="M1174 1444h262v-1444h-262v592h-777v-592h-264v1444h264v-623h777v623z" />
    <glyph glyph-name="uni041E" unicode="&#x41e;" horiz-adv-x="1648" 
d="M113 723q0 157 49.5 293t139.5 235t225 156t298 57q216 0 379 -98t247.5 -265t84.5 -378q0 -212 -84.5 -379.5t-247.5 -265.5t-379 -98q-163 0 -298 57t-225 156.5t-139.5 235.5t-49.5 294zM377 723q0 -236 115 -375t333 -139t332.5 139t114.5 375q0 235 -114.5 373.5
t-332.5 138.5t-333 -138.5t-115 -373.5z" />
    <glyph glyph-name="uni041F" unicode="&#x41f;" horiz-adv-x="1460" 
d="M1327 1444v-1444h-264v1214h-666v-1214h-264v1444h1194z" />
    <glyph glyph-name="uni0420" unicode="&#x420;" horiz-adv-x="1323" 
d="M606 1444q118 0 206.5 -11.5t170.5 -43.5t134 -85.5t83 -142t31 -209.5q0 -122 -31 -211t-83 -143t-134.5 -86t-170.5 -43.5t-206 -11.5h-209v-457h-264v1444h473zM621 686q90 0 146.5 8.5t105.5 35.5t71.5 81.5t22.5 140.5q0 68 -16 116t-43 76t-73 44t-94.5 21
t-119.5 5h-224v-528h224z" />
    <glyph glyph-name="uni0421" unicode="&#x421;" horiz-adv-x="1630" 
d="M113 723q0 157 49.5 293t140 235t226 156t298.5 57q292 0 475.5 -154.5t215.5 -422.5h-265q-24 167 -136 257.5t-286 90.5q-214 0 -334 -136.5t-120 -375.5q0 -240 120 -377t334 -137q173 0 285 91.5t137 258.5h265q-32 -270 -215.5 -424.5t-475.5 -154.5q-163 0 -298 57
t-226 156.5t-140.5 235.5t-49.5 294z" />
    <glyph glyph-name="uni0422" unicode="&#x422;" horiz-adv-x="1376" 
d="M1303 1444v-230h-482v-1214h-264v1214h-485v230h1231z" />
    <glyph glyph-name="uni0423" unicode="&#x423;" horiz-adv-x="1378" 
d="M1047 1444h280l-496 -1000v-313q0 -76 -41 -115t-120 -36l-482 16v229l379 -14v233l-495 1000h280l314 -670v-129h67v129z" />
    <glyph glyph-name="uni0424" unicode="&#x424;" horiz-adv-x="1736" 
d="M1665 719q0 -239 -173 -385.5t-505 -169.5v-164h-235v164q-334 23 -507 169t-173 386q0 238 173.5 384t506.5 169v172h235v-172q332 -23 505 -169t173 -384zM987 393q216 15 315 95.5t99 230.5q0 149 -99 228.5t-315 94.5v-649zM336 719q0 -150 99 -230.5t317 -95.5v649
q-218 -15 -317 -94.5t-99 -228.5z" />
    <glyph glyph-name="uni0425" unicode="&#x425;" horiz-adv-x="1531" 
d="M51 0l494 686v74l-494 684h303l412 -580l412 580h303l-496 -684v-74l496 -686h-303l-412 582l-412 -582h-303z" />
    <glyph glyph-name="uni0426" unicode="&#x426;" horiz-adv-x="1742" 
d="M1518 229q74 0 113.5 -39.5t39.5 -113.5v-357h-264v281h-1274v1444h264v-1215h666v1215h264v-1215h191z" />
    <glyph glyph-name="uni0427" unicode="&#x427;" horiz-adv-x="1492" 
d="M1096 1444h264v-1444h-264v496l-799 -41q-79 -4 -121.5 35.5t-42.5 119.5v834h264v-754l699 35v719z" />
    <glyph glyph-name="uni0428" unicode="&#x428;" horiz-adv-x="2000" 
d="M1604 1444h264v-1444h-1735v1444h264v-1215h471v1215h265v-1215h471v1215z" />
    <glyph glyph-name="uni0429" unicode="&#x429;" horiz-adv-x="2283" 
d="M2058 229q74 0 114 -40t40 -113v-357h-264v281h-1815v1444h264v-1215h471v1215h265v-1215h471v1215h264v-1215h190z" />
    <glyph glyph-name="uni042A" unicode="&#x42a;" horiz-adv-x="1556" 
d="M852 946q111 0 196.5 -11t166 -41.5t132.5 -82.5t83.5 -137.5t31.5 -202.5q0 -116 -31.5 -201t-83.5 -136.5t-133 -82t-165.5 -41t-196.5 -10.5h-485v1214h-316v230h578v-498h223zM852 229q79 0 130 5t96 19.5t70 41.5t38.5 70t13.5 106q0 64 -13.5 107.5t-38.5 71
t-70 42.5t-96.5 20t-129.5 5h-223v-488h223z" />
    <glyph glyph-name="uni042B" unicode="&#x42b;" horiz-adv-x="1818" 
d="M397 1444v-498h224q111 0 196.5 -11t166 -41.5t132.5 -82.5t83.5 -137.5t31.5 -202.5q0 -116 -31.5 -201t-83.5 -136.5t-133 -82t-165.5 -41t-196.5 -10.5h-488v1444h264zM1421 1444h262v-1444h-262v1444zM397 229h224q79 0 130 5t95.5 19.5t69 41.5t38 70t13.5 106
q0 79 -19 128t-64.5 75t-105 34.5t-157.5 8.5h-224v-488z" />
    <glyph glyph-name="uni042C" unicode="&#x42c;" horiz-adv-x="1323" 
d="M397 1444v-498h224q111 0 196.5 -11t166 -41.5t132.5 -82.5t83.5 -137.5t31.5 -202.5q0 -116 -31.5 -201t-83.5 -136.5t-133 -82t-165.5 -41t-196.5 -10.5h-488v1444h264zM397 229h224q79 0 130 5t95.5 19.5t69 41.5t38 70t13.5 106q0 79 -19 128t-64.5 75t-105 34.5
t-157.5 8.5h-224v-488z" />
    <glyph glyph-name="uni042D" unicode="&#x42d;" horiz-adv-x="1630" 
d="M803 1464q217 0 381 -98t249 -265t85 -378q0 -158 -50 -294t-140.5 -235.5t-226 -156.5t-298.5 -57q-292 0 -475 154.5t-215 424.5h264q25 -167 137 -258.5t285 -91.5q186 0 302 105t144 294h-559v230h559q-28 189 -144 293t-302 104q-174 0 -286 -90.5t-136 -257.5h-264
q32 268 215 422.5t475 154.5z" />
    <glyph glyph-name="uni042E" unicode="&#x42e;" horiz-adv-x="2025" 
d="M1249 1464q213 0 364 -95.5t224.5 -260.5t73.5 -385q0 -221 -73.5 -386.5t-224.5 -261t-364 -95.5q-291 0 -459.5 169t-197.5 459h-195v-608h-264v1444h264v-606h195q29 289 197.5 457.5t459.5 168.5zM1249 209q197 0 298.5 130t101.5 384q0 253 -101.5 382.5
t-298.5 129.5t-299 -129.5t-102 -382.5q0 -254 102 -384t299 -130z" />
    <glyph glyph-name="uni042F" unicode="&#x42f;" horiz-adv-x="1363" 
d="M1231 1444v-1444h-264v621h-213l-234 -512q-53 -109 -184 -109h-285v229h254l180 404q-189 26 -289 120.5t-100 280.5q0 95 28.5 167t77.5 117.5t124 74t160.5 40t193.5 11.5h551zM967 850v364h-314q-62 0 -103.5 -3.5t-80 -14.5t-61 -30.5t-35.5 -52t-13 -79.5t13 -80.5
t35.5 -53.5t61 -31.5t80.5 -15t103 -3.5h314z" />
    <glyph glyph-name="uni0430" unicode="&#x430;" horiz-adv-x="1275" 
d="M92 283q0 133 89 210.5t294 102.5l356 43q-6 192 -237 192q-109 0 -173.5 -48t-64.5 -144h-250q0 182 135.5 296t352.5 114q108 0 199 -30t159 -87.5t106 -148t38 -205.5v-349h149v-229h-209q-67 0 -103 36.5t-36 102.5v35l41 117h-70q-73 -311 -413 -311q-89 0 -157 22
t-106 54t-61.5 75t-31 79t-7.5 73zM356 328q0 -59 40.5 -89t105.5 -30q150 0 239.5 74t89.5 196l-309 -39q-88 -10 -127 -33.5t-39 -78.5z" />
    <glyph glyph-name="uni0431" unicode="&#x431;" horiz-adv-x="1380" 
d="M113 670q0 156 34 272.5t104.5 198.5t165 136.5t228.5 96.5q187 57 250 93t76 94h301q-7 -47 -22 -86.5t-41 -71t-52.5 -56t-69 -46t-76 -36t-89.5 -30.5t-93.5 -25t-101.5 -24q-208 -48 -308.5 -138t-125.5 -255l-70 -158h70q34 193 161 303.5t318 110.5
q233 0 372.5 -147t139.5 -376q0 -119 -35.5 -217t-105.5 -172.5t-183 -115.5t-260 -41q-283 0 -435 178.5t-152 511.5zM377 510q0 -136 84 -218.5t239 -82.5q157 0 238.5 79.5t81.5 229.5q0 144 -77.5 222.5t-227.5 78.5q-158 0 -248 -80.5t-90 -228.5z" />
    <glyph glyph-name="uni0432" unicode="&#x432;" horiz-adv-x="1144" 
d="M133 0v1028h436q102 0 175.5 -11t132.5 -37.5t88.5 -75.5t29.5 -120q0 -199 -215 -215v-69q291 -4 291 -232q0 -142 -111 -205t-315 -63h-512zM383 623h186q103 0 139.5 19t36.5 91q0 65 -38.5 86t-137.5 21h-186v-217zM383 188h262q96 0 136 25t40 96q0 74 -39.5 99.5
t-136.5 25.5h-262v-246z" />
    <glyph glyph-name="uni0433" unicode="&#x433;" horiz-adv-x="974" 
d="M133 0v1028h811v-229h-547v-799h-264z" />
    <glyph glyph-name="uni0434" unicode="&#x434;" horiz-adv-x="1419" 
d="M1307 229v-510h-265v281h-686v-281h-264v510h135q83 133 117.5 315t34.5 484h792v-799h136zM492 229h415v570h-270q-10 -196 -44.5 -330t-100.5 -240z" />
    <glyph glyph-name="uni0435" unicode="&#x435;" horiz-adv-x="1263" 
d="M92 526q0 242 145 382.5t379 140.5q233 0 376 -135t143 -367v-86h-793q3 -120 78 -193t227 -73q104 0 172 42t88 123h264q-9 -49 -32 -98.5t-66.5 -101t-100.5 -91t-141.5 -64.5t-183.5 -25q-112 0 -204.5 28.5t-156.5 79t-108.5 120t-65 149.5t-20.5 169zM342 621h543
q0 92 -67 151t-202 59q-134 0 -204 -59.5t-70 -150.5z" />
    <glyph glyph-name="uni0436" unicode="&#x436;" horiz-adv-x="1728" 
d="M1677 799h-166l-194 -258l360 -541h-291l-274 406h-25h-92v-406h-262v406h-92h-25l-274 -406h-291l361 541l-195 258h-166v229h176q129 0 189 -82l231 -309h86v391h262v-391h86l232 309q60 82 188 82h176v-229z" />
    <glyph glyph-name="uni0437" unicode="&#x437;" horiz-adv-x="1157" 
d="M113 397h249q0 -134 53.5 -181.5t182.5 -47.5q101 0 149 35t48 108q0 70 -41.5 98.5t-124.5 28.5h-115v191h115q77 0 111 28t34 86q0 61 -41.5 89t-142.5 28q-122 0 -164.5 -35t-42.5 -125h-250q0 169 115.5 259t341.5 90q209 0 321.5 -76.5t112.5 -200.5
q0 -101 -58 -149.5t-155 -55.5v-67q100 -5 166.5 -58.5t66.5 -160.5q0 -139 -117 -220t-329 -81q-485 0 -485 417z" />
    <glyph glyph-name="uni0438" unicode="&#x438;" horiz-adv-x="1345" 
d="M1251 0h-262v815l47 143h-67l-316 -958h-520v1028h264v-809l-47 -151h68l315 960h518v-1028z" />
    <glyph glyph-name="uni0439" unicode="&#x439;" horiz-adv-x="1345" 
d="M1053 1528q0 -80 -21 -148.5t-63 -122t-111 -84t-158 -30.5q-118 0 -200 53.5t-118 138.5t-36 193h203q0 -106 37 -151.5t114 -45.5t113.5 45.5t36.5 151.5h203zM1251 0h-262v815l47 143h-67l-316 -958h-520v1028h264v-809l-47 -151h68l315 960h518v-1028z" />
    <glyph glyph-name="uni043A" unicode="&#x43a;" horiz-adv-x="1163" 
d="M1112 0h-291l-276 410q-32 -4 -56 -4h-92v-406h-264v1028h264v-391h86l230 309q63 82 190 82h174v-229h-166l-174 -234z" />
    <glyph glyph-name="uni043B" unicode="&#x43b;" horiz-adv-x="1245" 
d="M1110 1028v-1028h-262v799h-295q-1 -90 -4.5 -161t-11 -143.5t-19.5 -128t-30.5 -109t-43.5 -91.5t-59 -71t-76.5 -53t-97 -31t-119.5 -11v229q35 0 62.5 9.5t48 35t35 55t24.5 84.5t15.5 107t8.5 140t4 166.5t1 201.5h819z" />
    <glyph glyph-name="uni043C" unicode="&#x43c;" horiz-adv-x="1679" 
d="M133 0v1028h524l148 -960h67l148 960h526v-1028h-264v809l49 149h-69l-164 -958h-518l-162 958h-68l47 -149v-809h-264z" />
    <glyph glyph-name="uni043D" unicode="&#x43d;" horiz-adv-x="1316" 
d="M920 1028h262v-1028h-262v399h-523v-399h-264v1028h264v-399h523v399z" />
    <glyph glyph-name="uni043E" unicode="&#x43e;" horiz-adv-x="1314" 
d="M92 514q0 247 157.5 391t407.5 144q163 0 290 -63t200.5 -185.5t73.5 -286.5t-73.5 -286.5t-200.5 -185t-290 -62.5q-250 0 -407.5 143.5t-157.5 390.5zM356 514q0 -141 80 -223t221 -82t221 82t80 223t-80 223t-221 82t-221 -82t-80 -223z" />
    <glyph glyph-name="uni043F" unicode="&#x43f;" horiz-adv-x="1234" 
d="M1102 1028v-1028h-264v799h-441v-799h-264v1028h969z" />
    <glyph glyph-name="uni0440" unicode="&#x440;" horiz-adv-x="1382" 
d="M133 1028h264v-98l-47 -158h68q92 277 409 277q144 0 250.5 -73t159.5 -193.5t53 -270.5q0 -149 -53 -268.5t-159.5 -191.5t-250.5 -72q-316 0 -409 274h-68l47 -156v-481h-264v1411zM397 512q0 -154 85 -228.5t233 -74.5t229.5 74.5t81.5 228.5q0 155 -82 231t-229 76
q-148 0 -233 -76t-85 -231z" />
    <glyph glyph-name="uni0441" unicode="&#x441;" horiz-adv-x="1255" 
d="M92 514q0 243 149.5 389t397.5 146q96 0 185 -27t163 -78.5t121.5 -136t54.5 -191.5h-264q-15 98 -84.5 150.5t-175.5 52.5q-137 0 -210 -83.5t-73 -221.5q0 -139 73 -222t210 -83q106 0 175.5 52.5t84.5 150.5h264q-6 -86 -38.5 -158t-83 -122t-116 -84.5t-138 -51
t-148.5 -16.5q-248 0 -397.5 145t-149.5 389z" />
    <glyph glyph-name="uni0442" unicode="&#x442;" horiz-adv-x="1181" 
d="M1110 1028v-229h-387v-799h-264v799h-387v229h1038z" />
    <glyph glyph-name="uni0443" unicode="&#x443;" horiz-adv-x="1310" 
d="M963 1028h294l-460 -987v-305q0 -76 -41.5 -115.5t-120.5 -36.5l-461 17v229l361 -12v223l-463 987h295l264 -659v-129h69v129z" />
    <glyph glyph-name="uni0444" unicode="&#x444;" horiz-adv-x="1601" 
d="M1507 516q0 -227 -155 -366t-432 -164v-355h-236v353q-279 26 -435.5 166t-156.5 366q0 224 156.5 363t435.5 165v338h236v-340q277 -25 432 -163.5t155 -362.5zM356 516q0 -260 328 -301v598q-161 -20 -244.5 -95.5t-83.5 -201.5zM920 215q325 41 325 301
q0 126 -82.5 201.5t-242.5 95.5v-598z" />
    <glyph glyph-name="uni0445" unicode="&#x445;" horiz-adv-x="1304" 
d="M72 0l389 481v68l-389 479h313l268 -362l267 362h313l-389 -479v-68l389 -481h-313l-267 365l-268 -365h-313z" />
    <glyph glyph-name="uni0446" unicode="&#x446;" horiz-adv-x="1472" 
d="M1266 229q75 0 114 -39.5t39 -113.5v-357h-262v281h-1024v1028h264v-799h441v799h264v-799h164z" />
    <glyph glyph-name="uni0447" unicode="&#x447;" horiz-adv-x="1308" 
d="M911 1028h265v-1028h-265v369l-612 -39q-81 -6 -123.5 34.5t-42.5 120.5v543h264v-469l514 39v430z" />
    <glyph glyph-name="uni0448" unicode="&#x448;" horiz-adv-x="1632" 
d="M1235 1028h264v-1028h-1366v1028h264v-799h287v799h264v-799h287v799z" />
    <glyph glyph-name="uni0449" unicode="&#x449;" horiz-adv-x="1869" 
d="M1663 229q75 0 114.5 -39.5t39.5 -113.5v-357h-263v281h-1421v1028h264v-799h287v799h264v-799h287v799h264v-799h164z" />
    <glyph glyph-name="uni044A" unicode="&#x44a;" horiz-adv-x="1318" 
d="M752 776q475 0 475 -387q0 -389 -475 -389h-437v799h-264v229h529v-252h172zM731 229q63 0 101 5t70.5 21t46.5 48.5t14 85.5q0 52 -14 84t-46.5 48t-70.5 21t-101 5h-151v-318h151z" />
    <glyph glyph-name="uni044B" unicode="&#x44b;" horiz-adv-x="1593" 
d="M569 776q475 0 475 -387q0 -389 -475 -389h-436v1028h264v-252h172zM1196 0v1028h264v-1028h-264zM397 229h152q50 0 83 3t63.5 12t47.5 26.5t27 47t10 71.5q0 52 -13.5 84t-46 48t-70.5 21t-101 5h-152v-318z" />
    <glyph glyph-name="uni044C" unicode="&#x44c;" horiz-adv-x="1136" 
d="M569 776q475 0 475 -387q0 -389 -475 -389h-436v1028h264v-252h172zM397 229h152q50 0 83 3t63.5 12t47.5 26.5t27 47t10 71.5q0 52 -13.5 84t-46 48t-70.5 21t-101 5h-152v-318z" />
    <glyph glyph-name="uni044D" unicode="&#x44d;" horiz-adv-x="1255" 
d="M616 1049q248 0 397.5 -146t149.5 -389q0 -244 -149.5 -389t-397.5 -145q-76 0 -148.5 16.5t-138 51t-116 84.5t-83 122t-38.5 158h264q15 -98 84.5 -150.5t175.5 -52.5q115 0 184.5 58t90.5 161h-365v174h365q-21 101 -91 159t-184 58q-106 0 -175.5 -52.5t-84.5 -150.5
h-264q7 107 54.5 191.5t121.5 136t163 78.5t185 27z" />
    <glyph glyph-name="uni044E" unicode="&#x44e;" horiz-adv-x="1689" 
d="M1087 1049q124 0 222 -41t160.5 -113.5t95 -169t32.5 -211.5q0 -155 -56 -274t-173 -189.5t-281 -70.5q-214 0 -342.5 113.5t-158.5 305.5h-189v-399h-264v1028h264v-399h189q30 192 159 306t342 114zM1087 209q126 0 186 80t60 225t-60 225t-186 80q-245 0 -245 -305
t245 -305z" />
    <glyph glyph-name="uni044F" unicode="&#x44f;" horiz-adv-x="1073" 
d="M940 1028v-1028h-264v424h-98l-211 -326q-65 -98 -185 -98h-151v215h162l135 217q-121 19 -186.5 85.5t-65.5 209.5q0 80 30.5 139.5t86.5 94t126 51t156 16.5h465zM676 612v228h-146q-103 0 -146.5 -24.5t-43.5 -88.5q0 -66 43.5 -90.5t146.5 -24.5h146z" />
    <glyph glyph-name="uni0450" unicode="&#x450;" horiz-adv-x="1263" 
d="M1034 1348l-47 -193l-731 170l47 193zM92 526q0 242 145 382.5t379 140.5q233 0 376 -135t143 -367v-86h-793q3 -120 78 -193t227 -73q104 0 172 42t88 123h264q-9 -49 -32 -98.5t-66.5 -101t-100.5 -91t-141.5 -64.5t-183.5 -25q-112 0 -204.5 28.5t-156.5 79
t-108.5 120t-65 149.5t-20.5 169zM342 621h543q0 92 -67 151t-202 59q-134 0 -204 -59.5t-70 -150.5z" />
    <glyph glyph-name="uni0451" unicode="&#x451;" horiz-adv-x="1263" 
d="M387 1153q-85 0 -133.5 42t-48.5 114q0 71 49 113t133 42t134 -42t50 -113q0 -72 -49.5 -114t-134.5 -42zM874 1153q-84 0 -132 42t-48 114q0 71 48 113t132 42q85 0 135 -42t50 -113q0 -72 -50 -114t-135 -42zM92 526q0 242 145 382.5t379 140.5q233 0 376 -135
t143 -367v-86h-793q3 -120 78 -193t227 -73q104 0 172 42t88 123h264q-9 -49 -32 -98.5t-66.5 -101t-100.5 -91t-141.5 -64.5t-183.5 -25q-112 0 -204.5 28.5t-156.5 79t-108.5 120t-65 149.5t-20.5 169zM342 621h543q0 92 -67 151t-202 59q-134 0 -204 -59.5t-70 -150.5z
" />
    <glyph glyph-name="uni0452" unicode="&#x452;" horiz-adv-x="1417" 
d="M897 1049q192 0 300 -119.5t108 -345.5v-834q0 -75 -42 -115.5t-120 -37.5l-461 16v229l358 -14v717q0 149 -53 211.5t-178 62.5q-151 0 -237.5 -101.5t-86.5 -307.5v-410h-262v1196h-117v203h117v106h262v-106h293v-203h-293v-313l-47 -158h68q32 146 132 235t259 89z
" />
    <glyph glyph-name="uni0453" unicode="&#x453;" horiz-adv-x="985" 
d="M135 1348l731 170l47 -193l-731 -170zM143 0v1028h809v-229h-544v-799h-265z" />
    <glyph glyph-name="uni0454" unicode="&#x454;" horiz-adv-x="1255" 
d="M639 209q106 0 175.5 52.5t84.5 150.5h264q-6 -86 -38.5 -158t-83 -122t-116 -84.5t-138 -51t-148.5 -16.5q-248 0 -397.5 145t-149.5 389q0 243 149.5 389t397.5 146q96 0 185 -27t163 -78.5t121.5 -136t54.5 -191.5h-264q-15 98 -84.5 150.5t-175.5 52.5
q-114 0 -183.5 -58t-90.5 -159h364v-174h-364q21 -103 90 -161t184 -58z" />
    <glyph glyph-name="uni0455" unicode="&#x455;" horiz-adv-x="1085" 
d="M1034 276q0 -136 -105.5 -216t-342.5 -80q-262 0 -388 103.5t-126 291.5h264q0 -193 256 -193q90 0 134 23t44 76q0 22 -9.5 39.5t-23.5 30t-43 25t-56 21.5t-74 24q-10 3 -16 5t-15 4.5t-17 5.5q-163 53 -216 78q-141 68 -172 178q-9 35 -9 74q0 132 111.5 207.5
t308.5 75.5q121 0 212.5 -30t144 -81.5t78 -114.5t25.5 -137h-264q0 76 -50 118t-148 42q-154 0 -154 -86q0 -17 6.5 -31t23.5 -27t34.5 -23t51.5 -23.5t61 -22.5t77 -25q13 -4 37 -12l63 -21t58 -20.5t56.5 -23.5t49 -26.5t45.5 -31.5t35.5 -37t29 -45t16.5 -52.5t7 -62.5z
" />
    <glyph glyph-name="uni0456" unicode="&#x456;" horiz-adv-x="976" 
d="M483 1153q-80 0 -127 42t-47 114q0 71 47.5 113t126.5 42q78 0 127 -42.5t49 -112.5q0 -71 -48.5 -113.5t-127.5 -42.5zM92 0v229h291v584l-236 -14v229l328 21q78 4 119 -36.5t41 -117.5v-666h291v-229h-834z" />
    <glyph glyph-name="uni0457" unicode="&#x457;" horiz-adv-x="1003" 
d="M238 1153q-84 0 -132.5 42t-48.5 114q0 71 48.5 113t132.5 42t134 -42t50 -113q0 -72 -49.5 -114t-134.5 -42zM725 1153q-84 0 -132 42t-48 114q0 71 48 113t132 42t134 -42t50 -113q0 -72 -49.5 -114t-134.5 -42zM119 0v229h291v584l-236 -14v229l326 21
q78 4 118.5 -37.5t40.5 -122.5v-660h293v-229h-833z" />
    <glyph glyph-name="uni0458" unicode="&#x458;" horiz-adv-x="659" 
d="M381 1153q-79 0 -126.5 42t-47.5 114q0 70 48 112.5t126 42.5q80 0 129 -42.5t49 -112.5q0 -71 -49 -113.5t-129 -42.5zM31 -395l205 342q34 57 34 139v727l-239 -14v229l348 16q79 3 120.5 -37t41.5 -114v-832q0 -75 -35 -139l-180 -317h-295z" />
    <glyph glyph-name="uni0459" unicode="&#x459;" horiz-adv-x="1851" 
d="M1284 776q473 0 473 -387q0 -389 -473 -389h-436v799h-295q-1 -90 -4.5 -161t-11 -143.5t-19.5 -128t-30.5 -109t-43.5 -91.5t-59 -71t-76.5 -53t-97 -31t-119.5 -11v229q35 0 62.5 9.5t48 35t35 55t24.5 84.5t15.5 107t8.5 140t4 166.5t1 201.5h819v-252h174zM1264 229
q63 0 100.5 5t70 21t46.5 48.5t14 85.5q0 52 -14 84t-46.5 48t-70 21t-100.5 5h-154v-318h154z" />
    <glyph glyph-name="uni045A" unicode="&#x45a;" horiz-adv-x="1923" 
d="M1356 776q473 0 473 -387q0 -389 -473 -389h-436v399h-523v-399h-264v1028h264v-399h523v399h262v-252h174zM1335 229q50 0 82.5 3t63.5 12.5t48 26.5t27.5 46.5t10.5 71.5q0 52 -14 84t-46.5 48t-70.5 21t-101 5h-153v-318h153z" />
    <glyph glyph-name="uni045B" unicode="&#x45b;" horiz-adv-x="1402" 
d="M885 1049q190 0 297.5 -119.5t107.5 -345.5v-584h-264v545q0 149 -53 211.5t-176 62.5q-152 0 -238 -101t-86 -308v-410h-264v1196h-117v203h117v106h264v-106h293v-203h-293v-313l-49 -158h70q32 146 132 235t259 89z" />
    <glyph glyph-name="uni045C" unicode="&#x45c;" horiz-adv-x="1163" 
d="M979 1325l-731 -170l-47 193l731 170zM1112 0h-291l-276 410q-32 -4 -56 -4h-92v-406h-264v1028h264v-391h86l230 309q63 82 190 82h174v-229h-166l-174 -234z" />
    <glyph glyph-name="uni045F" unicode="&#x45f;" horiz-adv-x="1310" 
d="M913 1014h265v-1014h-392v-281h-262v281h-391v1014h264v-785h516v785z" />
    <glyph glyph-name="uni0490" unicode="&#x490;" horiz-adv-x="1124" 
d="M829 1655h263v-441h-695v-1214h-264v1444h696v211z" />
    <glyph glyph-name="uni0491" unicode="&#x491;" horiz-adv-x="974" 
d="M680 1298h264v-499h-547v-799h-264v1028h547v270z" />
    <glyph glyph-name="Wgrave" unicode="&#x1e80;" horiz-adv-x="2265" 
d="M1534 1763l-47 -192l-731 170l47 192zM51 1444h254l256 -1376h70l223 1376h557l223 -1376h70l256 1376h254l-272 -1444h-545l-230 1376h-69l-230 -1376h-544z" />
    <glyph glyph-name="wgrave" unicode="&#x1e81;" horiz-adv-x="1869" 
d="M1337 1348l-47 -193l-731 170l47 193zM31 1028h252l178 -960h69l129 960h549l131 -960h68l180 960h250l-190 -1028h-547l-131 958h-68l-131 -958h-549z" />
    <glyph glyph-name="Wacute" unicode="&#x1e82;" horiz-adv-x="2265" 
d="M729 1763l731 170l47 -192l-731 -170zM51 1444h254l256 -1376h70l223 1376h557l223 -1376h70l256 1376h254l-272 -1444h-545l-230 1376h-69l-230 -1376h-544z" />
    <glyph glyph-name="wacute" unicode="&#x1e83;" horiz-adv-x="1869" 
d="M530 1348l732 170l47 -193l-731 -170zM31 1028h252l178 -960h69l129 960h549l131 -960h68l180 960h250l-190 -1028h-547l-131 958h-68l-131 -958h-549z" />
    <glyph glyph-name="Wdieresis" unicode="&#x1e84;" horiz-adv-x="2265" 
d="M887 1569q-85 0 -133.5 41.5t-48.5 113.5q0 71 49 113.5t133 42.5t134 -42.5t50 -113.5q0 -72 -49.5 -113.5t-134.5 -41.5zM1374 1569q-84 0 -132 41.5t-48 113.5q0 71 48 113.5t132 42.5t134.5 -42.5t50.5 -113.5q0 -72 -50 -113.5t-135 -41.5zM51 1444h254l256 -1376
h70l223 1376h557l223 -1376h70l256 1376h254l-272 -1444h-545l-230 1376h-69l-230 -1376h-544z" />
    <glyph glyph-name="wdieresis" unicode="&#x1e85;" horiz-adv-x="1869" 
d="M690 1153q-85 0 -133.5 42t-48.5 114q0 71 49 113t133 42t134 -42t50 -113q0 -72 -49.5 -114t-134.5 -42zM1178 1153q-84 0 -132.5 42t-48.5 114q0 71 48.5 113t132.5 42t134 -42t50 -113q0 -72 -49.5 -114t-134.5 -42zM31 1028h252l178 -960h69l129 960h549l131 -960h68
l180 960h250l-190 -1028h-547l-131 958h-68l-131 -958h-549z" />
    <glyph glyph-name="uni1E9E" unicode="&#x1e9e;" horiz-adv-x="1384" 
d="M512 0v229l281 -18q131 -9 193.5 41t62.5 162q0 87 -38 139.5t-95.5 64t-124 -5t-125.5 -59.5l-88 354l294 160q0 81 -47.5 124.5t-156.5 43.5q-136 0 -203.5 -61.5t-67.5 -219.5v-954h-264v993q0 112 41.5 202.5t114.5 148.5t170 89t209 31q92 0 175 -29.5t149.5 -85
t105.5 -145.5t39 -203l-453 -237l14 -66q102 54 210.5 62.5t198 -27.5t147 -127.5t57.5 -224.5q0 -224 -129.5 -322.5t-388.5 -78.5z" />
    <glyph glyph-name="Ygrave" unicode="&#x1ef2;" horiz-adv-x="1427" 
d="M1116 1763l-47 -192l-731 170l47 192zM1094 1444h282l-530 -950v-494h-264v494l-531 950h283l346 -643v-158h68v158z" />
    <glyph glyph-name="ygrave" unicode="&#x1ef3;" horiz-adv-x="1310" 
d="M1067 1348l-47 -193l-731 170l47 193zM963 1028h294l-460 -987v-305q0 -76 -41.5 -115.5t-120.5 -36.5l-461 17v229l361 -12v223l-463 987h295l264 -659v-129h69v129z" />
    <glyph glyph-name="endash" unicode="&#x2013;" horiz-adv-x="1785" 
d="M154 639h1478v-203h-1478v203z" />
    <glyph glyph-name="emdash" unicode="&#x2014;" horiz-adv-x="2195" 
d="M154 639h1888v-203h-1888v203z" />
    <glyph glyph-name="quoteleft" unicode="&#x2018;" horiz-adv-x="665" 
d="M356 1569l156 -582l-203 -53l-155 579z" />
    <glyph glyph-name="quoteright" unicode="&#x2019;" horiz-adv-x="665" 
d="M311 1569l201 -56l-156 -579l-200 53z" />
    <glyph glyph-name="quotesinglbase" unicode="&#x201a;" horiz-adv-x="694" 
d="M338 356l203 -53l-185 -672l-202 54z" />
    <glyph glyph-name="quotedblleft" unicode="&#x201c;" horiz-adv-x="1017" 
d="M356 1569l156 -582l-203 -53l-155 579zM709 1569l155 -582l-202 -53l-156 579z" />
    <glyph glyph-name="quotedblright" unicode="&#x201d;" horiz-adv-x="1017" 
d="M311 1569l201 -56l-156 -579l-200 53zM664 1569l200 -56l-155 -579l-201 53z" />
    <glyph glyph-name="quotedblbase" unicode="&#x201e;" horiz-adv-x="1048" 
d="M338 356l203 -53l-185 -672l-202 54zM692 356l203 -53l-184 -672l-203 54z" />
    <glyph glyph-name="dagger" unicode="&#x2020;" horiz-adv-x="1169" 
d="M1014 1382v-200h-328v-873h-203v873h-329v200h329v365h203v-365h328z" />
    <glyph glyph-name="daggerdbl" unicode="&#x2021;" horiz-adv-x="1169" 
d="M1014 1182h-328v-308h328v-200h-328v-365h-203v365h-329v200h329v308h-329v200h329v365h203v-365h328v-200z" />
    <glyph glyph-name="bullet" unicode="&#x2022;" horiz-adv-x="1495" 
d="M743 -80q-264 0 -426.5 169.5t-162.5 428.5q0 123 42 231t117.5 187.5t187 125.5t242.5 46q170 0 307.5 -78.5t214 -213.5t76.5 -298q0 -126 -45 -236.5t-124 -190t-190 -125.5t-239 -46z" />
    <glyph glyph-name="ellipsis" unicode="&#x2026;" horiz-adv-x="1785" 
d="M356 -20q-91 0 -146.5 57.5t-55.5 146.5q0 86 55.5 143.5t146.5 57.5q89 0 147 -58t58 -143q0 -88 -58 -146t-147 -58zM891 -20q-90 0 -145.5 57.5t-55.5 146.5q0 86 56 143.5t145 57.5t147 -58t58 -143q0 -88 -58 -146t-147 -58zM1427 -20q-91 0 -145.5 57.5
t-54.5 146.5q0 87 55 144t145 57q89 0 147 -58t58 -143q0 -88 -58 -146t-147 -58z" />
    <glyph glyph-name="perthousand" unicode="&#x2030;" horiz-adv-x="3510" 
d="M1477 1653l190 -72l-663 -1819l-191 74zM608 616q-200 0 -327 131.5t-127 323.5t127 323.5t327 131.5t327.5 -132t127.5 -323t-127.5 -323t-327.5 -132zM608 819q110 0 182 73.5t72 178.5t-72 178.5t-182 73.5q-109 0 -180.5 -73.5t-71.5 -178.5t71.5 -178.5t180.5 -73.5
zM1872 -102q-200 0 -327.5 131.5t-127.5 322.5t127.5 323t327.5 132t327.5 -132t127.5 -323t-127.5 -322.5t-327.5 -131.5zM2902 -102q-200 0 -327.5 131.5t-127.5 322.5t127.5 323t327.5 132t327.5 -132t127.5 -323t-127.5 -322.5t-327.5 -131.5zM1872 100q110 0 181 73.5
t71 178.5t-71 178.5t-181 73.5t-181 -73.5t-71 -178.5t71 -178.5t181 -73.5zM2902 100q110 0 181 73.5t71 178.5t-71 178.5t-181 73.5t-181 -73.5t-71 -178.5t71 -178.5t181 -73.5z" />
    <glyph glyph-name="guilsinglleft" unicode="&#x2039;" horiz-adv-x="1079" 
d="M926 27l-152 -136l-620 617l620 614l152 -135l-482 -479z" />
    <glyph glyph-name="guilsinglright" unicode="&#x203a;" horiz-adv-x="1079" 
d="M154 27l481 481l-481 479l151 135l621 -614l-621 -617z" />
    <glyph glyph-name="fraction" unicode="&#x2044;" horiz-adv-x="835" 
d="M655 1667l191 -72l-666 -1818l-190 71z" />
    <glyph glyph-name="Euro" unicode="&#x20ac;" horiz-adv-x="1730" 
d="M991 209q134 0 218.5 66t107.5 200h260q-34 -231 -187.5 -363t-398.5 -132q-255 0 -413 135.5t-213 369.5h-211v174h188q-2 20 -2 64q0 39 2 59h-188v174h211q53 234 212 371t414 137q245 0 398.5 -131t187.5 -362h-264q-42 264 -322 264q-289 0 -360 -279h434v-174h-459
q-2 -18 -2 -59q0 -44 2 -64h459v-174h-434q73 -276 360 -276z" />
    <glyph glyph-name="trademark" unicode="&#x2122;" horiz-adv-x="1918" 
d="M745 1444v-154h-206v-530h-174v530h-211v154h591zM1413 1444h352v-684h-176v497l39 119h-49l-113 -616h-356l-117 616h-45l35 -119v-497h-174v684h352l109 -617h35z" />
    <glyph glyph-name="oneeighth" unicode="&#x215b;" horiz-adv-x="2291" 
d="M1319 1667l190 -72l-663 -1818l-191 71zM72 1184q67 51 98 89.5t48 95.5t24 157h399v-932h-209v747l31 117h-49q-5 -76 -18 -138.5t-40.5 -126.5t-77.5 -114.5t-120 -81.5zM1419 244q0 57 21.5 101t59.5 70.5t81.5 42.5t95.5 23v35q-39 5 -74 18t-67 36.5t-51 62
t-19 88.5q0 107 92 169t261 62q168 0 259 -62t91 -169q0 -50 -19 -88.5t-51 -62t-66.5 -36.5t-72.5 -18v-35q52 -7 95.5 -23t81.5 -42.5t59.5 -70.5t21.5 -101q0 -121 -105 -192.5t-294 -71.5t-294.5 71.5t-105.5 192.5zM1675 686q0 -100 144 -100q141 0 141 100
q0 92 -141 92q-144 0 -144 -92zM1628 281q0 -60 46.5 -93.5t144.5 -33.5q96 0 143 34t47 93q0 60 -47 95.5t-143 35.5q-97 0 -144 -35.5t-47 -95.5z" />
    <glyph glyph-name="threeeighths" unicode="&#x215c;" horiz-adv-x="2453" 
d="M1462 1667l191 -72l-666 -1818l-190 71zM72 954h209q0 -115 53.5 -156.5t161.5 -41.5q92 0 136 29t44 100q0 37 -12.5 61t-36.5 35.5t-48 15.5t-57 4h-98v175h98q67 0 104.5 20.5t37.5 79.5q0 55 -40 79.5t-128 24.5q-103 0 -153 -33.5t-50 -113.5h-209q0 152 109 236.5
t303 84.5q183 0 279.5 -70.5t96.5 -178.5q0 -47 -17 -82.5t-49 -57t-69 -34.5t-86 -21v-49q42 -8 71.5 -16t62.5 -23.5t53 -36t33.5 -53.5t13.5 -76q0 -127 -100.5 -200.5t-288.5 -73.5q-200 0 -312 92.5t-112 279.5zM1583 244q0 57 21.5 101t59.5 70.5t81.5 42.5t95.5 23
v35q-39 5 -74 18t-67 36.5t-51 62t-19 88.5q0 107 91.5 169t260.5 62q168 0 259.5 -62t91.5 -169q0 -50 -19 -88.5t-51 -62t-66.5 -36.5t-72.5 -18v-35q52 -7 95.5 -23t81.5 -42.5t59.5 -70.5t21.5 -101q0 -121 -105.5 -192.5t-294.5 -71.5t-294 71.5t-105 192.5zM1839 686
q0 -100 143 -100q142 0 142 100q0 92 -142 92q-143 0 -143 -92zM1792 281q0 -127 190 -127q96 0 143.5 34t47.5 93q0 60 -47.5 95.5t-143.5 35.5q-97 0 -143.5 -35.5t-46.5 -95.5z" />
    <glyph glyph-name="fiveeighths" unicode="&#x215d;" horiz-adv-x="2439" 
d="M1448 1667l190 -72l-665 -1818l-191 71zM72 907h209q0 -75 53 -113t143 -38q199 0 199 168q0 163 -144 163q-118 0 -190 -112l-238 94v463h713v-176h-504v-176l-26 -80l35 -19q30 79 100 130t176 51q143 0 215 -90.5t72 -235.5q0 -157 -104 -255.5t-300 -98.5
t-302.5 84.5t-106.5 240.5zM1569 244q0 57 21.5 101t59.5 70.5t81.5 42.5t95.5 23v35q-39 5 -74 18t-67 36.5t-51 62t-19 88.5q0 107 91.5 169t260.5 62q168 0 259 -62t91 -169q0 -50 -19 -88.5t-51 -62t-66.5 -36.5t-72.5 -18v-35q52 -7 95.5 -23t81.5 -42.5t59.5 -70.5
t21.5 -101q0 -121 -105 -192.5t-294 -71.5t-294 71.5t-105 192.5zM1825 686q0 -100 143 -100q141 0 141 100q0 92 -141 92q-143 0 -143 -92zM1778 281q0 -127 190 -127q96 0 143.5 34t47.5 93q0 60 -47.5 95.5t-143.5 35.5q-97 0 -143.5 -35.5t-46.5 -95.5z" />
    <glyph glyph-name="seveneighths" unicode="&#x215e;" horiz-adv-x="2322" 
d="M1315 1667l190 -72l-663 -1818l-191 71zM193 594q0 202 59 341t170 223.5t291 141.5v52h-641v174h708v-359q-211 -73 -295 -205t-84 -368h-208zM1452 244q0 57 21.5 101t59.5 70.5t81.5 42.5t95.5 23v35q-39 5 -74 18t-67 36.5t-51 62t-19 88.5q0 107 91.5 169t260.5 62
q168 0 259.5 -62t91.5 -169q0 -50 -19 -88.5t-51 -62t-66.5 -36.5t-72.5 -18v-35q52 -7 95.5 -23t81.5 -42.5t59.5 -70.5t21.5 -101q0 -121 -105.5 -192.5t-294.5 -71.5t-294 71.5t-105 192.5zM1708 686q0 -100 143 -100q142 0 142 100q0 92 -142 92q-143 0 -143 -92z
M1661 281q0 -127 190 -127q96 0 143.5 34t47.5 93q0 60 -47.5 95.5t-143.5 35.5q-97 0 -143.5 -35.5t-46.5 -95.5z" />
    <glyph glyph-name="arrowleft" unicode="&#x2190;" horiz-adv-x="1679" 
d="M1526 610v-204h-979l379 -379l-152 -136l-620 617l620 614l152 -135l-379 -377h979z" />
    <glyph glyph-name="arrowup" unicode="&#x2191;" horiz-adv-x="1540" 
d="M1386 571l-137 -151l-377 379v-979h-206v977l-375 -377l-137 151l616 621z" />
    <glyph glyph-name="arrowright" unicode="&#x2192;" horiz-adv-x="1679" 
d="M905 1122l621 -614l-621 -617l-151 136l379 379h-979v204h979l-379 377z" />
    <glyph glyph-name="arrowdown" unicode="&#x2193;" horiz-adv-x="1540" 
d="M1249 586l137 -152l-616 -618l-616 618l137 152l375 -375v975h206v-977z" />
    <glyph glyph-name="arrowboth" unicode="&#x2194;" horiz-adv-x="2611" 
d="M1837 1300l619 -614l-619 -618l-151 137l376 379h-977v204h977l-376 375zM926 809l-377 -375h977v-207h-979l379 -377l-152 -137l-620 617l620 616z" />
    <glyph glyph-name="arrowupdn" unicode="&#x2195;" horiz-adv-x="1882" 
d="M645 266v977l-375 -377l-137 152l617 620l616 -620l-137 -152l-377 379v-979h-207zM1612 119l137 -152l-619 -620l-614 620l137 152l375 -379v979h205v-979z" />
    <glyph glyph-name="uni2196" unicode="&#x2196;" horiz-adv-x="1347" 
d="M1196 137l-145 -145l-691 690l-2 -532l-202 10l-2 874l872 -4l12 -203h-532z" />
    <glyph glyph-name="uni2197" unicode="&#x2197;" horiz-adv-x="1347" 
d="M322 1030l872 4l-2 -874l-203 -10v534l-692 -692l-145 145l690 690h-531z" />
    <glyph glyph-name="uni2198" unicode="&#x2198;" horiz-adv-x="1347" 
d="M1192 827l2 -874l-872 4l-11 203h531l-690 690l145 145l692 -692v535z" />
    <glyph glyph-name="uni2199" unicode="&#x2199;" horiz-adv-x="1347" 
d="M1196 850l-690 -690h532l-12 -203l-872 -4l2 874l202 11l2 -533l691 690z" />
    <glyph glyph-name="partialdiff" unicode="&#x2202;" horiz-adv-x="1519" 
d="M1366 653q0 -315 -164 -494t-448 -179q-278 0 -439 149t-161 387q0 150 65.5 270.5t192.5 191.5t295 71q208 0 331.5 -122.5t149.5 -330.5h67l-47 158q-56 479 -817 579v230q216 -23 390.5 -88.5t307 -175t205 -274t72.5 -372.5zM1102 516q0 150 -90 226.5t-260 76.5
q-164 0 -249 -76.5t-85 -226.5q0 -147 86.5 -227t253.5 -80q166 0 255 85t89 222z" />
    <glyph glyph-name="emptyset" unicode="&#x2205;" horiz-adv-x="2017" 
d="M1526 1268q160 -117 249 -298.5t89 -394.5q0 -235 -105.5 -429t-302 -309.5t-446.5 -115.5q-181 0 -340 64l-115 -199l-176 103l113 194q-160 118 -249 298.5t-89 393.5q0 175 62.5 332t173 272.5t271.5 183t349 67.5q182 0 338 -64l114 199l176 -103zM356 575
q0 -153 63.5 -287t176.5 -225l649 1125q-109 41 -235 41q-142 0 -265 -53t-207.5 -142t-133 -208.5t-48.5 -250.5zM1010 -78q187 0 337.5 90t232 238.5t81.5 324.5q0 153 -63.5 287t-176.5 225l-649 -1124q112 -41 238 -41z" />
    <glyph glyph-name="product" unicode="&#x220f;" horiz-adv-x="1630" 
d="M1477 1444v-203h-289v-1610h-209v1610h-326v-1610h-209v1610h-290v203h1323z" />
    <glyph glyph-name="summation" unicode="&#x2211;" horiz-adv-x="1290" 
d="M154 -367v381l610 490v69l-610 490v381h983v-203h-729l-158 49v-69l725 -564v-237l-725 -565v-68l158 47h729v-201h-983z" />
    <glyph glyph-name="minus" unicode="&#x2212;" horiz-adv-x="1361" 
d="M154 639h1054v-203h-1054v203z" />
    <glyph glyph-name="radical" unicode="&#x221a;" horiz-adv-x="1681" 
d="M967 1309q29 135 170 135h391v-203h-377l-360 -1610h-439l-198 789h206l177 -721h69z" />
    <glyph glyph-name="infinity" unicode="&#x221e;" horiz-adv-x="2160" 
d="M154 614q0 134 59 239.5t157 162.5t216 57q38 0 74.5 -6t66 -14.5t61 -26t53.5 -30.5t49.5 -38t43.5 -40t41.5 -45t36 -43.5l35 -45t32.5 -41.5q7 9 32 41.5t35.5 45.5t36.5 43.5t41.5 44.5t43.5 40t50 38.5t53.5 30t61 26t66 14.5t74.5 6q118 0 216 -57t157 -162.5
t59 -239.5q0 -201 -125.5 -329.5t-306.5 -128.5q-38 0 -74.5 6.5t-66 14.5t-61.5 25.5t-53.5 30t-50 38t-43.5 39.5t-41.5 45t-36 43t-35.5 45.5t-32 41.5q-7 -9 -32 -41.5t-35.5 -45.5t-36.5 -43t-41 -44.5t-43 -40t-50 -38.5t-53.5 -30t-61 -25.5t-66 -14.5t-74.5 -6
q-181 0 -306.5 128.5t-125.5 329.5zM362 614q0 -117 72 -186.5t193 -69.5q45 0 84.5 12.5t68 29t62.5 51t54 59.5t58 74q15 20 23 30q-8 10 -23 30q-38 50 -57.5 74t-54.5 59t-62.5 51.5t-67.5 29t-85 12.5q-121 0 -193 -69.5t-72 -186.5zM1184 614q8 -10 31.5 -41t31 -40.5
t28.5 -35t31 -35t30 -29t33.5 -26.5t34.5 -19.5t39 -17t41 -8.5t48 -4q121 0 192.5 69.5t71.5 186.5t-71.5 186.5t-192.5 69.5q-25 0 -48 -4t-41 -8.5t-39 -17t-34.5 -19.5t-33.5 -26.5t-30 -29t-31 -35t-28.5 -35t-31 -40.5t-31.5 -41z" />
    <glyph glyph-name="integral" unicode="&#x222b;" horiz-adv-x="1468" 
d="M154 -369v203h335l353 1479q15 64 58.5 97.5t111.5 33.5h303v-203h-281l-352 -1479q-15 -64 -58.5 -97.5t-111.5 -33.5h-358z" />
    <glyph glyph-name="approxequal" unicode="&#x2248;" horiz-adv-x="1345" 
d="M154 580q0 173 76 266.5t196 93.5q66 0 137 -25.5t120.5 -56.5t106 -56.5t97.5 -25.5q50 0 76 34.5t26 121.5h203q0 -172 -75.5 -265.5t-194.5 -93.5q-67 0 -138 25.5t-120.5 56.5t-106 56.5t-98.5 25.5q-50 0 -76.5 -35t-26.5 -122h-202zM154 117q0 172 75.5 265
t196.5 93q66 0 137 -25.5t120.5 -56.5t106 -56.5t97.5 -25.5q50 0 76 35.5t26 122.5h203q0 -172 -75.5 -266t-194.5 -94q-67 0 -138 25.5t-120.5 56t-106 56t-98.5 25.5q-50 0 -76.5 -34t-26.5 -121h-202z" />
    <glyph glyph-name="notequal" unicode="&#x2260;" horiz-adv-x="1361" 
d="M1208 655h-358l-137 -235h495v-201h-610l-182 -315l-152 86l133 229h-243v201h358l137 235h-495v203h612l182 316l150 -89l-131 -227h241v-203z" />
    <glyph glyph-name="lessequal" unicode="&#x2264;" horiz-adv-x="1372" 
d="M154 674v211l995 375l70 -193l-824 -289l824 -270l-70 -193zM1219 223v-203h-1055v203h1055z" />
    <glyph glyph-name="greaterequal" unicode="&#x2265;" horiz-adv-x="1372" 
d="M1219 674l-996 -359l-69 193l823 270l-823 289l69 193l996 -375v-211zM154 223h1054v-203h-1054v203z" />
    <glyph glyph-name="uni2460" unicode="&#x2460;" 
d="M1090 -332q-176 0 -331 49.5t-272 139t-202 210.5t-128.5 268t-43.5 308q0 202 69.5 380.5t194 311t309.5 209t404 76.5q147 0 279.5 -35t239.5 -98t193 -152.5t144 -197.5t89 -233.5t31 -260.5q0 -134 -31 -259.5t-89 -233t-144 -197t-193 -152.5t-239.5 -98t-279.5 -35
zM1090 -158q179 0 330.5 64.5t253.5 174t159 255t57 307.5t-57 308.5t-159 256t-253.5 174t-330.5 64.5q-144 0 -271 -41.5t-223 -116.5t-165.5 -175t-105.5 -220t-36 -250q0 -162 57 -307.5t159 -255t254 -174t331 -64.5zM725 768q67 51 98 89.5t48 95.5t24 157h399v-932
h-209v748l31 114h-49q-5 -76 -18 -138t-40.5 -126.5t-77.5 -114.5t-120 -81z" />
    <glyph glyph-name="uni2461" unicode="&#x2461;" 
d="M1090 -332q-176 0 -331 49.5t-272 139t-202 210.5t-128.5 268t-43.5 308q0 202 69.5 380.5t194 311t309.5 209t404 76.5q147 0 279.5 -35t239.5 -98t193 -152.5t144 -197.5t89 -233.5t31 -260.5q0 -134 -31 -259.5t-89 -233t-144 -197t-193 -152.5t-239.5 -98t-279.5 -35
zM1090 -158q179 0 330.5 64.5t253.5 174t159 255t57 307.5t-57 308.5t-159 256t-253.5 174t-330.5 64.5q-144 0 -271 -41.5t-223 -116.5t-165.5 -175t-105.5 -220t-36 -250q0 -162 57 -307.5t159 -255t254 -174t331 -64.5zM692 731q0 194 112 312t310 118q178 0 269.5 -90
t91.5 -229q0 -103 -50.5 -180t-146.5 -126t-207.5 -78t-261.5 -48v-50l115 25h540v-176h-725v330q527 72 527 303q0 65 -39.5 105t-124.5 40q-106 0 -153.5 -62t-47.5 -194h-209z" />
    <glyph glyph-name="uni2462" unicode="&#x2462;" 
d="M1090 -332q-176 0 -331 49.5t-272 139t-202 210.5t-128.5 268t-43.5 308q0 202 69.5 380.5t194 311t309.5 209t404 76.5q147 0 279.5 -35t239.5 -98t193 -152.5t144 -197.5t89 -233.5t31 -260.5q0 -134 -31 -259.5t-89 -233t-144 -197t-193 -152.5t-239.5 -98t-279.5 -35
zM1090 -158q179 0 330.5 64.5t253.5 174t159 255t57 307.5t-57 308.5t-159 256t-253.5 174t-330.5 64.5q-144 0 -271 -41.5t-223 -116.5t-165.5 -175t-105.5 -220t-36 -250q0 -162 57 -307.5t159 -255t254 -174t331 -64.5zM684 530h209q0 -115 52.5 -155.5t162.5 -40.5
q92 0 136 28t44 99q0 37 -13 62t-36.5 36t-47.5 15t-56 4h-101v174h101q65 0 102 20.5t37 79.5q0 56 -38.5 80t-127.5 24q-104 0 -153.5 -32.5t-49.5 -114.5h-209q0 153 109 237t303 84q182 0 279.5 -70t97.5 -179q0 -90 -59.5 -134t-163.5 -59v-49q55 -11 90 -23t72 -34
t55 -59t18 -89q0 -128 -101 -202t-288 -74q-200 0 -312 92.5t-112 279.5z" />
    <glyph glyph-name="uni2463" unicode="&#x2463;" 
d="M1090 -332q-176 0 -331 49.5t-272 139t-202 210.5t-128.5 268t-43.5 308q0 202 69.5 380.5t194 311t309.5 209t404 76.5q147 0 279.5 -35t239.5 -98t193 -152.5t144 -197.5t89 -233.5t31 -260.5q0 -134 -31 -259.5t-89 -233t-144 -197t-193 -152.5t-239.5 -98t-279.5 -35
zM1090 -158q179 0 330.5 64.5t253.5 174t159 255t57 307.5t-57 308.5t-159 256t-253.5 174t-330.5 64.5q-144 0 -271 -41.5t-223 -116.5t-165.5 -175t-105.5 -220t-36 -250q0 -162 57 -307.5t159 -255t254 -174t331 -64.5zM694 328v415q315 89 365 377h209
q-8 -73 -31 -141.5t-66 -136t-102 -123t-144.5 -101t-189.5 -71.5v-49l117 32h291v211h209v-211h125v-202h-125v-140h-209v140h-449z" />
    <glyph glyph-name="uni2464" unicode="&#x2464;" 
d="M1090 -332q-176 0 -331 49.5t-272 139t-202 210.5t-128.5 268t-43.5 308q0 202 69.5 380.5t194 311t309.5 209t404 76.5q147 0 279.5 -35t239.5 -98t193 -152.5t144 -197.5t89 -233.5t31 -260.5q0 -134 -31 -259.5t-89 -233t-144 -197t-193 -152.5t-239.5 -98t-279.5 -35
zM1090 -158q179 0 330.5 64.5t253.5 174t159 255t57 307.5t-57 308.5t-159 256t-253.5 174t-330.5 64.5q-144 0 -271 -41.5t-223 -116.5t-165.5 -175t-105.5 -220t-36 -250q0 -162 57 -307.5t159 -255t254 -174t331 -64.5zM700 451h209q0 -76 53 -114t144 -38q199 0 199 166
q0 164 -144 164q-118 0 -190 -113l-238 94v463h713v-174h-504v-176l-27 -80l35 -20q30 80 100.5 131t176.5 51q142 0 214 -91.5t72 -236.5q0 -157 -103.5 -255.5t-299.5 -98.5t-303 85t-107 243z" />
    <glyph glyph-name="uni2465" unicode="&#x2465;" 
d="M1090 -332q-176 0 -331 49.5t-272 139t-202 210.5t-128.5 268t-43.5 308q0 202 69.5 380.5t194 311t309.5 209t404 76.5q147 0 279.5 -35t239.5 -98t193 -152.5t144 -197.5t89 -233.5t31 -260.5q0 -134 -31 -259.5t-89 -233t-144 -197t-193 -152.5t-239.5 -98t-279.5 -35
zM1090 -158q179 0 330.5 64.5t253.5 174t159 255t57 307.5t-57 308.5t-159 256t-253.5 174t-330.5 64.5q-144 0 -271 -41.5t-223 -116.5t-165.5 -175t-105.5 -220t-36 -250q0 -162 57 -307.5t159 -255t254 -174t331 -64.5zM680 602q0 97 15.5 179t53 153.5t94.5 118
t145.5 67.5t201.5 8l184 -20v-174l-205 20q-94 10 -162.5 -6.5t-107 -55t-56.5 -88.5t-18 -114l-51 -117h49q11 47 35.5 90t63.5 80.5t98.5 59.5t130.5 22q142 0 230.5 -84t88.5 -245q0 -111 -51.5 -189t-136 -114.5t-192.5 -36.5q-198 0 -304 109.5t-106 336.5zM889 492
q0 -160 186 -160q97 0 142 39.5t45 122.5q0 155 -179 155q-96 0 -145 -40.5t-49 -116.5z" />
    <glyph glyph-name="uni2466" unicode="&#x2466;" 
d="M1090 -332q-176 0 -331 49.5t-272 139t-202 210.5t-128.5 268t-43.5 308q0 202 69.5 380.5t194 311t309.5 209t404 76.5q147 0 279.5 -35t239.5 -98t193 -152.5t144 -197.5t89 -233.5t31 -260.5q0 -134 -31 -259.5t-89 -233t-144 -197t-193 -152.5t-239.5 -98t-279.5 -35
zM1090 -158q179 0 330.5 64.5t253.5 174t159 255t57 307.5t-57 308.5t-159 256t-253.5 174t-330.5 64.5q-144 0 -271 -41.5t-223 -116.5t-165.5 -175t-105.5 -220t-36 -250q0 -162 57 -307.5t159 -255t254 -174t331 -64.5zM877 135q0 153 31.5 267.5t98.5 198.5t161.5 141
t228.5 100v51h-639v174h706v-358q-211 -73 -295 -205.5t-84 -368.5h-208z" />
    <glyph glyph-name="uni2467" unicode="&#x2467;" 
d="M1090 -332q-176 0 -331 49.5t-272 139t-202 210.5t-128.5 268t-43.5 308q0 202 69.5 380.5t194 311t309.5 209t404 76.5q147 0 279.5 -35t239.5 -98t193 -152.5t144 -197.5t89 -233.5t31 -260.5q0 -134 -31 -259.5t-89 -233t-144 -197t-193 -152.5t-239.5 -98t-279.5 -35
zM1090 -158q179 0 330.5 64.5t253.5 174t159 255t57 307.5t-57 308.5t-159 256t-253.5 174t-330.5 64.5q-144 0 -271 -41.5t-223 -116.5t-165.5 -175t-105.5 -220t-36 -250q0 -162 57 -307.5t159 -255t254 -174t331 -64.5zM690 422q0 58 21.5 101.5t60 70.5t81.5 42.5
t95 22.5v35q-39 5 -74 18.5t-67 37t-51 62t-19 87.5q0 109 91.5 170t261.5 61q168 0 259 -61t91 -170q0 -49 -19 -87.5t-50.5 -62t-66.5 -37t-73 -18.5v-35q52 -7 95 -22.5t81.5 -42.5t60 -70.5t21.5 -101.5q0 -121 -105 -192.5t-294 -71.5t-294.5 71.5t-105.5 192.5z
M946 864q0 -100 144 -100q141 0 141 100q0 43 -31 67.5t-110 24.5q-144 0 -144 -92zM899 461q0 -60 46.5 -93.5t144.5 -33.5q96 0 143 34t47 93q0 60 -47 94.5t-143 34.5q-97 0 -144 -34.5t-47 -94.5z" />
    <glyph glyph-name="uni2468" unicode="&#x2468;" 
d="M1090 -332q-176 0 -331 49.5t-272 139t-202 210.5t-128.5 268t-43.5 308q0 202 69.5 380.5t194 311t309.5 209t404 76.5q147 0 279.5 -35t239.5 -98t193 -152.5t144 -197.5t89 -233.5t31 -260.5q0 -134 -31 -259.5t-89 -233t-144 -197t-193 -152.5t-239.5 -98t-279.5 -35
zM1090 -158q179 0 330.5 64.5t253.5 174t159 255t57 307.5t-57 308.5t-159 256t-253.5 174t-330.5 64.5q-144 0 -271 -41.5t-223 -116.5t-165.5 -175t-105.5 -220t-36 -250q0 -162 57 -307.5t159 -255t254 -174t331 -64.5zM1513 686q0 -97 -15.5 -178.5t-52.5 -153t-94 -118
t-145.5 -68t-201.5 -8.5l-185 20v174l205 -20q93 -9 161.5 7.5t107 54.5t57 88.5t18.5 113.5l51 117h-49q-23 -102 -107 -176t-223 -74q-141 0 -229 83.5t-88 244.5q0 166 107 253t274 87q198 0 303.5 -110t105.5 -337zM1305 797q0 161 -187 161q-96 0 -141 -39.5
t-45 -121.5q0 -158 176 -158q96 0 146.5 41t50.5 117z" />
    <glyph glyph-name="uni24EA" unicode="&#x24ea;" 
d="M1090 1620q147 0 279.5 -35t239.5 -98t193 -152.5t144 -197.5t89 -233.5t31 -260.5q0 -134 -31 -259.5t-89 -233t-144 -197t-193 -152.5t-239.5 -98t-279.5 -35q-176 0 -331 49.5t-272 139t-202 210.5t-128.5 268t-43.5 308q0 202 69.5 380.5t194 311t309.5 209t404 76.5
zM1090 -158q179 0 330.5 64.5t253.5 174t159 255t57 307.5t-57 308.5t-159 256t-253.5 174t-330.5 64.5q-144 0 -271 -41.5t-223 -116.5t-165.5 -175t-105.5 -220t-36 -250q0 -162 57 -307.5t159 -255t254 -174t331 -64.5zM1092 1130q132 0 226 -63.5t139.5 -172
t45.5 -249.5q0 -218 -107 -352.5t-304 -134.5q-198 0 -306 134.5t-108 352.5q0 217 108 351t306 134zM1092 930q-95 0 -150 -76.5t-55 -208.5q0 -81 20 -137l318 373q-52 49 -133 49zM1092 360q102 0 152 74.5t50 210.5q0 75 -16 137l-317 -368q51 -54 131 -54z" />
    <glyph glyph-name="uni24FF" unicode="&#x24ff;" 
d="M1090 -332q-176 0 -331 49.5t-272 139t-202 210.5t-128.5 268t-43.5 308q0 202 69.5 380.5t194 311t309.5 209t404 76.5q147 0 279.5 -35t239.5 -98t193 -152.5t144 -197.5t89 -233.5t31 -260.5q0 -134 -31 -259.5t-89 -233t-144 -197t-193 -152.5t-239.5 -98t-279.5 -35
zM678 645q0 -218 108 -352.5t306 -134.5q197 0 304 134.5t107 352.5q0 141 -45.5 249.5t-139.5 172t-226 63.5q-198 0 -306 -134t-108 -351zM887 645q0 132 55 208.5t150 76.5q81 0 131 -47l-316 -375q-20 53 -20 137zM961 414l319 370q14 -52 14 -139q0 -285 -202 -285
q-77 0 -131 54z" />
    <glyph glyph-name="lozenge" unicode="&#x25ca;" horiz-adv-x="1146" 
d="M784 1444l209 -680l-209 -682h-419l-211 682l211 680h419zM608 152l166 612l-166 612h-67l-166 -612l166 -612h67z" />
    <glyph glyph-name="uni2776" unicode="&#x2776;" 
d="M1090 -332q147 0 279.5 35t239.5 98t193 152.5t144 197t89 233t31 259.5q0 135 -31 260.5t-89 233.5t-144 197.5t-193 152.5t-239.5 98t-279.5 35q-219 0 -404 -76.5t-309.5 -209t-194 -311t-69.5 -380.5q0 -161 43.5 -308t128.5 -268t202 -210.5t272 -139t331 -49.5z
M725 768q67 51 98 89.5t48 95.5t24 157h399v-932h-209v748l31 114h-49q-5 -76 -18 -138t-40.5 -126.5t-77.5 -114.5t-120 -81z" />
    <glyph glyph-name="uni2777" unicode="&#x2777;" 
d="M1090 -332q147 0 279.5 35t239.5 98t193 152.5t144 197t89 233t31 259.5q0 135 -31 260.5t-89 233.5t-144 197.5t-193 152.5t-239.5 98t-279.5 35q-219 0 -404 -76.5t-309.5 -209t-194 -311t-69.5 -380.5q0 -161 43.5 -308t128.5 -268t202 -210.5t272 -139t331 -49.5z
M692 731q0 194 112 312t310 118q178 0 269.5 -90t91.5 -229q0 -103 -50.5 -180t-146.5 -126t-207.5 -78t-261.5 -48v-50l115 25h540v-176h-725v330q527 72 527 303q0 65 -39.5 105t-124.5 40q-106 0 -153.5 -62t-47.5 -194h-209z" />
    <glyph glyph-name="uni2778" unicode="&#x2778;" 
d="M1090 -332q147 0 279.5 35t239.5 98t193 152.5t144 197t89 233t31 259.5q0 135 -31 260.5t-89 233.5t-144 197.5t-193 152.5t-239.5 98t-279.5 35q-219 0 -404 -76.5t-309.5 -209t-194 -311t-69.5 -380.5q0 -161 43.5 -308t128.5 -268t202 -210.5t272 -139t331 -49.5z
M684 530h209q0 -115 52.5 -155.5t162.5 -40.5q92 0 136 28t44 99q0 37 -13 62t-36.5 36t-47.5 15t-56 4h-101v174h101q65 0 102 20.5t37 79.5q0 56 -38.5 80t-127.5 24q-104 0 -153.5 -32.5t-49.5 -114.5h-209q0 153 109 237t303 84q182 0 279.5 -70t97.5 -179
q0 -90 -59.5 -134t-163.5 -59v-49q55 -11 90 -23t72 -34t55 -59t18 -89q0 -128 -101 -202t-288 -74q-200 0 -312 92.5t-112 279.5z" />
    <glyph glyph-name="uni2779" unicode="&#x2779;" 
d="M1090 -332q147 0 279.5 35t239.5 98t193 152.5t144 197t89 233t31 259.5q0 135 -31 260.5t-89 233.5t-144 197.5t-193 152.5t-239.5 98t-279.5 35q-219 0 -404 -76.5t-309.5 -209t-194 -311t-69.5 -380.5q0 -161 43.5 -308t128.5 -268t202 -210.5t272 -139t331 -49.5z
M694 336v416q314 89 363 376h209q-8 -73 -30.5 -141.5t-65 -136t-101.5 -123t-144.5 -101t-189.5 -71.5v-49l115 33h293v211h209v-211h123v-203h-123v-139h-209v139h-449z" />
    <glyph glyph-name="uni277A" unicode="&#x277a;" 
d="M1090 -332q147 0 279.5 35t239.5 98t193 152.5t144 197t89 233t31 259.5q0 135 -31 260.5t-89 233.5t-144 197.5t-193 152.5t-239.5 98t-279.5 35q-219 0 -404 -76.5t-309.5 -209t-194 -311t-69.5 -380.5q0 -161 43.5 -308t128.5 -268t202 -210.5t272 -139t331 -49.5z
M700 451h209q0 -76 53 -114t144 -38q199 0 199 166q0 164 -144 164q-118 0 -190 -113l-238 94v463h713v-174h-504v-176l-27 -80l35 -20q30 80 100.5 131t176.5 51q142 0 214 -91.5t72 -236.5q0 -157 -103.5 -255.5t-299.5 -98.5t-303 85t-107 243z" />
    <glyph glyph-name="uni277B" unicode="&#x277b;" 
d="M1090 -332q147 0 279.5 35t239.5 98t193 152.5t144 197t89 233t31 259.5q0 135 -31 260.5t-89 233.5t-144 197.5t-193 152.5t-239.5 98t-279.5 35q-219 0 -404 -76.5t-309.5 -209t-194 -311t-69.5 -380.5q0 -161 43.5 -308t128.5 -268t202 -210.5t272 -139t331 -49.5z
M680 602q0 97 15.5 179t53 153.5t94.5 118t145.5 67.5t201.5 8l184 -20v-174l-205 20q-94 10 -162.5 -6.5t-107 -55t-56.5 -88.5t-18 -114l-51 -117h49q11 47 35.5 90t63.5 80.5t98.5 59.5t130.5 22q142 0 230.5 -84t88.5 -245q0 -111 -51.5 -189t-136 -114.5t-192.5 -36.5
q-198 0 -304 109.5t-106 336.5zM889 492q0 -160 186 -160q97 0 142 39.5t45 122.5q0 155 -179 155q-96 0 -145 -40.5t-49 -116.5z" />
    <glyph glyph-name="uni277C" unicode="&#x277c;" 
d="M1090 -332q147 0 279.5 35t239.5 98t193 152.5t144 197t89 233t31 259.5q0 135 -31 260.5t-89 233.5t-144 197.5t-193 152.5t-239.5 98t-279.5 35q-219 0 -404 -76.5t-309.5 -209t-194 -311t-69.5 -380.5q0 -161 43.5 -308t128.5 -268t202 -210.5t272 -139t331 -49.5z
M877 135q0 153 31.5 267.5t98.5 198.5t161.5 141t228.5 100v51h-639v174h706v-358q-211 -73 -295 -205.5t-84 -368.5h-208z" />
    <glyph glyph-name="uni277D" unicode="&#x277d;" 
d="M1090 -332q147 0 279.5 35t239.5 98t193 152.5t144 197t89 233t31 259.5q0 135 -31 260.5t-89 233.5t-144 197.5t-193 152.5t-239.5 98t-279.5 35q-219 0 -404 -76.5t-309.5 -209t-194 -311t-69.5 -380.5q0 -161 43.5 -308t128.5 -268t202 -210.5t272 -139t331 -49.5z
M690 422q0 58 21.5 101.5t60 70.5t81.5 42.5t95 22.5v35q-39 5 -74 18.5t-67 37t-51 62t-19 87.5q0 109 91.5 170t261.5 61q168 0 259 -61t91 -170q0 -49 -19 -87.5t-50.5 -62t-66.5 -37t-73 -18.5v-35q52 -7 95 -22.5t81.5 -42.5t60 -70.5t21.5 -101.5q0 -121 -105 -192.5
t-294 -71.5t-294.5 71.5t-105.5 192.5zM946 864q0 -100 144 -100q141 0 141 100q0 43 -31 67.5t-110 24.5q-144 0 -144 -92zM899 461q0 -60 46.5 -93.5t144.5 -33.5q96 0 143 34t47 93q0 60 -47 94.5t-143 34.5q-97 0 -144 -34.5t-47 -94.5z" />
    <glyph glyph-name="uni277E" unicode="&#x277e;" 
d="M1090 -332q147 0 279.5 35t239.5 98t193 152.5t144 197t89 233t31 259.5q0 135 -31 260.5t-89 233.5t-144 197.5t-193 152.5t-239.5 98t-279.5 35q-219 0 -404 -76.5t-309.5 -209t-194 -311t-69.5 -380.5q0 -161 43.5 -308t128.5 -268t202 -210.5t272 -139t331 -49.5z
M1513 686q0 -97 -15.5 -178.5t-52.5 -153t-94 -118t-145.5 -68t-201.5 -8.5l-185 20v174l205 -20q93 -9 161.5 7.5t107 54.5t57 88.5t18.5 113.5l51 117h-49q-23 -102 -107 -176t-223 -74q-141 0 -229 83.5t-88 244.5q0 166 107 253t274 87q198 0 303.5 -110t105.5 -337z
M1305 797q0 161 -187 161q-96 0 -141 -39.5t-45 -121.5q0 -158 176 -158q96 0 146.5 41t50.5 117z" />
    <glyph glyph-name="G.ss01" horiz-adv-x="1652" 
d="M113 723q0 215 88 383.5t249 263t367 94.5q269 0 446.5 -148.5t204.5 -387.5h-262q-42 307 -389 307q-213 0 -326.5 -135.5t-113.5 -376.5q0 -514 420 -514q212 0 335 96t123 285h-479v201h590q154 0 154 -150v-641h-265v156l50 184h-70q-5 -42 -17.5 -83t-46 -93.5
t-82.5 -91t-134 -65.5t-193 -27q-155 0 -279 54.5t-204.5 153.5t-123 235t-42.5 300z" />
    <glyph glyph-name="Gbreve.ss01" horiz-adv-x="1652" 
d="M1171 1944q0 -80 -21 -148.5t-62.5 -122t-110.5 -84t-158 -30.5q-118 0 -200 53.5t-118 138.5t-36 193h203q0 -106 37 -151.5t114 -45.5t113.5 45.5t36.5 151.5h202zM113 723q0 215 88 383.5t249 263t367 94.5q269 0 446.5 -148.5t204.5 -387.5h-262q-42 307 -389 307
q-213 0 -326.5 -135.5t-113.5 -376.5q0 -514 420 -514q212 0 335 96t123 285h-479v201h590q154 0 154 -150v-641h-265v156l50 184h-70q-5 -42 -17.5 -83t-46 -93.5t-82.5 -91t-134 -65.5t-193 -27q-155 0 -279 54.5t-204.5 153.5t-123 235t-42.5 300z" />
    <glyph glyph-name="uni0122.ss01" horiz-adv-x="1652" 
d="M113 723q0 215 88 383.5t249 263t367 94.5q269 0 446.5 -148.5t204.5 -387.5h-262q-42 307 -389 307q-213 0 -326.5 -135.5t-113.5 -376.5q0 -514 420 -514q212 0 335 96t123 285h-479v201h590q154 0 154 -150v-641h-265v156l50 184h-70q-5 -42 -17.5 -83t-46 -93.5
t-82.5 -91t-134 -65.5t-193 -27q-155 0 -279 54.5t-204.5 153.5t-123 235t-42.5 300zM659 -100l199 -62l-119 -346l-200 62z" />
    <glyph glyph-name="Gdotaccent.ss01" horiz-adv-x="1652" 
d="M817 1569q-85 0 -133.5 41.5t-48.5 113.5q0 71 49 113.5t133 42.5t134 -42.5t50 -113.5q0 -72 -49.5 -113.5t-134.5 -41.5zM113 723q0 215 88 383.5t249 263t367 94.5q269 0 446.5 -148.5t204.5 -387.5h-262q-42 307 -389 307q-213 0 -326.5 -135.5t-113.5 -376.5
q0 -514 420 -514q212 0 335 96t123 285h-479v201h590q154 0 154 -150v-641h-265v156l50 184h-70q-5 -42 -17.5 -83t-46 -93.5t-82.5 -91t-134 -65.5t-193 -27q-155 0 -279 54.5t-204.5 153.5t-123 235t-42.5 300z" />
    <glyph glyph-name="i.loclTRK" horiz-adv-x="976" 
d="M442 1153q-85 0 -133.5 42t-48.5 114q0 71 49 113t133 42q85 0 135 -42t50 -113q0 -72 -50 -114t-135 -42zM92 0v229h293v584l-238 -14v229l326 21q80 4 121 -37.5t41 -122.5v-660h291v-229h-834z" />
    <glyph glyph-name="a.ss01" horiz-adv-x="1411" 
d="M1276 0h-262v98l47 156h-68q-41 -120 -143 -197t-266 -77q-151 0 -264.5 72t-170.5 192t-57 270q0 112 33.5 209t95.5 169.5t155.5 114.5t207.5 42q164 0 266.5 -78t142.5 -199h68l-47 158v98h262v-1028zM1014 514q0 157 -90.5 231t-241.5 74q-152 0 -239 -73.5
t-87 -231.5t87 -231.5t239 -73.5q151 0 241.5 74t90.5 231z" />
    <glyph glyph-name="aacute.ss01" horiz-adv-x="1411" 
d="M301 1348l731 170l47 -193l-731 -170zM1276 0h-262v98l47 156h-68q-41 -120 -143 -197t-266 -77q-151 0 -264.5 72t-170.5 192t-57 270q0 112 33.5 209t95.5 169.5t155.5 114.5t207.5 42q164 0 266.5 -78t142.5 -199h68l-47 158v98h262v-1028zM1014 514q0 157 -90.5 231
t-241.5 74q-152 0 -239 -73.5t-87 -231.5t87 -231.5t239 -73.5q151 0 241.5 74t90.5 231z" />
    <glyph glyph-name="abreve.ss01" horiz-adv-x="1411" 
d="M1059 1528q0 -80 -21 -148.5t-62.5 -122t-110.5 -84t-158 -30.5t-158.5 30.5t-111.5 84t-63.5 122t-21.5 148.5h203q0 -106 37.5 -151.5t114.5 -45.5t113 45.5t36 151.5h203zM1276 0h-262v98l47 156h-68q-41 -120 -143 -197t-266 -77q-151 0 -264.5 72t-170.5 192
t-57 270q0 112 33.5 209t95.5 169.5t155.5 114.5t207.5 42q164 0 266.5 -78t142.5 -199h68l-47 158v98h262v-1028zM1014 514q0 157 -90.5 231t-241.5 74q-152 0 -239 -73.5t-87 -231.5t87 -231.5t239 -73.5q151 0 241.5 74t90.5 231z" />
    <glyph glyph-name="acircumflex.ss01" horiz-adv-x="1411" 
d="M1104 1264l-143 -136l-254 189l-256 -189l-144 136l400 292zM1276 0h-262v98l47 156h-68q-41 -120 -143 -197t-266 -77q-151 0 -264.5 72t-170.5 192t-57 270q0 112 33.5 209t95.5 169.5t155.5 114.5t207.5 42q164 0 266.5 -78t142.5 -199h68l-47 158v98h262v-1028z
M1014 514q0 157 -90.5 231t-241.5 74q-152 0 -239 -73.5t-87 -231.5t87 -231.5t239 -73.5q151 0 241.5 74t90.5 231z" />
    <glyph glyph-name="adieresis.ss01" horiz-adv-x="1411" 
d="M461 1153q-85 0 -133.5 42t-48.5 114q0 71 49 113t133 42t134 -42t50 -113q0 -72 -49.5 -114t-134.5 -42zM948 1153q-84 0 -132 42t-48 114q0 71 48 113t132 42q85 0 135 -42t50 -113q0 -72 -50 -114t-135 -42zM1276 0h-262v98l47 156h-68q-41 -120 -143 -197t-266 -77
q-151 0 -264.5 72t-170.5 192t-57 270q0 112 33.5 209t95.5 169.5t155.5 114.5t207.5 42q164 0 266.5 -78t142.5 -199h68l-47 158v98h262v-1028zM1014 514q0 157 -90.5 231t-241.5 74q-152 0 -239 -73.5t-87 -231.5t87 -231.5t239 -73.5q151 0 241.5 74t90.5 231z" />
    <glyph glyph-name="agrave.ss01" horiz-adv-x="1411" 
d="M1108 1348l-47 -193l-731 170l47 193zM1276 0h-262v98l47 156h-68q-41 -120 -143 -197t-266 -77q-151 0 -264.5 72t-170.5 192t-57 270q0 112 33.5 209t95.5 169.5t155.5 114.5t207.5 42q164 0 266.5 -78t142.5 -199h68l-47 158v98h262v-1028zM1014 514q0 157 -90.5 231
t-241.5 74q-152 0 -239 -73.5t-87 -231.5t87 -231.5t239 -73.5q151 0 241.5 74t90.5 231z" />
    <glyph glyph-name="amacron.ss01" horiz-adv-x="1411" 
d="M309 1444h793v-199l-793 -2v201zM1276 0h-262v98l47 156h-68q-41 -120 -143 -197t-266 -77q-151 0 -264.5 72t-170.5 192t-57 270q0 112 33.5 209t95.5 169.5t155.5 114.5t207.5 42q164 0 266.5 -78t142.5 -199h68l-47 158v98h262v-1028zM1014 514q0 157 -90.5 231
t-241.5 74q-152 0 -239 -73.5t-87 -231.5t87 -231.5t239 -73.5q151 0 241.5 74t90.5 231z" />
    <glyph glyph-name="aogonek.ss01" horiz-adv-x="1411" 
d="M1176 -201l319 33v-203l-389 -32q-47 -4 -86 12t-59 44.5t-24 65t19 72.5l127 209h-69v98l47 156h-68q-41 -120 -143 -197t-266 -77q-151 0 -264.5 72t-170.5 192t-57 270q0 112 33.5 209t95.5 169.5t155.5 114.5t207.5 42q164 0 266.5 -78t142.5 -199h68l-47 158v98h262
v-1028zM682 209q151 0 241.5 74t90.5 231t-90.5 231t-241.5 74q-152 0 -239 -73.5t-87 -231.5t87 -231.5t239 -73.5z" />
    <glyph glyph-name="aring.ss01" horiz-adv-x="1411" 
d="M705 1141q-137 0 -214 63.5t-77 175.5q0 111 77.5 175.5t213.5 64.5q135 0 212.5 -64.5t77.5 -175.5q0 -110 -77.5 -174.5t-212.5 -64.5zM705 1300q88 0 88 80q0 39 -23.5 58.5t-64.5 19.5t-65 -19.5t-24 -58.5q0 -40 24 -60t65 -20zM1276 0h-262v98l47 156h-68
q-41 -120 -143 -197t-266 -77q-151 0 -264.5 72t-170.5 192t-57 270q0 112 33.5 209t95.5 169.5t155.5 114.5t207.5 42q164 0 266.5 -78t142.5 -199h68l-47 158v98h262v-1028zM1014 514q0 157 -90.5 231t-241.5 74q-152 0 -239 -73.5t-87 -231.5t87 -231.5t239 -73.5
q151 0 241.5 74t90.5 231z" />
    <glyph glyph-name="atilde.ss01" horiz-adv-x="1411" 
d="M268 1223q0 165 71 255.5t193 90.5q51 0 94.5 -17t73.5 -41t56 -48t52 -41t50 -17q39 0 59.5 29t20.5 114h203q0 -166 -71 -256t-193 -90q-51 0 -94.5 17t-73.5 41t-56 48t-52 41t-50 17q-39 0 -59.5 -29t-20.5 -114h-203zM1276 0h-262v98l47 156h-68q-41 -120 -143 -197
t-266 -77q-151 0 -264.5 72t-170.5 192t-57 270q0 112 33.5 209t95.5 169.5t155.5 114.5t207.5 42q164 0 266.5 -78t142.5 -199h68l-47 158v98h262v-1028zM1014 514q0 157 -90.5 231t-241.5 74q-152 0 -239 -73.5t-87 -231.5t87 -231.5t239 -73.5q151 0 241.5 74t90.5 231z
" />
    <glyph glyph-name="g.ss01" horiz-adv-x="1411" 
d="M1014 1028h262v-1278q0 -75 -41.5 -114.5t-120.5 -38.5l-827 16v229l727 -14v270l47 156h-68q-41 -120 -143 -197t-266 -77q-151 0 -264.5 72t-170.5 192t-57 270q0 112 33.5 209t95.5 169.5t155.5 114.5t207.5 42q164 0 266.5 -78t142.5 -199h68l-47 158v98zM682 209
q151 0 241.5 74t90.5 231t-90.5 231t-241.5 74q-152 0 -239 -73.5t-87 -231.5t87 -231.5t239 -73.5z" />
    <glyph glyph-name="gbreve.ss01" horiz-adv-x="1411" 
d="M680 1143q-118 0 -200 53.5t-118 138.5t-36 193h202q0 -106 37.5 -151.5t114.5 -45.5t113 45.5t36 151.5h203q0 -80 -21 -148.5t-62.5 -122t-110.5 -84t-158 -30.5zM1014 1028h262v-1278q0 -75 -41.5 -114.5t-120.5 -38.5l-827 16v229l727 -14v270l47 156h-68
q-41 -120 -143 -197t-266 -77q-151 0 -264.5 72t-170.5 192t-57 270q0 112 33.5 209t95.5 169.5t155.5 114.5t207.5 42q164 0 266.5 -78t142.5 -199h68l-47 158v98zM682 209q151 0 241.5 74t90.5 231t-90.5 231t-241.5 74q-152 0 -239 -73.5t-87 -231.5t87 -231.5t239 -73.5
z" />
    <glyph glyph-name="uni0123.ss01" horiz-adv-x="1411" 
d="M899 1569l-131 -416l-203 55l133 414zM1014 1028h262v-1278q0 -75 -41.5 -114.5t-120.5 -38.5l-827 16v229l727 -14v270l47 156h-68q-41 -120 -143 -197t-266 -77q-151 0 -264.5 72t-170.5 192t-57 270q0 112 33.5 209t95.5 169.5t155.5 114.5t207.5 42q164 0 266.5 -78
t142.5 -199h68l-47 158v98zM682 209q151 0 241.5 74t90.5 231t-90.5 231t-241.5 74q-152 0 -239 -73.5t-87 -231.5t87 -231.5t239 -73.5z" />
    <glyph glyph-name="gdotaccent.ss01" horiz-adv-x="1411" 
d="M678 1153q-85 0 -133.5 42t-48.5 114q0 71 49 113t133 42t134 -42t50 -113q0 -72 -49.5 -114t-134.5 -42zM1014 1028h262v-1278q0 -75 -41.5 -114.5t-120.5 -38.5l-827 16v229l727 -14v270l47 156h-68q-41 -120 -143 -197t-266 -77q-151 0 -264.5 72t-170.5 192t-57 270
q0 112 33.5 209t95.5 169.5t155.5 114.5t207.5 42q164 0 266.5 -78t142.5 -199h68l-47 158v98zM682 209q151 0 241.5 74t90.5 231t-90.5 231t-241.5 74q-152 0 -239 -73.5t-87 -231.5t87 -231.5t239 -73.5z" />
    <glyph glyph-name="k.ss01" horiz-adv-x="1337" 
d="M1264 1028l-488 -410l488 -618h-318l-358 461l-191 -160v-301h-264v1505h264v-884l480 407h387z" />
    <glyph glyph-name="uni0137.ss01" horiz-adv-x="1337" 
d="M1264 1028l-488 -410l488 -618h-318l-358 461l-191 -160v-301h-264v1505h264v-884l480 407h387zM459 -446l121 346l198 -62l-119 -346z" />
    <glyph glyph-name="uni0438.loclBGR" horiz-adv-x="1345" 
d="M1251 0h-262v815l47 143h-67l-316 -958h-520v1028h264v-809l-47 -151h68l315 960h518v-1028z" />
    <glyph glyph-name="uni0439.loclBGR" horiz-adv-x="1345" 
d="M1053 1528q0 -80 -21 -148.5t-63 -122t-111 -84t-158 -30.5q-118 0 -200 53.5t-118 138.5t-36 193h203q0 -106 37 -151.5t114 -45.5t113.5 45.5t36.5 151.5h203zM1251 0h-262v815l47 143h-67l-316 -958h-520v1028h264v-809l-47 -151h68l315 960h518v-1028z" />
    <glyph glyph-name="uni045D.loclBGR" horiz-adv-x="1345" 
d="M1102 1348l-47 -193l-731 170l47 193zM1251 0h-262v815l47 143h-67l-316 -958h-520v1028h264v-809l-47 -151h68l315 960h518v-1028z" />
    <glyph glyph-name="zero.dnom" horiz-adv-x="970" 
d="M487 952q196 0 304 -135t108 -350q0 -218 -107.5 -352.5t-304.5 -134.5q-199 0 -307 134.5t-108 352.5q0 215 108 350t307 135zM487 750q-95 0 -150.5 -75.5t-55.5 -207.5q0 -81 20 -137l317 372q-51 48 -131 48zM487 182q102 0 152.5 74t50.5 211q0 75 -16 137
l-320 -368q54 -54 133 -54z" />
    <glyph glyph-name="one.dnom" horiz-adv-x="712" 
d="M72 590q67 51 98 89.5t48 95.5t24 157h399v-932h-209v748l31 116h-49q-5 -76 -18 -138.5t-40.5 -126.5t-77.5 -114.5t-120 -81.5z" />
    <glyph glyph-name="two.dnom" horiz-adv-x="927" 
d="M72 520q0 195 112.5 313.5t309.5 118.5q179 0 269.5 -90t90.5 -229q0 -84 -34.5 -150.5t-92 -112t-145.5 -80t-181 -55t-213 -36.5v-49l117 24h541v-174h-725v328q31 4 42 5.5t58.5 10t75.5 15.5t78 22t81.5 30t71 38.5t62.5 49.5t39 60.5t16 73.5q0 66 -38.5 105.5
t-123.5 39.5q-107 0 -154.5 -62t-47.5 -196h-209z" />
    <glyph glyph-name="three.dnom" horiz-adv-x="956" 
d="M72 352h209q0 -115 53.5 -156.5t161.5 -41.5q92 0 136 29t44 100q0 37 -12.5 61t-36.5 35.5t-48 15.5t-57 4h-98v174h98q67 0 104.5 21t37.5 80q0 55 -40 79.5t-128 24.5q-103 0 -153 -33.5t-50 -113.5h-209q0 152 109 236.5t303 84.5q183 0 279.5 -71t96.5 -179
q0 -47 -17 -82t-49 -57t-68.5 -34.5t-86.5 -20.5v-49q42 -8 71.5 -16t62.5 -23.5t53 -36t33.5 -53.5t13.5 -76q0 -127 -100.5 -200.5t-288.5 -73.5q-200 0 -312 92.5t-112 279.5z" />
    <glyph glyph-name="four.dnom" horiz-adv-x="925" 
d="M72 139v416q314 88 364 377h209q-8 -73 -30.5 -141.5t-65 -136.5t-101.5 -123.5t-145 -101t-190 -71.5v-49l116 33h291v211h209v-211h125v-203h-125v-139h-209v139h-448z" />
    <glyph glyph-name="five.dnom" horiz-adv-x="958" 
d="M72 305h209q0 -75 53 -113t143 -38q199 0 199 168q0 163 -144 163q-118 0 -190 -112l-238 94v463h713v-176h-504v-176l-26 -80l35 -19q30 79 100 129.5t176 50.5q143 0 215 -90t72 -235q0 -157 -104 -255.5t-300 -98.5t-302.5 84.5t-106.5 240.5z" />
    <glyph glyph-name="six.dnom" horiz-adv-x="935" 
d="M72 426q0 97 15.5 178.5t53 153t94.5 118t145.5 68t201.5 8.5l184 -20v-174l-205 20q-93 9 -161.5 -7.5t-107 -54.5t-57 -88.5t-18.5 -113.5l-51 -117h49q23 102 107 176t223 74q141 0 229 -83.5t88 -244.5q0 -166 -107 -252.5t-274 -86.5q-198 0 -303.5 109.5
t-105.5 336.5zM281 315q0 -161 186 -161q96 0 141 39.5t45 121.5q0 158 -176 158q-96 0 -146 -41t-50 -117z" />
    <glyph glyph-name="seven.dnom" horiz-adv-x="851" 
d="M193 0q0 153 31.5 267.5t98.5 198.5t161.5 141t228.5 100v51h-641v174h708v-359q-211 -73 -295 -205t-84 -368h-208z" />
    <glyph glyph-name="eight.dnom" horiz-adv-x="944" 
d="M72 244q0 57 21.5 101t59.5 70.5t81.5 42.5t95.5 23v35q-39 5 -74 18t-67 36.5t-51 62t-19 88.5q0 107 91.5 169t260.5 62q168 0 259 -62t91 -169q0 -50 -19 -88.5t-51 -62t-66.5 -36.5t-72.5 -18v-35q52 -7 95.5 -23t81.5 -42.5t59.5 -70.5t21.5 -101
q0 -121 -105 -192.5t-294 -71.5t-294 71.5t-105 192.5zM328 686q0 -100 143 -100q141 0 141 100q0 92 -141 92q-143 0 -143 -92zM281 281q0 -127 190 -127q96 0 143.5 34t47.5 93q0 60 -47.5 95.5t-143.5 35.5q-97 0 -143.5 -35.5t-46.5 -95.5z" />
    <glyph glyph-name="nine.dnom" horiz-adv-x="935" 
d="M864 510q0 -97 -15.5 -178.5t-53 -153t-94.5 -118t-145.5 -68t-201.5 -8.5l-184 20v174l205 -20q93 -9 161.5 7.5t107 54.5t57 88.5t18.5 113.5l51 117h-49q-23 -102 -107 -176t-223 -74q-141 0 -229 83.5t-88 243.5q0 166 107 253t274 87q198 0 303.5 -109.5
t105.5 -336.5zM655 621q0 161 -186 161q-96 0 -141 -39.5t-45 -121.5q0 -158 176 -158q96 0 146 41t50 117z" />
    <glyph glyph-name="zero.numr" horiz-adv-x="970" 
d="M487 1563q196 0 304 -135.5t108 -350.5q0 -218 -107.5 -352.5t-304.5 -134.5q-199 0 -307 134.5t-108 352.5q0 215 108 350.5t307 135.5zM487 1360q-95 0 -150.5 -75.5t-55.5 -207.5q0 -81 20 -137l317 373q-50 47 -131 47zM487 793q102 0 152.5 73.5t50.5 210.5
q0 75 -16 137l-320 -368q53 -53 133 -53z" />
    <glyph glyph-name="one.numr" horiz-adv-x="712" 
d="M72 1184q67 51 98 89.5t48 95.5t24 157h399v-932h-209v747l31 117h-49q-5 -76 -18 -138.5t-40.5 -126.5t-77.5 -114.5t-120 -81.5z" />
    <glyph glyph-name="two.numr" horiz-adv-x="927" 
d="M72 1122q0 195 112.5 313.5t309.5 118.5q179 0 269.5 -90t90.5 -229q0 -84 -34.5 -150.5t-92 -112t-145.5 -80t-181 -55t-213 -36.5v-49l117 24h541v-174h-725v328q31 4 42 5.5t58.5 10t75.5 15.5t78 22t81.5 30t71 38.5t62.5 49.5t39 60.5t16 73.5q0 66 -38.5 105.5
t-123.5 39.5q-107 0 -154.5 -62t-47.5 -196h-209z" />
    <glyph glyph-name="three.numr" horiz-adv-x="956" 
d="M72 954h209q0 -115 53.5 -156.5t161.5 -41.5q92 0 136 29t44 100q0 37 -12.5 61t-36.5 35.5t-48 15.5t-57 4h-98v175h98q67 0 104.5 20.5t37.5 79.5q0 55 -40 79.5t-128 24.5q-103 0 -153 -33.5t-50 -113.5h-209q0 152 109 236.5t303 84.5q183 0 279.5 -70.5t96.5 -178.5
q0 -47 -17 -82.5t-49 -57t-69 -34.5t-86 -21v-49q42 -8 71.5 -16t62.5 -23.5t53 -36t33.5 -53.5t13.5 -76q0 -127 -100.5 -200.5t-288.5 -73.5q-200 0 -312 92.5t-112 279.5z" />
    <glyph glyph-name="four.numr" horiz-adv-x="925" 
d="M72 733v416q314 88 364 377h209q-8 -73 -30.5 -141.5t-65 -136.5t-101.5 -123.5t-145 -101t-190 -71.5v-49l116 33h291v211h209v-211h125v-203h-125v-139h-209v139h-448z" />
    <glyph glyph-name="five.numr" horiz-adv-x="958" 
d="M72 907h209q0 -75 53 -113t143 -38q199 0 199 168q0 163 -144 163q-118 0 -190 -112l-238 94v463h713v-176h-504v-176l-26 -80l35 -19q30 79 100 130t176 51q143 0 215 -90.5t72 -235.5q0 -157 -104 -255.5t-300 -98.5t-302.5 84.5t-106.5 240.5z" />
    <glyph glyph-name="six.numr" horiz-adv-x="935" 
d="M72 1038q0 97 15.5 178.5t53 153t94.5 118.5t145.5 68.5t201.5 8.5l184 -21v-174l-205 21q-93 9 -161.5 -7.5t-107 -55t-57 -89t-18.5 -113.5l-51 -116h49q23 102 107 176t223 74q141 0 229 -83.5t88 -244.5q0 -166 -107 -253t-274 -87q-198 0 -303.5 109.5t-105.5 336.5
zM281 928q0 -162 186 -162q96 0 141 40t45 122q0 157 -176 157q-96 0 -146 -40.5t-50 -116.5z" />
    <glyph glyph-name="seven.numr" horiz-adv-x="851" 
d="M193 594q0 202 59 341t170 223.5t291 141.5v52h-641v174h708v-359q-211 -73 -295 -205t-84 -368h-208z" />
    <glyph glyph-name="eight.numr" horiz-adv-x="944" 
d="M72 854q0 57 21.5 101t59.5 71t81.5 43t95.5 23v34q-39 5 -74 18t-67 36.5t-51 62t-19 88.5q0 108 91.5 170t260.5 62q168 0 259 -62t91 -170q0 -50 -19 -88.5t-51 -62t-66.5 -36.5t-72.5 -18v-34q52 -7 95.5 -23t81.5 -43t59.5 -71t21.5 -101q0 -121 -105 -192.5
t-294 -71.5t-294 71.5t-105 192.5zM328 1296q0 -100 143 -100q141 0 141 100q0 93 -141 93q-143 0 -143 -93zM281 891q0 -127 190 -127q96 0 143.5 34t47.5 93q0 60 -47.5 95.5t-143.5 35.5q-97 0 -143.5 -35.5t-46.5 -95.5z" />
    <glyph glyph-name="nine.numr" horiz-adv-x="935" 
d="M864 1122q0 -97 -15.5 -178.5t-53 -153t-94.5 -118t-145.5 -68t-201.5 -8.5l-184 20v175l205 -21q93 -9 161.5 7.5t107 54.5t57 88.5t18.5 113.5l51 117h-49q-23 -102 -107 -176t-223 -74q-141 0 -229 83.5t-88 244.5q0 166 107 253t274 87q198 0 303.5 -110t105.5 -337z
M655 1233q0 162 -186 162q-96 0 -141 -40t-45 -122q0 -158 176 -158q96 0 146 41t50 117z" />
    <glyph glyph-name="colon.case" horiz-adv-x="714" 
d="M356 877q-91 0 -146.5 57.5t-55.5 146.5q0 86 55.5 143.5t146.5 57.5q89 0 147 -58t58 -143q0 -88 -58 -146t-147 -58zM356 160q-91 0 -146.5 58t-55.5 147q0 86 55.5 143t146.5 57q89 0 147 -57.5t58 -142.5q0 -88 -58 -146.5t-147 -58.5z" />
    <glyph glyph-name="bullet.case" horiz-adv-x="1495" 
d="M743 127q-132 0 -243 46t-186.5 126.5t-117.5 190.5t-42 237q0 123 42 231t117.5 187.5t187 125.5t242.5 46q170 0 307.5 -78.5t214 -213.5t76.5 -298q0 -126 -45 -237t-123.5 -191t-190 -126t-239.5 -46z" />
    <glyph glyph-name="parenleft.case" horiz-adv-x="907" 
d="M752 27v-181q-155 30 -271 107.5t-187 193.5t-105.5 259.5t-34.5 316.5t34.5 316t105.5 258.5t187 192.5t271 107v-180q-90 -26 -158 -72.5t-112 -107.5t-71 -143t-38 -171t-11 -200t11 -200.5t38 -171.5t71 -143.5t112 -108t158 -72.5z" />
    <glyph glyph-name="parenright.case" horiz-adv-x="907" 
d="M154 27q112 32 189.5 94.5t120.5 155t61 199.5t18 247t-18 247t-61 198.5t-120.5 154t-189.5 94.5v180q155 -30 271 -107t187 -192.5t105.5 -258.5t34.5 -316t-34.5 -316.5t-105.5 -259.5t-187 -193.5t-271 -107.5v181z" />
    <glyph glyph-name="braceleft.case" horiz-adv-x="1273" 
d="M666 1413l-158 47v-67q239 -65 341.5 -164t102.5 -271q0 -108 -71 -241q71 -133 71 -242q0 -171 -102.5 -270t-341.5 -164v-68l158 47h454v-174h-680v299q175 63 252.5 148t77.5 227q0 25 -2 37q-142 -149 -293 -149q-141 0 -231 82.5t-90 226.5q0 146 86 227.5t235 81.5
q151 0 293 -149q2 12 2 36q0 142 -77.5 227t-252.5 148v299h680v-174h-454zM504 567q53 0 108.5 42t96.5 108q-41 66 -96.5 107.5t-108.5 41.5q-61 0 -101.5 -40.5t-40.5 -108.5q0 -69 41 -109.5t101 -40.5z" />
    <glyph glyph-name="braceright.case" horiz-adv-x="1247" 
d="M772 408q-151 0 -293 149q-2 -12 -2 -37q0 -141 78 -226.5t252 -148.5v-299h-680v174h455l157 -47v68q-239 65 -341.5 164t-102.5 270q0 108 72 242q-72 134 -72 241q0 172 102.5 271t341.5 164v67l-157 -47h-455v174h680v-299q-174 -63 -252 -148.5t-78 -226.5
q0 -24 2 -36q142 149 293 149q149 0 235.5 -81.5t86.5 -227.5q0 -144 -90.5 -226.5t-231.5 -82.5zM743 866q-53 0 -108 -41.5t-96 -107.5q41 -66 96 -108t108 -42q61 0 101.5 40.5t40.5 109.5q0 68 -40.5 108.5t-101.5 40.5z" />
    <glyph glyph-name="bracketleft.case" horiz-adv-x="919" 
d="M154 1597h612v-174h-401v-1403h401v-174h-612v1751z" />
    <glyph glyph-name="bracketright.case" horiz-adv-x="919" 
d="M766 1597v-1751h-612v174h401v1403h-401v174h612z" />
    <glyph glyph-name="braceleft.ss01" horiz-adv-x="960" 
d="M154 674q82 3 141.5 21t91 40.5t49.5 55.5t22.5 58.5t4.5 57.5q0 91 -55 154t-156 78v305h555v-174h-385l-103 47v-68q178 -47 265.5 -131t87.5 -223q0 -131 -88 -207.5t-240 -85.5v-70q152 -9 240 -86t88 -208q0 -139 -87 -221.5t-266 -129.5v-67l103 47h385v-174h-555
v305q103 17 157 76.5t54 150.5q0 26 -3.5 47.5t-13 49.5t-31.5 50t-54 42t-85 32t-122 15v213z" />
    <glyph glyph-name="braceright.ss01" horiz-adv-x="960" 
d="M807 674v-213q-69 -3 -122 -15t-85 -32t-54 -42t-31.5 -50t-13 -49.5t-3.5 -47.5q0 -91 54 -150.5t157 -76.5v-305h-555v174h385l102 -47v67q-179 47 -265.5 129.5t-86.5 221.5q0 132 87.5 208.5t239.5 85.5v70q-152 9 -239.5 85.5t-87.5 207.5q0 139 87 223t265 131v68
l-102 -47h-385v174h555v-305q-101 -15 -156 -78t-55 -154q0 -32 4.5 -57.5t22.5 -58.5t49.5 -55.5t91 -40.5t141.5 -21z" />
    <glyph glyph-name="braceleft.case.ss01" horiz-adv-x="960" 
d="M154 827q59 2 106.5 12t79.5 24t55.5 34t36 38.5t20 42.5t9.5 42.5t2 40.5q0 91 -55 153.5t-156 77.5v305h555v-174h-385l-103 47v-67q178 -47 265.5 -131t87.5 -223q0 -131 -88 -207.5t-240 -85.5v-70q152 -9 240 -86t88 -209q0 -138 -87 -220.5t-266 -129.5v-68l103 47
h385v-174h-555v306q103 17 157 76.5t54 150.5q0 32 -4.5 57.5t-22.5 59t-49.5 56.5t-91 41t-141.5 21v213z" />
    <glyph glyph-name="braceright.case.ss01" horiz-adv-x="960" 
d="M807 827v-213q-82 -3 -141.5 -21t-91 -41t-49.5 -56.5t-22.5 -59t-4.5 -57.5q0 -91 54 -150.5t157 -76.5v-306h-555v174h385l102 -47v68q-179 47 -265.5 129t-86.5 221q0 132 87.5 209t239.5 86v70q-152 9 -239.5 85.5t-87.5 207.5q0 139 87 223t265 131v67l-102 -47
h-385v174h555v-305q-101 -15 -156 -77.5t-55 -153.5q0 -22 2 -40.5t9.5 -42.5t20 -42.5t36 -38.5t55.5 -34t79.5 -24t106.5 -12z" />
    <glyph glyph-name="hyphen.case" horiz-adv-x="1361" 
d="M154 823h1054v-200h-1054v200z" />
    <glyph glyph-name="endash.case" horiz-adv-x="1785" 
d="M154 823h1478v-200h-1478v200z" />
    <glyph glyph-name="emdash.case" horiz-adv-x="2195" 
d="M154 823h1888v-200h-1888v200z" />
    <glyph glyph-name="guillemotleft.case" horiz-adv-x="1615" 
d="M926 242l-152 -136l-620 617l620 614l152 -135l-482 -479zM1462 242l-151 -136l-621 617l621 614l151 -135l-481 -479z" />
    <glyph glyph-name="guillemotright.case" horiz-adv-x="1642" 
d="M182 242l480 481l-480 479l152 135l618 -614l-618 -617zM719 242l479 481l-479 479l151 135l619 -614l-619 -617z" />
    <glyph glyph-name="guilsinglleft.case" horiz-adv-x="1079" 
d="M926 242l-152 -136l-620 617l620 614l152 -135l-482 -479z" />
    <glyph glyph-name="guilsinglright.case" horiz-adv-x="1105" 
d="M182 242l480 481l-480 479l152 135l618 -614l-618 -617z" />
    <glyph glyph-name="ampersand.ss01" horiz-adv-x="1888" 
d="M1733 999q0 -217 -76 -400t-211 -320q124 -82 287 -179l-138 -196q-200 119 -350 219q-249 -143 -536 -143q-255 0 -405 102.5t-150 292.5q0 82 26 147.5t75.5 112t104 78.5t129.5 61q-100 152 -100 287q0 194 134 298.5t366 104.5q199 0 320.5 -98.5t121.5 -249.5
q0 -80 -24.5 -140t-82 -110t-134.5 -89t-199 -85q138 -127 352 -278q225 215 225 585h265zM879 1235q-226 0 -226 -174q0 -87 86 -203q192 63 261 111.5t69 126.5q0 66 -51 102.5t-139 36.5zM709 209q172 0 319 63q-253 182 -391 326q-119 -50 -169 -98.5t-50 -116.5
q0 -86 79.5 -130t211.5 -44z" />
    <glyph glyph-name="brevecombcy" horiz-adv-x="0" 
d="M-154 1528q0 -80 -21 -148.5t-62.5 -122t-110.5 -84t-158 -30.5q-118 0 -200 53.5t-118 138.5t-36 193h203q0 -106 37 -151.5t114 -45.5t113.5 45.5t36.5 151.5h202z" />
    </font>
</defs>
</svg>
