<?xml version="1.0" standalone="no"?>
<!DOCTYPE svg PUBLIC "-//W3C//DTD SVG 1.1//EN" "http://www.w3.org/Graphics/SVG/1.1/DTD/svg11.dtd" >
<svg xmlns="http://www.w3.org/2000/svg" xmlns:xlink="http://www.w3.org/1999/xlink" version="1.1">
<metadata>
Created by FontForge 20170731 at Thu Apr 21 17:41:59 2022
 By Aleksey,,,
Copyright (c) 2019 by Mathieu Desjardins. All rights reserved.
</metadata>
<defs>
<font id="NeueMachina-Medium" horiz-adv-x="1234" >
  <font-face 
    font-family="Neue Machina Medium"
    font-weight="500"
    font-stretch="normal"
    units-per-em="2048"
    panose-1="0 0 6 0 0 0 0 0 0 0"
    ascent="1638"
    descent="-410"
    x-height="1020"
    cap-height="1444"
    bbox="-963 -555 3271 2023"
    underline-thickness="102"
    underline-position="-255"
    unicode-range="U+0020-277E"
  />
<missing-glyph horiz-adv-x="989" 
d="M811 1505v-1976h-627v1976h627zM657 1372h-325v-63h129v-74h-131v-66h327v66h-129v74h129v63zM528 1118h-198v-205h327v66h-129v139zM461 1051v-72h-66v72h66zM657 858h-327v-63h131v-74h-131v-66h198v140h129v63zM657 741h-63v-131h-264v-67h327v198zM657 500h-196v-111
h67v45h66v-92h-199v158h-65v-224h327v224zM657 158h-327v-224h327v224zM594 92v-92h-199v92h199zM657 -111h-327v-65h139l-139 -94v-64h327v64h-200l137 94h63v65z" />
    <glyph glyph-name="f_f" unicode="ff" horiz-adv-x="1558" 
d="M1327 1333q-91 0 -127.5 -43t-36.5 -141v-129h295v-172h-295v-676h295v-172h-1374v172h235v676h-235v172h235v31q0 180 94.5 273t280.5 93h365q94 88 280 88h177v-172h-189zM963 1020v133q0 53 8 92h-277q-100 0 -138 -46.5t-38 -151.5v-27h445zM963 172v676h-445v-676
h445z" />
    <glyph glyph-name="f_f_i" unicode="ffi" horiz-adv-x="2226" 
d="M1880 172h283v-172h-2079v172h235v676h-235v172h235v31q0 180 94.5 273t280.5 93h363q99 120 297 109l391 -21v-172l-406 21q-88 4 -125.5 -49.5t-37.5 -155.5v-121l563 12q73 1 107 -34t34 -111v-723zM518 1047v-27h240l221 4v129q0 49 6 92h-291q-100 0 -138 -46.5
t-38 -151.5zM1681 172v694l-505 -10v-684h505zM979 172v680l-178 -4h-283v-676h461z" />
    <glyph glyph-name="f_i" unicode="fi" horiz-adv-x="1550" 
d="M1206 172h283v-172h-1405v172h219v680l-219 -4v172l219 4v129q0 177 93.5 280t281.5 93l391 -21v-172l-403 21q-89 4 -126.5 -49.5t-37.5 -155.5v-121l561 12q74 1 108.5 -34t34.5 -111v-723zM1006 172v694l-504 -10v-684h504z" />
    <glyph glyph-name=".notdef" horiz-adv-x="989" 
d="M811 1505v-1976h-627v1976h627zM657 1372h-325v-63h129v-74h-131v-66h327v66h-129v74h129v63zM528 1118h-198v-205h327v66h-129v139zM461 1051v-72h-66v72h66zM657 858h-327v-63h131v-74h-131v-66h198v140h129v63zM657 741h-63v-131h-264v-67h327v198zM657 500h-196v-111
h67v45h66v-92h-199v158h-65v-224h327v224zM657 158h-327v-224h327v224zM594 92v-92h-199v92h199zM657 -111h-327v-65h139l-139 -94v-64h327v64h-200l137 94h63v65z" />
    <glyph glyph-name=".null" horiz-adv-x="0" 
 />
    <glyph glyph-name="nonmarkingreturn" horiz-adv-x="682" 
 />
    <glyph glyph-name="space" unicode=" " horiz-adv-x="657" 
 />
    <glyph glyph-name="exclam" unicode="!" horiz-adv-x="692" 
d="M248 1444h198l-26 -940h-146zM344 -20q-77 0 -127.5 52.5t-50.5 129.5q0 76 50.5 128t127.5 52q76 0 129 -52.5t53 -127.5q0 -76 -53 -129t-129 -53z" />
    <glyph glyph-name="quotedbl" unicode="&#x22;" horiz-adv-x="804" 
d="M166 1532h172v-545h-172v545zM467 1532h172v-545h-172v545z" />
    <glyph glyph-name="numbersign" unicode="#" horiz-adv-x="2228" 
d="M2064 877h-444l-164 -471h406v-144h-457l-197 -567l-149 55l178 512h-508l-197 -567l-149 55l178 512h-395v144h444l166 471h-407v143h456l197 565l149 -55l-178 -510h508l197 565l149 -55l-178 -510h395v-143zM1286 406l166 471h-508l-164 -471h506z" />
    <glyph glyph-name="dollar" unicode="$" horiz-adv-x="1562" 
d="M1397 371q0 -383 -543 -391v-283h-145v287q-151 13 -257.5 57.5t-168.5 118.5t-89.5 167.5t-27.5 215.5h199q0 -193 85 -280t259 -105v524q-66 20 -113.5 36.5t-101 39.5t-90 45.5t-71.5 53.5t-56 66t-33.5 80.5t-12.5 98.5q0 167 118 260t360 102v283h145v-287
q127 -13 223 -60t151 -116.5t82 -149t27 -167.5h-198q0 138 -77 216.5t-208 100.5v-463q70 -22 114 -37t107.5 -40.5t103.5 -48.5t85.5 -58t71.5 -72.5t43.5 -87t17.5 -106.5zM430 1104q0 -87 63 -136t216 -100v424q-279 -14 -279 -188zM854 152q174 3 259 52t85 158
q0 47 -19.5 86t-48 65.5t-77.5 50.5t-92 39t-107 34v-485z" />
    <glyph glyph-name="percent" unicode="%" horiz-adv-x="2426" 
d="M1454 1661l150 -55l-639 -1835l-150 53zM600 657q-191 0 -312.5 126t-121.5 309q0 182 121.5 308t312.5 126t312.5 -126t121.5 -308q0 -183 -121.5 -309t-312.5 -126zM600 815q119 0 196.5 81t77.5 196t-77.5 195.5t-196.5 80.5q-121 0 -198.5 -80.5t-77.5 -195.5
t77.5 -196t198.5 -81zM1827 -61q-191 0 -312.5 126t-121.5 308t121.5 308t312.5 126t312.5 -126t121.5 -308t-121.5 -308t-312.5 -126zM1827 96q119 0 197.5 81t78.5 196t-78.5 195.5t-197.5 80.5q-120 0 -198.5 -80.5t-78.5 -195.5t79 -196t198 -81z" />
    <glyph glyph-name="ampersand" unicode="&#x26;" horiz-adv-x="1976" 
d="M1810 -33l-155 -104l-228 289q-233 -197 -583 -197q-304 0 -491 146.5t-187 400.5q0 106 35.5 194t95 144.5t135.5 87t160 30.5q153 0 246 -110v55l-340 434v107h1085v-172h-815l664 -832q133 219 133 559h200q0 -433 -209 -712zM844 127q289 0 471 170l-246 311
q-91 114 -174.5 160.5t-200.5 46.5q-150 0 -239.5 -83t-89.5 -234q0 -177 128.5 -274t350.5 -97z" />
    <glyph glyph-name="quotesingle" unicode="'" horiz-adv-x="501" 
d="M166 1532h172v-545h-172v545z" />
    <glyph glyph-name="parenleft" unicode="(" horiz-adv-x="888" 
d="M725 -154v-153q-147 30 -256 107t-174.5 193.5t-97 259.5t-31.5 316t31.5 316t97 259t174.5 193t256 107v-154q-106 -28 -181.5 -90t-120 -156t-65 -210.5t-20.5 -264.5t20.5 -264.5t65 -211t120 -157t181.5 -90.5z" />
    <glyph glyph-name="parenright" unicode=")" horiz-adv-x="888" 
d="M166 -154q106 28 181.5 90.5t120 157t65 211t20.5 264.5t-20.5 264.5t-65 210.5t-120 156t-181.5 90v154q147 -30 256 -107t174.5 -193t97 -259t31.5 -316t-31.5 -316t-97 -259.5t-174.5 -193.5t-256 -107v153z" />
    <glyph glyph-name="asterisk" unicode="*" horiz-adv-x="1042" 
d="M125 1165l43 138l231 -74l80 -58l-28 93v241h145v-241l-29 -95l78 56l229 73l46 -137l-232 -76l-94 -2l74 -55l143 -194l-119 -86l-141 196l-31 90l-33 -90l-141 -194l-117 86l142 194l78 57l-95 3z" />
    <glyph glyph-name="plus" unicode="+" horiz-adv-x="1333" 
d="M1167 602v-158h-422v-421h-157v421h-422v158h422v422h157v-422h422z" />
    <glyph glyph-name="comma" unicode="," horiz-adv-x="583" 
d="M252 342l166 -45l-168 -619l-166 46z" />
    <glyph glyph-name="hyphen" unicode="-" horiz-adv-x="1333" 
d="M166 602h1001v-158h-1001v158z" />
    <glyph glyph-name="period" unicode="." horiz-adv-x="692" 
d="M344 -20q-77 0 -127.5 52.5t-50.5 129.5q0 76 50.5 128t127.5 52q76 0 129 -52.5t53 -127.5q0 -76 -53 -129t-129 -53z" />
    <glyph glyph-name="slash" unicode="/" horiz-adv-x="1036" 
d="M762 1667l149 -55l-637 -1835l-149 55z" />
    <glyph glyph-name="zero" unicode="0" horiz-adv-x="1497" 
d="M750 1464q200 0 344 -97t215 -262.5t71 -381.5t-71 -382.5t-215 -263.5t-344 -97q-151 0 -272 56t-199.5 155.5t-120 235t-41.5 296.5t41.5 296t120 234.5t199.5 155t272 55.5zM750 1292q-210 0 -321.5 -154t-111.5 -415q0 -182 56 -315l655 778q-109 106 -278 106z
M750 152q140 0 238 72.5t145 199.5t47 299q0 184 -56 317l-655 -782q109 -106 281 -106z" />
    <glyph glyph-name="one" unicode="1" horiz-adv-x="1026" 
d="M96 815q197 80 283.5 237.5t89.5 391.5h399v-1444h-198v1260l32 129h-53q-8 -108 -23.5 -194t-49.5 -176t-86 -158t-135 -126.5t-193 -93.5z" />
    <glyph glyph-name="two" unicode="2" horiz-adv-x="1382" 
d="M104 756q0 186 48.5 325.5t136 221.5t199 121.5t247.5 39.5q242 0 385.5 -126.5t143.5 -358.5q0 -138 -55 -253t-150 -198.5t-235 -150t-297 -110t-349 -74.5v-56l137 35h949v-172h-1139v350q34 5 71.5 11t106 21t132 33t142.5 47t145 63t131.5 82t110.5 102t73 125
t28 149q0 150 -83.5 229.5t-242.5 79.5q-102 0 -179.5 -28t-136.5 -89.5t-89.5 -167t-30.5 -251.5h-199z" />
    <glyph glyph-name="three" unicode="3" horiz-adv-x="1400" 
d="M111 551h198q0 -218 97 -308.5t315 -90.5q185 0 270.5 68.5t85.5 205.5q0 246 -262 246h-201v172h201q123 0 182.5 51.5t59.5 157.5q0 115 -78 177t-258 62q-210 0 -300.5 -78t-90.5 -245h-199q0 245 153.5 370t436.5 125q255 0 394.5 -104t139.5 -281q0 -133 -73 -202.5
t-217 -92.5v-55q74 -13 127 -34.5t96.5 -58.5t65.5 -96.5t22 -142.5q0 -197 -147.5 -307t-407.5 -110q-142 0 -252.5 32.5t-191.5 99.5t-123.5 178t-42.5 261z" />
    <glyph glyph-name="four" unicode="4" horiz-adv-x="1372" 
d="M1268 475v-172h-181v-303h-200v303h-762v359q125 47 232 120.5t191 171t138 223t68 267.5h200q-75 -669 -776 -948v-54l137 33h572v483h200v-483h181z" />
    <glyph glyph-name="five" unicode="5" horiz-adv-x="1456" 
d="M117 516h200q0 -364 418 -364q193 0 295.5 99.5t102.5 285.5q0 159 -77.5 245t-230.5 86q-225 0 -354 -186l-246 131v631h1002v-172h-803v-322l-33 -129l45 -26q61 112 173 178.5t261 66.5q211 0 336 -136.5t125 -373.5q0 -262 -161.5 -406t-434.5 -144
q-287 0 -452.5 138.5t-165.5 397.5z" />
    <glyph glyph-name="six" unicode="6" horiz-adv-x="1423" 
d="M125 684q0 143 21.5 263.5t70.5 223.5t123 171.5t184.5 101.5t249.5 20l432 -41v-172l-432 41q-96 10 -173.5 -10t-131 -61.5t-92.5 -106.5t-61.5 -138t-36.5 -163l-56 -129h56q28 159 169 257.5t336 98.5q246 0 387.5 -142.5t141.5 -377.5q0 -240 -160.5 -390
t-433.5 -150q-275 0 -434.5 179t-159.5 525zM324 500q0 -66 26.5 -128t74.5 -111.5t124.5 -79t169.5 -29.5q192 0 293.5 93.5t101.5 274.5q0 163 -93.5 255.5t-268.5 92.5q-192 0 -310 -98.5t-118 -269.5z" />
    <glyph glyph-name="seven" unicode="7" horiz-adv-x="1208" 
d="M303 0q0 462 194.5 766.5t587.5 484.5v56l-131 -35h-884v172h1069v-322q-324 -158 -476.5 -427t-152.5 -695h-207z" />
    <glyph glyph-name="eight" unicode="8" horiz-adv-x="1380" 
d="M90 399q0 80 25 141.5t74 105t112.5 72.5t149.5 50v53q-135 36 -207 104.5t-72 198.5q0 88 40.5 154.5t113 106.5t164.5 59.5t202 19.5q109 0 200.5 -19.5t163 -59.5t112 -106.5t40.5 -154.5q0 -68 -19.5 -119.5t-58.5 -86.5t-86 -57.5t-112 -39.5v-53q174 -42 266 -130
t92 -239q0 -194 -159 -306.5t-439 -112.5q-282 0 -442 112.5t-160 306.5zM371 1085q0 -113 80 -159.5t241 -46.5q159 0 238.5 47t79.5 159q0 111 -80 159t-238 48q-160 0 -240.5 -48t-80.5 -159zM289 430q0 -132 100 -205t303 -73q201 0 300.5 73t99.5 205
q0 130 -99.5 203.5t-300.5 73.5q-203 0 -303 -73t-100 -204z" />
    <glyph glyph-name="nine" unicode="9" horiz-adv-x="1423" 
d="M1298 760q0 -143 -21.5 -263.5t-70.5 -223.5t-123 -171.5t-184.5 -101.5t-249.5 -20l-432 40v173l432 -41q96 -10 174 10t131 61.5t92.5 106.5t62 138t36.5 163l55 129h-55q-28 -159 -169.5 -258t-336.5 -99q-246 0 -387 143t-141 378q0 240 160.5 390t433.5 150
q275 0 434 -179t159 -525zM1100 944q0 66 -26.5 128t-74.5 111.5t-124.5 79t-169.5 29.5q-192 0 -294 -94t-102 -274q0 -163 94 -256t269 -93q192 0 310 99t118 270z" />
    <glyph glyph-name="colon" unicode=":" horiz-adv-x="692" 
d="M344 680q-78 0 -128 52t-50 130q0 76 50.5 127t127.5 51t129.5 -51.5t52.5 -126.5q0 -78 -52.5 -130t-129.5 -52zM344 -20q-77 0 -127.5 52.5t-50.5 129.5q0 76 50.5 128t127.5 52q76 0 129 -52.5t53 -127.5q0 -76 -53 -129t-129 -53z" />
    <glyph glyph-name="semicolon" unicode=";" horiz-adv-x="712" 
d="M365 680q-78 0 -128.5 52t-50.5 130q0 76 51 127t128 51t129.5 -51.5t52.5 -126.5q0 -78 -52.5 -130t-129.5 -52zM252 342l166 -45l-168 -619l-166 46z" />
    <glyph glyph-name="less" unicode="&#x3c;" horiz-adv-x="1337" 
d="M166 418v176l948 344l57 -152l-813 -280l813 -270l-57 -152z" />
    <glyph glyph-name="equal" unicode="=" horiz-adv-x="1333" 
d="M166 813h1001v-158h-1001v158zM166 391h1001v-160h-1001v160z" />
    <glyph glyph-name="greater" unicode="&#x3e;" horiz-adv-x="1337" 
d="M1171 418l-948 -334l-57 152l813 270l-813 280l57 152l948 -344v-176z" />
    <glyph glyph-name="question" unicode="?" horiz-adv-x="1073" 
d="M125 1051q0 199 111.5 316.5t324.5 117.5q191 0 289 -95t98 -249q0 -89 -37.5 -163t-98.5 -124.5t-148.5 -90t-176.5 -62.5t-194 -39v-41l102 26h439v-143h-594v289q49 3 99 11.5t114 24t118.5 43t102 64.5t75 93t27.5 124q0 88 -54 137t-161 49q-137 0 -200.5 -71
t-63.5 -217h-172zM530 -20q-77 0 -128.5 52.5t-51.5 129.5q0 76 51.5 128t128.5 52q76 0 129.5 -52.5t53.5 -127.5q0 -76 -53 -129t-130 -53z" />
    <glyph glyph-name="at" unicode="@" horiz-adv-x="2189" 
d="M1421 188v54l35 123h-55q-32 -132 -138.5 -213.5t-267.5 -81.5q-214 0 -346.5 147t-132.5 381q0 233 132.5 379.5t346.5 146.5q161 0 267.5 -81.5t138.5 -213.5h55l-35 129v107h172v-852h47q232 0 232 410q0 159 -54 293.5t-151.5 230t-240 149.5t-314.5 54t-321 -59.5
t-252.5 -161.5t-162.5 -242t-59 -297q0 -167 58 -309.5t162.5 -243t260 -152t341.5 -37.5l708 56v-146l-708 -53q-143 -11 -273.5 12t-237 75.5t-193.5 133t-146 182t-91 224t-32 258.5q0 265 123.5 472t338.5 320t484 113q199 0 369 -64.5t289 -179t186 -276.5t67 -352
q0 -82 -13 -158.5t-43.5 -149.5t-75.5 -127t-115.5 -87t-157.5 -33h-84q-113 0 -113 120zM1030 215q160 0 257 96.5t97 286.5q0 189 -97 285t-257 96q-159 0 -250.5 -95.5t-91.5 -285.5q0 -192 91 -287.5t251 -95.5z" />
    <glyph glyph-name="A" unicode="A" horiz-adv-x="1447" 
d="M1186 0l-170 545h-584l-170 -545h-199l455 1444h412l454 -1444h-198zM485 717h478l-211 672h-56z" />
    <glyph glyph-name="B" unicode="B" horiz-adv-x="1345" 
d="M145 0v1444h406q144 0 243 -15.5t174 -54.5t110.5 -109t35.5 -175q0 -79 -25 -138t-69 -93t-94 -51t-111 -22v-53q70 -2 127.5 -13t110.5 -36t89 -63.5t57.5 -99t21.5 -138.5q0 -87 -28 -153.5t-77.5 -110t-124.5 -70.5t-162 -38t-198 -11h-486zM344 838h221
q71 0 120 4.5t95.5 17.5t74 36.5t44 63t16.5 95.5q0 50 -10 87t-33.5 60.5t-50 38t-71.5 21t-83.5 8.5t-101.5 2h-221v-434zM344 172h301q97 0 160 9t115.5 34t77 75t24.5 128q0 142 -92.5 195t-284.5 53h-301v-494z" />
    <glyph glyph-name="C" unicode="C" horiz-adv-x="1601" 
d="M125 723q0 157 47.5 292.5t134 235.5t217 156.5t289.5 56.5q280 0 456 -154.5t208 -422.5h-199q-25 194 -145.5 299.5t-319.5 105.5q-234 0 -361.5 -154.5t-127.5 -414.5q0 -261 127.5 -416t361.5 -155q199 0 319.5 106.5t145.5 300.5h199q-32 -270 -208 -424.5
t-456 -154.5q-159 0 -289.5 57t-217 156.5t-134 235.5t-47.5 294z" />
    <glyph glyph-name="D" unicode="D" horiz-adv-x="1476" 
d="M616 1444q83 0 154 -7t148.5 -27.5t139 -53.5t118.5 -88.5t95 -129.5t60.5 -179.5t22.5 -235.5t-22.5 -236t-60.5 -180t-95 -130t-118.5 -89t-139 -53.5t-148.5 -27.5t-154 -7h-471v1444h471zM616 172q63 0 111 3.5t107 16.5t101.5 35.5t86 64t70.5 98.5t44 141.5
t17 191.5q0 106 -17 190.5t-44 141.5t-70.5 98t-86 63.5t-101.5 35.5t-107 16.5t-111 3.5h-272v-1100h272z" />
    <glyph glyph-name="E" unicode="E" horiz-adv-x="1169" 
d="M145 0v1444h920v-172h-721v-463h619v-172h-619v-465h721v-172h-920z" />
    <glyph glyph-name="F" unicode="F" horiz-adv-x="1210" 
d="M145 0v1444h961v-172h-762v-545l678 41v-174l-678 -41v-553h-199z" />
    <glyph glyph-name="G" unicode="G" horiz-adv-x="1699" 
d="M125 723q0 212 84.5 380t242.5 264.5t363 96.5q264 0 426 -146t195 -390h-199q-26 177 -126.5 270.5t-295.5 93.5q-237 0 -364 -153t-127 -416q0 -271 107.5 -421t336.5 -150q401 0 395 466h-463v160h721q133 0 133 -125v-653h-198v530l33 193h-54q-3 -743 -571 -743
q-125 0 -229.5 36t-179.5 102t-127 158.5t-77.5 205t-25.5 241.5z" />
    <glyph glyph-name="H" unicode="H" horiz-adv-x="1513" 
d="M1169 1444h201v-1444h-201v625h-825v-625h-199v1444h199v-647h825v647z" />
    <glyph glyph-name="I" unicode="I" horiz-adv-x="1095" 
d="M971 1272h-324v-1100h324v-172h-846v172h324v1100h-324v172h846v-172z" />
    <glyph glyph-name="J" unicode="J" horiz-adv-x="993" 
d="M401 -20l-338 20v172l338 -20q52 -3 90.5 5t67.5 24.5t48.5 49t32 70t19 96.5t9 119.5t2.5 147.5v628l-389 -20v172l454 20q64 3 98.5 -32.5t34.5 -100.5v-704q0 -96 -4.5 -168t-16.5 -145t-33.5 -124t-56.5 -95.5t-84 -70t-117 -37.5t-155 -7z" />
    <glyph glyph-name="K" unicode="K" horiz-adv-x="1413" 
d="M1352 1444l-879 -721l879 -723h-291l-717 592v-592h-199v1444h199v-592l717 592h291z" />
    <glyph glyph-name="L" unicode="L" horiz-adv-x="1128" 
d="M279 -20q-64 -1 -99 33.5t-35 99.5v1331h199v-1292l721 20v-172z" />
    <glyph glyph-name="M" unicode="M" horiz-adv-x="1882" 
d="M145 0v1444h398l370 -1389h56l370 1389h398v-1444h-199v1253l33 136h-53l-379 -1389h-398l-376 1389h-56l35 -136v-1253h-199z" />
    <glyph glyph-name="N" unicode="N" horiz-adv-x="1570" 
d="M145 0v1444h400l661 -1389h56l-35 135v1254h200v-1444h-399l-663 1389h-56l35 -136v-1253h-199z" />
    <glyph glyph-name="O" unicode="O" horiz-adv-x="1619" 
d="M125 723q0 158 47 293t133.5 235t216.5 156.5t289 56.5q158 0 288 -56.5t216 -156.5t133 -235.5t47 -292.5q0 -158 -47 -294t-133 -235.5t-216 -156.5t-288 -57q-159 0 -289 57t-216.5 156.5t-133.5 235.5t-47 294zM324 723q0 -260 124.5 -415.5t362.5 -155.5
t361.5 155.5t123.5 415.5q0 169 -52 295t-162.5 200t-270.5 74q-120 0 -214 -42t-153 -118t-89.5 -179.5t-30.5 -229.5z" />
    <glyph glyph-name="P" unicode="P" horiz-adv-x="1282" 
d="M571 1444q116 0 204 -12.5t166.5 -44.5t128.5 -85t79 -138t29 -199t-29 -199t-79 -138.5t-128.5 -85.5t-166.5 -44.5t-204 -12.5h-227v-485h-199v1444h426zM578 657q78 0 133.5 6t109 25t86 52.5t52.5 89.5t20 135t-20 135t-52.5 89t-86.5 52t-109 25t-133 6h-234v-615
h234z" />
    <glyph glyph-name="Q" unicode="Q" horiz-adv-x="1607" 
d="M983 -96q171 7 348 -9t418 -57v-172q-243 41 -445.5 59t-427.5 13t-468 -37l-21 162q11 1 90.5 11t106 14t98 15.5t109.5 21.5t94 26t99.5 35.5t80.5 42.5l-25 37q-98 -66 -288 -66q-131 0 -246.5 54t-199.5 149.5t-132.5 232t-48.5 293.5q0 210 82.5 376t241 262.5
t368.5 96.5q211 0 369 -96.5t240.5 -264t82.5 -380.5q0 -134 -31.5 -252.5t-82 -205t-121 -159t-141 -119.5t-150.5 -83zM817 166q232 0 363 151.5t131 405.5t-132 411.5t-362 157.5q-231 0 -362 -154.5t-131 -408.5t131 -408.5t362 -154.5z" />
    <glyph glyph-name="R" unicode="R" horiz-adv-x="1382" 
d="M145 0v1444h494q137 0 237 -18t180.5 -62t121.5 -125t41 -199q0 -289 -289 -338v-53h180q127 0 127 -123v-526h-199v565h-694v-565h-199zM344 737h295q57 0 96 2t82.5 8t71 17t55 31t42.5 48.5t24.5 69t9.5 93.5q0 52 -9.5 92.5t-24.5 68.5t-42.5 47.5t-55 31t-71.5 17.5
t-82.5 7.5t-95.5 1.5h-295v-535z" />
    <glyph glyph-name="S" unicode="S" horiz-adv-x="1398" 
d="M1315 371q0 -391 -567 -391q-149 0 -263 26t-189.5 73t-123 118.5t-68 155.5t-20.5 190h199q0 -116 30 -193.5t93 -120.5t145 -60t201 -17q184 0 274 49t90 161q0 32 -8 60t-25.5 51t-36 41.5t-51 36t-57.5 29.5t-67.5 26t-69.5 22.5t-75.5 23t-74.5 22.5
q-72 22 -119.5 38t-105.5 39.5t-94.5 46t-74.5 54.5t-59 67t-34.5 81.5t-13.5 101.5q0 175 129 268.5t393 93.5q154 0 270.5 -42.5t182.5 -114.5t98 -157.5t32 -182.5h-198q0 83 -30 147t-83.5 102t-122 57t-149.5 19q-324 0 -324 -188q0 -40 14 -71.5t38 -55t70.5 -47
t94 -41t127.5 -43.5q219 -69 283 -94q226 -90 299 -219q41 -72 41 -162z" />
    <glyph glyph-name="T" unicode="T" horiz-adv-x="1355" 
d="M1274 1444v-172h-496v-1272h-198v1272h-496v172h1190z" />
    <glyph glyph-name="U" unicode="U" horiz-adv-x="1384" 
d="M104 537v907h199v-858q0 -111 18.5 -188.5t62 -134.5t119 -84t187.5 -27q218 0 304.5 105t86.5 329v858h199v-907q0 -274 -146.5 -415.5t-443.5 -141.5q-586 0 -586 557z" />
    <glyph glyph-name="V" unicode="V" horiz-adv-x="1447" 
d="M63 1444h199l434 -1389h56l434 1389h198l-454 -1444h-412z" />
    <glyph glyph-name="W" unicode="W" horiz-adv-x="2138" 
d="M63 1444h191l283 -1389h53l272 1389h414l272 -1389h54l282 1389h191l-295 -1444h-410l-274 1389h-54l-274 -1389h-410z" />
    <glyph glyph-name="X" unicode="X" horiz-adv-x="1447" 
d="M63 0l498 690v66l-498 688h228l432 -608l434 608h227l-497 -688v-66l497 -690h-227l-434 610l-432 -610h-228z" />
    <glyph glyph-name="Y" unicode="Y" horiz-adv-x="1376" 
d="M1100 1444h213l-527 -920v-524h-198v524l-525 920h213l383 -684v-129h56v129z" />
    <glyph glyph-name="Z" unicode="Z" horiz-adv-x="1341" 
d="M104 0v381l1080 870v56l-131 -35h-949v172h1133v-381l-1079 -870v-56l131 35h948v-172h-1133z" />
    <glyph glyph-name="bracketleft" unicode="[" horiz-adv-x="894" 
d="M166 1444h563v-146h-393v-1460h393v-145h-563v1751z" />
    <glyph glyph-name="backslash" unicode="\" horiz-adv-x="1036" 
d="M274 1667l637 -1835l-149 -55l-637 1835z" />
    <glyph glyph-name="bracketright" unicode="]" horiz-adv-x="894" 
d="M729 1444v-1751h-563v145h393v1460h-393v146h563z" />
    <glyph glyph-name="asciicircum" unicode="^" horiz-adv-x="1126" 
d="M782 776l-190 613h-55l-195 -613h-176l225 668h346l224 -668h-179z" />
    <glyph glyph-name="underscore" unicode="_" horiz-adv-x="1251" 
d="M125 -82h1001v-158h-1001v158z" />
    <glyph glyph-name="grave" unicode="`" horiz-adv-x="1030" 
d="M864 1325l-37 -151l-661 165l37 152z" />
    <glyph glyph-name="a" unicode="a" 
d="M104 283q0 263 349 303l391 41q-6 124 -75.5 187t-197.5 63q-117 0 -192.5 -58.5t-75.5 -179.5h-192q0 171 124.5 286t335.5 115q215 0 343 -124.5t128 -337.5v-406h150v-172h-191q-60 0 -93.5 33t-33.5 94v47l31 109h-53q-16 -63 -44.5 -114.5t-75 -95.5t-118 -68.5
t-163.5 -24.5q-86 0 -151.5 22t-101.5 54t-58.5 75.5t-29 79t-6.5 72.5zM303 311q0 -77 47.5 -118t128.5 -41q164 0 264.5 94t100.5 241l-357 -36q-96 -11 -140 -42t-44 -98z" />
    <glyph glyph-name="b" unicode="b" horiz-adv-x="1357" 
d="M145 0v1505h199v-616l-35 -129h56q37 125 139.5 202.5t271.5 77.5q145 0 254.5 -70t166 -189t56.5 -269q0 -231 -129.5 -381.5t-347.5 -150.5q-169 0 -272 78t-139 204h-56l35 -131v-131h-199zM344 512q0 -181 100 -270.5t263 -89.5q160 0 254 89t94 271q0 180 -94 268
t-254 88q-163 0 -263 -88.5t-100 -267.5z" />
    <glyph glyph-name="c" unicode="c" horiz-adv-x="1226" 
d="M104 512q0 232 143 380t386 148q66 0 130.5 -14.5t127 -46.5t111 -79t81 -117.5t39.5 -155.5h-200q-18 124 -96 182.5t-193 58.5q-162 0 -246 -99t-84 -257q0 -159 84 -259.5t246 -100.5q115 0 193 58.5t96 182.5h200q-7 -85 -39.5 -155.5t-81 -117.5t-111 -79
t-127 -46.5t-130.5 -14.5q-161 0 -282.5 69.5t-184 189.5t-62.5 273z" />
    <glyph glyph-name="d" unicode="d" horiz-adv-x="1357" 
d="M1212 0h-198v131l35 131h-56q-36 -126 -139 -204t-272 -78q-218 0 -348 150.5t-130 381.5q0 150 57 269t166.5 189t254.5 70q169 0 271.5 -77.5t139.5 -202.5h56l-35 129v616h198v-1505zM1014 512q0 179 -100 267.5t-263 88.5q-160 0 -254 -88t-94 -268q0 -182 94 -271
t254 -89q163 0 263 89.5t100 270.5z" />
    <glyph glyph-name="e" unicode="e" 
d="M104 524q0 242 138 379t364 137q224 0 357 -131.5t133 -363.5v-74h-799q7 -145 88 -235.5t248 -90.5q119 0 196 54.5t103 158.5h198q-11 -51 -32.5 -100t-61.5 -101t-93.5 -90t-134 -62.5t-175.5 -24.5q-135 0 -238.5 43.5t-166 119.5t-93.5 172t-31 209zM297 610h606
q0 115 -76.5 191t-220.5 76q-143 0 -226 -77t-83 -190z" />
    <glyph glyph-name="f" unicode="f" horiz-adv-x="897" 
d="M666 1333q-91 0 -127.5 -43t-36.5 -141v-129h295v-172h-295v-676h295v-172h-713v172h217v676h-217v172h217v133q0 168 92.5 260t284.5 92h176v-172h-188z" />
    <glyph glyph-name="g" unicode="g" horiz-adv-x="1370" 
d="M1239 1020h90v-172h-84q-77 0 -125 -35q62 -79 62 -197q0 -153 -119.5 -261.5t-355.5 -194.5q72 8 139 10t125.5 -12t102.5 -40t69.5 -74.5t25.5 -113.5q0 -42 -8.5 -76.5t-28 -63t-45.5 -51t-67 -40t-85.5 -30.5t-108 -22t-128 -15t-151.5 -9.5t-173 -4.5t-198 -1v172
q123 0 207 1t169.5 3.5t139 7.5t105 13.5t80.5 20.5t52 29t31.5 39t8.5 50q0 51 -32 82t-91.5 39t-125 6.5t-152.5 -18t-152.5 -31.5t-145.5 -37l-34 129q277 63 514 131v55q-102 -28 -197 -33.5t-176.5 14.5t-142.5 62.5t-95.5 114t-34.5 164.5q0 135 72 229t189.5 137
t271.5 43q217 0 358 -98q70 48 120 63t124 15zM643 377q340 0 340 248q0 243 -340 243t-340 -243q0 -248 340 -248z" />
    <glyph glyph-name="h" unicode="h" horiz-adv-x="1267" 
d="M756 1040q183 0 286 -109t103 -321v-610h-201v582q0 154 -59 220t-189 66q-160 0 -256 -113.5t-96 -316.5v-438h-199v1505h199v-651l-35 -129h56q32 144 131.5 229.5t259.5 85.5z" />
    <glyph glyph-name="i" unicode="i" horiz-adv-x="931" 
d="M459 1171q-68 0 -112 42t-44 106q0 63 44 104t112 41q69 0 114 -41t45 -104q0 -64 -45 -106t-114 -42zM104 0v172h287v694l-219 -18v172l266 20q73 6 108.5 -29t35.5 -102v-737h286v-172h-764z" />
    <glyph glyph-name="j" unicode="j" horiz-adv-x="610" 
d="M342 1171q-69 0 -112.5 41.5t-43.5 106.5q0 63 43.5 104t112.5 41q68 0 113 -41t45 -104q0 -64 -45 -106t-113 -42zM43 -383l188 330q35 58 35 139v780l-223 -18v172l281 18q72 6 109.5 -29.5t37.5 -101.5v-846q0 -78 -35 -139l-174 -305h-219z" />
    <glyph glyph-name="k" unicode="k" horiz-adv-x="1193" 
d="M885 0l-324 459l-217 -115v-344h-199v1505h199v-952l508 268l-16 199h200l13 -193q6 -107 -93 -159l-245 -129l14 6l385 -545h-225z" />
    <glyph glyph-name="l" unicode="l" horiz-adv-x="915" 
d="M84 0v172h285v1180l-217 -19v172l268 19q73 6 110 -32.5t37 -113.5v-1206h287v-172h-770z" />
    <glyph glyph-name="m" unicode="m" horiz-adv-x="1869" 
d="M1423 1040q160 0 241 -115.5t81 -303.5v-621h-199v584q0 153 -42.5 218.5t-155.5 65.5q-146 0 -225 -118t-79 -320v-430h-198v584q0 153 -42.5 218.5t-156.5 65.5q-146 0 -224.5 -118t-78.5 -320v-430h-199v1020h199v-158l-35 -131h56q69 309 358 309q134 0 209.5 -82.5
t95.5 -226.5h37q69 309 358 309z" />
    <glyph glyph-name="n" unicode="n" horiz-adv-x="1267" 
d="M696 868q-160 0 -256 -113.5t-96 -316.5v-438h-199v1020h199v-166l-35 -129h56q32 144 131.5 229.5t259.5 85.5q183 0 286 -109t103 -321v-610h-201v582q0 154 -59 220t-189 66z" />
    <glyph glyph-name="o" unicode="o" horiz-adv-x="1298" 
d="M104 512q0 232 152 380t395 148q242 0 393.5 -148.5t151.5 -379.5q0 -234 -151.5 -383t-393.5 -149q-243 0 -395 149t-152 383zM303 512q0 -160 92 -260t256 -100q162 0 253 100t91 260q0 157 -91.5 256.5t-252.5 99.5q-164 0 -256 -99.5t-92 -256.5z" />
    <glyph glyph-name="p" unicode="p" horiz-adv-x="1357" 
d="M145 1020h199v-131l-35 -129h56q36 125 139 202.5t270 77.5q218 0 348.5 -149.5t130.5 -380.5t-130.5 -380.5t-348.5 -149.5q-168 0 -270.5 78t-138.5 204h-56l35 -131v-506h-199v1395zM344 510q0 -180 100 -269t263 -89q160 0 254 89t94 269t-94 269t-254 89
q-163 0 -263 -89t-100 -269z" />
    <glyph glyph-name="q" unicode="q" horiz-adv-x="1357" 
d="M1212 1020v-1395h-198v506l35 131h-56q-36 -126 -138.5 -204t-270.5 -78q-218 0 -349 149.5t-131 380.5t131 380.5t349 149.5q167 0 270 -77.5t139 -202.5h56l-35 129v131h198zM1014 510q0 180 -100 269t-263 89q-160 0 -254 -89t-94 -269t94 -269t254 -89q163 0 263 89
t100 269z" />
    <glyph glyph-name="r" unicode="r" horiz-adv-x="921" 
d="M145 0v893q0 150 148 147l588 -20v-172l-537 18v-866h-199z" />
    <glyph glyph-name="s" unicode="s" horiz-adv-x="1044" 
d="M981 268q0 -62 -21.5 -112t-68.5 -90.5t-130.5 -63t-197.5 -22.5q-247 0 -363 103t-116 292h199q0 -238 284 -238q110 0 162.5 29.5t52.5 97.5q0 22 -6.5 40.5t-14.5 32t-27 27t-33 21.5t-44 19t-47 17t-56.5 18t-59.5 18q-50 15 -81.5 25.5t-74 28t-69 33.5t-55.5 39.5
t-45.5 49.5t-27 61t-10.5 76q0 124 102 197t283 73q117 0 203.5 -29.5t134 -80t70 -109.5t22.5 -127h-198q0 92 -59 140.5t-173 48.5q-85 0 -135.5 -27.5t-50.5 -85.5q0 -62 51 -95t188 -77q17 -6 52 -17q52 -16 78.5 -25t72 -27.5t69.5 -33t55 -39t46.5 -50t27 -61.5
t11.5 -77z" />
    <glyph glyph-name="t" unicode="t" horiz-adv-x="915" 
d="M469 150l365 22v-172l-416 -20q-148 -9 -148 147v721h-227v172h227v250l199 61v-311h324v-172h-324v-698z" />
    <glyph glyph-name="u" unicode="u" horiz-adv-x="1247" 
d="M571 152q160 0 256.5 113.5t96.5 318.5v436h200v-1020h-200v166l34 129h-55q-32 -144 -131.5 -229.5t-259.5 -85.5q-182 0 -284.5 109.5t-102.5 322.5v608h199v-582q0 -153 59 -219.5t188 -66.5z" />
    <glyph glyph-name="v" unicode="v" horiz-adv-x="1130" 
d="M893 1020h197l-320 -1020h-408l-319 1020h195l301 -965h55z" />
    <glyph glyph-name="w" unicode="w" horiz-adv-x="1796" 
d="M43 1020h190l224 -965h53l182 965h414l180 -965h55l224 965h190l-235 -1020h-412l-182 967h-56l-182 -967h-409z" />
    <glyph glyph-name="x" unicode="x" horiz-adv-x="1230" 
d="M84 0l385 483v56l-385 481h235l295 -393l297 393h236l-385 -481v-56l385 -483h-236l-297 395l-295 -395h-235z" />
    <glyph glyph-name="y" unicode="y" horiz-adv-x="1243" 
d="M961 1020h221l-449 -1000v-290q0 -66 -37.5 -101t-109.5 -32l-416 18v172l362 -14v247l-448 1000h219l303 -746v-96h53v96z" />
    <glyph glyph-name="z" unicode="z" horiz-adv-x="1157" 
d="M104 0v356l895 471v56l-131 -35h-764v172h949v-356l-895 -471v-56l131 35h764v-172h-949z" />
    <glyph glyph-name="braceleft" unicode="{" horiz-adv-x="1243" 
d="M616 1298l-129 35v-55q222 -65 321 -180.5t99 -278.5q0 -110 -71 -246q71 -136 71 -245q0 -163 -99 -278.5t-321 -180.5v-55l129 34h455v-145h-639v250q176 70 247 166.5t71 242.5q0 30 -7 74q-134 -151 -276 -151q-126 0 -210.5 77t-84.5 211q0 135 82.5 212t212.5 77
q142 0 276 -151q7 44 7 73q0 147 -71 243.5t-247 166.5v250h639v-146h-455zM487 424q56 0 111 41t94 108q-39 68 -94 109t-111 41q-63 0 -103 -41t-40 -109t40 -108.5t103 -40.5z" />
    <glyph glyph-name="bar" unicode="|" horiz-adv-x="489" 
d="M166 1747h158v-2050h-158v2050z" />
    <glyph glyph-name="braceright" unicode="}" horiz-adv-x="1230" 
d="M770 285q-142 0 -276 151q-7 -44 -7 -74q0 -146 71 -242.5t247 -166.5v-250h-639v145h455l129 -34v55q-222 65 -321 180.5t-99 278.5q0 109 71 245q-71 136 -71 246q0 163 99 278.5t321 180.5v55l-129 -35h-455v146h639v-250q-176 -70 -247 -166.5t-71 -243.5
q0 -29 7 -73q134 151 276 151q130 0 212.5 -77t82.5 -212q0 -134 -84.5 -211t-210.5 -77zM750 723q-56 0 -111 -41t-94 -109q39 -67 94 -108t111 -41q63 0 103 40.5t40 108.5t-40 109t-103 41z" />
    <glyph glyph-name="asciitilde" unicode="~" horiz-adv-x="1325" 
d="M166 375q0 152 73.5 230.5t176.5 78.5q67 0 138 -25.5t121.5 -56.5t110 -56.5t105.5 -25.5q110 0 110 150h158q0 -152 -73.5 -230t-178.5 -78q-66 0 -137 25.5t-121.5 56.5t-109.5 56.5t-105 25.5q-110 0 -110 -151h-158z" />
    <glyph glyph-name="exclamdown" unicode="&#xa1;" horiz-adv-x="692" 
d="M346 1040q77 0 129.5 -52t52.5 -130q0 -75 -52.5 -126.5t-129.5 -51.5q-79 0 -129.5 51t-50.5 127q0 79 50.5 130.5t129.5 51.5zM248 -424l26 942h146l26 -942h-198z" />
    <glyph glyph-name="cent" unicode="&#xa2;" horiz-adv-x="1349" 
d="M748 371q95 11 158 69.5t77 167.5h201q-7 -97 -48 -175t-103.5 -126t-134.5 -75.5t-150 -34.5v-500l-144 2v502q-204 27 -321 171.5t-117 354.5q0 208 116.5 350.5t319.5 171.5v498l143 -2v-492q62 -6 121 -23.5t114.5 -51.5t98 -80t71 -112t34.5 -144h-201
q-32 213 -238 237zM365 727q0 -135 60 -229t179 -121l-2 696q-117 -27 -177 -120t-60 -226z" />
    <glyph glyph-name="sterling" unicode="&#xa3;" horiz-adv-x="1296" 
d="M788 1272q-158 11 -232.5 -24.5t-74.5 -141.5q0 -40 13 -83t27.5 -72.5t42 -79t40.5 -76.5h445v-146h-398q6 -35 6 -74q0 -78 -29.5 -138t-90.5 -104.5t-135 -76t-183 -63.5v-56l131 35h780v-172h-964v299q155 48 223 115.5t68 181.5q0 21 -4 53h-287v146h231
q-5 10 -22 41t-23.5 45t-20 43t-20 48.5t-14.5 47t-11 55t-3 55.5q0 80 30 140t79 95t117.5 55t138.5 24.5t149 -0.5l333 -21v-172z" />
    <glyph glyph-name="currency" unicode="&#xa4;" horiz-adv-x="1591" 
d="M1233 698q0 -141 -78 -256l272 -272l-102 -102l-272 272q-113 -76 -254 -76q-145 0 -256 78l-275 -274l-102 102l274 274q-75 110 -75 254t75 254l-274 275l102 102l275 -274q111 78 256 78q141 0 254 -76l272 272l102 -102l-272 -273q78 -115 78 -256zM799 422
q119 0 196.5 80.5t77.5 195.5t-77.5 195t-196.5 80q-121 0 -199 -80t-78 -195t78 -195.5t199 -80.5z" />
    <glyph glyph-name="yen" unicode="&#xa5;" horiz-adv-x="1581" 
d="M1415 1444l-465 -813h295v-146h-356v-96h356v-143h-356v-246h-199v246h-356v143h356v96h-356v146h295l-463 813h213l383 -684v-129h55v129l385 684h213z" />
    <glyph glyph-name="brokenbar" unicode="&#xa6;" horiz-adv-x="489" 
d="M166 989v758h158v-758h-158zM324 455v-758h-158v758h158z" />
    <glyph glyph-name="section" unicode="&#xa7;" horiz-adv-x="1216" 
d="M166 735q0 183 196 238q-86 39 -123.5 91t-37.5 128q0 126 102.5 199t284.5 73q116 0 202 -29.5t133.5 -80t70 -110t22.5 -128.5h-199q0 191 -231 191q-85 0 -136 -28t-51 -85q0 -22 5.5 -39.5t21.5 -33t31.5 -26t48.5 -24t59 -22.5t76 -25q166 -55 203 -70
q146 -61 187 -155q20 -45 20 -101q0 -181 -197 -237q87 -39 124.5 -91t37.5 -128q0 -126 -103 -199.5t-284 -73.5q-116 0 -202 29.5t-133.5 80t-70 110t-22.5 128.5h198q0 -188 232 -188q85 0 135.5 27t50.5 84q0 23 -5.5 41t-21.5 33t-31.5 26t-49 24.5t-59 22.5t-75.5 25
q-18 6 -53 17q-52 17 -78.5 25.5t-71 26.5t-68.5 32.5t-54.5 38.5t-46 49t-26.5 59.5t-11 74.5zM358 768q0 -41 17 -72t59 -56t70 -37t93 -35q4 -2 6.5 -2.5t6 -2t6.5 -2.5q109 -36 175.5 -5t66.5 110q0 34 -12.5 61t-35.5 46.5t-52 35t-64.5 29t-71.5 25.5q-15 5 -22 7
q-110 36 -176 6t-66 -108z" />
    <glyph glyph-name="dieresis" unicode="&#xa8;" horiz-adv-x="1095" 
d="M324 1171q-70 0 -114 41.5t-44 106.5q0 63 44 104t114 41t115.5 -41t45.5 -104q0 -65 -45.5 -106.5t-115.5 -41.5zM768 1171q-70 0 -115 41.5t-45 106.5q0 63 45 104t115 41t116 -41t46 -104q0 -64 -45.5 -106t-116.5 -42z" />
    <glyph glyph-name="copyright" unicode="&#xa9;" horiz-adv-x="2195" 
d="M1098 -356q-207 0 -383 73t-295.5 199t-186.5 296t-67 363t67 363.5t186.5 296.5t295.5 199t383 73t383 -73t295.5 -199t186.5 -296.5t67 -363.5t-67 -363t-186.5 -296t-295.5 -199t-383 -73zM1098 -213q173 0 322 63.5t250 171t158.5 251t57.5 302.5t-57.5 303
t-158.5 251.5t-250 171t-322 63.5t-322 -63.5t-250.5 -171t-159 -251.5t-57.5 -303t57.5 -302.5t159 -251t250.5 -171t322 -63.5zM582 578q0 152 62.5 271.5t183.5 189t282 69.5q83 0 163.5 -24.5t151.5 -72.5t118.5 -130.5t55.5 -188.5h-200q-18 124 -96 184t-193 60
q-109 0 -185 -48.5t-110.5 -128t-34.5 -181.5q0 -159 84 -260t246 -101q115 0 193 60t96 184h200q-8 -106 -55.5 -188.5t-118.5 -130.5t-151.5 -72.5t-163.5 -24.5q-161 0 -282 70t-183.5 190t-62.5 273z" />
    <glyph glyph-name="guillemotleft" unicode="&#xab;" horiz-adv-x="1497" 
d="M872 35l-122 -111l-584 584l584 582l122 -111l-473 -471zM1331 35l-123 -111l-583 584l583 582l123 -111l-473 -471z" />
    <glyph glyph-name="logicalnot" unicode="&#xac;" horiz-adv-x="1333" 
d="M1167 762v-500h-157v342h-844v158h1001z" />
    <glyph glyph-name="registered" unicode="&#xae;" horiz-adv-x="1368" 
d="M684 532q-154 0 -273.5 70t-182 187.5t-62.5 261.5t62.5 261t181.5 187t274 70t274 -70t181.5 -187t62.5 -261t-62.5 -261.5t-182 -187.5t-273.5 -70zM684 649q179 0 290 117.5t111 284.5t-111 284t-290 117t-290 -117t-111 -284t111 -284.5t290 -117.5zM461 801v508h213
q49 0 90 -6.5t80 -22t61.5 -46t22.5 -73.5q0 -60 -37.5 -83.5t-110.5 -30.5v-41h97q51 0 51 -52v-153h-115v160h-238v-160h-114zM575 1075h99q40 0 59.5 1t41 6.5t30 18.5t8.5 34q0 15 -3.5 25t-14 16.5t-19.5 10t-28.5 5t-32.5 2t-41 0.5h-99v-119z" />
    <glyph glyph-name="macron" unicode="&#xaf;" horiz-adv-x="1034" 
d="M166 1415h704v-155l-704 -5v160z" />
    <glyph glyph-name="degree" unicode="&#xb0;" horiz-adv-x="1198" 
d="M600 657q-191 0 -312.5 126t-121.5 309q0 182 121.5 308t312.5 126t312.5 -126t121.5 -308q0 -183 -121.5 -309t-312.5 -126zM600 815q119 0 196.5 81t77.5 196t-77.5 195.5t-196.5 80.5q-121 0 -198.5 -80.5t-77.5 -195.5t77.5 -196t198.5 -81z" />
    <glyph glyph-name="plusminus" unicode="&#xb1;" horiz-adv-x="1333" 
d="M745 780h422v-159h-422v-289h-157v289h-422v159h422v291h157v-291zM166 41v158h1001v-158h-1001z" />
    <glyph glyph-name="acute" unicode="&#xb4;" horiz-adv-x="1030" 
d="M166 1325l661 166l37 -152l-661 -165z" />
    <glyph glyph-name="paragraph" unicode="&#xb6;" horiz-adv-x="1378" 
d="M166 1264q0 84 15.5 152t57 131.5t108.5 106t175 68t252 25.5h158v-2050h-158v1085q-144 0 -252 25.5t-175 68t-108.5 105.5t-57 131t-15.5 152zM1055 1747h159v-2050h-159v2050z" />
    <glyph glyph-name="periodcentered" unicode="&#xb7;" horiz-adv-x="692" 
d="M344 330q-77 0 -127.5 52.5t-50.5 129.5q0 76 50.5 128t127.5 52q76 0 129 -52.5t53 -127.5q0 -76 -53 -129t-129 -53z" />
    <glyph glyph-name="cedilla" unicode="&#xb8;" horiz-adv-x="786" 
d="M479 -84q60 0 102 -29.5t42 -89.5q0 -41 -15 -71.5t-46 -50.5t-68.5 -33t-93.5 -19.5t-108.5 -9t-125.5 -2.5v137q192 0 240 11q57 13 57 51q0 40 -47 40q-56 0 -146 -51l-77 90l81 111h172l-114 -119q80 35 147 35z" />
    <glyph glyph-name="guillemotright" unicode="&#xbb;" horiz-adv-x="1497" 
d="M166 35l473 473l-473 471l123 111l583 -582l-583 -584zM625 35l473 473l-473 471l123 111l583 -582l-583 -584z" />
    <glyph glyph-name="onequarter" unicode="&#xbc;" horiz-adv-x="2103" 
d="M1255 1667l150 -55l-637 -1835l-150 55zM84 1149q95 67 129.5 133.5t40.5 202.5h334v-891h-172v749l22 87h-37q-5 -73 -18.5 -133t-41 -118.5t-76 -104.5t-115.5 -77zM1286 156v327q301 113 354 408h172q-10 -89 -42 -170t-88.5 -156t-147 -136t-207.5 -99v-37l88 20h318
v260h172v-260h114v-157h-114v-156h-172v156h-447z" />
    <glyph glyph-name="onehalf" unicode="&#xbd;" horiz-adv-x="2148" 
d="M1255 1667l150 -55l-637 -1835l-150 55zM84 1149q95 67 129.5 133.5t40.5 202.5h334v-891h-172v749l22 87h-37q-5 -73 -18.5 -133t-41 -118.5t-76 -104.5t-115.5 -77zM1321 483q0 205 111 316.5t292 111.5q164 0 253 -82.5t89 -220.5q0 -81 -34 -148t-91 -114t-142 -83.5
t-176 -59t-204 -39.5v-37l88 18h539v-145h-682v279q28 4 57.5 9t85 18t103.5 29t102.5 43t92.5 58.5t63.5 76t25.5 95.5q0 73 -42.5 115.5t-133.5 42.5q-114 0 -169.5 -67.5t-55.5 -215.5h-172z" />
    <glyph glyph-name="threequarters" unicode="&#xbe;" horiz-adv-x="2293" 
d="M1415 1667l150 -55l-637 -1835l-150 55zM84 938h172q0 -121 54.5 -166t170.5 -45q99 0 147 32t48 105q0 133 -162 133h-102v146h102q148 0 148 110q0 59 -42.5 87t-138.5 28q-111 0 -163 -37.5t-52 -126.5h-172q0 147 103 228t284 81q167 0 261 -68t94 -171
q0 -155 -207 -187v-36q102 -22 159.5 -67t57.5 -138q0 -121 -97 -192.5t-268 -71.5q-187 0 -292 88.5t-105 267.5zM1477 156v327q301 113 354 408h172q-10 -89 -42 -170t-88.5 -156t-147 -136t-207.5 -99v-37l88 20h317v260h172v-260h115v-157h-115v-156h-172v156h-446z" />
    <glyph glyph-name="questiondown" unicode="&#xbf;" horiz-adv-x="1093" 
d="M563 1040q78 0 128 -52t50 -130q0 -76 -50.5 -127t-127.5 -51t-129.5 51.5t-52.5 126.5q0 78 52.5 130t129.5 52zM969 -31q0 -198 -112.5 -316t-326.5 -118q-190 0 -287.5 95t-97.5 249q0 89 37.5 163t98 124.5t148 90t176.5 62.5t194 39v43l-101 -28h-440v145h596v-291
q-49 -4 -98.5 -11.5t-114.5 -23.5t-119.5 -43t-102 -64t-75 -92.5t-27.5 -123.5q0 -89 54 -138.5t159 -49.5q138 0 202.5 71t64.5 217h172z" />
    <glyph glyph-name="Agrave" unicode="&#xc0;" horiz-adv-x="1447" 
d="M1079 1749l-37 -152l-661 166l37 152zM1186 0l-170 545h-584l-170 -545h-199l455 1444h412l454 -1444h-198zM485 717h478l-211 672h-56z" />
    <glyph glyph-name="Aacute" unicode="&#xc1;" horiz-adv-x="1447" 
d="M1067 1763l-661 -166l-37 152l661 166zM1186 0l-170 545h-584l-170 -545h-199l455 1444h412l454 -1444h-198zM485 717h478l-211 672h-56z" />
    <glyph glyph-name="Acircumflex" unicode="&#xc2;" horiz-adv-x="1447" 
d="M723 1757l-240 -192l-112 110l352 277l354 -277l-112 -110zM1186 0l-170 545h-584l-170 -545h-199l455 1444h412l454 -1444h-198zM485 717h478l-211 672h-56z" />
    <glyph glyph-name="Atilde" unicode="&#xc3;" horiz-adv-x="1447" 
d="M573 1782q-39 0 -60 -29.5t-21 -114.5h-158q0 153 60.5 227t166.5 74q48 0 90 -17t71 -40.5t54 -47.5t51 -41t50 -17q39 0 60 29t21 114h158q0 -151 -60.5 -226t-166.5 -75q-48 0 -90 17t-71 41t-54 48t-51 41t-50 17zM1186 0l-170 545h-584l-170 -545h-199l455 1444h412
l454 -1444h-198zM485 717h478l-211 672h-56z" />
    <glyph glyph-name="Adieresis" unicode="&#xc4;" horiz-adv-x="1447" 
d="M500 1595q-70 0 -114 41.5t-44 106.5q0 63 44 104t114 41t116 -41t46 -104q0 -64 -45.5 -106t-116.5 -42zM944 1595q-70 0 -115 41.5t-45 106.5q0 63 45 104t115 41t116 -41t46 -104q0 -64 -45.5 -106t-116.5 -42zM1186 0l-170 545h-584l-170 -545h-199l455 1444h412
l454 -1444h-198zM485 717h478l-211 672h-56z" />
    <glyph glyph-name="Aring" unicode="&#xc5;" horiz-adv-x="1447" 
d="M721 1567q-120 0 -188 64.5t-68 164.5q0 99 68.5 163t187.5 64q121 0 190.5 -64t69.5 -163t-69.5 -164t-190.5 -65zM721 1884q-47 0 -72.5 -23t-25.5 -65q0 -43 25.5 -66.5t72.5 -23.5q49 0 75.5 23.5t26.5 66.5q0 41 -27.5 64.5t-74.5 23.5zM1186 0l-170 545h-584
l-170 -545h-199l455 1444h412l454 -1444h-198zM485 717h478l-211 672h-56z" />
    <glyph glyph-name="AE" unicode="&#xc6;" horiz-adv-x="2093" 
d="M1989 1272h-721v-463h618v-172h-618v-465h721v-172h-920v551h-494l-301 -551h-211l791 1444h1135v-172zM670 723h399v666h-35z" />
    <glyph glyph-name="Ccedilla" unicode="&#xc7;" horiz-adv-x="1601" 
d="M813 152q199 0 319.5 106.5t145.5 300.5h199q-31 -257 -192 -409.5t-419 -167.5l-96 -101q80 35 148 35q60 0 101.5 -29.5t41.5 -89.5q0 -41 -15 -71.5t-46 -50.5t-68.5 -33t-93.5 -19.5t-108.5 -9t-125.5 -2.5v137q192 0 240 11q56 15 57 51q0 40 -47 40q-55 0 -145 -51
l-78 90l71 99q-179 24 -310.5 126t-199 259t-67.5 350q0 157 47.5 292.5t134 235.5t217 156.5t289.5 56.5q280 0 456 -154.5t208 -422.5h-199q-25 194 -145.5 299.5t-319.5 105.5q-234 0 -361.5 -154.5t-127.5 -414.5q0 -261 127.5 -416t361.5 -155z" />
    <glyph glyph-name="Egrave" unicode="&#xc8;" horiz-adv-x="1169" 
d="M963 1749l-37 -152l-662 166l37 152zM145 0v1444h920v-172h-721v-463h619v-172h-619v-465h721v-172h-920z" />
    <glyph glyph-name="Eacute" unicode="&#xc9;" horiz-adv-x="1169" 
d="M250 1749l661 166l37 -152l-661 -166zM145 0v1444h920v-172h-721v-463h619v-172h-619v-465h721v-172h-920z" />
    <glyph glyph-name="Ecircumflex" unicode="&#xca;" horiz-adv-x="1169" 
d="M961 1675l-113 -110l-242 192l-239 -192l-113 110l352 277zM145 0v1444h920v-172h-721v-463h619v-172h-619v-465h721v-172h-920z" />
    <glyph glyph-name="Edieresis" unicode="&#xcb;" horiz-adv-x="1169" 
d="M383 1595q-70 0 -114 41.5t-44 106.5q0 63 44 104t114 41t116 -41t46 -104q0 -64 -45.5 -106t-116.5 -42zM827 1595q-70 0 -114.5 41.5t-44.5 106.5q0 63 44.5 104t114.5 41t116 -41t46 -104q0 -64 -45.5 -106t-116.5 -42zM145 0v1444h920v-172h-721v-463h619v-172h-619
v-465h721v-172h-920z" />
    <glyph glyph-name="Igrave" unicode="&#xcc;" horiz-adv-x="1095" 
d="M903 1749l-37 -152l-661 166l37 152zM971 1272h-324v-1100h324v-172h-846v172h324v1100h-324v172h846v-172z" />
    <glyph glyph-name="Iacute" unicode="&#xcd;" horiz-adv-x="1095" 
d="M889 1763l-662 -166l-37 152l662 166zM971 1272h-324v-1100h324v-172h-846v172h324v1100h-324v172h846v-172z" />
    <glyph glyph-name="Icircumflex" unicode="&#xce;" horiz-adv-x="1095" 
d="M547 1757l-240 -192l-112 110l352 277l354 -277l-113 -110zM971 1272h-324v-1100h324v-172h-846v172h324v1100h-324v172h846v-172z" />
    <glyph glyph-name="Idieresis" unicode="&#xcf;" horiz-adv-x="1095" 
d="M324 1595q-70 0 -114 41.5t-44 106.5q0 63 44 104t114 41t115.5 -41t45.5 -104q0 -65 -45.5 -106.5t-115.5 -41.5zM768 1595q-70 0 -115 41.5t-45 106.5q0 63 45 104t115 41t116 -41t46 -104q0 -64 -45.5 -106t-116.5 -42zM971 1272h-324v-1100h324v-172h-846v172h324
v1100h-324v172h846v-172z" />
    <glyph glyph-name="Eth" unicode="&#xd0;" horiz-adv-x="1613" 
d="M754 1444q83 0 154 -7t148 -27.5t138 -53.5t118 -88.5t94.5 -129.5t60 -179.5t22.5 -235.5t-22.5 -236t-60 -180t-94.5 -130t-118 -89t-138 -53.5t-148 -27.5t-154 -7h-473v668h-156v159h156v617h473zM754 172q63 0 111 3.5t107 16.5t101.5 35.5t85.5 64t70 98.5
t44 141.5t17 191.5q0 106 -17 190.5t-44 141.5t-70 98t-85.5 63.5t-101.5 35.5t-107 16.5t-111 3.5h-273v-445h377v-159h-377v-496h273z" />
    <glyph glyph-name="Ntilde" unicode="&#xd1;" horiz-adv-x="1570" 
d="M436 1638q0 152 61 226.5t167 74.5q48 0 90 -17t71 -40.5t54 -47.5t50.5 -41t49.5 -17q39 0 60.5 29t21.5 114h158q0 -151 -61 -226t-167 -75q-48 0 -90 17t-71 41t-54 48t-50.5 41t-49.5 17q-39 0 -60.5 -29.5t-21.5 -114.5h-158zM145 0v1444h400l661 -1389h56l-35 135
v1254h200v-1444h-399l-663 1389h-56l35 -136v-1253h-199z" />
    <glyph glyph-name="Ograve" unicode="&#xd2;" horiz-adv-x="1619" 
d="M1167 1749l-37 -152l-661 166l37 152zM125 723q0 158 47 293t133.5 235t216.5 156.5t289 56.5q158 0 288 -56.5t216 -156.5t133 -235.5t47 -292.5q0 -158 -47 -294t-133 -235.5t-216 -156.5t-288 -57q-159 0 -289 57t-216.5 156.5t-133.5 235.5t-47 294zM324 723
q0 -260 124.5 -415.5t362.5 -155.5t361.5 155.5t123.5 415.5q0 169 -52 295t-162.5 200t-270.5 74q-120 0 -214 -42t-153 -118t-89.5 -179.5t-30.5 -229.5z" />
    <glyph glyph-name="Oacute" unicode="&#xd3;" horiz-adv-x="1619" 
d="M455 1749l661 166l37 -152l-661 -166zM125 723q0 158 47 293t133.5 235t216.5 156.5t289 56.5q158 0 288 -56.5t216 -156.5t133 -235.5t47 -292.5q0 -158 -47 -294t-133 -235.5t-216 -156.5t-288 -57q-159 0 -289 57t-216.5 156.5t-133.5 235.5t-47 294zM324 723
q0 -260 124.5 -415.5t362.5 -155.5t361.5 155.5t123.5 415.5q0 169 -52 295t-162.5 200t-270.5 74q-120 0 -214 -42t-153 -118t-89.5 -179.5t-30.5 -229.5z" />
    <glyph glyph-name="Ocircumflex" unicode="&#xd4;" horiz-adv-x="1619" 
d="M1165 1675l-112 -110l-242 192l-240 -192l-112 110l352 277zM125 723q0 158 47 293t133.5 235t216.5 156.5t289 56.5q158 0 288 -56.5t216 -156.5t133 -235.5t47 -292.5q0 -158 -47 -294t-133 -235.5t-216 -156.5t-288 -57q-159 0 -289 57t-216.5 156.5t-133.5 235.5
t-47 294zM324 723q0 -260 124.5 -415.5t362.5 -155.5t361.5 155.5t123.5 415.5q0 169 -52 295t-162.5 200t-270.5 74q-120 0 -214 -42t-153 -118t-89.5 -179.5t-30.5 -229.5z" />
    <glyph glyph-name="Otilde" unicode="&#xd5;" horiz-adv-x="1619" 
d="M420 1638q0 153 60.5 227t166.5 74q48 0 90 -17t71 -40.5t54 -47.5t51 -41t50 -17q39 0 60 29t21 114h158q0 -151 -60.5 -226t-166.5 -75q-48 0 -90 17t-71 41t-54 48t-51 41t-50 17q-39 0 -60 -29.5t-21 -114.5h-158zM125 723q0 158 47 293t133.5 235t216.5 156.5
t289 56.5q158 0 288 -56.5t216 -156.5t133 -235.5t47 -292.5q0 -158 -47 -294t-133 -235.5t-216 -156.5t-288 -57q-159 0 -289 57t-216.5 156.5t-133.5 235.5t-47 294zM324 723q0 -260 124.5 -415.5t362.5 -155.5t361.5 155.5t123.5 415.5q0 169 -52 295t-162.5 200
t-270.5 74q-120 0 -214 -42t-153 -118t-89.5 -179.5t-30.5 -229.5z" />
    <glyph glyph-name="Odieresis" unicode="&#xd6;" horiz-adv-x="1619" 
d="M588 1595q-70 0 -114 41.5t-44 106.5q0 63 44 104t114 41t116 -41t46 -104q0 -64 -45.5 -106t-116.5 -42zM1032 1595q-70 0 -115 41.5t-45 106.5q0 63 45 104t115 41t116 -41t46 -104q0 -64 -45.5 -106t-116.5 -42zM125 723q0 158 47 293t133.5 235t216.5 156.5t289 56.5
q158 0 288 -56.5t216 -156.5t133 -235.5t47 -292.5q0 -158 -47 -294t-133 -235.5t-216 -156.5t-288 -57q-159 0 -289 57t-216.5 156.5t-133.5 235.5t-47 294zM324 723q0 -260 124.5 -415.5t362.5 -155.5t361.5 155.5t123.5 415.5q0 169 -52 295t-162.5 200t-270.5 74
q-120 0 -214 -42t-153 -118t-89.5 -179.5t-30.5 -229.5z" />
    <glyph glyph-name="multiply" unicode="&#xd7;" horiz-adv-x="1150" 
d="M987 815l-297 -297l297 -299l-113 -113l-296 300l-299 -300l-113 113l299 299l-299 297l113 113l299 -297l296 297z" />
    <glyph glyph-name="Oslash" unicode="&#xd8;" horiz-adv-x="1619" 
d="M1241 1319q123 -99 188.5 -254.5t65.5 -343.5q0 -158 -47 -294t-133 -236t-216 -157t-288 -57q-166 0 -311 66l-99 -170l-122 72l100 176q-123 100 -188.5 255.5t-65.5 344.5q0 158 47 293t133.5 235t216.5 156.5t289 56.5q174 0 307 -65l101 174l124 -74zM324 721
q0 -289 147 -442l559 966q-95 45 -219 45q-120 0 -214 -42t-153 -118t-89.5 -179.5t-30.5 -229.5zM811 150q160 0 270.5 74.5t162.5 201t52 295.5q0 290 -147 440l-561 -964q96 -47 223 -47z" />
    <glyph glyph-name="Ugrave" unicode="&#xd9;" horiz-adv-x="1384" 
d="M1047 1749l-37 -152l-662 166l37 152zM104 537v907h199v-858q0 -111 18.5 -188.5t62 -134.5t119 -84t187.5 -27q218 0 304.5 105t86.5 329v858h199v-907q0 -274 -146.5 -415.5t-443.5 -141.5q-586 0 -586 557z" />
    <glyph glyph-name="Uacute" unicode="&#xda;" horiz-adv-x="1384" 
d="M334 1749l661 166l37 -152l-661 -166zM104 537v907h199v-858q0 -111 18.5 -188.5t62 -134.5t119 -84t187.5 -27q218 0 304.5 105t86.5 329v858h199v-907q0 -274 -146.5 -415.5t-443.5 -141.5q-586 0 -586 557z" />
    <glyph glyph-name="Ucircumflex" unicode="&#xdb;" horiz-adv-x="1384" 
d="M1044 1675l-112 -110l-242 192l-239 -192l-113 110l352 277zM104 537v907h199v-858q0 -111 18.5 -188.5t62 -134.5t119 -84t187.5 -27q218 0 304.5 105t86.5 329v858h199v-907q0 -274 -146.5 -415.5t-443.5 -141.5q-586 0 -586 557z" />
    <glyph glyph-name="Udieresis" unicode="&#xdc;" horiz-adv-x="1384" 
d="M467 1595q-70 0 -114 41.5t-44 106.5q0 63 44 104t114 41t116 -41t46 -104q0 -64 -45.5 -106t-116.5 -42zM911 1595q-70 0 -114.5 41.5t-44.5 106.5q0 63 44.5 104t114.5 41t116 -41t46 -104q0 -64 -45.5 -106t-116.5 -42zM104 537v907h199v-858q0 -111 18.5 -188.5
t62 -134.5t119 -84t187.5 -27q218 0 304.5 105t86.5 329v858h199v-907q0 -274 -146.5 -415.5t-443.5 -141.5q-586 0 -586 557z" />
    <glyph glyph-name="Yacute" unicode="&#xdd;" horiz-adv-x="1376" 
d="M332 1749l661 166l37 -152l-661 -166zM1100 1444h213l-527 -920v-524h-198v524l-525 920h213l383 -684v-129h56v129z" />
    <glyph glyph-name="Thorn" unicode="&#xde;" horiz-adv-x="1282" 
d="M571 1202q116 0 204 -12.5t166.5 -44.5t128.5 -85t79 -138t29 -199q0 -115 -29 -200t-79 -138.5t-128.5 -85.5t-166.5 -44.5t-204 -12.5h-227v-242h-199v1444h199v-242h227zM578 414q79 0 133.5 5.5t109 24t86.5 51.5t52 90t20 138q0 80 -20 137t-52 89.5t-86.5 51
t-109 24t-133.5 5.5h-234v-616h234z" />
    <glyph glyph-name="germandbls" unicode="&#xdf;" horiz-adv-x="1177" 
d="M459 0v172l227 -18q116 -9 172.5 42t56.5 150q0 58 -22 100t-57 66t-77.5 43.5t-85.5 38t-78 41.5t-57 63t-22 95q0 60 24 106t58 74.5t68 53.5t58 58t24 74q0 133 -168 133q-56 0 -95 -11t-73 -41t-51 -88.5t-17 -147.5v-1004h-199v1030q0 121 35.5 208t98.5 135
t137 69.5t164 21.5q178 0 272 -82t94 -200q0 -44 -12.5 -81t-33 -62.5t-44.5 -47.5t-48.5 -41t-45 -38.5t-33 -44.5t-12.5 -54q0 -36 22 -62t57 -43.5t77.5 -35.5t84.5 -43.5t77 -61t57 -95t22 -138.5q0 -124 -55 -208.5t-148 -120t-213 -25.5z" />
    <glyph glyph-name="agrave" unicode="&#xe0;" 
d="M948 1325l-37 -151l-661 165l37 152zM104 283q0 263 349 303l391 41q-6 124 -75.5 187t-197.5 63q-117 0 -192.5 -58.5t-75.5 -179.5h-192q0 171 124.5 286t335.5 115q215 0 343 -124.5t128 -337.5v-406h150v-172h-191q-60 0 -93.5 33t-33.5 94v47l31 109h-53
q-16 -63 -44.5 -114.5t-75 -95.5t-118 -68.5t-163.5 -24.5q-86 0 -151.5 22t-101.5 54t-58.5 75.5t-29 79t-6.5 72.5zM303 311q0 -77 47.5 -118t128.5 -41q164 0 264.5 94t100.5 241l-357 -36q-96 -11 -140 -42t-44 -98z" />
    <glyph glyph-name="aacute" unicode="&#xe1;" 
d="M236 1325l661 166l37 -152l-662 -165zM104 283q0 263 349 303l391 41q-6 124 -75.5 187t-197.5 63q-117 0 -192.5 -58.5t-75.5 -179.5h-192q0 171 124.5 286t335.5 115q215 0 343 -124.5t128 -337.5v-406h150v-172h-191q-60 0 -93.5 33t-33.5 94v47l31 109h-53
q-16 -63 -44.5 -114.5t-75 -95.5t-118 -68.5t-163.5 -24.5q-86 0 -151.5 22t-101.5 54t-58.5 75.5t-29 79t-6.5 72.5zM303 311q0 -77 47.5 -118t128.5 -41q164 0 264.5 94t100.5 241l-357 -36q-96 -11 -140 -42t-44 -98z" />
    <glyph glyph-name="acircumflex" unicode="&#xe2;" 
d="M946 1251l-112 -110l-242 192l-240 -192l-112 110l352 277zM104 283q0 263 349 303l391 41q-6 124 -75.5 187t-197.5 63q-117 0 -192.5 -58.5t-75.5 -179.5h-192q0 171 124.5 286t335.5 115q215 0 343 -124.5t128 -337.5v-406h150v-172h-191q-60 0 -93.5 33t-33.5 94v47
l31 109h-53q-16 -63 -44.5 -114.5t-75 -95.5t-118 -68.5t-163.5 -24.5q-86 0 -151.5 22t-101.5 54t-58.5 75.5t-29 79t-6.5 72.5zM303 311q0 -77 47.5 -118t128.5 -41q164 0 264.5 94t100.5 241l-357 -36q-96 -11 -140 -42t-44 -98z" />
    <glyph glyph-name="atilde" unicode="&#xe3;" 
d="M201 1214q0 153 60.5 227.5t166.5 74.5q48 0 90 -17t71 -41t54 -48t50.5 -41t49.5 -17q39 0 60.5 29t21.5 114h158q0 -151 -60.5 -226t-166.5 -75q-48 0 -90 17t-71 41t-54 48t-51 41t-50 17q-39 0 -60.5 -29.5t-21.5 -114.5h-157zM104 283q0 263 349 303l391 41
q-6 124 -75.5 187t-197.5 63q-117 0 -192.5 -58.5t-75.5 -179.5h-192q0 171 124.5 286t335.5 115q215 0 343 -124.5t128 -337.5v-406h150v-172h-191q-60 0 -93.5 33t-33.5 94v47l31 109h-53q-16 -63 -44.5 -114.5t-75 -95.5t-118 -68.5t-163.5 -24.5q-86 0 -151.5 22
t-101.5 54t-58.5 75.5t-29 79t-6.5 72.5zM303 311q0 -77 47.5 -118t128.5 -41q164 0 264.5 94t100.5 241l-357 -36q-96 -11 -140 -42t-44 -98z" />
    <glyph glyph-name="adieresis" unicode="&#xe4;" 
d="M369 1171q-70 0 -114 41.5t-44 106.5q0 63 44 104t114 41t115.5 -41t45.5 -104q0 -65 -45.5 -106.5t-115.5 -41.5zM813 1171q-70 0 -115 41.5t-45 106.5q0 63 45 104t115 41t116 -41t46 -104q0 -64 -45.5 -106t-116.5 -42zM104 283q0 263 349 303l391 41
q-6 124 -75.5 187t-197.5 63q-117 0 -192.5 -58.5t-75.5 -179.5h-192q0 171 124.5 286t335.5 115q215 0 343 -124.5t128 -337.5v-406h150v-172h-191q-60 0 -93.5 33t-33.5 94v47l31 109h-53q-16 -63 -44.5 -114.5t-75 -95.5t-118 -68.5t-163.5 -24.5q-86 0 -151.5 22
t-101.5 54t-58.5 75.5t-29 79t-6.5 72.5zM303 311q0 -77 47.5 -118t128.5 -41q164 0 264.5 94t100.5 241l-357 -36q-96 -11 -140 -42t-44 -98z" />
    <glyph glyph-name="aring" unicode="&#xe5;" 
d="M590 1143q-120 0 -188 64.5t-68 164.5q0 99 68.5 163t187.5 64q121 0 190.5 -64t69.5 -163t-69.5 -164t-190.5 -65zM590 1282q49 0 75.5 23.5t26.5 66.5q0 41 -27.5 64.5t-74.5 23.5t-72.5 -23t-25.5 -65q0 -43 25.5 -66.5t72.5 -23.5zM104 283q0 263 349 303l391 41
q-6 124 -75.5 187t-197.5 63q-117 0 -192.5 -58.5t-75.5 -179.5h-192q0 171 124.5 286t335.5 115q215 0 343 -124.5t128 -337.5v-406h150v-172h-191q-60 0 -93.5 33t-33.5 94v47l31 109h-53q-16 -63 -44.5 -114.5t-75 -95.5t-118 -68.5t-163.5 -24.5q-86 0 -151.5 22
t-101.5 54t-58.5 75.5t-29 79t-6.5 72.5zM303 311q0 -77 47.5 -118t128.5 -41q164 0 264.5 94t100.5 241l-357 -36q-96 -11 -140 -42t-44 -98z" />
    <glyph glyph-name="ae" unicode="&#xe6;" horiz-adv-x="2021" 
d="M1718 358h199q-11 -51 -32.5 -100t-62 -101t-94 -90t-134 -62.5t-175.5 -24.5q-189 0 -310 81t-175 222h-41q-44 -131 -156 -217t-286 -86q-86 0 -151.5 22t-101.5 54t-58.5 75.5t-29 79t-6.5 72.5q0 263 349 303l391 41q-6 124 -75.5 187t-197.5 63q-117 0 -192.5 -58.5
t-75.5 -179.5h-192q0 171 124.5 286t335.5 115q138 0 239.5 -56.5t156.5 -160.5q64 105 174 161t252 56q224 0 356.5 -131.5t132.5 -363.5v-74h-799q7 -145 88 -235.5t248 -90.5q119 0 196 54.5t103 158.5zM1393 877q-143 0 -226.5 -77t-83.5 -190h607q0 115 -76.5 191
t-220.5 76zM479 152q164 0 264.5 94t100.5 241l-357 -36q-96 -11 -140 -42.5t-44 -99.5q0 -77 47.5 -117t128.5 -40z" />
    <glyph glyph-name="ccedilla" unicode="&#xe7;" horiz-adv-x="1226" 
d="M633 152q115 0 193 58.5t96 182.5h200q-7 -98 -48.5 -176t-104.5 -126t-136.5 -75.5t-152.5 -33.5l-96 -101q80 35 147 35q60 0 101.5 -29.5t41.5 -89.5q0 -41 -15 -71.5t-46 -50.5t-68 -33t-93 -19.5t-108.5 -9t-125.5 -2.5v137q192 0 240 11q56 15 57 51q0 40 -47 40
q-56 0 -146 -51l-78 90l74 101q-193 35 -303.5 177t-110.5 345q0 232 143 380t386 148q66 0 130.5 -14.5t127 -46.5t111 -79t81 -117.5t39.5 -155.5h-200q-18 124 -96 182.5t-193 58.5q-162 0 -246 -99t-84 -257q0 -159 84 -259.5t246 -100.5z" />
    <glyph glyph-name="egrave" unicode="&#xe8;" 
d="M975 1325l-37 -151l-662 165l37 152zM104 524q0 242 138 379t364 137q224 0 357 -131.5t133 -363.5v-74h-799q7 -145 88 -235.5t248 -90.5q119 0 196 54.5t103 158.5h198q-11 -51 -32.5 -100t-61.5 -101t-93.5 -90t-134 -62.5t-175.5 -24.5q-135 0 -238.5 43.5
t-166 119.5t-93.5 172t-31 209zM297 610h606q0 115 -76.5 191t-220.5 76q-143 0 -226 -77t-83 -190z" />
    <glyph glyph-name="eacute" unicode="&#xe9;" 
d="M262 1325l662 166l37 -152l-662 -165zM104 524q0 242 138 379t364 137q224 0 357 -131.5t133 -363.5v-74h-799q7 -145 88 -235.5t248 -90.5q119 0 196 54.5t103 158.5h198q-11 -51 -32.5 -100t-61.5 -101t-93.5 -90t-134 -62.5t-175.5 -24.5q-135 0 -238.5 43.5
t-166 119.5t-93.5 172t-31 209zM297 610h606q0 115 -76.5 191t-220.5 76q-143 0 -226 -77t-83 -190z" />
    <glyph glyph-name="ecircumflex" unicode="&#xea;" 
d="M973 1251l-113 -110l-242 192l-239 -192l-113 110l352 277zM104 524q0 242 138 379t364 137q224 0 357 -131.5t133 -363.5v-74h-799q7 -145 88 -235.5t248 -90.5q119 0 196 54.5t103 158.5h198q-11 -51 -32.5 -100t-61.5 -101t-93.5 -90t-134 -62.5t-175.5 -24.5
q-135 0 -238.5 43.5t-166 119.5t-93.5 172t-31 209zM297 610h606q0 115 -76.5 191t-220.5 76q-143 0 -226 -77t-83 -190z" />
    <glyph glyph-name="edieresis" unicode="&#xeb;" 
d="M395 1171q-70 0 -113.5 41.5t-43.5 106.5q0 64 43.5 104.5t113.5 40.5t116 -41t46 -104q0 -64 -45.5 -106t-116.5 -42zM840 1171q-70 0 -115 41.5t-45 106.5q0 63 45 104t115 41t115.5 -41t45.5 -104q0 -65 -45.5 -106.5t-115.5 -41.5zM104 524q0 242 138 379t364 137
q224 0 357 -131.5t133 -363.5v-74h-799q7 -145 88 -235.5t248 -90.5q119 0 196 54.5t103 158.5h198q-11 -51 -32.5 -100t-61.5 -101t-93.5 -90t-134 -62.5t-175.5 -24.5q-135 0 -238.5 43.5t-166 119.5t-93.5 172t-31 209zM297 610h606q0 115 -76.5 191t-220.5 76
q-143 0 -226 -77t-83 -190z" />
    <glyph glyph-name="igrave" unicode="&#xec;" horiz-adv-x="931" 
d="M772 1325l-37 -151l-661 165l37 152zM104 0v172h289v694l-221 -18v172l264 20q72 7 107 -30.5t35 -114.5v-723h290v-172h-764z" />
    <glyph glyph-name="iacute" unicode="&#xed;" horiz-adv-x="944" 
d="M80 1325l661 166l37 -152l-661 -165zM117 0v172h291v694l-224 -18v172l265 20q73 7 108 -30.5t35 -114.5v-723h289v-172h-764z" />
    <glyph glyph-name="icircumflex" unicode="&#xee;" horiz-adv-x="942" 
d="M780 1251l-112 -110l-240 192l-242 -192l-112 110l354 277zM115 0v172h291v694l-224 -18v172l264 20q73 7 108.5 -30.5t35.5 -114.5v-723h289v-172h-764z" />
    <glyph glyph-name="idieresis" unicode="&#xef;" horiz-adv-x="944" 
d="M213 1171q-70 0 -115 41.5t-45 106.5q0 63 45 104t115 41t116 -41t46 -104q0 -64 -45.5 -106t-116.5 -42zM657 1171q-70 0 -114.5 41.5t-44.5 106.5q0 63 44.5 104t114.5 41t116 -41t46 -104q0 -64 -45.5 -106t-116.5 -42zM117 0v172h291v694l-224 -18v172l265 20
q73 7 108 -30.5t35 -114.5v-723h289v-172h-764z" />
    <glyph glyph-name="eth" unicode="&#xf0;" horiz-adv-x="1355" 
d="M911 1325q163 -113 251.5 -283t88.5 -389q0 -315 -156 -494t-425 -179q-264 0 -415 148.5t-151 387.5q0 229 145.5 376.5t389.5 147.5q190 0 313.5 -112t151.5 -303h55l-35 129q-39 317 -372 483l-240 -131l-123 96l189 103q-114 38 -263 57v172q257 -28 453 -125
l207 115l121 -99zM674 152q179 0 279 104.5t100 259.5q0 165 -104.5 258.5t-286.5 93.5q-172 0 -265.5 -93t-93.5 -259q0 -173 94 -268.5t277 -95.5z" />
    <glyph glyph-name="ntilde" unicode="&#xf1;" horiz-adv-x="1267" 
d="M291 1214q0 153 60.5 227.5t166.5 74.5q48 0 90 -17t71 -41t54 -48t51 -41t50 -17q39 0 60 29t21 114h158q0 -151 -60.5 -226t-166.5 -75q-48 0 -90 17t-71 41t-54 48t-51 41t-50 17q-39 0 -60 -29.5t-21 -114.5h-158zM696 868q-160 0 -256 -113.5t-96 -316.5v-438h-199
v1020h199v-166l-35 -129h56q32 144 131.5 229.5t259.5 85.5q183 0 286 -109t103 -321v-610h-201v582q0 154 -59 220t-189 66z" />
    <glyph glyph-name="ograve" unicode="&#xf2;" horiz-adv-x="1298" 
d="M1006 1325l-37 -151l-662 165l37 152zM104 512q0 232 152 380t395 148q242 0 393.5 -148.5t151.5 -379.5q0 -234 -151.5 -383t-393.5 -149q-243 0 -395 149t-152 383zM303 512q0 -160 92 -260t256 -100q162 0 253 100t91 260q0 157 -91.5 256.5t-252.5 99.5
q-164 0 -256 -99.5t-92 -256.5z" />
    <glyph glyph-name="oacute" unicode="&#xf3;" horiz-adv-x="1298" 
d="M295 1325l661 166l37 -152l-661 -165zM104 512q0 232 152 380t395 148q242 0 393.5 -148.5t151.5 -379.5q0 -234 -151.5 -383t-393.5 -149q-243 0 -395 149t-152 383zM303 512q0 -160 92 -260t256 -100q162 0 253 100t91 260q0 157 -91.5 256.5t-252.5 99.5
q-164 0 -256 -99.5t-92 -256.5z" />
    <glyph glyph-name="ocircumflex" unicode="&#xf4;" horiz-adv-x="1298" 
d="M1004 1251l-113 -110l-242 192l-239 -192l-113 110l352 277zM104 512q0 232 152 380t395 148q242 0 393.5 -148.5t151.5 -379.5q0 -234 -151.5 -383t-393.5 -149q-243 0 -395 149t-152 383zM303 512q0 -160 92 -260t256 -100q162 0 253 100t91 260q0 157 -91.5 256.5
t-252.5 99.5q-164 0 -256 -99.5t-92 -256.5z" />
    <glyph glyph-name="otilde" unicode="&#xf5;" horiz-adv-x="1298" 
d="M260 1214q0 153 60.5 227.5t166.5 74.5q48 0 90 -17t71 -41t54 -48t51 -41t50 -17q39 0 60.5 29t21.5 114h157q0 -151 -60.5 -226t-166.5 -75q-48 0 -90 17t-71 41t-54 48t-50.5 41t-49.5 17q-39 0 -60.5 -29.5t-21.5 -114.5h-158zM104 512q0 232 152 380t395 148
q242 0 393.5 -148.5t151.5 -379.5q0 -234 -151.5 -383t-393.5 -149q-243 0 -395 149t-152 383zM303 512q0 -160 92 -260t256 -100q162 0 253 100t91 260q0 157 -91.5 256.5t-252.5 99.5q-164 0 -256 -99.5t-92 -256.5z" />
    <glyph glyph-name="odieresis" unicode="&#xf6;" horiz-adv-x="1298" 
d="M426 1171q-70 0 -114 41.5t-44 106.5q0 63 44 104t114 41t116 -41t46 -104q0 -64 -45.5 -106t-116.5 -42zM870 1171q-70 0 -114.5 41.5t-44.5 106.5q0 63 44.5 104t114.5 41t116 -41t46 -104q0 -64 -45.5 -106t-116.5 -42zM104 512q0 232 152 380t395 148
q242 0 393.5 -148.5t151.5 -379.5q0 -234 -151.5 -383t-393.5 -149q-243 0 -395 149t-152 383zM303 512q0 -160 92 -260t256 -100q162 0 253 100t91 260q0 157 -91.5 256.5t-252.5 99.5q-164 0 -256 -99.5t-92 -256.5z" />
    <glyph glyph-name="divide" unicode="&#xf7;" horiz-adv-x="1333" 
d="M666 731q-78 0 -129.5 52.5t-51.5 129.5q0 76 52 128.5t129 52.5q76 0 129 -53t53 -128q0 -77 -53 -129.5t-129 -52.5zM166 602h1001v-160h-1001v160zM666 -47q-78 0 -129.5 52t-51.5 130q0 75 51.5 126.5t129.5 51.5q77 0 129.5 -51.5t52.5 -126.5q0 -78 -52.5 -130
t-129.5 -52z" />
    <glyph glyph-name="oslash" unicode="&#xf8;" horiz-adv-x="1298" 
d="M985 944q100 -71 155.5 -183.5t55.5 -248.5q0 -234 -151.5 -383t-393.5 -149q-116 0 -209 34l-69 -120l-123 69l67 115q-101 71 -157 183.5t-56 250.5q0 233 152 381.5t395 148.5q105 0 203 -32l70 118l127 -71zM303 512q0 -173 107 -274l356 616q-56 16 -115 16
q-164 0 -256 -100t-92 -258zM651 152q161 0 252.5 100.5t91.5 259.5q0 174 -104 270l-359 -614q59 -16 119 -16z" />
    <glyph glyph-name="ugrave" unicode="&#xf9;" horiz-adv-x="1247" 
d="M993 1325l-37 -151l-661 165l37 152zM571 152q160 0 256.5 113.5t96.5 318.5v436h200v-1020h-200v166l34 129h-55q-32 -144 -131.5 -229.5t-259.5 -85.5q-182 0 -284.5 109.5t-102.5 322.5v608h199v-582q0 -153 59 -219.5t188 -66.5z" />
    <glyph glyph-name="uacute" unicode="&#xfa;" horiz-adv-x="1247" 
d="M281 1325l661 166l37 -152l-662 -165zM571 152q160 0 256.5 113.5t96.5 318.5v436h200v-1020h-200v166l34 129h-55q-32 -144 -131.5 -229.5t-259.5 -85.5q-182 0 -284.5 109.5t-102.5 322.5v608h199v-582q0 -153 59 -219.5t188 -66.5z" />
    <glyph glyph-name="ucircumflex" unicode="&#xfb;" horiz-adv-x="1247" 
d="M991 1251l-112 -110l-242 192l-240 -192l-112 110l352 277zM571 152q160 0 256.5 113.5t96.5 318.5v436h200v-1020h-200v166l34 129h-55q-32 -144 -131.5 -229.5t-259.5 -85.5q-182 0 -284.5 109.5t-102.5 322.5v608h199v-582q0 -153 59 -219.5t188 -66.5z" />
    <glyph glyph-name="udieresis" unicode="&#xfc;" horiz-adv-x="1247" 
d="M414 1171q-70 0 -114 41.5t-44 106.5q0 63 44 104t114 41t115.5 -41t45.5 -104q0 -65 -45.5 -106.5t-115.5 -41.5zM858 1171q-70 0 -115 41.5t-45 106.5q0 63 45 104t115 41t116 -41t46 -104q0 -64 -45.5 -106t-116.5 -42zM571 152q160 0 256.5 113.5t96.5 318.5v436h200
v-1020h-200v166l34 129h-55q-32 -144 -131.5 -229.5t-259.5 -85.5q-182 0 -284.5 109.5t-102.5 322.5v608h199v-582q0 -153 59 -219.5t188 -66.5z" />
    <glyph glyph-name="yacute" unicode="&#xfd;" horiz-adv-x="1243" 
d="M975 1339l-662 -165l-37 151l662 166zM961 1020h221l-449 -1000v-290q0 -66 -37.5 -101t-109.5 -32l-416 18v172l362 -14v247l-448 1000h219l303 -746v-96h53v96z" />
    <glyph glyph-name="thorn" unicode="&#xfe;" horiz-adv-x="1357" 
d="M774 1040q218 0 348.5 -149.5t130.5 -380.5t-130.5 -380.5t-348.5 -149.5q-168 0 -270.5 78t-138.5 204h-56l35 -131v-506h-199v1880h199v-616l-35 -129h56q36 125 139 202.5t270 77.5zM707 152q160 0 254 89t94 269t-94 269t-254 89q-163 0 -263 -89t-100 -269t100 -269
t263 -89z" />
    <glyph glyph-name="ydieresis" unicode="&#xff;" horiz-adv-x="1243" 
d="M410 1171q-70 0 -114 41.5t-44 106.5q0 63 44 104t114 41t115.5 -41t45.5 -104q0 -65 -45.5 -106.5t-115.5 -41.5zM854 1171q-70 0 -115 41.5t-45 106.5q0 63 45 104t115 41t116 -41t46 -104q0 -64 -45.5 -106t-116.5 -42zM961 1020h221l-449 -1000v-290
q0 -66 -37.5 -101t-109.5 -32l-416 18v172l362 -14v247l-448 1000h219l303 -746v-96h53v96z" />
    <glyph glyph-name="Amacron" unicode="&#x100;" horiz-adv-x="1447" 
d="M1077 1839v-156l-704 -4v160h704zM1186 0l-170 545h-584l-170 -545h-199l455 1444h412l454 -1444h-198zM485 717h478l-211 672h-56z" />
    <glyph glyph-name="amacron" unicode="&#x101;" 
d="M242 1415h704v-155l-704 -5v160zM104 283q0 263 349 303l391 41q-6 124 -75.5 187t-197.5 63q-117 0 -192.5 -58.5t-75.5 -179.5h-192q0 171 124.5 286t335.5 115q215 0 343 -124.5t128 -337.5v-406h150v-172h-191q-60 0 -93.5 33t-33.5 94v47l31 109h-53
q-16 -63 -44.5 -114.5t-75 -95.5t-118 -68.5t-163.5 -24.5q-86 0 -151.5 22t-101.5 54t-58.5 75.5t-29 79t-6.5 72.5zM303 311q0 -77 47.5 -118t128.5 -41q164 0 264.5 94t100.5 241l-357 -36q-96 -11 -140 -42t-44 -98z" />
    <glyph glyph-name="Abreve" unicode="&#x102;" horiz-adv-x="1447" 
d="M723 1573q-157 0 -243.5 101t-86.5 263h158q0 -112 40.5 -162.5t131.5 -50.5t132.5 50.5t41.5 162.5h158q0 -162 -87.5 -263t-244.5 -101zM1186 0l-170 545h-584l-170 -545h-199l455 1444h412l454 -1444h-198zM485 717h478l-211 672h-56z" />
    <glyph glyph-name="abreve" unicode="&#x103;" 
d="M924 1513q0 -162 -87.5 -263t-244.5 -101t-243.5 101t-86.5 263h158q0 -112 40.5 -162.5t131.5 -50.5t132.5 50.5t41.5 162.5h158zM104 283q0 263 349 303l391 41q-6 124 -75.5 187t-197.5 63q-117 0 -192.5 -58.5t-75.5 -179.5h-192q0 171 124.5 286t335.5 115
q215 0 343 -124.5t128 -337.5v-406h150v-172h-191q-60 0 -93.5 33t-33.5 94v47l31 109h-53q-16 -63 -44.5 -114.5t-75 -95.5t-118 -68.5t-163.5 -24.5q-86 0 -151.5 22t-101.5 54t-58.5 75.5t-29 79t-6.5 72.5zM303 311q0 -77 47.5 -118t128.5 -41q164 0 264.5 94t100.5 241
l-357 -36q-96 -11 -140 -42t-44 -98z" />
    <glyph glyph-name="Aogonek" unicode="&#x104;" horiz-adv-x="1447" 
d="M1264 -238l360 37v-157l-399 -37q-85 -6 -124.5 50.5t-0.5 121.5l123 223h-37l-170 545h-584l-170 -545h-199l455 1444h412l454 -1442h2zM485 717h478l-211 672h-56z" />
    <glyph glyph-name="aogonek" unicode="&#x105;" 
d="M1069 -238l361 37v-157l-400 -37q-85 -6 -124.5 50.5t-0.5 121.5l123 223h-27q-60 0 -93.5 33t-33.5 94v47l31 109h-53q-16 -63 -44.5 -114.5t-75 -95.5t-118 -68.5t-163.5 -24.5q-86 0 -151.5 22t-101.5 54t-58.5 75.5t-29 79t-6.5 72.5q0 263 349 303l391 41
q-6 124 -75.5 187t-197.5 63q-117 0 -192.5 -58.5t-75.5 -179.5h-192q0 171 124.5 286t335.5 115q215 0 343 -124.5t128 -337.5v-406h150v-172h-2zM479 152q164 0 264.5 94t100.5 241l-357 -36q-96 -11 -140 -42t-44 -98q0 -77 47.5 -118t128.5 -41z" />
    <glyph glyph-name="Cacute" unicode="&#x106;" horiz-adv-x="1601" 
d="M455 1749l661 166l37 -152l-661 -166zM125 723q0 157 47.5 292.5t134 235.5t217 156.5t289.5 56.5q280 0 456 -154.5t208 -422.5h-199q-25 194 -145.5 299.5t-319.5 105.5q-234 0 -361.5 -154.5t-127.5 -414.5q0 -261 127.5 -416t361.5 -155q199 0 319.5 106.5
t145.5 300.5h199q-32 -270 -208 -424.5t-456 -154.5q-159 0 -289.5 57t-217 156.5t-134 235.5t-47.5 294z" />
    <glyph glyph-name="cacute" unicode="&#x107;" horiz-adv-x="1226" 
d="M276 1325l662 166l37 -152l-662 -165zM104 512q0 232 143 380t386 148q66 0 130.5 -14.5t127 -46.5t111 -79t81 -117.5t39.5 -155.5h-200q-18 124 -96 182.5t-193 58.5q-162 0 -246 -99t-84 -257q0 -159 84 -259.5t246 -100.5q115 0 193 58.5t96 182.5h200
q-7 -85 -39.5 -155.5t-81 -117.5t-111 -79t-127 -46.5t-130.5 -14.5q-161 0 -282.5 69.5t-184 189.5t-62.5 273z" />
    <glyph glyph-name="Cdotaccent" unicode="&#x10a;" horiz-adv-x="1601" 
d="M809 1595q-70 0 -114 41.5t-44 106.5q0 63 44 104t114 41t116 -41t46 -104q0 -64 -45.5 -106t-116.5 -42zM125 723q0 157 47.5 292.5t134 235.5t217 156.5t289.5 56.5q280 0 456 -154.5t208 -422.5h-199q-25 194 -145.5 299.5t-319.5 105.5q-234 0 -361.5 -154.5
t-127.5 -414.5q0 -261 127.5 -416t361.5 -155q199 0 319.5 106.5t145.5 300.5h199q-32 -270 -208 -424.5t-456 -154.5q-159 0 -289.5 57t-217 156.5t-134 235.5t-47.5 294z" />
    <glyph glyph-name="cdotaccent" unicode="&#x10b;" horiz-adv-x="1226" 
d="M629 1171q-70 0 -114 41.5t-44 106.5q0 63 44 104t114 41t116 -41t46 -104q0 -64 -45.5 -106t-116.5 -42zM104 512q0 232 143 380t386 148q66 0 130.5 -14.5t127 -46.5t111 -79t81 -117.5t39.5 -155.5h-200q-18 124 -96 182.5t-193 58.5q-162 0 -246 -99t-84 -257
q0 -159 84 -259.5t246 -100.5q115 0 193 58.5t96 182.5h200q-7 -85 -39.5 -155.5t-81 -117.5t-111 -79t-127 -46.5t-130.5 -14.5q-161 0 -282.5 69.5t-184 189.5t-62.5 273z" />
    <glyph glyph-name="Ccaron" unicode="&#x10c;" horiz-adv-x="1601" 
d="M1165 1845l-354 -276l-352 276l112 111l240 -193l242 193zM125 723q0 157 47.5 292.5t134 235.5t217 156.5t289.5 56.5q280 0 456 -154.5t208 -422.5h-199q-25 194 -145.5 299.5t-319.5 105.5q-234 0 -361.5 -154.5t-127.5 -414.5q0 -261 127.5 -416t361.5 -155
q199 0 319.5 106.5t145.5 300.5h199q-32 -270 -208 -424.5t-456 -154.5q-159 0 -289.5 57t-217 156.5t-134 235.5t-47.5 294z" />
    <glyph glyph-name="ccaron" unicode="&#x10d;" horiz-adv-x="1226" 
d="M985 1421l-354 -276l-352 276l112 111l240 -193l241 193zM104 512q0 232 143 380t386 148q66 0 130.5 -14.5t127 -46.5t111 -79t81 -117.5t39.5 -155.5h-200q-18 124 -96 182.5t-193 58.5q-162 0 -246 -99t-84 -257q0 -159 84 -259.5t246 -100.5q115 0 193 58.5t96 182.5
h200q-7 -85 -39.5 -155.5t-81 -117.5t-111 -79t-127 -46.5t-130.5 -14.5q-161 0 -282.5 69.5t-184 189.5t-62.5 273z" />
    <glyph glyph-name="Dcaron" unicode="&#x10e;" horiz-adv-x="1476" 
d="M971 1845l-355 -276l-352 276l113 111l239 -193l242 193zM616 1444q83 0 154 -7t148.5 -27.5t139 -53.5t118.5 -88.5t95 -129.5t60.5 -179.5t22.5 -235.5t-22.5 -236t-60.5 -180t-95 -130t-118.5 -89t-139 -53.5t-148.5 -27.5t-154 -7h-471v1444h471zM616 172
q63 0 111 3.5t107 16.5t101.5 35.5t86 64t70.5 98.5t44 141.5t17 191.5q0 106 -17 190.5t-44 141.5t-70.5 98t-86 63.5t-101.5 35.5t-107 16.5t-111 3.5h-272v-1100h272z" />
    <glyph glyph-name="dcaron" unicode="&#x10f;" horiz-adv-x="1611" 
d="M1356 1532h172v-545h-172v545zM1212 0h-198v131l35 131h-56q-36 -126 -139 -204t-272 -78q-218 0 -348 150.5t-130 381.5q0 150 57 269t166.5 189t254.5 70q169 0 271.5 -77.5t139.5 -202.5h56l-35 129v616h198v-1505zM1014 512q0 179 -100 267.5t-263 88.5
q-160 0 -254 -88t-94 -268q0 -182 94 -271t254 -89q163 0 263 89.5t100 270.5z" />
    <glyph glyph-name="Dcroat" unicode="&#x110;" horiz-adv-x="1613" 
d="M754 1444q83 0 154 -7t148 -27.5t138 -53.5t118 -88.5t94.5 -129.5t60 -179.5t22.5 -235.5t-22.5 -236t-60 -180t-94.5 -130t-118 -89t-138 -53.5t-148 -27.5t-154 -7h-473v668h-156v159h156v617h473zM754 172q63 0 111 3.5t107 16.5t101.5 35.5t85.5 64t70 98.5
t44 141.5t17 191.5q0 106 -17 190.5t-44 141.5t-70 98t-85.5 63.5t-101.5 35.5t-107 16.5t-111 3.5h-273v-445h377v-159h-377v-496h273z" />
    <glyph glyph-name="dcroat" unicode="&#x111;" horiz-adv-x="1419" 
d="M1335 1391v-158h-123v-1233h-198v131l35 131h-56q-36 -126 -139 -204t-272 -78q-218 0 -348 150.5t-130 381.5q0 150 57 269t166.5 189t254.5 70q169 0 271.5 -77.5t139.5 -202.5h56l-35 129v344h-287v158h287v114h198v-114h123zM651 152q163 0 263 89.5t100 270.5
q0 179 -100 267.5t-263 88.5q-160 0 -254 -88t-94 -268q0 -182 94 -271t254 -89z" />
    <glyph glyph-name="Emacron" unicode="&#x112;" horiz-adv-x="1169" 
d="M256 1839h705v-156l-705 -4v160zM145 0v1444h920v-172h-721v-463h619v-172h-619v-465h721v-172h-920z" />
    <glyph glyph-name="emacron" unicode="&#x113;" 
d="M268 1415h705v-155l-705 -5v160zM104 524q0 242 138 379t364 137q224 0 357 -131.5t133 -363.5v-74h-799q7 -145 88 -235.5t248 -90.5q119 0 196 54.5t103 158.5h198q-11 -51 -32.5 -100t-61.5 -101t-93.5 -90t-134 -62.5t-175.5 -24.5q-135 0 -238.5 43.5t-166 119.5
t-93.5 172t-31 209zM297 610h606q0 115 -76.5 191t-220.5 76q-143 0 -226 -77t-83 -190z" />
    <glyph glyph-name="Edotaccent" unicode="&#x116;" horiz-adv-x="1169" 
d="M604 1595q-70 0 -114 41.5t-44 106.5q0 63 44 104t114 41t116 -41t46 -104q0 -64 -45.5 -106t-116.5 -42zM145 0v1444h920v-172h-721v-463h619v-172h-619v-465h721v-172h-920z" />
    <glyph glyph-name="edotaccent" unicode="&#x117;" 
d="M616 1171q-70 0 -113.5 41.5t-43.5 106.5q0 64 43.5 104.5t113.5 40.5t116 -41t46 -104q0 -64 -45.5 -106t-116.5 -42zM104 524q0 242 138 379t364 137q224 0 357 -131.5t133 -363.5v-74h-799q7 -145 88 -235.5t248 -90.5q119 0 196 54.5t103 158.5h198
q-11 -51 -32.5 -100t-61.5 -101t-93.5 -90t-134 -62.5t-175.5 -24.5q-135 0 -238.5 43.5t-166 119.5t-93.5 172t-31 209zM297 610h606q0 115 -76.5 191t-220.5 76q-143 0 -226 -77t-83 -190z" />
    <glyph glyph-name="Eogonek" unicode="&#x118;" horiz-adv-x="1169" 
d="M1065 1272h-721v-463h619v-172h-619v-465h721v-172h-256l-121 -238l361 37v-157l-400 -37q-85 -6 -124.5 50.5t-0.5 121.5l123 223h-502v1444h920v-172z" />
    <glyph glyph-name="eogonek" unicode="&#x119;" 
d="M784 -4l-120 -234l360 37v-157l-399 -37q-85 -6 -124.5 50.5t-0.5 121.5l112 203q-129 4 -228.5 48.5t-159.5 120t-90 170.5t-30 205q0 242 138 379t364 137q224 0 357 -131.5t133 -363.5v-74h-799q7 -145 88 -235.5t248 -90.5q119 0 196 54.5t103 158.5h198
q-11 -53 -35 -105t-64.5 -104t-104 -92.5t-142.5 -60.5zM606 877q-143 0 -226 -77t-83 -190h606q0 115 -76.5 191t-220.5 76z" />
    <glyph glyph-name="Ecaron" unicode="&#x11a;" horiz-adv-x="1169" 
d="M961 1845l-355 -276l-352 276l113 111l239 -193l242 193zM145 0v1444h920v-172h-721v-463h619v-172h-619v-465h721v-172h-920z" />
    <glyph glyph-name="ecaron" unicode="&#x11b;" 
d="M973 1421l-355 -276l-352 276l113 111l239 -193l242 193zM104 524q0 242 138 379t364 137q224 0 357 -131.5t133 -363.5v-74h-799q7 -145 88 -235.5t248 -90.5q119 0 196 54.5t103 158.5h198q-11 -51 -32.5 -100t-61.5 -101t-93.5 -90t-134 -62.5t-175.5 -24.5
q-135 0 -238.5 43.5t-166 119.5t-93.5 172t-31 209zM297 610h606q0 115 -76.5 191t-220.5 76q-143 0 -226 -77t-83 -190z" />
    <glyph glyph-name="Gbreve" unicode="&#x11e;" horiz-adv-x="1699" 
d="M1137 1937q0 -162 -87.5 -263t-244.5 -101t-243.5 101t-86.5 263h158q0 -112 40.5 -162.5t131.5 -50.5t132.5 50.5t41.5 162.5h158zM125 723q0 212 84.5 380t242.5 264.5t363 96.5q264 0 426 -146t195 -390h-199q-26 177 -126.5 270.5t-295.5 93.5q-237 0 -364 -153
t-127 -416q0 -271 107.5 -421t336.5 -150q401 0 395 466h-463v160h721q133 0 133 -125v-653h-198v530l33 193h-54q-3 -743 -571 -743q-125 0 -229.5 36t-179.5 102t-127 158.5t-77.5 205t-25.5 241.5z" />
    <glyph glyph-name="gbreve" unicode="&#x11f;" horiz-adv-x="1370" 
d="M643 1149q-157 0 -243.5 101t-86.5 263h158q0 -112 40.5 -162.5t131.5 -50.5t132.5 50.5t41.5 162.5h158q0 -162 -87.5 -263t-244.5 -101zM1239 1020h90v-172h-84q-77 0 -125 -35q62 -79 62 -197q0 -153 -119.5 -261.5t-355.5 -194.5q72 8 139 10t125.5 -12t102.5 -40
t69.5 -74.5t25.5 -113.5q0 -42 -8.5 -76.5t-28 -63t-45.5 -51t-67 -40t-85.5 -30.5t-108 -22t-128 -15t-151.5 -9.5t-173 -4.5t-198 -1v172q123 0 207 1t169.5 3.5t139 7.5t105 13.5t80.5 20.5t52 29t31.5 39t8.5 50q0 51 -32 82t-91.5 39t-125 6.5t-152.5 -18t-152.5 -31.5
t-145.5 -37l-34 129q277 63 514 131v55q-102 -28 -197 -33.5t-176.5 14.5t-142.5 62.5t-95.5 114t-34.5 164.5q0 135 72 229t189.5 137t271.5 43q217 0 358 -98q70 48 120 63t124 15zM643 377q340 0 340 248q0 243 -340 243t-340 -243q0 -248 340 -248z" />
    <glyph glyph-name="Gdotaccent" unicode="&#x120;" horiz-adv-x="1699" 
d="M803 1595q-70 0 -114 41.5t-44 106.5q0 63 44 104t114 41t116 -41t46 -104q0 -64 -45.5 -106t-116.5 -42zM125 723q0 212 84.5 380t242.5 264.5t363 96.5q264 0 426 -146t195 -390h-199q-26 177 -126.5 270.5t-295.5 93.5q-237 0 -364 -153t-127 -416q0 -271 107.5 -421
t336.5 -150q401 0 395 466h-463v160h721q133 0 133 -125v-653h-198v530l33 193h-54q-3 -743 -571 -743q-125 0 -229.5 36t-179.5 102t-127 158.5t-77.5 205t-25.5 241.5z" />
    <glyph glyph-name="gdotaccent" unicode="&#x121;" horiz-adv-x="1370" 
d="M641 1171q-70 0 -114 41.5t-44 106.5q0 63 44 104t114 41t116 -41t46 -104q0 -64 -45.5 -106t-116.5 -42zM1239 1020h90v-172h-84q-77 0 -125 -35q62 -79 62 -197q0 -153 -119.5 -261.5t-355.5 -194.5q72 8 139 10t125.5 -12t102.5 -40t69.5 -74.5t25.5 -113.5
q0 -42 -8.5 -76.5t-28 -63t-45.5 -51t-67 -40t-85.5 -30.5t-108 -22t-128 -15t-151.5 -9.5t-173 -4.5t-198 -1v172q123 0 207 1t169.5 3.5t139 7.5t105 13.5t80.5 20.5t52 29t31.5 39t8.5 50q0 51 -32 82t-91.5 39t-125 6.5t-152.5 -18t-152.5 -31.5t-145.5 -37l-34 129
q277 63 514 131v55q-102 -28 -197 -33.5t-176.5 14.5t-142.5 62.5t-95.5 114t-34.5 164.5q0 135 72 229t189.5 137t271.5 43q217 0 358 -98q70 48 120 63t124 15zM643 377q340 0 340 248q0 243 -340 243t-340 -243q0 -248 340 -248z" />
    <glyph glyph-name="uni0122" unicode="&#x122;" horiz-adv-x="1699" 
d="M125 723q0 212 84.5 380t242.5 264.5t363 96.5q264 0 426 -146t195 -390h-199q-26 177 -126.5 270.5t-295.5 93.5q-237 0 -364 -153t-127 -416q0 -271 107.5 -421t336.5 -150q401 0 395 466h-463v160h721q133 0 133 -125v-653h-198v530l33 193h-54q-3 -743 -571 -743
q-125 0 -229.5 36t-179.5 102t-127 158.5t-77.5 205t-25.5 241.5zM668 -100l166 -50l-113 -339l-164 49z" />
    <glyph glyph-name="uni0123" unicode="&#x123;" horiz-adv-x="1370" 
d="M842 1556l-115 -385l-166 43l113 388zM1239 1020h90v-172h-84q-77 0 -125 -35q62 -79 62 -197q0 -153 -119.5 -261.5t-355.5 -194.5q72 8 139 10t125.5 -12t102.5 -40t69.5 -74.5t25.5 -113.5q0 -42 -8.5 -76.5t-28 -63t-45.5 -51t-67 -40t-85.5 -30.5t-108 -22t-128 -15
t-151.5 -9.5t-173 -4.5t-198 -1v172q123 0 207 1t169.5 3.5t139 7.5t105 13.5t80.5 20.5t52 29t31.5 39t8.5 50q0 51 -32 82t-91.5 39t-125 6.5t-152.5 -18t-152.5 -31.5t-145.5 -37l-34 129q277 63 514 131v55q-102 -28 -197 -33.5t-176.5 14.5t-142.5 62.5t-95.5 114
t-34.5 164.5q0 135 72 229t189.5 137t271.5 43q217 0 358 -98q70 48 120 63t124 15zM643 377q340 0 340 248q0 243 -340 243t-340 -243q0 -248 340 -248z" />
    <glyph glyph-name="Hbar" unicode="&#x126;" horiz-adv-x="1636" 
d="M1554 1249v-159h-122v-1090h-201v625h-825v-625h-199v1090h-123v159h123v195h199v-195h825v195h201v-195h122zM1231 797v293h-825v-293h825z" />
    <glyph glyph-name="hbar" unicode="&#x127;" horiz-adv-x="1337" 
d="M823 1040q183 0 286 -109t103 -321v-610h-198v582q0 153 -59.5 219.5t-190.5 66.5q-159 0 -255.5 -113.5t-96.5 -316.5v-438h-199v1233h-109v158h109v114h199v-114h299v-158h-299v-379l-33 -129h53q32 144 131.5 229.5t259.5 85.5z" />
    <glyph glyph-name="Imacron" unicode="&#x12a;" horiz-adv-x="1095" 
d="M901 1839v-156l-704 -4v160h704zM971 1272h-324v-1100h324v-172h-846v172h324v1100h-324v172h846v-172z" />
    <glyph glyph-name="imacron" unicode="&#x12b;" horiz-adv-x="942" 
d="M82 1415h704v-155l-704 -5v160zM115 0v172h288v694l-221 -18v172l264 20q72 7 107 -30.5t35 -114.5v-723h291v-172h-764z" />
    <glyph glyph-name="Iogonek" unicode="&#x12e;" horiz-adv-x="1095" 
d="M635 -238l360 37v-157l-399 -37q-85 -6 -124.5 50.5t-0.5 121.5l123 223h-469v172h324v1100h-324v172h846v-172h-324v-1100h324v-172h-215z" />
    <glyph glyph-name="iogonek" unicode="&#x12f;" horiz-adv-x="931" 
d="M414 1171q-70 0 -114 41.5t-44 106.5q0 63 44 104t114 41t115.5 -41t45.5 -104q0 -65 -45.5 -106.5t-115.5 -41.5zM868 0h-260l-121 -238l361 37v-157l-399 -37q-85 -6 -124.5 50.5t-0.5 121.5l122 223h-342v172h289v694l-221 -18v172l264 20q72 7 107 -30.5t35 -114.5
v-723h290v-172z" />
    <glyph glyph-name="Idotaccent" unicode="&#x130;" horiz-adv-x="1095" 
d="M545 1595q-70 0 -114 41.5t-44 106.5q0 63 44 104t114 41t116 -41t46 -104q0 -64 -45.5 -106t-116.5 -42zM971 1272h-324v-1100h324v-172h-846v172h324v1100h-324v172h846v-172z" />
    <glyph glyph-name="dotlessi" unicode="&#x131;" horiz-adv-x="931" 
d="M104 0v172h289v694l-221 -18v172l264 20q72 7 107 -30.5t35 -114.5v-723h290v-172h-764z" />
    <glyph glyph-name="uni0136" unicode="&#x136;" horiz-adv-x="1413" 
d="M1352 1444l-879 -721l879 -723h-291l-717 592v-592h-199v1444h199v-592l717 592h291zM481 -440l111 340l166 -50l-113 -339z" />
    <glyph glyph-name="uni0137" unicode="&#x137;" horiz-adv-x="1193" 
d="M725 545l385 -545h-225l-324 459l-217 -115v-344h-199v1505h199v-952l508 268l-16 199h200l13 -193q6 -107 -93 -159l-245 -129zM410 -440l110 340l166 -50l-113 -339z" />
    <glyph glyph-name="Lacute" unicode="&#x139;" horiz-adv-x="1132" 
d="M145 1749l664 164l37 -152l-662 -164zM283 -20q-63 -2 -98 33t-35 100v1331h198v-1292l723 20v-172z" />
    <glyph glyph-name="lacute" unicode="&#x13a;" horiz-adv-x="931" 
d="M80 1810l661 164l37 -151l-661 -164zM98 0v172h285v1180l-217 -19v172l268 19q74 6 112 -32.5t38 -113.5v-1206h284v-172h-770z" />
    <glyph glyph-name="uni013B" unicode="&#x13b;" horiz-adv-x="1128" 
d="M279 -20q-64 -1 -99 33.5t-35 99.5v1331h199v-1292l721 20v-172zM559 -100l166 -50l-113 -339l-163 49z" />
    <glyph glyph-name="uni013C" unicode="&#x13c;" horiz-adv-x="915" 
d="M84 0v172h285v1180l-217 -19v172l268 19q73 6 110 -32.5t37 -113.5v-1206h287v-172h-770zM369 -100l166 -50l-113 -339l-164 49z" />
    <glyph glyph-name="Lcaron" unicode="&#x13d;" horiz-adv-x="1148" 
d="M565 1532h172v-545h-172v545zM279 -20q-64 -1 -99 33.5t-35 99.5v1331h199v-1292l721 20v-172z" />
    <glyph glyph-name="lcaron" unicode="&#x13e;" horiz-adv-x="960" 
d="M725 1532h172v-545h-172v545zM84 0v172h285v1180l-217 -19v172l268 19q73 6 110 -32.5t37 -113.5v-1206h287v-172h-770z" />
    <glyph glyph-name="Lslash" unicode="&#x141;" horiz-adv-x="1273" 
d="M469 152l721 20v-172l-787 -20q-64 -1 -98.5 33.5t-34.5 99.5v514l-127 -35l-39 151l166 45v656h199v-602l377 102l39 -151l-416 -113v-528z" />
    <glyph glyph-name="lslash" unicode="&#x142;" horiz-adv-x="915" 
d="M567 172h287v-172h-770v172h285v467l-236 -64l-39 152l275 74v551l-217 -19v172l268 19q73 6 110 -32.5t37 -113.5v-522l236 64l39 -152l-275 -74v-522z" />
    <glyph glyph-name="Nacute" unicode="&#x143;" horiz-adv-x="1570" 
d="M471 1749l662 166l36 -152l-661 -166zM145 0v1444h400l661 -1389h56l-35 135v1254h200v-1444h-399l-663 1389h-56l35 -136v-1253h-199z" />
    <glyph glyph-name="nacute" unicode="&#x144;" horiz-adv-x="1267" 
d="M326 1325l661 166l37 -152l-662 -165zM696 868q-160 0 -256 -113.5t-96 -316.5v-438h-199v1020h199v-166l-35 -129h56q32 144 131.5 229.5t259.5 85.5q183 0 286 -109t103 -321v-610h-201v582q0 154 -59 220t-189 66z" />
    <glyph glyph-name="uni0145" unicode="&#x145;" horiz-adv-x="1570" 
d="M145 0v1444h400l661 -1389h56l-35 135v1254h200v-1444h-399l-663 1389h-56l35 -136v-1253h-199zM690 -100l166 -50l-113 -339l-163 49z" />
    <glyph glyph-name="uni0146" unicode="&#x146;" horiz-adv-x="1267" 
d="M696 868q-160 0 -256 -113.5t-96 -316.5v-438h-199v1020h199v-166l-35 -129h56q32 144 131.5 229.5t259.5 85.5q183 0 286 -109t103 -321v-610h-201v582q0 154 -59 220t-189 66zM553 -100l166 -50l-113 -339l-164 49z" />
    <glyph glyph-name="Ncaron" unicode="&#x147;" horiz-adv-x="1570" 
d="M1180 1845l-355 -276l-352 276l113 111l239 -193l242 193zM145 0v1444h400l661 -1389h56l-35 135v1254h200v-1444h-399l-663 1389h-56l35 -136v-1253h-199z" />
    <glyph glyph-name="ncaron" unicode="&#x148;" horiz-adv-x="1267" 
d="M1036 1421l-354 -276l-352 276l112 111l240 -193l242 193zM696 868q-160 0 -256 -113.5t-96 -316.5v-438h-199v1020h199v-166l-35 -129h56q32 144 131.5 229.5t259.5 85.5q183 0 286 -109t103 -321v-610h-201v582q0 154 -59 220t-189 66z" />
    <glyph glyph-name="Eng" unicode="&#x14a;" horiz-adv-x="1570" 
d="M1227 1444h200v-1708q0 -66 -37.5 -100t-109.5 -31l-416 18v172l363 -18v223h-199l-663 1389h-56l35 -136v-1253h-199v1444h400l661 -1389h56l-35 135v1254z" />
    <glyph glyph-name="eng" unicode="&#x14b;" horiz-adv-x="1267" 
d="M756 1040q183 0 286 -109t103 -321v-874q0 -65 -37.5 -99.5t-110.5 -31.5l-415 18v172l362 -18v805q0 154 -59 220t-189 66q-160 0 -256 -113.5t-96 -316.5v-438h-199v1020h199v-166l-35 -129h56q32 144 131.5 229.5t259.5 85.5z" />
    <glyph glyph-name="Omacron" unicode="&#x14c;" horiz-adv-x="1619" 
d="M461 1839h704v-156l-704 -4v160zM125 723q0 158 47 293t133.5 235t216.5 156.5t289 56.5q158 0 288 -56.5t216 -156.5t133 -235.5t47 -292.5q0 -158 -47 -294t-133 -235.5t-216 -156.5t-288 -57q-159 0 -289 57t-216.5 156.5t-133.5 235.5t-47 294zM324 723
q0 -260 124.5 -415.5t362.5 -155.5t361.5 155.5t123.5 415.5q0 169 -52 295t-162.5 200t-270.5 74q-120 0 -214 -42t-153 -118t-89.5 -179.5t-30.5 -229.5z" />
    <glyph glyph-name="omacron" unicode="&#x14d;" horiz-adv-x="1298" 
d="M299 1415h705v-155l-705 -5v160zM104 512q0 232 152 380t395 148q242 0 393.5 -148.5t151.5 -379.5q0 -234 -151.5 -383t-393.5 -149q-243 0 -395 149t-152 383zM303 512q0 -160 92 -260t256 -100q162 0 253 100t91 260q0 157 -91.5 256.5t-252.5 99.5q-164 0 -256 -99.5
t-92 -256.5z" />
    <glyph glyph-name="Ohungarumlaut" unicode="&#x150;" horiz-adv-x="1619" 
d="M492 1679l315 295l111 -106l-316 -295zM864 1679l316 295l110 -106l-315 -295zM125 723q0 158 47 293t133.5 235t216.5 156.5t289 56.5q158 0 288 -56.5t216 -156.5t133 -235.5t47 -292.5q0 -158 -47 -294t-133 -235.5t-216 -156.5t-288 -57q-159 0 -289 57t-216.5 156.5
t-133.5 235.5t-47 294zM324 723q0 -260 124.5 -415.5t362.5 -155.5t361.5 155.5t123.5 415.5q0 169 -52 295t-162.5 200t-270.5 74q-120 0 -214 -42t-153 -118t-89.5 -179.5t-30.5 -229.5z" />
    <glyph glyph-name="ohungarumlaut" unicode="&#x151;" horiz-adv-x="1298" 
d="M330 1255l315 295l111 -106l-316 -295zM702 1255l316 295l110 -106l-315 -295zM104 512q0 232 152 380t395 148q242 0 393.5 -148.5t151.5 -379.5q0 -234 -151.5 -383t-393.5 -149q-243 0 -395 149t-152 383zM303 512q0 -160 92 -260t256 -100q162 0 253 100t91 260
q0 157 -91.5 256.5t-252.5 99.5q-164 0 -256 -99.5t-92 -256.5z" />
    <glyph glyph-name="OE" unicode="&#x152;" horiz-adv-x="2340" 
d="M2238 1272h-722v-463h620v-172h-620v-465h722v-172h-921v197q-188 -217 -506 -217q-159 0 -289 57t-216.5 156.5t-133.5 235.5t-47 294t47 293t133.5 235t216.5 156.5t289 56.5q318 0 506 -217v197h921v-172zM811 152q238 0 361.5 155.5t123.5 415.5q0 169 -52 295
t-162.5 200t-270.5 74q-120 0 -214 -42t-153 -118t-89.5 -179.5t-30.5 -229.5q0 -260 124.5 -415.5t362.5 -155.5z" />
    <glyph glyph-name="oe" unicode="&#x153;" horiz-adv-x="2168" 
d="M1866 358h198q-11 -51 -33 -100t-62.5 -101t-93.5 -90t-133 -62.5t-175 -24.5q-162 0 -276.5 62t-178.5 171q-70 -110 -189.5 -171.5t-271.5 -61.5q-243 0 -395 149t-152 383q0 232 152 380t395 148q148 0 266.5 -59.5t190.5 -165.5q64 108 176.5 166.5t255.5 58.5
q223 0 356.5 -131.5t133.5 -363.5v-74h-801q3 -69 23 -125.5t58.5 -103t104 -72t152.5 -25.5q119 0 196 54.5t103 158.5zM1540 877q-143 0 -227 -77t-84 -190h608q0 115 -77 191t-220 76zM651 152q162 0 253 100t91 260q0 157 -91.5 256.5t-252.5 99.5q-164 0 -256 -99.5
t-92 -256.5q0 -160 92 -260t256 -100z" />
    <glyph glyph-name="Racute" unicode="&#x154;" horiz-adv-x="1382" 
d="M303 1749l662 166l36 -152l-661 -166zM145 0v1444h494q137 0 237 -18t180.5 -62t121.5 -125t41 -199q0 -289 -289 -338v-53h180q127 0 127 -123v-526h-199v565h-694v-565h-199zM344 737h295q57 0 96 2t82.5 8t71 17t55 31t42.5 48.5t24.5 69t9.5 93.5q0 52 -9.5 92.5
t-24.5 68.5t-42.5 47.5t-55 31t-71.5 17.5t-82.5 7.5t-95.5 1.5h-295v-535z" />
    <glyph glyph-name="racute" unicode="&#x155;" horiz-adv-x="929" 
d="M176 1325l662 166l39 -152l-664 -165zM154 0v893q0 150 147 147l588 -20v-172l-537 18v-866h-198z" />
    <glyph glyph-name="uni0156" unicode="&#x156;" horiz-adv-x="1382" 
d="M145 0v1444h494q137 0 237 -18t180.5 -62t121.5 -125t41 -199q0 -289 -289 -338v-53h180q127 0 127 -123v-526h-199v565h-694v-565h-199zM344 737h295q57 0 96 2t82.5 8t71 17t55 31t42.5 48.5t24.5 69t9.5 93.5q0 52 -9.5 92.5t-24.5 68.5t-42.5 47.5t-55 31t-71.5 17.5
t-82.5 7.5t-95.5 1.5h-295v-535zM627 -100l166 -50l-113 -339l-164 49z" />
    <glyph glyph-name="uni0157" unicode="&#x157;" horiz-adv-x="915" 
d="M137 0v893q0 150 148 147l587 -20v-172l-536 18v-866h-199zM143 -100l166 -50l-112 -339l-164 49z" />
    <glyph glyph-name="Rcaron" unicode="&#x158;" horiz-adv-x="1382" 
d="M1014 1845l-355 -276l-352 276l113 111l239 -193l242 193zM145 0v1444h494q137 0 237 -18t180.5 -62t121.5 -125t41 -199q0 -289 -289 -338v-53h180q127 0 127 -123v-526h-199v565h-694v-565h-199zM344 737h295q57 0 96 2t82.5 8t71 17t55 31t42.5 48.5t24.5 69t9.5 93.5
q0 52 -9.5 92.5t-24.5 68.5t-42.5 47.5t-55 31t-71.5 17.5t-82.5 7.5t-95.5 1.5h-295v-535z" />
    <glyph glyph-name="rcaron" unicode="&#x159;" horiz-adv-x="931" 
d="M885 1421l-355 -276l-352 276l113 111l239 -193l242 193zM152 0v893q0 150 147 147l588 -20v-172l-537 18v-866h-198z" />
    <glyph glyph-name="Sacute" unicode="&#x15a;" horiz-adv-x="1398" 
d="M344 1749l662 166l36 -152l-661 -166zM1315 371q0 -391 -567 -391q-149 0 -263 26t-189.5 73t-123 118.5t-68 155.5t-20.5 190h199q0 -116 30 -193.5t93 -120.5t145 -60t201 -17q184 0 274 49t90 161q0 32 -8 60t-25.5 51t-36 41.5t-51 36t-57.5 29.5t-67.5 26
t-69.5 22.5t-75.5 23t-74.5 22.5q-72 22 -119.5 38t-105.5 39.5t-94.5 46t-74.5 54.5t-59 67t-34.5 81.5t-13.5 101.5q0 175 129 268.5t393 93.5q154 0 270.5 -42.5t182.5 -114.5t98 -157.5t32 -182.5h-198q0 83 -30 147t-83.5 102t-122 57t-149.5 19q-324 0 -324 -188
q0 -40 14 -71.5t38 -55t70.5 -47t94 -41t127.5 -43.5q219 -69 283 -94q226 -90 299 -219q41 -72 41 -162z" />
    <glyph glyph-name="sacute" unicode="&#x15b;" horiz-adv-x="1044" 
d="M176 1325l662 166l36 -152l-661 -165zM981 268q0 -62 -21.5 -112t-68.5 -90.5t-130.5 -63t-197.5 -22.5q-247 0 -363 103t-116 292h199q0 -238 284 -238q110 0 162.5 29.5t52.5 97.5q0 22 -6.5 40.5t-14.5 32t-27 27t-33 21.5t-44 19t-47 17t-56.5 18t-59.5 18
q-50 15 -81.5 25.5t-74 28t-69 33.5t-55.5 39.5t-45.5 49.5t-27 61t-10.5 76q0 124 102 197t283 73q117 0 203.5 -29.5t134 -80t70 -109.5t22.5 -127h-198q0 92 -59 140.5t-173 48.5q-85 0 -135.5 -27.5t-50.5 -85.5q0 -62 51 -95t188 -77q17 -6 52 -17q52 -16 78.5 -25
t72 -27.5t69.5 -33t55 -39t46.5 -50t27 -61.5t11.5 -77z" />
    <glyph glyph-name="Scedilla" unicode="&#x15e;" horiz-adv-x="1398" 
d="M1315 371q0 -386 -551 -391l-94 -99q80 35 147 35q60 0 102 -29.5t42 -89.5q0 -41 -15 -71.5t-46 -50.5t-68.5 -33t-93.5 -19.5t-108.5 -9t-125.5 -2.5v137q192 0 240 11q56 15 57 51q0 40 -47 40q-56 0 -146 -51l-78 90l72 97q-144 15 -245.5 60.5t-160.5 119t-85.5 166
t-26.5 211.5h199q0 -116 30 -193.5t93 -120.5t145 -60t201 -17q184 0 274 49t90 161q0 32 -8 60t-25.5 51t-36 41.5t-51 36t-57.5 29.5t-67.5 26t-69.5 22.5t-75.5 23t-74.5 22.5q-72 22 -119.5 38t-105.5 39.5t-94.5 46t-74.5 54.5t-59 67t-34.5 81.5t-13.5 101.5
q0 175 129 268.5t393 93.5q154 0 270.5 -42.5t182.5 -114.5t98 -157.5t32 -182.5h-198q0 83 -30 147t-83.5 102t-122 57t-149.5 19q-324 0 -324 -188q0 -40 14 -71.5t38 -55t70.5 -47t94 -41t127.5 -43.5q219 -69 283 -94q226 -90 299 -219q41 -72 41 -162z" />
    <glyph glyph-name="scedilla" unicode="&#x15f;" horiz-adv-x="1044" 
d="M981 268q0 -125 -89.5 -203t-291.5 -85l-96 -99q80 35 147 35q60 0 102 -29.5t42 -89.5q0 -41 -15 -71.5t-46 -50.5t-68.5 -33t-93.5 -19.5t-108.5 -9t-125.5 -2.5v137q192 0 240 11q56 15 57 51q0 40 -47 40q-56 0 -146 -51l-77 90l73 99q-354 50 -354 387h199
q0 -238 284 -238q110 0 162.5 29.5t52.5 97.5q0 22 -6.5 40.5t-14.5 32t-27 27t-33 21.5t-44 19t-47 17t-56.5 18t-59.5 18q-50 15 -81.5 25.5t-74 28t-69 33.5t-55.5 39.5t-45.5 49.5t-27 61t-10.5 76q0 124 102 197t283 73q117 0 203.5 -29.5t134 -80t70 -109.5t22.5 -127
h-198q0 92 -59 140.5t-173 48.5q-85 0 -135.5 -27.5t-50.5 -85.5q0 -62 51 -95t188 -77q17 -6 52 -17q52 -16 78.5 -25t72 -27.5t69.5 -33t55 -39t46.5 -50t27 -61.5t11.5 -77z" />
    <glyph glyph-name="Scaron" unicode="&#x160;" horiz-adv-x="1398" 
d="M1055 1845l-355 -276l-352 276l113 111l239 -193l242 193zM1315 371q0 -391 -567 -391q-149 0 -263 26t-189.5 73t-123 118.5t-68 155.5t-20.5 190h199q0 -116 30 -193.5t93 -120.5t145 -60t201 -17q184 0 274 49t90 161q0 32 -8 60t-25.5 51t-36 41.5t-51 36t-57.5 29.5
t-67.5 26t-69.5 22.5t-75.5 23t-74.5 22.5q-72 22 -119.5 38t-105.5 39.5t-94.5 46t-74.5 54.5t-59 67t-34.5 81.5t-13.5 101.5q0 175 129 268.5t393 93.5q154 0 270.5 -42.5t182.5 -114.5t98 -157.5t32 -182.5h-198q0 83 -30 147t-83.5 102t-122 57t-149.5 19
q-324 0 -324 -188q0 -40 14 -71.5t38 -55t70.5 -47t94 -41t127.5 -43.5q219 -69 283 -94q226 -90 299 -219q41 -72 41 -162z" />
    <glyph glyph-name="scaron" unicode="&#x161;" horiz-adv-x="1044" 
d="M887 1421l-355 -276l-352 276l113 111l239 -193l242 193zM981 268q0 -62 -21.5 -112t-68.5 -90.5t-130.5 -63t-197.5 -22.5q-247 0 -363 103t-116 292h199q0 -238 284 -238q110 0 162.5 29.5t52.5 97.5q0 22 -6.5 40.5t-14.5 32t-27 27t-33 21.5t-44 19t-47 17t-56.5 18
t-59.5 18q-50 15 -81.5 25.5t-74 28t-69 33.5t-55.5 39.5t-45.5 49.5t-27 61t-10.5 76q0 124 102 197t283 73q117 0 203.5 -29.5t134 -80t70 -109.5t22.5 -127h-198q0 92 -59 140.5t-173 48.5q-85 0 -135.5 -27.5t-50.5 -85.5q0 -62 51 -95t188 -77q17 -6 52 -17
q52 -16 78.5 -25t72 -27.5t69.5 -33t55 -39t46.5 -50t27 -61.5t11.5 -77z" />
    <glyph glyph-name="uni0162" unicode="&#x162;" horiz-adv-x="1355" 
d="M778 0h-14l-115 -119q80 35 148 35q60 0 101.5 -29.5t41.5 -89.5q0 -41 -15 -71.5t-46 -50.5t-68.5 -33t-93.5 -19.5t-108.5 -9t-125.5 -2.5v137q192 0 240 11q56 15 57 51q0 40 -47 40q-55 0 -145 -51l-78 90l82 111h-12v1272h-496v172h1190v-172h-496v-1272z" />
    <glyph glyph-name="uni0163" unicode="&#x163;" horiz-adv-x="915" 
d="M834 0l-199 -10l-105 -109q80 35 148 35q60 0 101.5 -29.5t41.5 -89.5q0 -41 -15 -71.5t-46 -50.5t-68 -33t-93 -19.5t-108.5 -9t-125.5 -2.5v137q192 0 240 11q56 15 57 51q0 40 -48 40q-55 0 -145 -51l-78 90l68 93l-41 -2q-148 -9 -148 147v721h-227v172h227v250
l199 61v-311h324v-172h-324v-698l365 22v-172z" />
    <glyph glyph-name="Tcaron" unicode="&#x164;" horiz-adv-x="1355" 
d="M1032 1845l-354 -276l-352 276l112 111l240 -193l242 193zM1274 1444v-172h-496v-1272h-198v1272h-496v172h1190z" />
    <glyph glyph-name="tcaron" unicode="&#x165;" horiz-adv-x="915" 
d="M768 1505v-368h-172v368h172zM469 150l365 22v-172l-416 -20q-148 -9 -148 147v721h-227v172h227v250l199 61v-311h324v-172h-324v-698z" />
    <glyph glyph-name="Tbar" unicode="&#x166;" horiz-adv-x="1355" 
d="M1274 1272h-496v-465h316v-160h-316v-647h-198v647h-316v160h316v465h-496v172h1190v-172z" />
    <glyph glyph-name="tbar" unicode="&#x167;" horiz-adv-x="915" 
d="M469 150l365 22v-172l-416 -20q-148 -9 -148 147v375h-186v157h186v189h-227v172h227v250l199 61v-311h324v-172h-324v-189h266v-157h-266v-352z" />
    <glyph glyph-name="Umacron" unicode="&#x16a;" horiz-adv-x="1384" 
d="M340 1839h704v-156l-704 -4v160zM104 537v907h199v-858q0 -111 18.5 -188.5t62 -134.5t119 -84t187.5 -27q218 0 304.5 105t86.5 329v858h199v-907q0 -274 -146.5 -415.5t-443.5 -141.5q-586 0 -586 557z" />
    <glyph glyph-name="umacron" unicode="&#x16b;" horiz-adv-x="1247" 
d="M287 1415h704v-155l-704 -5v160zM571 152q160 0 256.5 113.5t96.5 318.5v436h200v-1020h-200v166l34 129h-55q-32 -144 -131.5 -229.5t-259.5 -85.5q-182 0 -284.5 109.5t-102.5 322.5v608h199v-582q0 -153 59 -219.5t188 -66.5z" />
    <glyph glyph-name="Uring" unicode="&#x16e;" horiz-adv-x="1384" 
d="M688 1567q-120 0 -188 64.5t-68 164.5q0 99 68.5 163t187.5 64q121 0 190.5 -64t69.5 -163t-69.5 -164t-190.5 -65zM688 1706q49 0 76 23.5t27 66.5q0 41 -27.5 64.5t-75.5 23.5q-47 0 -72.5 -23t-25.5 -65q0 -43 25.5 -66.5t72.5 -23.5zM104 537v907h199v-858
q0 -111 18.5 -188.5t62 -134.5t119 -84t187.5 -27q218 0 304.5 105t86.5 329v858h199v-907q0 -274 -146.5 -415.5t-443.5 -141.5q-586 0 -586 557z" />
    <glyph glyph-name="uring" unicode="&#x16f;" horiz-adv-x="1247" 
d="M635 1143q-120 0 -188 64.5t-68 164.5q0 99 68.5 163t187.5 64q121 0 190.5 -64t69.5 -163t-69.5 -164t-190.5 -65zM635 1282q49 0 75.5 23.5t26.5 66.5q0 41 -27.5 64.5t-74.5 23.5t-72.5 -23t-25.5 -65q0 -43 25.5 -66.5t72.5 -23.5zM571 152q160 0 256.5 113.5
t96.5 318.5v436h200v-1020h-200v166l34 129h-55q-32 -144 -131.5 -229.5t-259.5 -85.5q-182 0 -284.5 109.5t-102.5 322.5v608h199v-582q0 -153 59 -219.5t188 -66.5z" />
    <glyph glyph-name="Uhungarumlaut" unicode="&#x170;" horiz-adv-x="1384" 
d="M371 1679l315 295l111 -106l-316 -295zM743 1679l316 295l110 -106l-315 -295zM104 537v907h199v-858q0 -111 18.5 -188.5t62 -134.5t119 -84t187.5 -27q218 0 304.5 105t86.5 329v858h199v-907q0 -274 -146.5 -415.5t-443.5 -141.5q-586 0 -586 557z" />
    <glyph glyph-name="uhungarumlaut" unicode="&#x171;" horiz-adv-x="1247" 
d="M317 1255l316 295l110 -106l-315 -295zM690 1255l316 295l110 -106l-315 -295zM571 152q160 0 256.5 113.5t96.5 318.5v436h200v-1020h-200v166l34 129h-55q-32 -144 -131.5 -229.5t-259.5 -85.5q-182 0 -284.5 109.5t-102.5 322.5v608h199v-582q0 -153 59 -219.5
t188 -66.5z" />
    <glyph glyph-name="Uogonek" unicode="&#x172;" horiz-adv-x="1384" 
d="M1081 1444h199v-907q0 -453 -389 -537l-121 -238l360 37v-157l-399 -37q-85 -6 -124.5 50.5t-0.5 121.5l113 203h-29q-586 0 -586 557v907h199v-858q0 -111 18.5 -188.5t62 -134.5t119 -84t187.5 -27q218 0 304.5 105t86.5 329v858z" />
    <glyph glyph-name="uogonek" unicode="&#x173;" horiz-adv-x="1247" 
d="M1001 -238l361 37v-157l-399 -37q-85 -6 -124.5 50.5t-0.5 121.5l123 223h-37v166l34 129h-55q-32 -144 -131.5 -229.5t-259.5 -85.5q-182 0 -284.5 109.5t-102.5 322.5v608h199v-582q0 -153 59 -219.5t188 -66.5q160 0 256.5 113.5t96.5 318.5v436h200v-1020h-2z" />
    <glyph glyph-name="Wcircumflex" unicode="&#x174;" horiz-adv-x="2138" 
d="M1423 1675l-112 -110l-242 192l-240 -192l-112 110l352 277zM63 1444h191l283 -1389h53l272 1389h414l272 -1389h54l282 1389h191l-295 -1444h-410l-274 1389h-54l-274 -1389h-410z" />
    <glyph glyph-name="wcircumflex" unicode="&#x175;" horiz-adv-x="1796" 
d="M1251 1251l-112 -110l-242 192l-240 -192l-112 110l352 277zM43 1020h190l224 -965h53l182 965h414l180 -965h55l224 965h190l-235 -1020h-412l-182 967h-56l-182 -967h-409z" />
    <glyph glyph-name="Ycircumflex" unicode="&#x176;" horiz-adv-x="1376" 
d="M1040 1675l-112 -110l-242 192l-240 -192l-112 110l352 277zM1100 1444h213l-527 -920v-524h-198v524l-525 920h213l383 -684v-129h56v129z" />
    <glyph glyph-name="ycircumflex" unicode="&#x177;" horiz-adv-x="1243" 
d="M633 1333l-240 -192l-112 110l352 277l354 -277l-113 -110zM961 1020h221l-449 -1000v-290q0 -66 -37.5 -101t-109.5 -32l-416 18v172l362 -14v247l-448 1000h219l303 -746v-96h53v96z" />
    <glyph glyph-name="Ydieresis" unicode="&#x178;" horiz-adv-x="1376" 
d="M463 1595q-70 0 -114 41.5t-44 106.5q0 63 44 104t114 41t116 -41t46 -104q0 -64 -45.5 -106t-116.5 -42zM907 1595q-70 0 -114.5 41.5t-44.5 106.5q0 63 44.5 104t114.5 41t116 -41t46 -104q0 -64 -45.5 -106t-116.5 -42zM1100 1444h213l-527 -920v-524h-198v524
l-525 920h213l383 -684v-129h56v129z" />
    <glyph glyph-name="Zacute" unicode="&#x179;" horiz-adv-x="1341" 
d="M315 1749l662 166l37 -152l-662 -166zM104 0v381l1080 870v56l-131 -35h-949v172h1133v-381l-1079 -870v-56l131 35h948v-172h-1133z" />
    <glyph glyph-name="zacute" unicode="&#x17a;" horiz-adv-x="1157" 
d="M223 1325l662 166l37 -152l-662 -165zM104 0v356l895 471v56l-131 -35h-764v172h949v-356l-895 -471v-56l131 35h764v-172h-949z" />
    <glyph glyph-name="Zdotaccent" unicode="&#x17b;" horiz-adv-x="1341" 
d="M670 1595q-70 0 -114 41.5t-44 106.5q0 63 44 104t114 41t115.5 -41t45.5 -104q0 -65 -45.5 -106.5t-115.5 -41.5zM104 0v381l1080 870v56l-131 -35h-949v172h1133v-381l-1079 -870v-56l131 35h948v-172h-1133z" />
    <glyph glyph-name="zdotaccent" unicode="&#x17c;" horiz-adv-x="1157" 
d="M578 1171q-70 0 -114 41.5t-44 106.5q0 63 44 104t114 41t115.5 -41t45.5 -104q0 -65 -45.5 -106.5t-115.5 -41.5zM104 0v356l895 471v56l-131 -35h-764v172h949v-356l-895 -471v-56l131 35h764v-172h-949z" />
    <glyph glyph-name="Zcaron" unicode="&#x17d;" horiz-adv-x="1341" 
d="M1026 1845l-354 -276l-353 276l113 111l240 -193l241 193zM104 0v381l1080 870v56l-131 -35h-949v172h1133v-381l-1079 -870v-56l131 35h948v-172h-1133z" />
    <glyph glyph-name="zcaron" unicode="&#x17e;" horiz-adv-x="1157" 
d="M934 1421l-354 -276l-353 276l113 111l240 -193l241 193zM104 0v356l895 471v56l-131 -35h-764v172h949v-356l-895 -471v-56l131 35h764v-172h-949z" />
    <glyph glyph-name="uni0218" unicode="&#x218;" horiz-adv-x="1398" 
d="M1315 371q0 -391 -567 -391q-149 0 -263 26t-189.5 73t-123 118.5t-68 155.5t-20.5 190h199q0 -116 30 -193.5t93 -120.5t145 -60t201 -17q184 0 274 49t90 161q0 32 -8 60t-25.5 51t-36 41.5t-51 36t-57.5 29.5t-67.5 26t-69.5 22.5t-75.5 23t-74.5 22.5
q-72 22 -119.5 38t-105.5 39.5t-94.5 46t-74.5 54.5t-59 67t-34.5 81.5t-13.5 101.5q0 175 129 268.5t393 93.5q154 0 270.5 -42.5t182.5 -114.5t98 -157.5t32 -182.5h-198q0 83 -30 147t-83.5 102t-122 57t-149.5 19q-324 0 -324 -188q0 -40 14 -71.5t38 -55t70.5 -47
t94 -41t127.5 -43.5q219 -69 283 -94q226 -90 299 -219q41 -72 41 -162zM604 -100l166 -50l-113 -339l-163 49z" />
    <glyph glyph-name="uni0219" unicode="&#x219;" horiz-adv-x="1044" 
d="M981 268q0 -62 -21.5 -112t-68.5 -90.5t-130.5 -63t-197.5 -22.5q-247 0 -363 103t-116 292h199q0 -238 284 -238q110 0 162.5 29.5t52.5 97.5q0 22 -6.5 40.5t-14.5 32t-27 27t-33 21.5t-44 19t-47 17t-56.5 18t-59.5 18q-50 15 -81.5 25.5t-74 28t-69 33.5t-55.5 39.5
t-45.5 49.5t-27 61t-10.5 76q0 124 102 197t283 73q117 0 203.5 -29.5t134 -80t70 -109.5t22.5 -127h-198q0 92 -59 140.5t-173 48.5q-85 0 -135.5 -27.5t-50.5 -85.5q0 -62 51 -95t188 -77q17 -6 52 -17q52 -16 78.5 -25t72 -27.5t69.5 -33t55 -39t46.5 -50t27 -61.5
t11.5 -77zM438 -100l166 -50l-112 -339l-164 49z" />
    <glyph glyph-name="uni021A" unicode="&#x21a;" horiz-adv-x="1355" 
d="M1274 1444v-172h-496v-1272h-198v1272h-496v172h1190zM473 -440l111 340l166 -50l-113 -339z" />
    <glyph glyph-name="uni021B" unicode="&#x21b;" horiz-adv-x="915" 
d="M469 150l365 22v-172l-416 -20q-148 -9 -148 147v721h-227v172h227v250l199 61v-311h324v-172h-324v-698zM354 -440l111 340l166 -50l-113 -339z" />
    <glyph glyph-name="circumflex" unicode="&#x2c6;" horiz-adv-x="1038" 
d="M872 1251l-112 -110l-242 192l-239 -192l-113 110l352 277z" />
    <glyph glyph-name="caron" unicode="&#x2c7;" horiz-adv-x="1038" 
d="M872 1421l-354 -276l-352 276l113 111l239 -193l242 193z" />
    <glyph glyph-name="breve" unicode="&#x2d8;" horiz-adv-x="993" 
d="M827 1513q0 -162 -87 -263t-244 -101t-243.5 101t-86.5 263h158q0 -112 40.5 -162.5t131.5 -50.5t132.5 50.5t41.5 162.5h157z" />
    <glyph glyph-name="dotaccent" unicode="&#x2d9;" horiz-adv-x="651" 
d="M324 1171q-70 0 -114 41.5t-44 106.5q0 63 44 104t114 41t115.5 -41t45.5 -104q0 -65 -45.5 -106.5t-115.5 -41.5z" />
    <glyph glyph-name="ring" unicode="&#x2da;" horiz-adv-x="792" 
d="M422 1143q-120 0 -188 64.5t-68 164.5q0 99 68.5 163t187.5 64q121 0 190.5 -64t69.5 -163t-69.5 -164t-190.5 -65zM422 1282q49 0 75.5 23.5t26.5 66.5q0 41 -27.5 64.5t-74.5 23.5t-72.5 -23t-25.5 -65q0 -43 25.5 -66.5t72.5 -23.5z" />
    <glyph glyph-name="ogonek" unicode="&#x2db;" horiz-adv-x="872" 
d="M709 -201v-157l-400 -37q-85 -6 -124.5 50.5t-0.5 121.5l125 225h162l-123 -240z" />
    <glyph glyph-name="tilde" unicode="&#x2dc;" horiz-adv-x="1114" 
d="M166 1208q0 153 60.5 227t166.5 74q48 0 90 -17t71 -40.5t54 -47.5t51 -41t50 -17q39 0 60.5 29t21.5 114h157q0 -151 -60.5 -226t-166.5 -75q-48 0 -90 17t-71 41t-54 48t-50.5 41t-49.5 17q-39 0 -60.5 -29.5t-21.5 -114.5h-158z" />
    <glyph glyph-name="hungarumlaut" unicode="&#x2dd;" horiz-adv-x="1128" 
d="M166 1255l315 295l111 -106l-316 -295zM539 1255l315 295l111 -106l-316 -295z" />
    <glyph glyph-name="gravecomb" unicode="&#x300;" horiz-adv-x="0" 
d="M-166 1325l-37 -151l-661 165l37 152z" />
    <glyph glyph-name="acutecomb" unicode="&#x301;" horiz-adv-x="0" 
d="M-864 1325l661 166l37 -152l-661 -165z" />
    <glyph glyph-name="uni0302" unicode="&#x302;" horiz-adv-x="0" 
d="M-166 1251l-113 -110l-241 192l-240 -192l-112 110l352 277z" />
    <glyph glyph-name="tildecomb" unicode="&#x303;" horiz-adv-x="0" 
d="M-948 1208q0 153 60.5 227t166.5 74q48 0 90 -17t71 -40.5t54 -47.5t50.5 -41t49.5 -17q39 0 60.5 29t21.5 114h158q0 -151 -60.5 -226t-166.5 -75q-48 0 -90 17t-71 41t-54 48t-51 41t-50 17q-39 0 -60.5 -29.5t-21.5 -114.5h-157z" />
    <glyph glyph-name="uni0304" unicode="&#x304;" horiz-adv-x="0" 
d="M-868 1415h704v-155l-704 -5v160z" />
    <glyph glyph-name="uni0306" unicode="&#x306;" horiz-adv-x="0" 
d="M-166 1513q0 -162 -87.5 -263t-244.5 -101t-243 101t-86 263h157q0 -112 40.5 -162.5t131.5 -50.5t132.5 50.5t41.5 162.5h158z" />
    <glyph glyph-name="uni0307" unicode="&#x307;" horiz-adv-x="0" 
d="M-328 1171q-70 0 -113.5 41.5t-43.5 106.5q0 64 43.5 104.5t113.5 40.5t116 -41t46 -104q0 -64 -45.5 -106t-116.5 -42z" />
    <glyph glyph-name="uni0308" unicode="&#x308;" horiz-adv-x="0" 
d="M-772 1171q-70 0 -114 41.5t-44 106.5q0 63 44 104t114 41t116 -41t46 -104q0 -64 -45.5 -106t-116.5 -42zM-328 1171q-70 0 -114.5 41.5t-44.5 106.5q0 63 44.5 104t114.5 41t116 -41t46 -104q0 -64 -45.5 -106t-116.5 -42z" />
    <glyph glyph-name="uni030A" unicode="&#x30a;" horiz-adv-x="0" 
d="M-426 1143q-120 0 -188 64.5t-68 164.5q0 99 68.5 163t187.5 64q121 0 190.5 -64t69.5 -163t-69.5 -164t-190.5 -65zM-426 1282q49 0 75.5 23.5t26.5 66.5q0 41 -27.5 64.5t-74.5 23.5t-72.5 -23t-25.5 -65q0 -43 25.5 -66.5t72.5 -23.5z" />
    <glyph glyph-name="uni030B" unicode="&#x30b;" horiz-adv-x="0" 
d="M-963 1255l316 295l110 -106l-315 -295zM-590 1255l316 295l110 -106l-315 -295z" />
    <glyph glyph-name="uni030C" unicode="&#x30c;" horiz-adv-x="0" 
d="M-166 1421l-354 -276l-352 276l112 111l240 -193l241 193z" />
    <glyph glyph-name="uni0312" unicode="&#x312;" horiz-adv-x="0" 
d="M-332 1602l168 -46l-115 -385l-165 43z" />
    <glyph glyph-name="uni0326" unicode="&#x326;" horiz-adv-x="0" 
d="M-342 -100l166 -50l-113 -339l-164 49z" />
    <glyph glyph-name="uni0327" unicode="&#x327;" horiz-adv-x="0" 
d="M-307 -84q60 0 101.5 -29.5t41.5 -89.5q0 -41 -15 -71.5t-46 -50.5t-68.5 -33t-93.5 -19.5t-108.5 -9t-125.5 -2.5v137q192 0 240 11q57 13 57 51q0 40 -47 40q-55 0 -145 -51l-78 90l82 111h172l-115 -119q80 35 148 35z" />
    <glyph glyph-name="uni0328" unicode="&#x328;" horiz-adv-x="0" 
d="M-164 -201v-157l-399 -37q-85 -6 -124.5 50.5t-0.5 121.5l125 225h162l-123 -240z" />
    <glyph glyph-name="uni0400" unicode="&#x400;" horiz-adv-x="1169" 
d="M963 1749l-37 -152l-662 166l37 152zM145 0v1444h920v-172h-721v-463h619v-172h-619v-465h721v-172h-920z" />
    <glyph glyph-name="uni0401" unicode="&#x401;" horiz-adv-x="1169" 
d="M383 1595q-70 0 -114 41.5t-44 106.5q0 63 44 104t114 41t116 -41t46 -104q0 -64 -45.5 -106t-116.5 -42zM827 1595q-70 0 -114.5 41.5t-44.5 106.5q0 63 44.5 104t114.5 41t116 -41t46 -104q0 -64 -45.5 -106t-116.5 -42zM145 0v1444h920v-172h-721v-463h619v-172h-619
v-465h721v-172h-920z" />
    <glyph glyph-name="uni0402" unicode="&#x402;" horiz-adv-x="1677" 
d="M1030 893q274 36 408.5 -71t134.5 -337q0 -114 -31.5 -200.5t-83 -139.5t-126.5 -86.5t-153.5 -46t-172.5 -12.5v172q105 0 178 21.5t114 63.5t58.5 95t17.5 125q0 156 -87 214.5t-263 33.5l-274 -41v-684h-199v1272h-488v172h1174v-172h-487v-416z" />
    <glyph glyph-name="uni0403" unicode="&#x403;" horiz-adv-x="1126" 
d="M260 1749l662 166l36 -152l-661 -166zM145 0v1444h899v-172h-700v-1272h-199z" />
    <glyph glyph-name="uni0404" unicode="&#x404;" horiz-adv-x="1601" 
d="M813 152q199 0 319.5 106.5t145.5 300.5h199q-32 -270 -208 -424.5t-456 -154.5q-159 0 -289.5 57t-217 156.5t-134 235.5t-47.5 294q0 157 47.5 292.5t134 235.5t217 156.5t289.5 56.5q280 0 456 -154.5t208 -422.5h-199q-25 194 -145.5 299.5t-319.5 105.5
q-214 0 -339 -129.5t-146 -353.5h592v-172h-592q21 -225 146 -355t339 -130z" />
    <glyph glyph-name="uni0405" unicode="&#x405;" horiz-adv-x="1398" 
d="M1315 371q0 -391 -567 -391q-149 0 -263 26t-189.5 73t-123 118.5t-68 155.5t-20.5 190h199q0 -116 30 -193.5t93 -120.5t145 -60t201 -17q184 0 274 49t90 161q0 32 -8 60t-25.5 51t-36 41.5t-51 36t-57.5 29.5t-67.5 26t-69.5 22.5t-75.5 23t-74.5 22.5
q-72 22 -119.5 38t-105.5 39.5t-94.5 46t-74.5 54.5t-59 67t-34.5 81.5t-13.5 101.5q0 175 129 268.5t393 93.5q154 0 270.5 -42.5t182.5 -114.5t98 -157.5t32 -182.5h-198q0 83 -30 147t-83.5 102t-122 57t-149.5 19q-324 0 -324 -188q0 -40 14 -71.5t38 -55t70.5 -47
t94 -41t127.5 -43.5q219 -69 283 -94q226 -90 299 -219q41 -72 41 -162z" />
    <glyph glyph-name="uni0406" unicode="&#x406;" horiz-adv-x="1095" 
d="M971 1272h-324v-1100h324v-172h-846v172h324v1100h-324v172h846v-172z" />
    <glyph glyph-name="uni0407" unicode="&#x407;" horiz-adv-x="1095" 
d="M324 1595q-70 0 -114 41.5t-44 106.5q0 63 44 104t114 41t115.5 -41t45.5 -104q0 -65 -45.5 -106.5t-115.5 -41.5zM768 1595q-70 0 -115 41.5t-45 106.5q0 63 45 104t115 41t116 -41t46 -104q0 -64 -45.5 -106t-116.5 -42zM971 1272h-324v-1100h324v-172h-846v172h324
v1100h-324v172h846v-172z" />
    <glyph glyph-name="uni0408" unicode="&#x408;" horiz-adv-x="993" 
d="M401 -20l-338 20v172l338 -20q52 -3 90.5 5t67.5 24.5t48.5 49t32 70t19 96.5t9 119.5t2.5 147.5v628l-389 -20v172l454 20q64 3 98.5 -32.5t34.5 -100.5v-704q0 -96 -4.5 -168t-16.5 -145t-33.5 -124t-56.5 -95.5t-84 -70t-117 -37.5t-155 -7z" />
    <glyph glyph-name="uni0409" unicode="&#x409;" horiz-adv-x="2224" 
d="M1542 918q109 0 193 -12t159 -43t123.5 -82t76.5 -132t28 -190q0 -110 -28 -191t-76.5 -132t-123.5 -82t-159 -42.5t-193 -11.5h-455v1272h-512q0 -130 -2.5 -226.5t-8.5 -211.5t-17 -199.5t-30.5 -176t-46 -156t-65 -125t-87.5 -97t-113 -58.5t-142 -22v172
q170 0 243 241q60 201 67 668q2 110 2 344v19h913v-526h254zM1542 172q81 0 136 6t104.5 23.5t78 49t44.5 83t16 125.5q0 73 -16 124t-44.5 83t-78 49.5t-104.5 23.5t-136 6h-254v-573h254z" />
    <glyph glyph-name="uni040A" unicode="&#x40a;" horiz-adv-x="2306" 
d="M1624 918q109 0 193 -12t159 -43t123.5 -82t76.5 -132t28 -190q0 -110 -28 -191t-76.5 -132t-123.5 -82t-159 -42.5t-193 -11.5h-455v625h-825v-625h-199v1444h199v-647h825v647h201v-526h254zM1624 172q81 0 136 6t104.5 23.5t78 49t44.5 83t16 125.5q0 73 -16 124
t-44.5 83t-78 49.5t-104.5 23.5t-136 6h-254v-573h254z" />
    <glyph glyph-name="uni040B" unicode="&#x40b;" horiz-adv-x="1701" 
d="M1409 961q147 6 147 -146v-815h-198v786l-764 -38v-748h-199v1272h-332v172h1147v-172h-616v-352z" />
    <glyph glyph-name="uni040C" unicode="&#x40c;" horiz-adv-x="1308" 
d="M991 1763l-661 -166l-37 152l661 166zM1247 0h-241l-557 635q-39 -17 -82 -17h-23v-618h-199v1444h199v-649h23l452 567q67 82 162 82h252v-172h-248l-403 -504z" />
    <glyph glyph-name="uni040D" unicode="&#x40d;" horiz-adv-x="1572" 
d="M1130 1749l-36 -152l-662 166l37 152zM1427 0h-200v1253l35 136h-56l-661 -1389h-400v1444h199v-1254l-35 -135h56l663 1389h399v-1444z" />
    <glyph glyph-name="uni040F" unicode="&#x40f;" horiz-adv-x="1431" 
d="M1087 1444h201v-1444h-473v-272h-199v272h-471v1444h199v-1272h743v1272z" />
    <glyph glyph-name="uni0410" unicode="&#x410;" horiz-adv-x="1447" 
d="M1186 0l-170 545h-584l-170 -545h-199l455 1444h412l454 -1444h-198zM485 717h478l-211 672h-56z" />
    <glyph glyph-name="uni0411" unicode="&#x411;" horiz-adv-x="1302" 
d="M598 918q109 0 193 -12t159 -43t123.5 -82t76.5 -132t28 -190q0 -110 -28 -191t-76.5 -132t-123.5 -82t-159 -42.5t-193 -11.5h-453v1444h877v-172h-678v-354h254zM598 172q81 0 136.5 6t105 23.5t78 49t45 83t16.5 125.5q0 73 -16.5 124t-45 83t-78 49.5t-105 23.5
t-136.5 6h-254v-573h254z" />
    <glyph glyph-name="uni0412" unicode="&#x412;" horiz-adv-x="1345" 
d="M145 0v1444h406q144 0 243 -15.5t174 -54.5t110.5 -109t35.5 -175q0 -79 -25 -138t-69 -93t-94 -51t-111 -22v-53q70 -2 127.5 -13t110.5 -36t89 -63.5t57.5 -99t21.5 -138.5q0 -87 -28 -153.5t-77.5 -110t-124.5 -70.5t-162 -38t-198 -11h-486zM344 838h221
q71 0 120 4.5t95.5 17.5t74 36.5t44 63t16.5 95.5q0 50 -10 87t-33.5 60.5t-50 38t-71.5 21t-83.5 8.5t-101.5 2h-221v-434zM344 172h301q97 0 160 9t115.5 34t77 75t24.5 128q0 142 -92.5 195t-284.5 53h-301v-494z" />
    <glyph glyph-name="uni0413" unicode="&#x413;" horiz-adv-x="1126" 
d="M145 0v1444h899v-172h-700v-1272h-199z" />
    <glyph glyph-name="uni0414" unicode="&#x414;" horiz-adv-x="1501" 
d="M1303 172h135v-444h-199v272h-977v-272h-199v444h136q98 223 141 520t43 752h920v-1272zM397 172h707v1100h-522q-7 -378 -51 -638t-134 -462z" />
    <glyph glyph-name="uni0415" unicode="&#x415;" horiz-adv-x="1169" 
d="M145 0v1444h920v-172h-721v-463h619v-172h-619v-465h721v-172h-920z" />
    <glyph glyph-name="uni0416" unicode="&#x416;" horiz-adv-x="2103" 
d="M2040 1272h-248l-416 -518l664 -754h-246l-553 629q-37 -11 -67 -11h-23v-618h-199v618h-24q-29 0 -66 11l-553 -629h-246l664 754l-416 518h-248v172h252q95 0 162 -82l451 -567h24v649h199v-649h23l452 567q67 82 162 82h252v-172z" />
    <glyph glyph-name="uni0417" unicode="&#x417;" horiz-adv-x="1415" 
d="M125 551h199q0 -218 96.5 -308.5t312.5 -90.5q186 0 272.5 69t86.5 205q0 246 -265 246h-200v172h200q244 0 244 209q0 114 -79 176.5t-259 62.5q-209 0 -299 -78t-90 -245h-199q0 245 152.5 370t435.5 125q255 0 396 -104.5t141 -280.5q0 -133 -73.5 -202.5
t-217.5 -92.5v-55q74 -13 127 -34.5t96.5 -58.5t65.5 -96.5t22 -142.5q0 -197 -148 -307t-409 -110q-291 0 -449.5 138t-158.5 433z" />
    <glyph glyph-name="uni0418" unicode="&#x418;" horiz-adv-x="1572" 
d="M1427 0h-200v1253l35 136h-56l-661 -1389h-400v1444h199v-1254l-35 -135h56l663 1389h399v-1444z" />
    <glyph glyph-name="uni0419" unicode="&#x419;" horiz-adv-x="1572" 
d="M1106 1937q0 -162 -87.5 -263t-244.5 -101t-243.5 101t-86.5 263h158q0 -112 40.5 -162.5t131.5 -50.5t132.5 50.5t41.5 162.5h158zM1427 0h-200v1253l35 136h-56l-661 -1389h-400v1444h199v-1254l-35 -135h56l663 1389h399v-1444z" />
    <glyph glyph-name="uni041A" unicode="&#x41a;" horiz-adv-x="1308" 
d="M1247 0h-241l-557 635q-39 -17 -82 -17h-23v-618h-199v1444h199v-649h23l452 567q67 82 162 82h252v-172h-248l-403 -504z" />
    <glyph glyph-name="uni041B" unicode="&#x41b;" horiz-adv-x="1431" 
d="M1288 1444v-1444h-201v1272h-512q0 -130 -2.5 -226.5t-8.5 -211.5t-17 -199.5t-30.5 -176t-46 -156t-65 -125t-87.5 -97t-113 -58.5t-142 -22v172q170 0 243 241q60 201 67 668q2 110 2 344v19h913z" />
    <glyph glyph-name="uni041C" unicode="&#x41c;" horiz-adv-x="1882" 
d="M145 0v1444h398l370 -1389h56l370 1389h398v-1444h-199v1253l33 136h-53l-379 -1389h-398l-376 1389h-56l35 -136v-1253h-199z" />
    <glyph glyph-name="uni041D" unicode="&#x41d;" horiz-adv-x="1513" 
d="M1169 1444h201v-1444h-201v625h-825v-625h-199v1444h199v-647h825v647z" />
    <glyph glyph-name="uni041E" unicode="&#x41e;" horiz-adv-x="1619" 
d="M125 723q0 158 47 293t133.5 235t216.5 156.5t289 56.5q158 0 288 -56.5t216 -156.5t133 -235.5t47 -292.5q0 -158 -47 -294t-133 -235.5t-216 -156.5t-288 -57q-159 0 -289 57t-216.5 156.5t-133.5 235.5t-47 294zM324 723q0 -260 124.5 -415.5t362.5 -155.5
t361.5 155.5t123.5 415.5q0 169 -52 295t-162.5 200t-270.5 74q-120 0 -214 -42t-153 -118t-89.5 -179.5t-30.5 -229.5z" />
    <glyph glyph-name="uni041F" unicode="&#x41f;" horiz-adv-x="1419" 
d="M1274 1444v-1444h-199v1272h-731v-1272h-199v1444h1129z" />
    <glyph glyph-name="uni0420" unicode="&#x420;" horiz-adv-x="1282" 
d="M571 1444q116 0 204 -12.5t166.5 -44.5t128.5 -85t79 -138t29 -199t-29 -199t-79 -138.5t-128.5 -85.5t-166.5 -44.5t-204 -12.5h-227v-485h-199v1444h426zM578 657q78 0 133.5 6t109 25t86 52.5t52.5 89.5t20 135t-20 135t-52.5 89t-86.5 52t-109 25t-133 6h-234v-615
h234z" />
    <glyph glyph-name="uni0421" unicode="&#x421;" horiz-adv-x="1601" 
d="M125 723q0 157 47.5 292.5t134 235.5t217 156.5t289.5 56.5q280 0 456 -154.5t208 -422.5h-199q-25 194 -145.5 299.5t-319.5 105.5q-234 0 -361.5 -154.5t-127.5 -414.5q0 -261 127.5 -416t361.5 -155q199 0 319.5 106.5t145.5 300.5h199q-32 -270 -208 -424.5
t-456 -154.5q-159 0 -289.5 57t-217 156.5t-134 235.5t-47.5 294z" />
    <glyph glyph-name="uni0422" unicode="&#x422;" horiz-adv-x="1355" 
d="M1274 1444v-172h-496v-1272h-198v1272h-496v172h1190z" />
    <glyph glyph-name="uni0423" unicode="&#x423;" horiz-adv-x="1339" 
d="M1065 1444h211l-496 -1008v-323q0 -66 -37.5 -101t-109.5 -32l-457 18v172l406 -18v284l-498 1008h209l360 -752v-96h56v96z" />
    <glyph glyph-name="uni0424" unicode="&#x424;" horiz-adv-x="1695" 
d="M1612 719q0 -230 -167.5 -375.5t-502.5 -165.5v-178h-186v178q-336 20 -504 165.5t-168 375.5q0 229 168 373.5t504 164.5v187h186v-187q335 -20 502.5 -164.5t167.5 -373.5zM283 719q0 -163 111 -259t362 -110v735q-473 -27 -473 -366zM942 350q128 8 220 38t146.5 79.5
t79.5 111t25 140.5q0 161 -110.5 255t-360.5 111v-735z" />
    <glyph glyph-name="uni0425" unicode="&#x425;" horiz-adv-x="1447" 
d="M63 0l498 690v66l-498 688h228l432 -608l434 608h227l-497 -688v-66l497 -690h-227l-434 610l-432 -610h-228z" />
    <glyph glyph-name="uni0426" unicode="&#x426;" horiz-adv-x="1658" 
d="M1442 172q64 0 98.5 -34t34.5 -99v-311h-199v272h-1231v1444h199v-1272h731v1272h199v-1272h168z" />
    <glyph glyph-name="uni0427" unicode="&#x427;" horiz-adv-x="1452" 
d="M1108 1444h199v-1444h-199v524l-815 -41q-148 -6 -148 146v815h199v-787l764 39v748z" />
    <glyph glyph-name="uni0428" unicode="&#x428;" horiz-adv-x="1959" 
d="M1616 1444h199v-1444h-1670v1444h199v-1272h537v1272h198v-1272h537v1272z" />
    <glyph glyph-name="uni0429" unicode="&#x429;" horiz-adv-x="2199" 
d="M1982 172q65 0 99.5 -34.5t34.5 -98.5v-311h-199v272h-1772v1444h199v-1272h537v1272h198v-1272h537v1272h199v-1272h167z" />
    <glyph glyph-name="uni042A" unicode="&#x42a;" horiz-adv-x="1499" 
d="M817 918q109 0 193 -12t159 -43t123.5 -82t76.5 -132t28 -190q0 -110 -28 -191t-76.5 -132t-123.5 -82t-159 -42.5t-193 -11.5h-455v1272h-299v172h500v-526h254zM817 172q81 0 136 6t104.5 23.5t78 49t44.5 83t16 125.5q0 73 -16 124t-44.5 83t-78 49.5t-104.5 23.5
t-136 6h-254v-573h254z" />
    <glyph glyph-name="uni042B" unicode="&#x42b;" horiz-adv-x="1718" 
d="M344 1444v-526h254q109 0 193 -12t159 -43t123.5 -82t76.5 -132t28 -190q0 -110 -28 -191t-76.5 -132t-123.5 -82t-159 -42.5t-193 -11.5h-453v1444h199zM1374 1444h201v-1444h-201v1444zM344 172h254q81 0 136.5 6t105 23.5t78 49t45 83t16.5 125.5q0 73 -16.5 124
t-45 83t-78 49.5t-105 23.5t-136.5 6h-254v-573z" />
    <glyph glyph-name="uni042C" unicode="&#x42c;" horiz-adv-x="1282" 
d="M344 1444v-526h254q109 0 193 -12t159 -43t123.5 -82t76.5 -132t28 -190q0 -110 -28 -191t-76.5 -132t-123.5 -82t-159 -42.5t-193 -11.5h-453v1444h199zM344 172h254q81 0 136.5 6t105 23.5t78 49t45 83t16.5 125.5q0 73 -16.5 124t-45 83t-78 49.5t-105 23.5t-136.5 6
h-254v-573z" />
    <glyph glyph-name="uni042D" unicode="&#x42d;" horiz-adv-x="1601" 
d="M788 1464q211 0 369 -98t239 -265t81 -378q0 -158 -47.5 -294t-134.5 -235.5t-217.5 -156.5t-289.5 -57q-280 0 -455.5 154.5t-207.5 424.5h199q25 -194 145 -300.5t319 -106.5q214 0 339.5 130t146.5 355h-592v172h592q-21 223 -146.5 353t-339.5 130
q-199 0 -319 -105.5t-145 -299.5h-199q32 269 207.5 423t455.5 154z" />
    <glyph glyph-name="uni042E" unicode="&#x42e;" horiz-adv-x="1947" 
d="M1194 1464q153 0 273.5 -55.5t198.5 -155.5t118.5 -234.5t40.5 -295.5q0 -162 -40.5 -297t-118.5 -235t-198.5 -155.5t-273.5 -55.5q-143 0 -258 48.5t-193 136.5t-123.5 207.5t-56.5 264.5h-219v-637h-199v1444h199v-635h219q15 194 89 339.5t213 230.5t329 85z
M1194 152q215 0 322.5 151.5t107.5 419.5t-107.5 418.5t-322.5 150.5t-323.5 -150.5t-108.5 -418.5t108.5 -419.5t323.5 -151.5z" />
    <glyph glyph-name="uni042F" unicode="&#x42f;" horiz-adv-x="1323" 
d="M1178 1444v-1444h-199v649h-281l-219 -559q-40 -90 -157 -90h-259v172h250l189 487q-185 26 -280 116.5t-95 271.5q0 115 39 194t116 122.5t175.5 62t234.5 18.5h486zM979 821v451h-301q-60 0 -103 -3t-86 -11t-70.5 -24t-50 -40.5t-32.5 -61t-10 -85.5
q0 -59 16.5 -100.5t43 -66t74 -38t96.5 -17.5t122 -4h301z" />
    <glyph glyph-name="uni0430" unicode="&#x430;" 
d="M104 283q0 263 349 303l391 41q-6 124 -75.5 187t-197.5 63q-117 0 -192.5 -58.5t-75.5 -179.5h-192q0 171 124.5 286t335.5 115q215 0 343 -124.5t128 -337.5v-406h150v-172h-191q-60 0 -93.5 33t-33.5 94v47l31 109h-53q-16 -63 -44.5 -114.5t-75 -95.5t-118 -68.5
t-163.5 -24.5q-86 0 -151.5 22t-101.5 54t-58.5 75.5t-29 79t-6.5 72.5zM303 311q0 -77 47.5 -118t128.5 -41q164 0 264.5 94t100.5 241l-357 -36q-96 -11 -140 -42t-44 -98z" />
    <glyph glyph-name="uni0431" unicode="&#x431;" horiz-adv-x="1337" 
d="M125 670q0 153 33 266.5t102 194.5t165 134t234 93q180 53 236.5 84.5t69.5 89.5h235q-11 -61 -40 -108t-68.5 -77t-102 -55.5t-123 -42.5t-148.5 -39q-12 -2 -18 -4q-209 -52 -309 -145.5t-121 -267.5l-53 -129h53q34 171 159.5 273.5t307.5 102.5q232 0 363 -143
t131 -373q0 -118 -34 -216.5t-100.5 -172t-173.5 -114.5t-245 -41q-268 0 -410.5 176t-142.5 514zM324 504q0 -71 22 -133.5t64 -112t111 -78t157 -28.5q177 0 265.5 95.5t88.5 272.5q0 166 -80 257t-243 91q-178 0 -281.5 -96.5t-103.5 -267.5z" />
    <glyph glyph-name="uni0432" unicode="&#x432;" horiz-adv-x="1107" 
d="M145 0v1020h390q203 0 309 -53.5t106 -190.5q0 -60 -19.5 -103.5t-53 -66t-65 -32.5t-67.5 -13v-53q281 -4 281 -240q0 -268 -416 -268h-465zM338 604h197q53 0 83 2t61 9.5t45.5 22t24 40.5t9.5 65q0 77 -49.5 101t-173.5 24h-197v-264zM338 152h272q122 0 173 28.5
t51 114.5q0 94 -51.5 126t-172.5 32h-272v-301z" />
    <glyph glyph-name="uni0433" unicode="&#x433;" horiz-adv-x="929" 
d="M145 0v1020h742v-172h-543v-848h-199z" />
    <glyph glyph-name="uni0434" unicode="&#x434;" horiz-adv-x="1378" 
d="M1253 172v-444h-198v272h-752v-272h-199v444h136q82 154 116.5 349t34.5 499h727v-848h135zM438 172h482v676h-332q-9 -226 -44.5 -385t-105.5 -291z" />
    <glyph glyph-name="uni0435" unicode="&#x435;" 
d="M104 524q0 242 138 379t364 137q224 0 357 -131.5t133 -363.5v-74h-799q7 -145 88 -235.5t248 -90.5q119 0 196 54.5t103 158.5h198q-11 -51 -32.5 -100t-61.5 -101t-93.5 -90t-134 -62.5t-175.5 -24.5q-135 0 -238.5 43.5t-166 119.5t-93.5 172t-31 209zM297 610h606
q0 115 -76.5 191t-220.5 76q-143 0 -226 -77t-83 -190z" />
    <glyph glyph-name="uni0436" unicode="&#x436;" horiz-adv-x="1654" 
d="M1591 848h-166l-237 -318l403 -530h-227l-330 428q-8 -2 -28 -2h-78v-426h-201v426h-78q-20 0 -28 2l-330 -428h-228l404 530l-238 318h-166v172h164q105 0 164 -76l252 -342h84v418h201v-418h84l252 342q59 76 163 76h164v-172z" />
    <glyph glyph-name="uni0437" unicode="&#x437;" horiz-adv-x="1116" 
d="M125 397h192q0 -152 57.5 -209t200.5 -57q122 0 173 42t51 132q0 82 -43.5 119t-132.5 37h-131v151h131q85 0 120 34.5t35 105.5q0 68 -46.5 102.5t-164.5 34.5q-134 0 -181.5 -43.5t-47.5 -145.5h-193q0 164 106 252t316 88q193 0 298.5 -74.5t105.5 -193.5
q0 -96 -55 -147t-152 -60v-55q101 -12 164 -67t63 -160q0 -140 -109.5 -221.5t-306.5 -81.5q-450 0 -450 417z" />
    <glyph glyph-name="uni0438" unicode="&#x438;" horiz-adv-x="1271" 
d="M1169 0h-200v854l35 113h-56l-405 -967h-398v1020h199v-850l-35 -115h56l405 965h399v-1020z" />
    <glyph glyph-name="uni0439" unicode="&#x439;" horiz-adv-x="1271" 
d="M991 1513q0 -162 -87.5 -263t-244.5 -101t-243 101t-86 263h157q0 -112 40.5 -162.5t131.5 -50.5t133 50.5t42 162.5h157zM1169 0h-200v854l35 113h-56l-405 -967h-398v1020h199v-850l-35 -115h56l405 965h399v-1020z" />
    <glyph glyph-name="uni043A" unicode="&#x43a;" horiz-adv-x="1099" 
d="M1036 0h-227l-334 430q-32 -4 -53 -4h-78v-426h-199v1020h199v-418h84l254 342q56 76 162 76h166v-172h-166l-226 -299z" />
    <glyph glyph-name="uni043B" unicode="&#x43b;" horiz-adv-x="1206" 
d="M1063 1020v-1020h-201v848h-362q-1 -88 -2.5 -155.5t-6 -140t-12 -126.5t-19 -109.5t-27.5 -95.5t-38 -78t-50.5 -62.5t-64 -44t-79.5 -28t-97 -8.5v172q134 0 165.5 176.5t31.5 671.5h762z" />
    <glyph glyph-name="uni043C" unicode="&#x43c;" horiz-adv-x="1560" 
d="M145 0v1020h398l209 -965h55l209 965h399v-1020h-198v850l32 117h-53l-219 -967h-395l-217 967h-56l35 -117v-850h-199z" />
    <glyph glyph-name="uni043D" unicode="&#x43d;" horiz-adv-x="1243" 
d="M899 1020h201v-1020h-201v426h-555v-426h-199v1020h199v-422h555v422z" />
    <glyph glyph-name="uni043E" unicode="&#x43e;" horiz-adv-x="1298" 
d="M104 512q0 232 152 380t395 148q242 0 393.5 -148.5t151.5 -379.5q0 -234 -151.5 -383t-393.5 -149q-243 0 -395 149t-152 383zM303 512q0 -160 92 -260t256 -100q162 0 253 100t91 260q0 157 -91.5 256.5t-252.5 99.5q-164 0 -256 -99.5t-92 -256.5z" />
    <glyph glyph-name="uni043F" unicode="&#x43f;" horiz-adv-x="1173" 
d="M1028 1020v-1020h-199v848h-485v-848h-199v1020h883z" />
    <glyph glyph-name="uni0440" unicode="&#x440;" horiz-adv-x="1357" 
d="M145 1020h199v-131l-35 -129h56q36 125 139 202.5t270 77.5q218 0 348.5 -149.5t130.5 -380.5t-130.5 -380.5t-348.5 -149.5q-168 0 -270.5 78t-138.5 204h-56l35 -131v-506h-199v1395zM344 510q0 -180 100 -269t263 -89q160 0 254 89t94 269t-94 269t-254 89
q-163 0 -263 -89t-100 -269z" />
    <glyph glyph-name="uni0441" unicode="&#x441;" horiz-adv-x="1226" 
d="M104 512q0 232 143 380t386 148q66 0 130.5 -14.5t127 -46.5t111 -79t81 -117.5t39.5 -155.5h-200q-18 124 -96 182.5t-193 58.5q-162 0 -246 -99t-84 -257q0 -159 84 -259.5t246 -100.5q115 0 193 58.5t96 182.5h200q-7 -85 -39.5 -155.5t-81 -117.5t-111 -79
t-127 -46.5t-130.5 -14.5q-161 0 -282.5 69.5t-184 189.5t-62.5 273z" />
    <glyph glyph-name="uni0442" unicode="&#x442;" horiz-adv-x="1136" 
d="M1053 1020v-172h-385v-848h-199v848h-385v172h969z" />
    <glyph glyph-name="uni0443" unicode="&#x443;" horiz-adv-x="1243" 
d="M961 1020h221l-449 -1000v-290q0 -66 -37.5 -101t-109.5 -32l-416 18v172l362 -14v247l-448 1000h219l303 -746v-96h53v96z" />
    <glyph glyph-name="uni0444" unicode="&#x444;" horiz-adv-x="1544" 
d="M1442 512q0 -220 -151 -363.5t-425 -164.5v-353h-186v353q-275 21 -425.5 164.5t-150.5 363.5q0 218 150.5 360.5t425.5 163.5v346h186v-346q274 -21 425 -164t151 -360zM866 156q188 20 281.5 114t93.5 242q0 146 -93.5 239t-281.5 113v-708zM303 512q0 -148 93.5 -242
t283.5 -114v708q-190 -20 -283.5 -112.5t-93.5 -239.5z" />
    <glyph glyph-name="uni0445" unicode="&#x445;" horiz-adv-x="1230" 
d="M84 0l385 483v56l-385 481h235l295 -393l297 393h236l-385 -481v-56l385 -483h-236l-297 395l-295 -395h-235z" />
    <glyph glyph-name="uni0446" unicode="&#x446;" horiz-adv-x="1378" 
d="M1184 172q63 0 98 -34.5t35 -98.5v-311h-201v272h-971v1020h199v-848h485v848h199v-848h156z" />
    <glyph glyph-name="uni0447" unicode="&#x447;" horiz-adv-x="1267" 
d="M924 1020h198v-1020h-198v369l-631 -41q-148 -9 -148 145v547h199v-518l580 39v479z" />
    <glyph glyph-name="uni0448" unicode="&#x448;" horiz-adv-x="1591" 
d="M1247 1020h199v-1020h-1301v1020h199v-848h352v848h199v-848h352v848z" />
    <glyph glyph-name="uni0449" unicode="&#x449;" horiz-adv-x="1796" 
d="M1602 172q63 0 98 -34.5t35 -98.5v-311h-201v272h-1389v1020h199v-848h352v848h199v-848h352v848h199v-848h156z" />
    <glyph glyph-name="uni044A" unicode="&#x44a;" horiz-adv-x="1269" 
d="M717 743q77 0 140 -10t121.5 -36t98.5 -67.5t64 -107t24 -151.5t-24 -151.5t-64 -106.5t-98.5 -67t-121.5 -36t-140 -10h-398v848h-256v172h455v-277h199zM696 172q55 0 92 3.5t73.5 15.5t58 33t34.5 58t13 89q0 53 -13 90t-34.5 58.5t-58 33t-73.5 15t-92 3.5h-178v-399
h178z" />
    <glyph glyph-name="uni044B" unicode="&#x44b;" horiz-adv-x="1480" 
d="M543 743q77 0 140 -10t121.5 -36t98.5 -67.5t64 -107t24 -151.5t-24 -151.5t-64 -106.5t-98.5 -67t-121.5 -36t-140 -10h-398v1020h199v-277h199zM1137 0v1020h198v-1020h-198zM344 172h178q55 0 92 3.5t73.5 15.5t58 33t34.5 58t13 89q0 53 -13 90t-34.5 58.5t-58 33
t-73.5 15t-92 3.5h-178v-399z" />
    <glyph glyph-name="uni044C" unicode="&#x44c;" horiz-adv-x="1095" 
d="M543 743q77 0 140 -10t121.5 -36t98.5 -67.5t64 -107t24 -151.5t-24 -151.5t-64 -106.5t-98.5 -67t-121.5 -36t-140 -10h-398v1020h199v-277h199zM344 172h178q55 0 92 3.5t73.5 15.5t58 33t34.5 58t13 89q0 53 -13 90t-34.5 58.5t-58 33t-73.5 15t-92 3.5h-178v-399z
" />
    <glyph glyph-name="uni044D" unicode="&#x44d;" horiz-adv-x="1226" 
d="M594 1040q243 0 385.5 -148t142.5 -380q0 -153 -62.5 -273t-183.5 -189.5t-282 -69.5q-66 0 -130.5 14.5t-127 46.5t-111.5 79t-81.5 117.5t-39.5 155.5h201q18 -124 96 -182.5t193 -58.5q142 0 224 78t102 208h-418v146h418q-20 130 -102 207t-224 77q-115 0 -193 -58.5
t-96 -182.5h-201q7 85 39.5 155.5t81.5 117.5t111.5 79t127 46.5t130.5 14.5z" />
    <glyph glyph-name="uni044E" unicode="&#x44e;" horiz-adv-x="1660" 
d="M1061 1040q121 0 216.5 -41t155.5 -113.5t91.5 -167.5t31.5 -206q0 -112 -31.5 -208t-91.5 -168.5t-155.5 -114t-216.5 -41.5q-217 0 -344.5 123t-151.5 323h-221v-426h-199v1020h199v-422h221q24 198 151.5 320t344.5 122zM1061 152q153 0 225 97.5t72 262.5
q0 162 -72 259t-225 97q-105 0 -174 -48t-98 -125.5t-29 -182.5q0 -164 73 -262t228 -98z" />
    <glyph glyph-name="uni044F" unicode="&#x44f;" horiz-adv-x="1021" 
d="M877 1020v-1020h-199v436h-117l-209 -350q-56 -86 -159 -86h-150v166h162l164 278q-129 20 -196 86.5t-67 198.5q0 291 402 291h369zM678 588v280h-143q-122 0 -176 -29.5t-54 -109.5q0 -81 54 -111t176 -30h143z" />
    <glyph glyph-name="uni0450" unicode="&#x450;" 
d="M975 1325l-37 -151l-662 165l37 152zM104 524q0 242 138 379t364 137q224 0 357 -131.5t133 -363.5v-74h-799q7 -145 88 -235.5t248 -90.5q119 0 196 54.5t103 158.5h198q-11 -51 -32.5 -100t-61.5 -101t-93.5 -90t-134 -62.5t-175.5 -24.5q-135 0 -238.5 43.5
t-166 119.5t-93.5 172t-31 209zM297 610h606q0 115 -76.5 191t-220.5 76q-143 0 -226 -77t-83 -190z" />
    <glyph glyph-name="uni0451" unicode="&#x451;" 
d="M395 1171q-70 0 -113.5 41.5t-43.5 106.5q0 64 43.5 104.5t113.5 40.5t116 -41t46 -104q0 -64 -45.5 -106t-116.5 -42zM840 1171q-70 0 -115 41.5t-45 106.5q0 63 45 104t115 41t115.5 -41t45.5 -104q0 -65 -45.5 -106.5t-115.5 -41.5zM104 524q0 242 138 379t364 137
q224 0 357 -131.5t133 -363.5v-74h-799q7 -145 88 -235.5t248 -90.5q119 0 196 54.5t103 158.5h198q-11 -51 -32.5 -100t-61.5 -101t-93.5 -90t-134 -62.5t-175.5 -24.5q-135 0 -238.5 43.5t-166 119.5t-93.5 172t-31 209zM297 610h606q0 115 -76.5 191t-220.5 76
q-143 0 -226 -77t-83 -190z" />
    <glyph glyph-name="uni0452" unicode="&#x452;" horiz-adv-x="1343" 
d="M831 1040q182 0 285 -109t103 -321v-874q0 -66 -37 -100t-111 -31l-416 18v172l365 -18v805q0 153 -59.5 219.5t-188.5 66.5q-160 0 -256 -113.5t-96 -316.5v-438h-201v1233h-108v158h108v114h201v-114h299v-158h-299v-379l-35 -129h55q32 144 131.5 229.5t259.5 85.5z
" />
    <glyph glyph-name="uni0453" unicode="&#x453;" horiz-adv-x="933" 
d="M150 1325l661 166l37 -152l-662 -165zM150 0v1020h743v-172h-545v-848h-198z" />
    <glyph glyph-name="uni0454" unicode="&#x454;" horiz-adv-x="1226" 
d="M633 152q115 0 193 58.5t96 182.5h200q-7 -85 -39.5 -155.5t-81 -117.5t-111 -79t-127 -46.5t-130.5 -14.5q-161 0 -282.5 69.5t-184 189.5t-62.5 273q0 232 143 380t386 148q66 0 130.5 -14.5t127 -46.5t111 -79t81 -117.5t39.5 -155.5h-200q-18 124 -96 182.5
t-193 58.5q-142 0 -224 -77t-102 -207h418v-146h-418q20 -130 102 -208t224 -78z" />
    <glyph glyph-name="uni0455" unicode="&#x455;" horiz-adv-x="1044" 
d="M981 268q0 -62 -21.5 -112t-68.5 -90.5t-130.5 -63t-197.5 -22.5q-247 0 -363 103t-116 292h199q0 -238 284 -238q110 0 162.5 29.5t52.5 97.5q0 22 -6.5 40.5t-14.5 32t-27 27t-33 21.5t-44 19t-47 17t-56.5 18t-59.5 18q-50 15 -81.5 25.5t-74 28t-69 33.5t-55.5 39.5
t-45.5 49.5t-27 61t-10.5 76q0 124 102 197t283 73q117 0 203.5 -29.5t134 -80t70 -109.5t22.5 -127h-198q0 92 -59 140.5t-173 48.5q-85 0 -135.5 -27.5t-50.5 -85.5q0 -62 51 -95t188 -77q17 -6 52 -17q52 -16 78.5 -25t72 -27.5t69.5 -33t55 -39t46.5 -50t27 -61.5
t11.5 -77z" />
    <glyph glyph-name="uni0456" unicode="&#x456;" horiz-adv-x="931" 
d="M459 1171q-68 0 -112 42t-44 106q0 63 44 104t112 41q69 0 114 -41t45 -104q0 -64 -45 -106t-114 -42zM104 0v172h287v694l-219 -18v172l266 20q73 6 108.5 -29t35.5 -102v-737h286v-172h-764z" />
    <glyph glyph-name="uni0457" unicode="&#x457;" horiz-adv-x="944" 
d="M213 1171q-70 0 -115 41.5t-45 106.5q0 63 45 104t115 41t116 -41t46 -104q0 -64 -45.5 -106t-116.5 -42zM657 1171q-70 0 -114.5 41.5t-44.5 106.5q0 63 44.5 104t114.5 41t116 -41t46 -104q0 -64 -45.5 -106t-116.5 -42zM117 0v172h291v694l-224 -18v172l265 20
q73 7 108 -30.5t35 -114.5v-723h289v-172h-764z" />
    <glyph glyph-name="uni0458" unicode="&#x458;" horiz-adv-x="610" 
d="M342 1171q-69 0 -112.5 41.5t-43.5 106.5q0 63 43.5 104t112.5 41q68 0 113 -41t45 -104q0 -64 -45 -106t-113 -42zM43 -383l188 330q35 58 35 139v780l-223 -18v172l281 18q72 6 109.5 -29.5t37.5 -101.5v-846q0 -78 -35 -139l-174 -305h-219z" />
    <glyph glyph-name="uni0459" unicode="&#x459;" horiz-adv-x="1812" 
d="M1260 743q450 0 450 -372q0 -86 -24 -151.5t-64.5 -106.5t-99 -67t-122 -36t-140.5 -10h-398v848h-362q-1 -88 -2.5 -155.5t-6 -140t-12 -126.5t-19 -109.5t-27.5 -95.5t-38 -78t-50.5 -62.5t-64 -44t-79.5 -28t-97 -8.5v172q134 0 165.5 176.5t31.5 671.5h762v-277h197z
M1239 172q55 0 92.5 3.5t74 15.5t57 33t33.5 58t13 89q0 53 -13 90t-33.5 58.5t-57.5 33t-73.5 15t-92.5 3.5h-176v-399h176z" />
    <glyph glyph-name="uni045A" unicode="&#x45a;" horiz-adv-x="1849" 
d="M1296 743q451 0 451 -372q0 -86 -24 -151.5t-64.5 -106.5t-99.5 -67t-122.5 -36t-140.5 -10h-397v426h-555v-426h-199v1020h199v-422h555v422h201v-277h196zM1276 172q55 0 92.5 3.5t74 15.5t57 33t33.5 58t13 89q0 53 -13 90t-33.5 58.5t-57.5 33t-73.5 15t-92.5 3.5
h-176v-399h176z" />
    <glyph glyph-name="uni045B" unicode="&#x45b;" horiz-adv-x="1337" 
d="M823 1040q183 0 286 -109t103 -321v-610h-198v582q0 153 -59.5 219.5t-190.5 66.5q-159 0 -255.5 -113.5t-96.5 -316.5v-438h-199v1233h-109v158h109v114h199v-114h299v-158h-299v-379l-33 -129h53q32 144 131.5 229.5t259.5 85.5z" />
    <glyph glyph-name="uni045C" unicode="&#x45c;" horiz-adv-x="1099" 
d="M899 1339l-661 -165l-37 151l661 166zM1036 0h-227l-334 430q-32 -4 -53 -4h-78v-426h-199v1020h199v-418h84l254 342q56 76 162 76h166v-172h-166l-226 -299z" />
    <glyph glyph-name="uni045F" unicode="&#x45f;" horiz-adv-x="1241" 
d="M897 1014h199v-1014h-375v-272h-201v272h-375v1014h199v-842h553v842z" />
    <glyph glyph-name="uni0490" unicode="&#x490;" horiz-adv-x="1085" 
d="M844 1642h200v-370h-700v-1272h-199v1444h699v198z" />
    <glyph glyph-name="uni0491" unicode="&#x491;" horiz-adv-x="929" 
d="M688 1298h199v-450h-543v-848h-199v1020h543v278z" />
    <glyph glyph-name="Wgrave" unicode="&#x1e80;" horiz-adv-x="2138" 
d="M1425 1749l-36 -152l-662 166l37 152zM63 1444h191l283 -1389h53l272 1389h414l272 -1389h54l282 1389h191l-295 -1444h-410l-274 1389h-54l-274 -1389h-410z" />
    <glyph glyph-name="wgrave" unicode="&#x1e81;" horiz-adv-x="1796" 
d="M1253 1325l-36 -151l-662 165l37 152zM43 1020h190l224 -965h53l182 965h414l180 -965h55l224 965h190l-235 -1020h-412l-182 967h-56l-182 -967h-409z" />
    <glyph glyph-name="Wacute" unicode="&#x1e82;" horiz-adv-x="2138" 
d="M713 1749l661 166l37 -152l-661 -166zM63 1444h191l283 -1389h53l272 1389h414l272 -1389h54l282 1389h191l-295 -1444h-410l-274 1389h-54l-274 -1389h-410z" />
    <glyph glyph-name="wacute" unicode="&#x1e83;" horiz-adv-x="1796" 
d="M543 1325l661 166l37 -152l-661 -165zM43 1020h190l224 -965h53l182 965h414l180 -965h55l224 965h190l-235 -1020h-412l-182 967h-56l-182 -967h-409z" />
    <glyph glyph-name="Wdieresis" unicode="&#x1e84;" horiz-adv-x="2138" 
d="M846 1595q-70 0 -114 41.5t-44 106.5q0 63 44 104t114 41t116 -41t46 -104q0 -64 -45.5 -106t-116.5 -42zM1290 1595q-70 0 -115 41.5t-45 106.5q0 63 45 104t115 41t116 -41t46 -104q0 -64 -45.5 -106t-116.5 -42zM63 1444h191l283 -1389h53l272 1389h414l272 -1389h54
l282 1389h191l-295 -1444h-410l-274 1389h-54l-274 -1389h-410z" />
    <glyph glyph-name="wdieresis" unicode="&#x1e85;" horiz-adv-x="1796" 
d="M674 1171q-70 0 -114 41.5t-44 106.5q0 63 44 104t114 41t116 -41t46 -104q0 -64 -45.5 -106t-116.5 -42zM1118 1171q-70 0 -115 41.5t-45 106.5q0 63 45 104t115 41t116 -41t46 -104q0 -64 -45.5 -106t-116.5 -42zM43 1020h190l224 -965h53l182 965h414l180 -965h55
l224 965h190l-235 -1020h-412l-182 967h-56l-182 -967h-409z" />
    <glyph glyph-name="uni1E9E" unicode="&#x1e9e;" horiz-adv-x="1310" 
d="M459 0v172l309 -18q260 -15 260 249q0 81 -26 137t-68 81t-94.5 30.5t-104.5 -7.5t-100 -40l-76 301l289 201q0 92 -50.5 139t-170.5 47q-72 0 -121.5 -13.5t-87.5 -46.5t-56 -92.5t-18 -148.5v-991h-199v1022q0 112 37.5 198t103.5 138.5t152 79t189 26.5
q194 0 307 -109t113 -304l-400 -269l10 -53q82 34 164 43.5t155 -9.5t129.5 -63.5t90 -124.5t33.5 -186q0 -225 -121 -325t-340 -84z" />
    <glyph glyph-name="Ygrave" unicode="&#x1ef2;" horiz-adv-x="1376" 
d="M1042 1749l-36 -152l-662 166l37 152zM1100 1444h213l-527 -920v-524h-198v524l-525 920h213l383 -684v-129h56v129z" />
    <glyph glyph-name="ygrave" unicode="&#x1ef3;" horiz-adv-x="1243" 
d="M989 1325l-37 -151l-661 165l37 152zM961 1020h221l-449 -1000v-290q0 -66 -37.5 -101t-109.5 -32l-416 18v172l362 -14v247l-448 1000h219l303 -746v-96h53v96z" />
    <glyph glyph-name="endash" unicode="&#x2013;" horiz-adv-x="1748" 
d="M166 602h1417v-158h-1417v158z" />
    <glyph glyph-name="emdash" unicode="&#x2014;" horiz-adv-x="2158" 
d="M166 602h1827v-158h-1827v158z" />
    <glyph glyph-name="quoteleft" unicode="&#x2018;" horiz-adv-x="638" 
d="M332 1542l141 -528l-166 -45l-141 528z" />
    <glyph glyph-name="quoteright" unicode="&#x2019;" horiz-adv-x="638" 
d="M307 1542l166 -45l-141 -528l-166 45z" />
    <glyph glyph-name="quotesinglbase" unicode="&#x201a;" horiz-adv-x="665" 
d="M334 342l166 -45l-168 -619l-166 46z" />
    <glyph glyph-name="quotedblleft" unicode="&#x201c;" horiz-adv-x="946" 
d="M332 1542l141 -528l-166 -45l-141 528zM639 1542l141 -528l-166 -45l-141 528z" />
    <glyph glyph-name="quotedblright" unicode="&#x201d;" horiz-adv-x="946" 
d="M307 1542l166 -45l-141 -528l-166 45zM614 1542l166 -45l-141 -528l-166 45z" />
    <glyph glyph-name="quotedblbase" unicode="&#x201e;" horiz-adv-x="974" 
d="M334 342l166 -45l-168 -619l-166 46zM643 342l166 -45l-168 -619l-166 46z" />
    <glyph glyph-name="dagger" unicode="&#x2020;" horiz-adv-x="1148" 
d="M985 1362v-160h-332v-893h-157v893h-330v160h330v385h157v-385h332z" />
    <glyph glyph-name="daggerdbl" unicode="&#x2021;" horiz-adv-x="1148" 
d="M985 1202h-332v-348h332v-160h-332v-385h-157v385h-330v160h330v348h-330v160h330v385h157v-385h332v-160z" />
    <glyph glyph-name="bullet" unicode="&#x2022;" horiz-adv-x="1388" 
d="M690 -18q-151 0 -271.5 70t-187.5 191.5t-67 270.5q0 145 67 265.5t188 190.5t271 70q147 0 269.5 -70t193 -191t70.5 -265q0 -148 -70.5 -270.5t-193 -192t-269.5 -69.5z" />
    <glyph glyph-name="ellipsis" unicode="&#x2026;" horiz-adv-x="1710" 
d="M344 -20q-77 0 -127.5 52.5t-50.5 129.5q0 76 50.5 128t127.5 52q76 0 129 -52.5t53 -127.5q0 -76 -53 -129t-129 -53zM854 -20q-79 0 -129.5 52.5t-50.5 129.5q0 76 51 128t129 52q76 0 129 -52.5t53 -127.5q0 -76 -53 -129t-129 -53zM1362 -20q-77 0 -128.5 52.5
t-51.5 129.5q0 76 51.5 128t128.5 52q76 0 129 -52.5t53 -127.5q0 -76 -53 -129t-129 -53z" />
    <glyph glyph-name="perthousand" unicode="&#x2030;" horiz-adv-x="3436" 
d="M1454 1661l150 -55l-639 -1835l-150 53zM600 657q-191 0 -312.5 126t-121.5 309q0 182 121.5 308t312.5 126t312.5 -126t121.5 -308q0 -183 -121.5 -309t-312.5 -126zM600 815q119 0 196.5 81t77.5 196t-77.5 195.5t-196.5 80.5q-121 0 -198.5 -80.5t-77.5 -195.5
t77.5 -196t198.5 -81zM1827 -61q-191 0 -312.5 126t-121.5 308t121.5 308t312.5 126t312.5 -126t121.5 -308t-121.5 -308t-312.5 -126zM2836 -61q-191 0 -312.5 126t-121.5 308t121.5 308t312.5 126t313 -126t122 -308t-122 -308t-313 -126zM1827 96q119 0 197.5 81
t78.5 196t-78.5 195.5t-197.5 80.5q-120 0 -198.5 -80.5t-78.5 -195.5t79 -196t198 -81zM2836 96q119 0 198 81t79 196t-78.5 195.5t-198.5 80.5q-119 0 -197.5 -80.5t-78.5 -195.5t78.5 -196t197.5 -81z" />
    <glyph glyph-name="guilsinglleft" unicode="&#x2039;" horiz-adv-x="1038" 
d="M872 35l-122 -111l-584 584l584 582l122 -111l-473 -471z" />
    <glyph glyph-name="guilsinglright" unicode="&#x203a;" horiz-adv-x="1038" 
d="M166 35l473 473l-473 471l123 111l583 -582l-583 -584z" />
    <glyph glyph-name="fraction" unicode="&#x2044;" horiz-adv-x="790" 
d="M639 1667l149 -55l-636 -1835l-150 55z" />
    <glyph glyph-name="Euro" unicode="&#x20ac;" horiz-adv-x="1685" 
d="M965 152q154 0 245.5 79.5t114.5 231.5h195q-34 -224 -178 -353.5t-377 -129.5q-251 0 -402 144t-194 390h-203v145h186q-2 20 -2 64q0 39 2 59h-186v146h201q45 247 196.5 391.5t401.5 144.5q233 0 377 -128.5t178 -352.5h-197q-22 151 -112.5 230t-245.5 79
q-333 0 -400 -364h463v-146h-477q-2 -18 -2 -59q0 -44 2 -64h477v-145h-463q67 -362 400 -362z" />
    <glyph glyph-name="trademark" unicode="&#x2122;" horiz-adv-x="1855" 
d="M733 1444v-125h-211v-559h-143v559h-213v125h567zM1401 1444h289v-684h-144v547l23 82h-33l-139 -629h-295l-139 629h-33l22 -82v-547h-145v684h293l137 -629h25z" />
    <glyph glyph-name="oneeighth" unicode="&#x215b;" horiz-adv-x="2150" 
d="M1255 1667l150 -55l-639 -1835l-150 55zM84 1149q95 67 129.5 133.5t40.5 202.5h334v-891h-172v749l22 87h-37q-5 -73 -18.5 -133t-41 -118.5t-76 -104.5t-115.5 -77zM1307 236q0 200 239 233v31q-81 10 -136.5 58t-55.5 134q0 103 88.5 161t245.5 58q155 0 243 -58
t88 -161q0 -86 -55.5 -134t-134.5 -58v-31q239 -33 239 -233q0 -115 -100 -185.5t-280 -70.5t-280.5 70.5t-100.5 185.5zM1526 666q0 -49 38.5 -79t123.5 -30q84 0 121.5 30t37.5 79q0 100 -159 100q-162 0 -162 -100zM1479 268q0 -63 50 -103t159 -40q108 0 158 40t50 103
t-50 103.5t-158 40.5q-109 0 -159 -40.5t-50 -103.5z" />
    <glyph glyph-name="threeeighths" unicode="&#x215c;" horiz-adv-x="2369" 
d="M1430 1667l149 -55l-637 -1835l-149 55zM84 938h172q0 -121 54.5 -166t170.5 -45q99 0 147 32t48 105q0 133 -162 133h-102v146h102q148 0 148 110q0 59 -42.5 87t-138.5 28q-111 0 -163 -37.5t-52 -126.5h-172q0 147 103 228t284 81q167 0 261 -68t94 -171
q0 -155 -207 -187v-36q102 -22 159.5 -67t57.5 -138q0 -121 -97 -192.5t-268 -71.5q-187 0 -292 88.5t-105 267.5zM1524 236q0 200 239 233v31q-81 10 -136.5 58t-55.5 134q0 103 88.5 161t245.5 58q155 0 243 -58t88 -161q0 -86 -55.5 -134t-134.5 -58v-31
q240 -33 240 -233q0 -115 -100.5 -185.5t-280.5 -70.5t-280.5 70.5t-100.5 185.5zM1743 666q0 -49 38.5 -79t123.5 -30q159 0 159 109q0 100 -159 100q-162 0 -162 -100zM1696 268q0 -63 50 -103t159 -40q108 0 158.5 40t50.5 103t-50.5 103.5t-158.5 40.5
q-109 0 -159 -40.5t-50 -103.5z" />
    <glyph glyph-name="fiveeighths" unicode="&#x215d;" horiz-adv-x="2355" 
d="M1415 1667l150 -55l-637 -1835l-150 55zM84 901h172q0 -174 215 -174q217 0 217 188q0 172 -162 172q-135 0 -207 -112l-200 94v418h663v-144h-491v-176l-19 -69l27 -17q34 66 103 109t165 43q142 0 217.5 -86t75.5 -227q0 -152 -102 -245t-283 -93q-188 0 -289.5 83
t-101.5 236zM1509 236q0 200 240 233v31q-81 10 -137 58t-56 134q0 103 88.5 161t245.5 58q155 0 243.5 -58t88.5 -161q0 -86 -55.5 -134t-134.5 -58v-31q239 -33 239 -233q0 -115 -100.5 -185.5t-280.5 -70.5t-280.5 70.5t-100.5 185.5zM1729 666q0 -49 38 -79t123 -30
q160 0 160 109q0 100 -160 100q-161 0 -161 -100zM1681 268q0 -63 50 -103t159 -40q108 0 158.5 40t50.5 103t-50.5 103.5t-158.5 40.5q-109 0 -159 -40.5t-50 -103.5z" />
    <glyph glyph-name="seveneighths" unicode="&#x215e;" horiz-adv-x="2252" 
d="M1286 1667l150 -55l-639 -1835l-150 55zM207 594q0 191 54.5 327t157.5 225t269 157v36h-604v146h659v-301q-199 -78 -281.5 -215.5t-82.5 -374.5h-172zM1407 236q0 200 240 233v31q-81 10 -137 58t-56 134q0 103 88.5 161t245.5 58q155 0 243.5 -58t88.5 -161
q0 -86 -55.5 -134t-135.5 -58v-31q240 -33 240 -233q0 -115 -100.5 -185.5t-280.5 -70.5t-280.5 70.5t-100.5 185.5zM1626 666q0 -48 39 -78.5t123 -30.5q160 0 160 109q0 100 -160 100q-162 0 -162 -100zM1579 268q0 -63 50 -103t159 -40q108 0 158.5 40t50.5 103
t-50.5 103.5t-158.5 40.5q-109 0 -159 -40.5t-50 -103.5z" />
    <glyph glyph-name="arrowleft" unicode="&#x2190;" horiz-adv-x="1576" 
d="M1411 592v-166h-930l391 -391l-122 -111l-584 584l584 582l122 -111l-389 -387h928z" />
    <glyph glyph-name="arrowup" unicode="&#x2191;" horiz-adv-x="1495" 
d="M1329 549l-108 -123l-394 391v-930h-163v930l-390 -391l-108 123l579 584z" />
    <glyph glyph-name="arrowright" unicode="&#x2192;" horiz-adv-x="1576" 
d="M827 1090l584 -582l-584 -584l-122 111l391 391h-930v166h928l-389 387z" />
    <glyph glyph-name="arrowdown" unicode="&#x2193;" horiz-adv-x="1495" 
d="M1221 592l108 -123l-584 -586l-579 586l108 123l390 -393v931h163v-931z" />
    <glyph glyph-name="arrowboth" unicode="&#x2194;" horiz-adv-x="2430" 
d="M1681 1260l586 -582l-586 -582l-122 109l393 391h-932v166h930l-391 389zM872 809l-391 -389h930v-164h-930l391 -393l-122 -109l-584 584l584 580z" />
    <glyph glyph-name="arrowupdn" unicode="&#x2195;" horiz-adv-x="1808" 
d="M643 295v930l-389 -391l-109 122l580 584l584 -584l-109 -122l-393 391v-930h-164zM1554 152l109 -123l-582 -584l-581 584l108 123l389 -390v928h166v-930z" />
    <glyph glyph-name="uni2196" unicode="&#x2196;" horiz-adv-x="1267" 
d="M1106 150l-117 -117l-659 659l2 -555l-166 8v828l823 -4l10 -164l-550 2z" />
    <glyph glyph-name="uni2197" unicode="&#x2197;" horiz-adv-x="1267" 
d="M276 969l826 4l-2 -828l-164 -8v553l-657 -657l-117 117l657 657l-551 -2z" />
    <glyph glyph-name="uni2198" unicode="&#x2198;" horiz-adv-x="1267" 
d="M1100 842l2 -828l-826 4l-8 164l551 -2l-657 658l117 116l657 -657v553z" />
    <glyph glyph-name="uni2199" unicode="&#x2199;" horiz-adv-x="1267" 
d="M1106 838l-657 -658l550 2l-10 -164l-823 -4v828l166 8l-2 -555l659 659z" />
    <glyph glyph-name="partialdiff" unicode="&#x2202;" horiz-adv-x="1478" 
d="M1313 653q0 -315 -156.5 -494t-425.5 -179q-264 0 -414.5 148.5t-150.5 387.5q0 229 145 376.5t389 147.5q190 0 313.5 -112t151.5 -303h56l-35 129q-30 253 -246.5 406.5t-562.5 201.5v172q204 -23 372.5 -90t295.5 -174.5t197.5 -265.5t70.5 -351zM1114 516
q0 165 -104.5 258.5t-286.5 93.5q-172 0 -265 -93t-93 -259q0 -173 93.5 -268.5t276.5 -95.5q179 0 279 104.5t100 259.5z" />
    <glyph glyph-name="emptyset" unicode="&#x2205;" horiz-adv-x="2013" 
d="M1499 1270q165 -114 256.5 -296.5t91.5 -398.5q0 -232 -104 -423t-297.5 -304.5t-439.5 -113.5q-194 0 -353 69l-118 -204l-140 77l119 205q-165 114 -256.5 296t-91.5 398q0 173 61 327.5t169.5 268t266.5 180t343 66.5q195 0 354 -69l119 204l139 -77zM324 575
q0 -166 72 -311t200 -239l682 1179q-124 53 -272 53q-196 0 -353.5 -93.5t-243 -249t-85.5 -339.5zM1006 -106q149 0 277.5 54.5t217 147.5t139 217.5t50.5 261.5q0 166 -72.5 311.5t-200.5 239.5l-682 -1181q127 -51 271 -51z" />
    <glyph glyph-name="product" unicode="&#x220f;" horiz-adv-x="1583" 
d="M1417 1444v-158h-278v-1655h-172v1655h-351v-1655h-172v1655h-278v158h1251z" />
    <glyph glyph-name="summation" unicode="&#x2211;" horiz-adv-x="1245" 
d="M166 -369v279l610 602v53l-610 600v279h913v-158h-673l-130 33v-53l670 -637v-180l-670 -637v-56l130 35h673v-160h-913z" />
    <glyph glyph-name="minus" unicode="&#x2212;" horiz-adv-x="1333" 
d="M166 602h1001v-158h-1001v158z" />
    <glyph glyph-name="radical" unicode="&#x221a;" horiz-adv-x="1656" 
d="M963 1327q23 117 145 117h383v-158h-377l-373 -1655h-356l-219 789h168l203 -733h53z" />
    <glyph glyph-name="infinity" unicode="&#x221e;" horiz-adv-x="2107" 
d="M166 614q0 183 118.5 298.5t297.5 115.5q50 0 97 -11t82.5 -24.5t75 -42.5t62.5 -48t58.5 -59t49.5 -57.5t48 -60.5q34 43 48 60.5t49.5 57.5t58.5 59t62.5 48t75 42.5t82.5 24.5t97 11q179 0 297.5 -115.5t118.5 -298.5q0 -182 -118.5 -297.5t-297.5 -115.5
q-50 0 -97 11t-82.5 24.5t-75 42.5t-62.5 48t-58.5 59t-49.5 57.5t-48 60.5q-34 -43 -48 -60.5t-49.5 -57.5t-58.5 -59t-62.5 -48t-75 -42.5t-82.5 -24.5t-97 -11q-179 0 -297.5 115.5t-118.5 297.5zM338 614q0 -117 71.5 -186.5t192.5 -69.5q48 0 92 14.5t75.5 33.5
t70.5 58.5t62 67t65 82.5q-42 55 -65 82.5t-62 67t-70.5 58.5t-75.5 33.5t-92 14.5q-121 0 -192.5 -69.5t-71.5 -186.5zM1141 614q42 -54 65 -82t62 -67.5t71 -58.5t76 -33.5t92 -14.5q121 0 193 69.5t72 186.5t-72 186.5t-193 69.5q-48 0 -92 -14.5t-76 -33.5t-71 -58.5
t-62 -67.5t-65 -82z" />
    <glyph glyph-name="integral" unicode="&#x222b;" horiz-adv-x="1423" 
d="M166 -369v158h307l344 1538q27 117 148 117h292v-158h-280l-344 -1538q-27 -117 -148 -117h-319z" />
    <glyph glyph-name="approxequal" unicode="&#x2248;" horiz-adv-x="1325" 
d="M166 588q0 152 73 229.5t177 77.5q67 0 138 -25.5t121.5 -56.5t110 -56.5t105.5 -25.5q110 0 110 152h158q0 -78 -21.5 -139.5t-57.5 -97.5t-80 -54.5t-93 -18.5q-66 0 -137 25.5t-121.5 56.5t-109.5 56.5t-105 25.5q-50 0 -80 -32t-30 -117h-158zM166 150
q0 152 73.5 230.5t176.5 78.5q67 0 138 -25.5t121.5 -56.5t110 -56.5t105.5 -25.5q50 0 80 32t30 117h158q0 -152 -73.5 -229.5t-178.5 -77.5q-66 0 -137 25.5t-121.5 56.5t-109.5 56.5t-105 25.5q-110 0 -110 -151h-158z" />
    <glyph glyph-name="notequal" unicode="&#x2260;" horiz-adv-x="1333" 
d="M1167 655h-342l-151 -264h493v-160h-585l-179 -307l-122 74l135 233h-250v160h342l151 264h-493v158h586l176 307l125 -71l-135 -236h249v-158z" />
    <glyph glyph-name="lessequal" unicode="&#x2264;" horiz-adv-x="1337" 
d="M166 635v178l948 342l57 -151l-813 -279l813 -270l-57 -152zM1171 199v-158h-1001v158h1001z" />
    <glyph glyph-name="greaterequal" unicode="&#x2265;" horiz-adv-x="1337" 
d="M1171 635l-948 -332l-57 152l813 270l-813 279l57 151l948 -342v-178zM166 199h1001v-158h-1001v158z" />
    <glyph glyph-name="uni2460" unicode="&#x2460;" horiz-adv-x="2113" 
d="M1057 -303q-207 0 -383 73.5t-295.5 200t-186.5 297t-67 363.5q0 192 67 362.5t186.5 296.5t295.5 199.5t383 73.5t383 -73.5t295.5 -199.5t186.5 -296.5t67 -362.5q0 -193 -67 -363.5t-186.5 -297t-295.5 -200t-383 -73.5zM1057 -158q173 0 322 63.5t250 171
t158.5 251.5t57.5 303q0 158 -57.5 301.5t-158.5 250.5t-250 170.5t-322 63.5t-322 -63.5t-250.5 -170.5t-159 -250.5t-57.5 -301.5q0 -159 57.5 -303t159 -251.5t250.5 -171t322 -63.5zM725 739q95 67 129.5 133.5t40.5 202.5h334v-891h-172v750l22 88h-37
q-5 -73 -18.5 -133t-41 -118t-76 -104t-115.5 -77z" />
    <glyph glyph-name="uni2461" unicode="&#x2461;" horiz-adv-x="2113" 
d="M1057 -303q-207 0 -383 73.5t-295.5 200t-186.5 297t-67 363.5q0 192 67 362.5t186.5 296.5t295.5 199.5t383 73.5t383 -73.5t295.5 -199.5t186.5 -296.5t67 -362.5q0 -193 -67 -363.5t-186.5 -297t-295.5 -200t-383 -73.5zM1057 -158q173 0 322 63.5t250 171
t158.5 251.5t57.5 303q0 158 -57.5 301.5t-158.5 250.5t-250 170.5t-322 63.5t-322 -63.5t-250.5 -170.5t-159 -250.5t-57.5 -301.5q0 -159 57.5 -303t159 -251.5t250.5 -171t322 -63.5zM680 688q0 206 111.5 318t291.5 112q164 0 253 -83t89 -220q0 -82 -34 -149
t-90.5 -113.5t-141.5 -83.5t-176 -59.5t-205 -40.5v-37l90 18h539v-143h-682v276q27 4 57.5 9t85 18.5t103 30t102 43.5t92 58.5t63.5 76.5t25 96q0 158 -174 158q-116 0 -171.5 -67.5t-55.5 -217.5h-172z" />
    <glyph glyph-name="uni2462" unicode="&#x2462;" horiz-adv-x="2113" 
d="M1057 -303q-207 0 -383 73.5t-295.5 200t-186.5 297t-67 363.5q0 192 67 362.5t186.5 296.5t295.5 199.5t383 73.5t383 -73.5t295.5 -199.5t186.5 -296.5t67 -362.5q0 -193 -67 -363.5t-186.5 -297t-295.5 -200t-383 -73.5zM1057 -158q173 0 322 63.5t250 171
t158.5 251.5t57.5 303q0 158 -57.5 301.5t-158.5 250.5t-250 170.5t-322 63.5t-322 -63.5t-250.5 -170.5t-159 -250.5t-57.5 -301.5q0 -159 57.5 -303t159 -251.5t250.5 -171t322 -63.5zM676 522h172q0 -121 55 -167t170 -46q99 0 147 33t48 107q0 133 -162 133h-100v145
h100q149 0 149 111q0 58 -43.5 86t-138.5 28q-110 0 -162.5 -38.5t-52.5 -125.5h-172q0 146 103 228t284 82q167 0 260.5 -69t93.5 -171q0 -153 -204 -188v-37q48 -10 83 -23t67 -36t48.5 -60t16.5 -86q0 -120 -96.5 -191t-268.5 -71q-187 0 -292 88.5t-105 267.5z" />
    <glyph glyph-name="uni2463" unicode="&#x2463;" horiz-adv-x="2113" 
d="M1057 -303q-207 0 -383 73.5t-295.5 200t-186.5 297t-67 363.5q0 192 67 362.5t186.5 296.5t295.5 199.5t383 73.5t383 -73.5t295.5 -199.5t186.5 -296.5t67 -362.5q0 -193 -67 -363.5t-186.5 -297t-295.5 -200t-383 -73.5zM1057 -158q173 0 322 63.5t250 171
t158.5 251.5t57.5 303q0 158 -57.5 301.5t-158.5 250.5t-250 170.5t-322 63.5t-322 -63.5t-250.5 -170.5t-159 -250.5t-57.5 -301.5q0 -159 57.5 -303t159 -251.5t250.5 -171t322 -63.5zM684 352v328q301 113 354 407h172q-10 -89 -42 -170t-88.5 -156t-147 -136t-207.5 -99
v-37l88 21h317v260h173v-260h114v-158h-114v-155h-173v155h-446z" />
    <glyph glyph-name="uni2464" unicode="&#x2464;" horiz-adv-x="2113" 
d="M1057 -303q-207 0 -383 73.5t-295.5 200t-186.5 297t-67 363.5q0 192 67 362.5t186.5 296.5t295.5 199.5t383 73.5t383 -73.5t295.5 -199.5t186.5 -296.5t67 -362.5q0 -193 -67 -363.5t-186.5 -297t-295.5 -200t-383 -73.5zM1057 -158q173 0 322 63.5t250 171
t158.5 251.5t57.5 303q0 158 -57.5 301.5t-158.5 250.5t-250 170.5t-322 63.5t-322 -63.5t-250.5 -170.5t-159 -250.5t-57.5 -301.5q0 -159 57.5 -303t159 -251.5t250.5 -171t322 -63.5zM682 455h172q0 -174 215 -174q217 0 217 190q0 172 -162 172q-134 0 -206 -113
l-201 95v417h663v-145h-491v-176l-19 -70l27 -14q34 64 103 106.5t165 42.5q142 0 217.5 -85t75.5 -226q0 -152 -102 -245t-283 -93q-188 0 -289.5 83.5t-101.5 234.5z" />
    <glyph glyph-name="uni2465" unicode="&#x2465;" horiz-adv-x="2113" 
d="M1057 -303q-207 0 -383 73.5t-295.5 200t-186.5 297t-67 363.5q0 192 67 362.5t186.5 296.5t295.5 199.5t383 73.5t383 -73.5t295.5 -199.5t186.5 -296.5t67 -362.5q0 -193 -67 -363.5t-186.5 -297t-295.5 -200t-383 -73.5zM1057 -158q173 0 322 63.5t250 171
t158.5 251.5t57.5 303q0 158 -57.5 301.5t-158.5 250.5t-250 170.5t-322 63.5t-322 -63.5t-250.5 -170.5t-159 -250.5t-57.5 -301.5q0 -159 57.5 -303t159 -251.5t250.5 -171t322 -63.5zM672 590q0 94 16.5 173.5t52.5 146.5t90 111.5t133.5 64.5t178.5 10l194 -21v-145
l-215 20q-166 16 -248.5 -65.5t-82.5 -214.5l-37 -88h37q22 98 106 166.5t215 68.5q145 0 229 -85.5t84 -235.5q0 -153 -102 -242.5t-268 -89.5q-183 0 -283 107t-100 319zM844 494q0 -86 51 -136.5t154 -50.5q204 0 204 187q0 180 -186 180q-104 0 -163.5 -49.5
t-59.5 -130.5z" />
    <glyph glyph-name="uni2466" unicode="&#x2466;" horiz-adv-x="2113" 
d="M1057 -303q-207 0 -383 73.5t-295.5 200t-186.5 297t-67 363.5q0 192 67 362.5t186.5 296.5t295.5 199.5t383 73.5t383 -73.5t295.5 -199.5t186.5 -296.5t67 -362.5q0 -193 -67 -363.5t-186.5 -297t-295.5 -200t-383 -73.5zM1057 -158q173 0 322 63.5t250 171
t158.5 251.5t57.5 303q0 158 -57.5 301.5t-158.5 250.5t-250 170.5t-322 63.5t-322 -63.5t-250.5 -170.5t-159 -250.5t-57.5 -301.5q0 -159 57.5 -303t159 -251.5t250.5 -171t322 -63.5zM872 143q0 144 29.5 255t91.5 196t149.5 146t211.5 112v37h-606v145h661v-301
q-199 -78 -282 -215.5t-83 -374.5h-172z" />
    <glyph glyph-name="uni2467" unicode="&#x2467;" horiz-adv-x="2113" 
d="M1057 -303q-207 0 -383 73.5t-295.5 200t-186.5 297t-67 363.5q0 192 67 362.5t186.5 296.5t295.5 199.5t383 73.5t383 -73.5t295.5 -199.5t186.5 -296.5t67 -362.5q0 -193 -67 -363.5t-186.5 -297t-295.5 -200t-383 -73.5zM1057 -158q173 0 322 63.5t250 171
t158.5 251.5t57.5 303q0 158 -57.5 301.5t-158.5 250.5t-250 170.5t-322 63.5t-322 -63.5t-250.5 -170.5t-159 -250.5t-57.5 -301.5q0 -159 57.5 -303t159 -251.5t250.5 -171t322 -63.5zM676 422q0 106 66 162t173 71v31q-81 10 -136.5 58t-55.5 135q0 102 89 160.5
t245 58.5q155 0 243.5 -58.5t88.5 -160.5q0 -87 -55.5 -135t-135.5 -58v-31q108 -15 174 -71t66 -162q0 -115 -100.5 -185.5t-280.5 -70.5t-280.5 70.5t-100.5 185.5zM895 852q0 -49 38.5 -79t123.5 -30q160 0 160 109q0 100 -160 100q-162 0 -162 -100zM848 453
q0 -63 50 -103.5t159 -40.5q108 0 158.5 40.5t50.5 103.5t-50.5 104t-158.5 41q-109 0 -159 -41t-50 -104z" />
    <glyph glyph-name="uni2468" unicode="&#x2468;" horiz-adv-x="2113" 
d="M1057 -303q-207 0 -383 73.5t-295.5 200t-186.5 297t-67 363.5q0 192 67 362.5t186.5 296.5t295.5 199.5t383 73.5t383 -73.5t295.5 -199.5t186.5 -296.5t67 -362.5q0 -193 -67 -363.5t-186.5 -297t-295.5 -200t-383 -73.5zM1057 -158q173 0 322 63.5t250 171
t158.5 251.5t57.5 303q0 158 -57.5 301.5t-158.5 250.5t-250 170.5t-322 63.5t-322 -63.5t-250.5 -170.5t-159 -250.5t-57.5 -301.5q0 -159 57.5 -303t159 -251.5t250.5 -171t322 -63.5zM1462 670q0 -94 -16.5 -173.5t-52.5 -146.5t-90 -111.5t-133.5 -65t-178.5 -9.5
l-194 20v146l215 -21q86 -9 151.5 10.5t103.5 60.5t57 94t19 116l37 88h-37q-22 -98 -106 -168t-213 -70q-146 0 -230.5 86.5t-84.5 237.5q0 152 102 242t268 90q183 0 283 -107t100 -319zM1290 766q0 86 -50 135t-155 49q-106 0 -155 -46t-49 -140q0 -178 188 -178
q104 0 162.5 49.5t58.5 130.5z" />
    <glyph glyph-name="uni24EA" unicode="&#x24ea;" horiz-adv-x="2113" 
d="M1057 1563q207 0 383 -73.5t295.5 -199.5t186.5 -296.5t67 -362.5q0 -193 -67 -363.5t-186.5 -297t-295.5 -200t-383 -73.5t-383 73.5t-295.5 200t-186.5 297t-67 363.5q0 192 67 362.5t186.5 296.5t295.5 199.5t383 73.5zM1057 -158q173 0 322 63.5t250 171t158.5 251.5
t57.5 303q0 158 -57.5 301.5t-158.5 250.5t-250 170.5t-322 63.5t-322 -63.5t-250.5 -170.5t-159 -250.5t-57.5 -301.5q0 -159 57.5 -303t159 -251.5t250.5 -171t322 -63.5zM1059 1098q183 0 283 -129.5t100 -335.5q0 -209 -99.5 -338t-283.5 -129q-185 0 -285 128.5
t-100 338.5q0 206 100.5 335.5t284.5 129.5zM1059 938q-99 0 -156 -79.5t-57 -225.5q0 -97 24 -162l330 408q-53 59 -141 59zM1059 324q103 0 157 79t54 230q0 86 -23 160l-332 -406q54 -63 144 -63z" />
    <glyph glyph-name="uni24FF" unicode="&#x24ff;" horiz-adv-x="2113" 
d="M1057 -303q-207 0 -383 73.5t-295.5 200t-186.5 297t-67 363.5q0 192 67 362.5t186.5 296.5t295.5 199.5t383 73.5t383 -73.5t295.5 -199.5t186.5 -296.5t67 -362.5q0 -193 -67 -363.5t-186.5 -297t-295.5 -200t-383 -73.5zM674 633q0 -210 100 -338.5t285 -128.5
q184 0 283.5 129t99.5 338q0 206 -100 335.5t-283 129.5q-184 0 -284.5 -129.5t-100.5 -335.5zM846 633q0 146 57 225.5t156 79.5q94 0 143 -55l-332 -414q-24 77 -24 164zM918 387l331 410q21 -79 21 -164q0 -155 -50 -232t-161 -77q-84 0 -141 63z" />
    <glyph glyph-name="lozenge" unicode="&#x25ca;" horiz-adv-x="1126" 
d="M737 1444l224 -668l-224 -665h-346l-225 665l225 668h346zM592 164l190 612l-190 613h-55l-195 -613l195 -612h55z" />
    <glyph glyph-name="uni2776" unicode="&#x2776;" horiz-adv-x="2113" 
d="M1057 -303q207 0 383 73.5t295.5 200t186.5 297t67 363.5q0 192 -67 362.5t-186.5 296.5t-295.5 199.5t-383 73.5t-383 -73.5t-295.5 -199.5t-186.5 -296.5t-67 -362.5q0 -193 67 -363.5t186.5 -297t295.5 -200t383 -73.5zM725 739q95 67 129.5 133.5t40.5 202.5h334
v-891h-172v750l22 88h-37q-5 -73 -18.5 -133t-41 -118t-76 -104t-115.5 -77z" />
    <glyph glyph-name="uni2777" unicode="&#x2777;" horiz-adv-x="2113" 
d="M1057 -303q207 0 383 73.5t295.5 200t186.5 297t67 363.5q0 192 -67 362.5t-186.5 296.5t-295.5 199.5t-383 73.5t-383 -73.5t-295.5 -199.5t-186.5 -296.5t-67 -362.5q0 -193 67 -363.5t186.5 -297t295.5 -200t383 -73.5zM680 688q0 206 111.5 318t291.5 112
q164 0 253 -83t89 -220q0 -82 -34 -149t-90.5 -113.5t-141.5 -83.5t-176 -59.5t-205 -40.5v-37l90 18h539v-143h-682v276q27 4 57.5 9t85 18.5t103 30t102 43.5t92 58.5t63.5 76.5t25 96q0 158 -174 158q-116 0 -171.5 -67.5t-55.5 -217.5h-172z" />
    <glyph glyph-name="uni2778" unicode="&#x2778;" horiz-adv-x="2113" 
d="M1057 -303q207 0 383 73.5t295.5 200t186.5 297t67 363.5q0 192 -67 362.5t-186.5 296.5t-295.5 199.5t-383 73.5t-383 -73.5t-295.5 -199.5t-186.5 -296.5t-67 -362.5q0 -193 67 -363.5t186.5 -297t295.5 -200t383 -73.5zM676 522h172q0 -121 55 -167t170 -46
q99 0 147 33t48 107q0 133 -162 133h-100v145h100q149 0 149 111q0 58 -43.5 86t-138.5 28q-110 0 -162.5 -38.5t-52.5 -125.5h-172q0 146 103 228t284 82q167 0 260.5 -69t93.5 -171q0 -153 -204 -188v-37q48 -10 83 -23t67 -36t48.5 -60t16.5 -86q0 -120 -96.5 -191
t-268.5 -71q-187 0 -292 88.5t-105 267.5z" />
    <glyph glyph-name="uni2779" unicode="&#x2779;" horiz-adv-x="2113" 
d="M1057 -303q207 0 383 73.5t295.5 200t186.5 297t67 363.5q0 192 -67 362.5t-186.5 296.5t-295.5 199.5t-383 73.5t-383 -73.5t-295.5 -199.5t-186.5 -296.5t-67 -362.5q0 -193 67 -363.5t186.5 -297t295.5 -200t383 -73.5zM678 354v328q303 114 356 408h172
q-11 -89 -43 -170t-89 -156.5t-147.5 -136.5t-207.5 -99v-36l90 20h315v260h172v-260h117v-158h-117v-155h-172v155h-446z" />
    <glyph glyph-name="uni277A" unicode="&#x277a;" horiz-adv-x="2113" 
d="M1057 -303q207 0 383 73.5t295.5 200t186.5 297t67 363.5q0 192 -67 362.5t-186.5 296.5t-295.5 199.5t-383 73.5t-383 -73.5t-295.5 -199.5t-186.5 -296.5t-67 -362.5q0 -193 67 -363.5t186.5 -297t295.5 -200t383 -73.5zM682 455h172q0 -174 215 -174q217 0 217 190
q0 172 -162 172q-134 0 -206 -113l-201 95v417h663v-145h-491v-176l-19 -70l27 -14q34 64 103 106.5t165 42.5q142 0 217.5 -85t75.5 -226q0 -152 -102 -245t-283 -93q-188 0 -289.5 83.5t-101.5 234.5z" />
    <glyph glyph-name="uni277B" unicode="&#x277b;" horiz-adv-x="2113" 
d="M1057 -303q207 0 383 73.5t295.5 200t186.5 297t67 363.5q0 192 -67 362.5t-186.5 296.5t-295.5 199.5t-383 73.5t-383 -73.5t-295.5 -199.5t-186.5 -296.5t-67 -362.5q0 -193 67 -363.5t186.5 -297t295.5 -200t383 -73.5zM672 590q0 94 16.5 173.5t52.5 146.5t90 111.5
t133.5 64.5t178.5 10l194 -21v-145l-215 20q-166 16 -248.5 -65.5t-82.5 -214.5l-37 -88h37q22 98 106 166.5t215 68.5q145 0 229 -85.5t84 -235.5q0 -153 -102 -242.5t-268 -89.5q-183 0 -283 107t-100 319zM844 494q0 -86 51 -136.5t154 -50.5q204 0 204 187
q0 180 -186 180q-104 0 -163.5 -49.5t-59.5 -130.5z" />
    <glyph glyph-name="uni277C" unicode="&#x277c;" horiz-adv-x="2113" 
d="M1057 -303q207 0 383 73.5t295.5 200t186.5 297t67 363.5q0 192 -67 362.5t-186.5 296.5t-295.5 199.5t-383 73.5t-383 -73.5t-295.5 -199.5t-186.5 -296.5t-67 -362.5q0 -193 67 -363.5t186.5 -297t295.5 -200t383 -73.5zM872 143q0 144 29.5 255t91.5 196t149.5 146
t211.5 112v37h-606v145h661v-301q-199 -78 -282 -215.5t-83 -374.5h-172z" />
    <glyph glyph-name="uni277D" unicode="&#x277d;" horiz-adv-x="2113" 
d="M1057 -303q207 0 383 73.5t295.5 200t186.5 297t67 363.5q0 192 -67 362.5t-186.5 296.5t-295.5 199.5t-383 73.5t-383 -73.5t-295.5 -199.5t-186.5 -296.5t-67 -362.5q0 -193 67 -363.5t186.5 -297t295.5 -200t383 -73.5zM676 422q0 106 66 162t173 71v31
q-81 10 -136.5 58t-55.5 135q0 102 89 160.5t245 58.5q155 0 243.5 -58.5t88.5 -160.5q0 -87 -55.5 -135t-135.5 -58v-31q108 -15 174 -71t66 -162q0 -115 -100.5 -185.5t-280.5 -70.5t-280.5 70.5t-100.5 185.5zM895 852q0 -49 38.5 -79t123.5 -30q160 0 160 109
q0 100 -160 100q-162 0 -162 -100zM848 453q0 -63 50 -103.5t159 -40.5q108 0 158.5 40.5t50.5 103.5t-50.5 104t-158.5 41q-109 0 -159 -41t-50 -104z" />
    <glyph glyph-name="uni277E" unicode="&#x277e;" horiz-adv-x="2113" 
d="M1057 -303q207 0 383 73.5t295.5 200t186.5 297t67 363.5q0 192 -67 362.5t-186.5 296.5t-295.5 199.5t-383 73.5t-383 -73.5t-295.5 -199.5t-186.5 -296.5t-67 -362.5q0 -193 67 -363.5t186.5 -297t295.5 -200t383 -73.5zM1462 670q0 -94 -16.5 -173.5t-52.5 -146.5
t-90 -111.5t-133.5 -65t-178.5 -9.5l-194 20v146l215 -21q86 -9 151.5 10.5t103.5 60.5t57 94t19 116l37 88h-37q-22 -98 -106 -168t-213 -70q-146 0 -230.5 86.5t-84.5 237.5q0 152 102 242t268 90q183 0 283 -107t100 -319zM1290 766q0 86 -50 135t-155 49
q-106 0 -155 -46t-49 -140q0 -178 188 -178q104 0 162.5 49.5t58.5 130.5z" />
    <glyph glyph-name="G.ss01" horiz-adv-x="1609" 
d="M125 723q0 213 82 380.5t237.5 264t360.5 96.5q266 0 430 -147.5t188 -388.5h-200q-14 172 -121 268t-297 96q-233 0 -357 -154t-124 -415q0 -131 25.5 -233.5t78.5 -179t141.5 -117.5t208.5 -41q243 0 365.5 113.5t122.5 352.5h-545v160h610q133 0 133 -125v-653h-198
v184l32 144h-53q-10 -50 -30 -95.5t-58.5 -93t-90 -81.5t-131 -56t-175.5 -22q-124 0 -227.5 36t-178.5 102t-127 158.5t-77 205t-25 241.5z" />
    <glyph glyph-name="Gbreve.ss01" horiz-adv-x="1609" 
d="M1137 1937q0 -162 -87.5 -263t-244.5 -101t-243.5 101t-86.5 263h158q0 -112 40.5 -162.5t131.5 -50.5t132.5 50.5t41.5 162.5h158zM125 723q0 213 82 380.5t237.5 264t360.5 96.5q266 0 430 -147.5t188 -388.5h-200q-14 172 -121 268t-297 96q-233 0 -357 -154
t-124 -415q0 -131 25.5 -233.5t78.5 -179t141.5 -117.5t208.5 -41q243 0 365.5 113.5t122.5 352.5h-545v160h610q133 0 133 -125v-653h-198v184l32 144h-53q-10 -50 -30 -95.5t-58.5 -93t-90 -81.5t-131 -56t-175.5 -22q-124 0 -227.5 36t-178.5 102t-127 158.5t-77 205
t-25 241.5z" />
    <glyph glyph-name="uni0122.ss01" horiz-adv-x="1609" 
d="M125 723q0 213 82 380.5t237.5 264t360.5 96.5q266 0 430 -147.5t188 -388.5h-200q-14 172 -121 268t-297 96q-233 0 -357 -154t-124 -415q0 -131 25.5 -233.5t78.5 -179t141.5 -117.5t208.5 -41q243 0 365.5 113.5t122.5 352.5h-545v160h610q133 0 133 -125v-653h-198
v184l32 144h-53q-10 -50 -30 -95.5t-58.5 -93t-90 -81.5t-131 -56t-175.5 -22q-124 0 -227.5 36t-178.5 102t-127 158.5t-77 205t-25 241.5zM668 -100l166 -50l-113 -339l-164 49z" />
    <glyph glyph-name="Gdotaccent.ss01" horiz-adv-x="1609" 
d="M803 1595q-70 0 -114 41.5t-44 106.5q0 63 44 104t114 41t116 -41t46 -104q0 -64 -45.5 -106t-116.5 -42zM125 723q0 213 82 380.5t237.5 264t360.5 96.5q266 0 430 -147.5t188 -388.5h-200q-14 172 -121 268t-297 96q-233 0 -357 -154t-124 -415q0 -131 25.5 -233.5
t78.5 -179t141.5 -117.5t208.5 -41q243 0 365.5 113.5t122.5 352.5h-545v160h610q133 0 133 -125v-653h-198v184l32 144h-53q-10 -50 -30 -95.5t-58.5 -93t-90 -81.5t-131 -56t-175.5 -22q-124 0 -227.5 36t-178.5 102t-127 158.5t-77 205t-25 241.5z" />
    <glyph glyph-name="i.loclTRK" horiz-adv-x="931" 
d="M414 1171q-70 0 -114 41.5t-44 106.5q0 63 44 104t114 41t115.5 -41t45.5 -104q0 -65 -45.5 -106.5t-115.5 -41.5zM104 0v172h289v694l-221 -18v172l264 20q72 7 107 -30.5t35 -114.5v-723h290v-172h-764z" />
    <glyph glyph-name="a.ss01" horiz-adv-x="1370" 
d="M1227 0h-201v131l35 131h-55q-36 -125 -141 -203.5t-269 -78.5q-148 0 -261 70.5t-172 190.5t-59 271q0 150 59 269t172 189t261 70q163 0 268.5 -78.5t141.5 -201.5h55l-35 129v131h201v-1020zM1026 512q0 93 -28.5 162.5t-79.5 111t-116.5 62t-144.5 20.5
q-162 0 -258 -87t-96 -269q0 -184 96 -272t258 -88q165 0 267 88.5t102 271.5z" />
    <glyph glyph-name="aacute.ss01" horiz-adv-x="1370" 
d="M330 1325l661 166l37 -152l-661 -165zM1227 0h-201v131l35 131h-55q-36 -125 -141 -203.5t-269 -78.5q-148 0 -261 70.5t-172 190.5t-59 271q0 150 59 269t172 189t261 70q163 0 268.5 -78.5t141.5 -201.5h55l-35 129v131h201v-1020zM1026 512q0 93 -28.5 162.5
t-79.5 111t-116.5 62t-144.5 20.5q-162 0 -258 -87t-96 -269q0 -184 96 -272t258 -88q165 0 267 88.5t102 271.5z" />
    <glyph glyph-name="abreve.ss01" horiz-adv-x="1370" 
d="M1016 1513q0 -162 -87.5 -263t-244.5 -101t-243.5 101t-86.5 263h158q0 -112 40.5 -162.5t131.5 -50.5t132.5 50.5t41.5 162.5h158zM1227 0h-201v131l35 131h-55q-36 -125 -141 -203.5t-269 -78.5q-148 0 -261 70.5t-172 190.5t-59 271q0 150 59 269t172 189t261 70
q163 0 268.5 -78.5t141.5 -201.5h55l-35 129v131h201v-1020zM1026 512q0 93 -28.5 162.5t-79.5 111t-116.5 62t-144.5 20.5q-162 0 -258 -87t-96 -269q0 -184 96 -272t258 -88q165 0 267 88.5t102 271.5z" />
    <glyph glyph-name="acircumflex.ss01" horiz-adv-x="1370" 
d="M1038 1251l-112 -110l-242 192l-240 -192l-112 110l352 277zM1227 0h-201v131l35 131h-55q-36 -125 -141 -203.5t-269 -78.5q-148 0 -261 70.5t-172 190.5t-59 271q0 150 59 269t172 189t261 70q163 0 268.5 -78.5t141.5 -201.5h55l-35 129v131h201v-1020zM1026 512
q0 93 -28.5 162.5t-79.5 111t-116.5 62t-144.5 20.5q-162 0 -258 -87t-96 -269q0 -184 96 -272t258 -88q165 0 267 88.5t102 271.5z" />
    <glyph glyph-name="adieresis.ss01" horiz-adv-x="1370" 
d="M461 1171q-70 0 -114 41.5t-44 106.5q0 63 44 104t114 41t116 -41t46 -104q0 -64 -45.5 -106t-116.5 -42zM905 1171q-70 0 -115 41.5t-45 106.5q0 63 45 104t115 41t116 -41t46 -104q0 -64 -45.5 -106t-116.5 -42zM1227 0h-201v131l35 131h-55q-36 -125 -141 -203.5
t-269 -78.5q-148 0 -261 70.5t-172 190.5t-59 271q0 150 59 269t172 189t261 70q163 0 268.5 -78.5t141.5 -201.5h55l-35 129v131h201v-1020zM1026 512q0 93 -28.5 162.5t-79.5 111t-116.5 62t-144.5 20.5q-162 0 -258 -87t-96 -269q0 -184 96 -272t258 -88q165 0 267 88.5
t102 271.5z" />
    <glyph glyph-name="agrave.ss01" horiz-adv-x="1370" 
d="M1040 1325l-36 -151l-662 165l37 152zM1227 0h-201v131l35 131h-55q-36 -125 -141 -203.5t-269 -78.5q-148 0 -261 70.5t-172 190.5t-59 271q0 150 59 269t172 189t261 70q163 0 268.5 -78.5t141.5 -201.5h55l-35 129v131h201v-1020zM1026 512q0 93 -28.5 162.5
t-79.5 111t-116.5 62t-144.5 20.5q-162 0 -258 -87t-96 -269q0 -184 96 -272t258 -88q165 0 267 88.5t102 271.5z" />
    <glyph glyph-name="amacron.ss01" horiz-adv-x="1370" 
d="M334 1415h704v-155l-704 -5v160zM1227 0h-201v131l35 131h-55q-36 -125 -141 -203.5t-269 -78.5q-148 0 -261 70.5t-172 190.5t-59 271q0 150 59 269t172 189t261 70q163 0 268.5 -78.5t141.5 -201.5h55l-35 129v131h201v-1020zM1026 512q0 93 -28.5 162.5t-79.5 111
t-116.5 62t-144.5 20.5q-162 0 -258 -87t-96 -269q0 -184 96 -272t258 -88q165 0 267 88.5t102 271.5z" />
    <glyph glyph-name="aogonek.ss01" horiz-adv-x="1370" 
d="M1104 -238l360 37v-157l-399 -37q-85 -6 -124.5 50.5t-0.5 121.5l123 223h-37v131l35 131h-55q-36 -125 -141 -203.5t-269 -78.5q-148 0 -261 70.5t-172 190.5t-59 271q0 150 59 269t172 189t261 70q163 0 268.5 -78.5t141.5 -201.5h55l-35 129v131h201v-1020h-2z
M657 152q165 0 267 88.5t102 271.5q0 93 -28.5 162.5t-79.5 111t-116.5 62t-144.5 20.5q-162 0 -258 -87t-96 -269q0 -184 96 -272t258 -88z" />
    <glyph glyph-name="aring.ss01" horiz-adv-x="1370" 
d="M682 1143q-120 0 -188 64.5t-68 164.5q0 99 68.5 163t187.5 64q121 0 190.5 -64t69.5 -163t-69.5 -164t-190.5 -65zM682 1282q49 0 75.5 23.5t26.5 66.5q0 41 -27.5 64.5t-74.5 23.5t-72.5 -23t-25.5 -65q0 -43 25.5 -66.5t72.5 -23.5zM1227 0h-201v131l35 131h-55
q-36 -125 -141 -203.5t-269 -78.5q-148 0 -261 70.5t-172 190.5t-59 271q0 150 59 269t172 189t261 70q163 0 268.5 -78.5t141.5 -201.5h55l-35 129v131h201v-1020zM1026 512q0 93 -28.5 162.5t-79.5 111t-116.5 62t-144.5 20.5q-162 0 -258 -87t-96 -269q0 -184 96 -272
t258 -88q165 0 267 88.5t102 271.5z" />
    <glyph glyph-name="atilde.ss01" horiz-adv-x="1370" 
d="M295 1214q0 153 60.5 227.5t166.5 74.5q48 0 90 -17t71 -41t54 -48t51 -41t50 -17q39 0 60.5 29t21.5 114h157q0 -151 -60.5 -226t-166.5 -75q-48 0 -90 17t-71 41t-54 48t-50.5 41t-49.5 17q-39 0 -60.5 -29.5t-21.5 -114.5h-158zM1227 0h-201v131l35 131h-55
q-36 -125 -141 -203.5t-269 -78.5q-148 0 -261 70.5t-172 190.5t-59 271q0 150 59 269t172 189t261 70q163 0 268.5 -78.5t141.5 -201.5h55l-35 129v131h201v-1020zM1026 512q0 93 -28.5 162.5t-79.5 111t-116.5 62t-144.5 20.5q-162 0 -258 -87t-96 -269q0 -184 96 -272
t258 -88q165 0 267 88.5t102 271.5z" />
    <glyph glyph-name="g.ss01" horiz-adv-x="1370" 
d="M1026 1020h201v-1284q0 -65 -37.5 -98.5t-110.5 -32.5l-786 18v172l733 -18v354l35 131h-55q-36 -125 -141 -203.5t-269 -78.5q-148 0 -261 70.5t-172 190.5t-59 271q0 150 59 269t172 189t261 70q163 0 268.5 -78.5t141.5 -201.5h55l-35 129v131zM657 152
q165 0 267 88.5t102 271.5q0 93 -28.5 162.5t-79.5 111t-116.5 62t-144.5 20.5q-162 0 -258 -87t-96 -269q0 -184 96 -272t258 -88z" />
    <glyph glyph-name="gbreve.ss01" horiz-adv-x="1370" 
d="M670 1149q-157 0 -243.5 101t-86.5 263h158q0 -112 40.5 -162.5t131.5 -50.5t132.5 50.5t41.5 162.5h157q0 -162 -87 -263t-244 -101zM1026 1020h201v-1284q0 -65 -37.5 -98.5t-110.5 -32.5l-786 18v172l733 -18v354l35 131h-55q-36 -125 -141 -203.5t-269 -78.5
q-148 0 -261 70.5t-172 190.5t-59 271q0 150 59 269t172 189t261 70q163 0 268.5 -78.5t141.5 -201.5h55l-35 129v131zM657 152q165 0 267 88.5t102 271.5q0 93 -28.5 162.5t-79.5 111t-116.5 62t-144.5 20.5q-162 0 -258 -87t-96 -269q0 -184 96 -272t258 -88z" />
    <glyph glyph-name="uni0123.ss01" horiz-adv-x="1370" 
d="M870 1556l-114 -385l-166 43l112 388zM1026 1020h201v-1284q0 -65 -37.5 -98.5t-110.5 -32.5l-786 18v172l733 -18v354l35 131h-55q-36 -125 -141 -203.5t-269 -78.5q-148 0 -261 70.5t-172 190.5t-59 271q0 150 59 269t172 189t261 70q163 0 268.5 -78.5t141.5 -201.5
h55l-35 129v131zM657 152q165 0 267 88.5t102 271.5q0 93 -28.5 162.5t-79.5 111t-116.5 62t-144.5 20.5q-162 0 -258 -87t-96 -269q0 -184 96 -272t258 -88z" />
    <glyph glyph-name="gdotaccent.ss01" horiz-adv-x="1370" 
d="M668 1171q-70 0 -114 41.5t-44 106.5q0 63 44 104t114 41t115.5 -41t45.5 -104q0 -65 -45.5 -106.5t-115.5 -41.5zM1026 1020h201v-1284q0 -65 -37.5 -98.5t-110.5 -32.5l-786 18v172l733 -18v354l35 131h-55q-36 -125 -141 -203.5t-269 -78.5q-148 0 -261 70.5
t-172 190.5t-59 271q0 150 59 269t172 189t261 70q163 0 268.5 -78.5t141.5 -201.5h55l-35 129v131zM657 152q165 0 267 88.5t102 271.5q0 93 -28.5 162.5t-79.5 111t-116.5 62t-144.5 20.5q-162 0 -258 -87t-96 -269q0 -184 96 -272t258 -88z" />
    <glyph glyph-name="k.ss01" horiz-adv-x="1224" 
d="M1143 1020l-469 -404l469 -616h-238l-373 496l-188 -162v-334h-199v1505h199v-930l510 445h289z" />
    <glyph glyph-name="uni0137.ss01" horiz-adv-x="1224" 
d="M1143 1020l-469 -404l469 -616h-238l-373 496l-188 -162v-334h-199v1505h199v-930l510 445h289zM430 -440l111 340l166 -50l-113 -339z" />
    <glyph glyph-name="uni0438.loclBGR" horiz-adv-x="1271" 
d="M1169 0h-200v854l35 113h-56l-405 -967h-398v1020h199v-850l-35 -115h56l405 965h399v-1020z" />
    <glyph glyph-name="uni0439.loclBGR" horiz-adv-x="1271" 
d="M991 1513q0 -162 -87.5 -263t-244.5 -101t-243 101t-86 263h157q0 -112 40.5 -162.5t131.5 -50.5t133 50.5t42 162.5h157zM1169 0h-200v854l35 113h-56l-405 -967h-398v1020h199v-850l-35 -115h56l405 965h399v-1020z" />
    <glyph glyph-name="uni045D.loclBGR" horiz-adv-x="1271" 
d="M1016 1325l-37 -151l-662 165l37 152zM1169 0h-200v854l35 113h-56l-405 -967h-398v1020h199v-850l-35 -115h56l405 965h399v-1020z" />
    <glyph glyph-name="zero.dnom" horiz-adv-x="933" 
d="M467 911q183 0 283 -129t100 -336q0 -209 -99.5 -337.5t-283.5 -128.5t-283.5 128.5t-99.5 337.5q0 207 100 336t283 129zM467 754q-99 0 -155 -80.5t-56 -227.5q0 -90 23 -161l331 407q-53 62 -143 62zM467 137q103 0 157 79.5t54 229.5q0 86 -23 160l-329 -405
q55 -64 141 -64z" />
    <glyph glyph-name="one.dnom" horiz-adv-x="671" 
d="M84 555q95 67 129.5 133.5t40.5 202.5h334v-891h-172v750l22 86h-37q-5 -73 -18.5 -133t-41 -118.5t-76 -104.5t-115.5 -77z" />
    <glyph glyph-name="two.dnom" horiz-adv-x="911" 
d="M84 483q0 205 111 316.5t292 111.5q164 0 253 -82.5t89 -220.5q0 -81 -34 -148t-91 -114t-142 -83.5t-176 -59t-204 -39.5v-37l88 18h539v-145h-682v279q28 4 57.5 9t85 18t103.5 29t102.5 43t92.5 58.5t63.5 76t25.5 95.5q0 73 -42.5 115.5t-133.5 42.5
q-114 0 -169.5 -67.5t-55.5 -215.5h-172z" />
    <glyph glyph-name="three.dnom" horiz-adv-x="929" 
d="M84 336h172q0 -121 54.5 -166t170.5 -45q99 0 147 32t48 105q0 133 -162 133h-102v146h102q148 0 148 110q0 59 -42.5 87t-138.5 28q-111 0 -163 -37.5t-52 -126.5h-172q0 147 103 228t284 81q167 0 261 -68t94 -171q0 -155 -207 -187v-36q102 -22 159.5 -67t57.5 -138
q0 -121 -97 -192.5t-268 -71.5q-187 0 -292 88.5t-105 267.5z" />
    <glyph glyph-name="four.dnom" horiz-adv-x="901" 
d="M84 156v327q301 114 354 408h172q-11 -88 -43.5 -169.5t-89 -156.5t-146.5 -136t-206 -99v-37l88 20h317v260h172v-260h115v-157h-115v-156h-172v156h-446z" />
    <glyph glyph-name="five.dnom" horiz-adv-x="942" 
d="M84 299h172q0 -174 215 -174q217 0 217 188q0 172 -162 172q-135 0 -207 -112l-200 94v418h663v-144h-491v-176l-19 -69l27 -17q34 66 103 109t165 43q142 0 217.5 -86t75.5 -228q0 -152 -102 -244.5t-283 -92.5q-188 0 -289.5 83t-101.5 236z" />
    <glyph glyph-name="six.dnom" horiz-adv-x="919" 
d="M84 406q0 94 16.5 173.5t52.5 146.5t90 111.5t133.5 64.5t178.5 9l195 -20v-146l-215 21q-86 9 -151.5 -10.5t-104 -60.5t-57.5 -94t-19 -116l-37 -88h37q22 98 106 168t213 70q146 0 231 -86.5t85 -237.5q0 -152 -102.5 -241.5t-268.5 -89.5q-183 0 -283 107t-100 319z
M256 309q0 -86 50 -135t155 -49q106 0 155.5 46t49.5 140q0 178 -189 178q-104 0 -162.5 -49.5t-58.5 -130.5z" />
    <glyph glyph-name="seven.dnom" horiz-adv-x="827" 
d="M207 0q0 191 54.5 327t157.5 225t269 157v36h-604v146h659v-301q-199 -78 -281.5 -215.5t-82.5 -374.5h-172z" />
    <glyph glyph-name="eight.dnom" horiz-adv-x="927" 
d="M84 236q0 200 240 233v31q-81 10 -137 58t-56 134q0 103 88.5 161t245.5 58q155 0 243.5 -58t88.5 -161q0 -86 -55.5 -134t-135.5 -58v-31q240 -33 240 -233q0 -115 -100.5 -185.5t-280.5 -70.5t-280.5 70.5t-100.5 185.5zM303 666q0 -49 38.5 -79t123.5 -30q84 0 122 30
t38 79q0 100 -160 100q-162 0 -162 -100zM256 268q0 -63 50 -103t159 -40q108 0 158.5 40t50.5 103t-50.5 103.5t-158.5 40.5q-109 0 -159 -40.5t-50 -103.5z" />
    <glyph glyph-name="nine.dnom" horiz-adv-x="919" 
d="M836 489q0 -94 -16.5 -173.5t-52.5 -146.5t-90 -111.5t-133.5 -64.5t-178.5 -9l-195 20v146l215 -21q86 -9 151.5 10.5t104 60.5t57.5 94t19 116l37 88h-37q-22 -98 -106.5 -168t-213.5 -70q-146 0 -230.5 86.5t-84.5 237.5q0 152 102.5 241.5t268.5 89.5q183 0 283 -107
t100 -319zM664 586q0 86 -50 135t-155 49q-106 0 -155.5 -46t-49.5 -140q0 -178 188 -178q104 0 163 49.5t59 130.5z" />
    <glyph glyph-name="zero.numr" horiz-adv-x="933" 
d="M467 1522q183 0 283 -129t100 -336q0 -209 -99.5 -338t-283.5 -129t-283.5 129t-99.5 338q0 207 100 336t283 129zM467 1364q-99 0 -155 -80t-56 -227q0 -91 23 -162l331 408q-52 61 -143 61zM467 748q103 0 157 79.5t54 229.5q0 86 -23 160l-329 -406q54 -63 141 -63z
" />
    <glyph glyph-name="one.numr" horiz-adv-x="671" 
d="M84 1149q95 67 129.5 133.5t40.5 202.5h334v-891h-172v749l22 87h-37q-5 -73 -18.5 -133t-41 -118.5t-76 -104.5t-115.5 -77z" />
    <glyph glyph-name="two.numr" horiz-adv-x="911" 
d="M84 1085q0 205 111 316.5t292 111.5q164 0 253 -82.5t89 -220.5q0 -81 -34 -148t-91 -114t-142 -83.5t-176 -59t-204 -39.5v-37l88 19h539v-146h-682v279q28 4 57.5 9t85 18t103.5 29t102.5 43t92.5 58.5t63.5 76t25.5 95.5q0 73 -42.5 115.5t-133.5 42.5
q-114 0 -169.5 -67.5t-55.5 -215.5h-172z" />
    <glyph glyph-name="three.numr" horiz-adv-x="929" 
d="M84 938h172q0 -121 54.5 -166t170.5 -45q99 0 147 32t48 105q0 133 -162 133h-102v146h102q148 0 148 110q0 59 -42.5 87t-138.5 28q-111 0 -163 -37.5t-52 -126.5h-172q0 147 103 228t284 81q167 0 261 -68t94 -171q0 -155 -207 -187v-36q102 -22 159.5 -67t57.5 -138
q0 -121 -97 -192.5t-268 -71.5q-187 0 -292 88.5t-105 267.5z" />
    <glyph glyph-name="four.numr" horiz-adv-x="901" 
d="M84 750v327q301 114 354 408h172q-11 -88 -43.5 -169.5t-89 -156.5t-146.5 -136t-206 -99v-37l88 20h317v260h172v-260h115v-157h-115v-156h-172v156h-446z" />
    <glyph glyph-name="five.numr" horiz-adv-x="942" 
d="M84 901h172q0 -174 215 -174q217 0 217 188q0 172 -162 172q-135 0 -207 -112l-200 94v418h663v-144h-491v-176l-19 -69l27 -17q34 66 103 109t165 43q142 0 217.5 -86t75.5 -227q0 -152 -102 -245t-283 -93q-188 0 -289.5 83t-101.5 236z" />
    <glyph glyph-name="six.numr" horiz-adv-x="919" 
d="M84 1018q0 94 16.5 173.5t52.5 146.5t90 111.5t133.5 65t178.5 9.5l195 -21v-145l-215 20q-86 9 -151.5 -10t-104 -60t-57.5 -94t-19 -116l-37 -88h37q22 98 105.5 167.5t213.5 69.5q147 0 231.5 -86.5t84.5 -236.5q0 -152 -102.5 -242t-268.5 -90q-183 0 -283 107
t-100 319zM256 922q0 -86 50.5 -135.5t154.5 -49.5q106 0 155.5 46.5t49.5 140.5q0 178 -189 178q-104 0 -162.5 -49.5t-58.5 -130.5z" />
    <glyph glyph-name="seven.numr" horiz-adv-x="827" 
d="M207 594q0 191 54.5 327t157.5 225t269 157v36h-604v146h659v-301q-199 -78 -281.5 -215.5t-82.5 -374.5h-172z" />
    <glyph glyph-name="eight.numr" horiz-adv-x="927" 
d="M84 846q0 200 240 233v31q-81 10 -137 58.5t-56 134.5q0 103 88.5 161t245.5 58q155 0 243.5 -58t88.5 -161q0 -86 -56 -134.5t-135 -58.5v-31q240 -33 240 -233q0 -115 -100.5 -185.5t-280.5 -70.5t-280.5 70.5t-100.5 185.5zM303 1276q0 -49 38.5 -79t123.5 -30
q84 0 122 30t38 79q0 100 -160 100q-162 0 -162 -100zM256 879q0 -63 50 -103.5t159 -40.5q108 0 158.5 40.5t50.5 103.5t-50.5 103t-158.5 40q-109 0 -159 -40t-50 -103z" />
    <glyph glyph-name="nine.numr" horiz-adv-x="919" 
d="M836 1102q0 -94 -16.5 -173.5t-52.5 -146.5t-90 -111.5t-133.5 -65t-178.5 -9.5l-195 20v146l215 -21q86 -9 151.5 10.5t104 60.5t57.5 94t19 116l37 88h-37q-22 -98 -106.5 -168t-213.5 -70q-146 0 -230.5 86.5t-84.5 237.5q0 152 102.5 242t268.5 90q183 0 283 -107
t100 -319zM664 1198q0 86 -50 135t-155 49q-106 0 -155.5 -46t-49.5 -140q0 -178 188 -178q104 0 163 49.5t59 130.5z" />
    <glyph glyph-name="colon.case" horiz-adv-x="692" 
d="M344 899q-77 0 -127.5 52.5t-50.5 129.5q0 76 50.5 128.5t127.5 52.5q76 0 129 -53t53 -128q0 -77 -53 -129.5t-129 -52.5zM344 182q-77 0 -127.5 53t-50.5 130q0 76 50.5 128t127.5 52q76 0 129 -52.5t53 -127.5q0 -77 -53 -130t-129 -53z" />
    <glyph glyph-name="bullet.case" horiz-adv-x="1388" 
d="M690 193q-151 0 -271.5 70t-187.5 191.5t-67 270.5q0 223 149 374.5t377 151.5q224 0 378.5 -152.5t154.5 -373.5q0 -148 -70.5 -270.5t-193 -192t-269.5 -69.5z" />
    <glyph glyph-name="parenleft.case" horiz-adv-x="888" 
d="M725 0v-154q-147 30 -256 107.5t-174.5 193.5t-97 259.5t-31.5 316.5t31.5 316t97 258.5t174.5 192.5t256 107v-153q-106 -28 -181.5 -90t-120 -156t-65 -210.5t-20.5 -264.5t20.5 -264.5t65 -211t120 -157t181.5 -90.5z" />
    <glyph glyph-name="parenright.case" horiz-adv-x="888" 
d="M166 0q106 28 181.5 90.5t120 157t65 211t20.5 264.5t-20.5 264.5t-65 210.5t-120 156t-181.5 90v153q147 -30 256 -107t174.5 -192.5t97 -258.5t31.5 -316t-31.5 -316.5t-97 -259.5t-174.5 -193.5t-256 -107.5v154z" />
    <glyph glyph-name="braceleft.case" horiz-adv-x="1230" 
d="M610 1442l-129 35v-56q222 -65 321 -180t99 -278q0 -108 -72 -246q72 -138 72 -246q0 -163 -99 -278.5t-321 -180.5v-55l129 35h455v-146h-639v250q174 70 245.5 167t71.5 243q0 36 -6 74q-135 -152 -276 -152q-126 0 -210.5 77.5t-84.5 211.5q0 135 82.5 212t212.5 77
q141 0 276 -152q6 37 6 74q0 146 -71 242.5t-246 166.5v250h639v-145h-455zM481 567q56 0 111 41t94 109q-39 67 -94 108t-111 41q-63 0 -103 -40.5t-40 -108.5t40 -109t103 -41z" />
    <glyph glyph-name="braceright.case" horiz-adv-x="1177" 
d="M717 428q-142 0 -277 152q-6 -37 -6 -74q0 -147 71 -243.5t247 -166.5v-250h-639v146h454l129 -35v55q-222 65 -321 180.5t-99 278.5q0 108 72 246q-72 138 -72 246q0 163 99 278t321 180v56l-129 -35h-454v145h639v-250q-176 -70 -247 -166.5t-71 -242.5q0 -36 6 -74
q135 152 277 152q130 0 212.5 -77t82.5 -212q0 -134 -84.5 -211.5t-210.5 -77.5zM696 866q-56 0 -110.5 -40.5t-93.5 -108.5q39 -68 93.5 -109t110.5 -41q63 0 103.5 41t40.5 109t-40.5 108.5t-103.5 40.5z" />
    <glyph glyph-name="bracketleft.case" horiz-adv-x="894" 
d="M166 1597h563v-145h-393v-1460h393v-146h-563v1751z" />
    <glyph glyph-name="bracketright.case" horiz-adv-x="894" 
d="M729 1597v-1751h-563v146h393v1460h-393v145h563z" />
    <glyph glyph-name="braceleft.ss01" horiz-adv-x="968" 
d="M166 655q80 7 139.5 26.5t93.5 45t54.5 60t27 65.5t6.5 68q0 116 -60.5 184.5t-170.5 83.5v256h547v-146h-389l-103 35v-55q184 -39 266 -128t82 -232q0 -130 -84.5 -216t-234.5 -108v-53q150 -22 234.5 -109t84.5 -217q0 -141 -82 -228.5t-266 -127.5v-56l103 35h389
v-145h-547v256q110 15 170.5 82.5t60.5 181.5q0 47 -12 85.5t-44 78.5t-99.5 67t-165.5 35v176z" />
    <glyph glyph-name="braceright.ss01" horiz-adv-x="968" 
d="M803 655v-176q-80 -7 -139.5 -26.5t-93.5 -45t-55 -60.5t-27.5 -66.5t-6.5 -67.5q0 -114 61 -181.5t171 -82.5v-256h-547v145h389l102 -35v56q-184 40 -266 127.5t-82 228.5q0 130 85 217t235 109v53q-150 22 -235 108.5t-85 215.5q0 143 82 232t266 128v55l-102 -35
h-389v146h547v-256q-110 -15 -171 -84t-61 -184q0 -36 6.5 -67.5t27.5 -66t55 -60t93.5 -45t139.5 -26.5z" />
    <glyph glyph-name="braceleft.case.ss01" horiz-adv-x="968" 
d="M166 809q98 8 165.5 34.5t99.5 66.5t44 78t12 85q0 116 -60.5 184.5t-170.5 83.5v256h547v-145h-389l-103 35v-55q184 -39 266 -128.5t82 -232.5q0 -129 -84.5 -215t-234.5 -108v-54q150 -22 234.5 -108.5t84.5 -216.5q0 -141 -82 -229t-266 -128v-55l103 35h389v-146
h-547v256q110 15 170.5 83t60.5 182q0 47 -12 85.5t-44 78.5t-99.5 67t-165.5 35v176z" />
    <glyph glyph-name="braceright.case.ss01" horiz-adv-x="968" 
d="M803 809v-176q-80 -7 -139.5 -26.5t-93.5 -45t-55 -60.5t-27.5 -66.5t-6.5 -67.5q0 -114 61 -182t171 -83v-256h-547v146h389l102 -35v55q-184 40 -266 128t-82 229q0 130 85 216.5t235 108.5v54q-150 22 -235 108t-85 215q0 143 82 232.5t266 128.5v55l-102 -35h-389
v145h547v-256q-110 -15 -171 -84t-61 -184q0 -36 6.5 -67t27.5 -66t55 -60t93.5 -44.5t139.5 -26.5z" />
    <glyph glyph-name="hyphen.case" horiz-adv-x="1333" 
d="M166 803h1001v-160h-1001v160z" />
    <glyph glyph-name="endash.case" horiz-adv-x="1748" 
d="M166 803h1417v-160h-1417v160z" />
    <glyph glyph-name="emdash.case" horiz-adv-x="2158" 
d="M166 803h1827v-160h-1827v160z" />
    <glyph glyph-name="guillemotleft.case" horiz-adv-x="1497" 
d="M872 250l-122 -111l-584 584l584 582l122 -111l-473 -471zM1331 250l-123 -111l-583 584l583 582l123 -111l-473 -471z" />
    <glyph glyph-name="guillemotright.case" horiz-adv-x="1511" 
d="M178 250l475 473l-475 471l123 111l586 -582l-586 -584zM637 250l475 473l-475 471l123 111l586 -582l-586 -584z" />
    <glyph glyph-name="guilsinglleft.case" horiz-adv-x="1038" 
d="M872 250l-122 -111l-584 584l584 582l122 -111l-473 -471z" />
    <glyph glyph-name="guilsinglright.case" horiz-adv-x="1052" 
d="M178 250l475 473l-475 471l123 111l586 -582l-586 -584z" />
    <glyph glyph-name="ampersand.ss01" horiz-adv-x="1783" 
d="M1620 78l-98 -150q-171 104 -316 205q-230 -153 -522 -153q-232 0 -375 100t-143 282q0 83 26.5 149.5t77 114.5t106 80.5t132.5 63.5q-107 160 -107 301q0 187 124 290t339 103q183 0 292.5 -90t109.5 -241q0 -81 -32 -146t-97.5 -115.5t-143 -88t-192.5 -78.5
q155 -166 403 -349q103 105 159 259.5t56 347.5h199q0 -215 -70 -396.5t-198 -314.5q132 -88 270 -174zM600 1071q0 -98 94 -235q1 1 5 2t6 2q200 68 280 125.5t80 154.5q0 84 -52.5 128t-154.5 44q-129 0 -193.5 -58.5t-64.5 -162.5zM684 152q209 0 371 90
q-280 205 -443 391q-130 -57 -188.5 -116.5t-58.5 -151.5q0 -100 88 -156.5t231 -56.5z" />
    <glyph glyph-name="brevecombcy" horiz-adv-x="0" 
d="M-166 1513q0 -162 -87.5 -263t-244.5 -101t-243 101t-86 263h157q0 -112 40.5 -162.5t131.5 -50.5t132.5 50.5t41.5 162.5h158z" />
    </font>
</defs>
</svg>
