<svg width="35" height="30" viewBox="0 0 35 30" fill="none" xmlns="http://www.w3.org/2000/svg">
<path d="M31.9216 10.6986L29.5954 4.00889C29.2579 3.03516 28.6088 2.1881 27.7403 1.58808C26.8718 0.988058 25.8281 0.665594 24.7575 0.666506H9.25238C8.18173 0.665594 7.13801 0.988058 6.26952 1.58808C5.40103 2.1881 4.75194 3.03516 4.41448 4.00889L2.0882 10.6986C1.47027 10.947 0.942544 11.3647 0.571101 11.8992C0.199659 12.4337 0.00100174 13.0614 0 13.7036V21.8518C0 23.0789 0.719308 24.1366 1.76681 24.6923C1.74471 24.7998 1.70049 24.8976 1.70049 25.01V28.3704C1.70049 28.8026 1.87965 29.2171 2.19856 29.5227C2.51746 29.8283 2.94999 30 3.40099 30H5.10148C5.55248 30 5.985 29.8283 6.30391 29.5227C6.62281 29.2171 6.80197 28.8026 6.80197 28.3704V25.1111H27.2079V28.3704C27.2079 28.8026 27.387 29.2171 27.7059 29.5227C28.0248 29.8283 28.4574 30 28.9084 30H30.6089C31.0599 30 31.4924 29.8283 31.8113 29.5227C32.1302 29.2171 32.3094 28.8026 32.3094 28.3704V25.01C32.3094 24.8976 32.2651 24.7982 32.243 24.6923C32.776 24.4138 33.2211 24.0033 33.5319 23.5037C33.8427 23.004 34.0078 22.4335 34.0098 21.8518V13.7036C34.0098 12.3526 33.146 11.1923 31.9216 10.6986ZM3.40099 21.8518V13.7036H30.6089L30.6123 21.8518H3.40099ZM9.25238 3.92578H24.7558C25.4887 3.92578 26.1383 4.3723 26.3695 5.04046L28.2503 10.4443H5.75957L7.63861 5.04046C7.75144 4.71582 7.96803 4.43346 8.25768 4.23339C8.54732 4.03332 8.89534 3.9257 9.25238 3.92578Z" fill="black"/>
<path d="M7.65218 20.2222C9.06091 20.2222 10.2029 19.1277 10.2029 17.7777C10.2029 16.4277 9.06091 15.3333 7.65218 15.3333C6.24344 15.3333 5.10144 16.4277 5.10144 17.7777C5.10144 19.1277 6.24344 20.2222 7.65218 20.2222Z" fill="black"/>
<path d="M26.3576 20.2222C27.7664 20.2222 28.9084 19.1277 28.9084 17.7777C28.9084 16.4277 27.7664 15.3333 26.3576 15.3333C24.9489 15.3333 23.8069 16.4277 23.8069 17.7777C23.8069 19.1277 24.9489 20.2222 26.3576 20.2222Z" fill="black"/>
</svg>
