<svg width="34" height="34" viewBox="0 0 34 34" fill="none" xmlns="http://www.w3.org/2000/svg">
<path d="M31.4547 2.54529C32.0826 3.28737 32.1682 4.3434 31.7116 5.71338C31.255 7.08337 30.4844 8.31065 29.3999 9.39522L25.9538 12.8416L29.3785 27.7402C29.4498 28.0113 29.3642 28.2468 29.1216 28.4466L26.3818 30.5016C26.282 30.5872 26.1464 30.63 25.9752 30.63C25.9181 30.63 25.8681 30.6229 25.8253 30.6086C25.6113 30.5658 25.4614 30.4516 25.3758 30.2661L19.4039 19.3918L13.8601 24.936L14.9946 29.0888C15.0659 29.3314 15.0088 29.5526 14.8233 29.7524L12.7685 31.8073C12.6401 31.9358 12.476 32 12.2762 32H12.2334C12.0193 31.9715 11.8481 31.8787 11.7197 31.7217L7.67418 26.3274L2.28021 22.2817C2.12324 22.1818 2.03049 22.0177 2.00195 21.7893C1.98768 21.6038 2.05189 21.4254 2.19459 21.2542L4.24943 19.1778C4.37786 19.0493 4.54196 18.9851 4.74174 18.9851C4.82736 18.9851 4.88444 18.9923 4.91298 19.0065L9.06548 20.1411L14.6093 14.5969L3.73572 8.62461C3.53595 8.51044 3.41465 8.33919 3.37184 8.11086C3.3433 7.88253 3.40752 7.68988 3.56449 7.5329L6.30428 4.79292C6.50406 4.60741 6.7181 4.55032 6.94642 4.62168L21.1805 8.02524L24.6053 4.60027C25.6898 3.5157 26.917 2.74508 28.2869 2.28842C29.6568 1.83176 30.7127 1.91738 31.4547 2.54529Z" stroke="black" stroke-width="3"/>
</svg>
