<svg width="28" height="33" viewBox="0 0 28 33" fill="none" xmlns="http://www.w3.org/2000/svg">
<path d="M8.09574 22.6331C9.49326 22.6331 10.6262 21.5474 10.6262 20.2081C10.6262 18.8688 9.49326 17.7831 8.09574 17.7831C6.69822 17.7831 5.56531 18.8688 5.56531 20.2081C5.56531 21.5474 6.69822 22.6331 8.09574 22.6331Z" fill="black"/>
<path d="M19.9043 22.6331C21.3019 22.6331 22.4348 21.5474 22.4348 20.2081C22.4348 18.8688 21.3019 17.7831 19.9043 17.7831C18.5068 17.7831 17.3739 18.8688 17.3739 20.2081C17.3739 21.5474 18.5068 22.6331 19.9043 22.6331Z" fill="black"/>
<path d="M25.5894 2.16633C25.0815 1.54872 24.4465 1.03773 23.724 0.665071C23.0014 0.292413 22.2066 0.0660407 21.3889 0H6.61118C5.78731 0.058009 4.98559 0.282471 4.25871 0.65863C3.53183 1.03479 2.89626 1.55413 2.39379 2.1825C1.27172 3.36174 0.604929 4.87368 0.504395 6.46667V25.8667C0.504395 26.2954 0.682127 26.7066 0.998493 27.0098C1.31486 27.313 1.74394 27.4833 2.19135 27.4833H5.56526L2.19135 32.3333H6.10509L7.25222 30.7167H20.7479L21.895 32.3333H25.8087L22.4348 27.4833H25.8087C26.2562 27.4833 26.6852 27.313 27.0016 27.0098C27.318 26.7066 27.4957 26.2954 27.4957 25.8667V6.46667C27.4185 4.86064 26.742 3.33459 25.5894 2.16633ZM6.61118 3.23333H21.3214C21.9961 3.39024 22.5926 3.76754 23.0084 4.30033C23.1613 4.47461 23.3021 4.65822 23.4301 4.85H4.53622C4.65805 4.64918 4.79925 4.45974 4.95796 4.28417C5.35566 3.7512 5.94414 3.37714 6.61118 3.23333ZM3.87831 9.7V8.08333H24.1218V12.9333H3.87831V9.7ZM24.1218 24.25H3.87831V16.1667H24.1218V24.25Z" fill="black"/>
</svg>
